G75*
%MOIN*%
%OFA0B0*%
%FSLAX25Y25*%
%IPPOS*%
%LPD*%
%AMOC8*
5,1,8,0,0,1.08239X$1,22.5*
%
%ADD10C,0.01500*%
%ADD11C,0.00000*%
%ADD12C,0.11424*%
%ADD13C,0.08668*%
%ADD14R,0.07800X0.07800*%
%ADD15C,0.07800*%
%ADD16R,0.07800X0.07800*%
%ADD17C,0.06400*%
%ADD18C,0.05156*%
%ADD19C,0.04400*%
%ADD20C,0.00987*%
%ADD21C,0.02956*%
%ADD22C,0.03940*%
%ADD23OC8,0.07800*%
%ADD24C,0.07000*%
%ADD25C,0.13400*%
%ADD26C,0.13455*%
%ADD27C,0.06022*%
D10*
X0001750Y0006000D02*
X0545321Y0006000D01*
X0545321Y0096512D01*
X0476238Y0096512D01*
X0411750Y0161000D01*
X0273404Y0161512D01*
X0250864Y0184051D01*
X0001750Y0184051D01*
X0001750Y0006000D01*
D11*
X0301238Y0141000D02*
X0301240Y0141148D01*
X0301246Y0141296D01*
X0301256Y0141444D01*
X0301270Y0141591D01*
X0301288Y0141738D01*
X0301309Y0141884D01*
X0301335Y0142030D01*
X0301365Y0142175D01*
X0301398Y0142319D01*
X0301436Y0142462D01*
X0301477Y0142604D01*
X0301522Y0142745D01*
X0301570Y0142885D01*
X0301623Y0143024D01*
X0301679Y0143161D01*
X0301739Y0143296D01*
X0301802Y0143430D01*
X0301869Y0143562D01*
X0301940Y0143692D01*
X0302014Y0143820D01*
X0302091Y0143946D01*
X0302172Y0144070D01*
X0302256Y0144192D01*
X0302343Y0144311D01*
X0302434Y0144428D01*
X0302528Y0144543D01*
X0302624Y0144655D01*
X0302724Y0144765D01*
X0302826Y0144871D01*
X0302932Y0144975D01*
X0303040Y0145076D01*
X0303151Y0145174D01*
X0303264Y0145270D01*
X0303380Y0145362D01*
X0303498Y0145451D01*
X0303619Y0145536D01*
X0303742Y0145619D01*
X0303867Y0145698D01*
X0303994Y0145774D01*
X0304123Y0145846D01*
X0304254Y0145915D01*
X0304387Y0145980D01*
X0304522Y0146041D01*
X0304658Y0146099D01*
X0304795Y0146154D01*
X0304934Y0146204D01*
X0305075Y0146251D01*
X0305216Y0146294D01*
X0305359Y0146334D01*
X0305503Y0146369D01*
X0305647Y0146401D01*
X0305793Y0146428D01*
X0305939Y0146452D01*
X0306086Y0146472D01*
X0306233Y0146488D01*
X0306380Y0146500D01*
X0306528Y0146508D01*
X0306676Y0146512D01*
X0306824Y0146512D01*
X0306972Y0146508D01*
X0307120Y0146500D01*
X0307267Y0146488D01*
X0307414Y0146472D01*
X0307561Y0146452D01*
X0307707Y0146428D01*
X0307853Y0146401D01*
X0307997Y0146369D01*
X0308141Y0146334D01*
X0308284Y0146294D01*
X0308425Y0146251D01*
X0308566Y0146204D01*
X0308705Y0146154D01*
X0308842Y0146099D01*
X0308978Y0146041D01*
X0309113Y0145980D01*
X0309246Y0145915D01*
X0309377Y0145846D01*
X0309506Y0145774D01*
X0309633Y0145698D01*
X0309758Y0145619D01*
X0309881Y0145536D01*
X0310002Y0145451D01*
X0310120Y0145362D01*
X0310236Y0145270D01*
X0310349Y0145174D01*
X0310460Y0145076D01*
X0310568Y0144975D01*
X0310674Y0144871D01*
X0310776Y0144765D01*
X0310876Y0144655D01*
X0310972Y0144543D01*
X0311066Y0144428D01*
X0311157Y0144311D01*
X0311244Y0144192D01*
X0311328Y0144070D01*
X0311409Y0143946D01*
X0311486Y0143820D01*
X0311560Y0143692D01*
X0311631Y0143562D01*
X0311698Y0143430D01*
X0311761Y0143296D01*
X0311821Y0143161D01*
X0311877Y0143024D01*
X0311930Y0142885D01*
X0311978Y0142745D01*
X0312023Y0142604D01*
X0312064Y0142462D01*
X0312102Y0142319D01*
X0312135Y0142175D01*
X0312165Y0142030D01*
X0312191Y0141884D01*
X0312212Y0141738D01*
X0312230Y0141591D01*
X0312244Y0141444D01*
X0312254Y0141296D01*
X0312260Y0141148D01*
X0312262Y0141000D01*
X0312260Y0140852D01*
X0312254Y0140704D01*
X0312244Y0140556D01*
X0312230Y0140409D01*
X0312212Y0140262D01*
X0312191Y0140116D01*
X0312165Y0139970D01*
X0312135Y0139825D01*
X0312102Y0139681D01*
X0312064Y0139538D01*
X0312023Y0139396D01*
X0311978Y0139255D01*
X0311930Y0139115D01*
X0311877Y0138976D01*
X0311821Y0138839D01*
X0311761Y0138704D01*
X0311698Y0138570D01*
X0311631Y0138438D01*
X0311560Y0138308D01*
X0311486Y0138180D01*
X0311409Y0138054D01*
X0311328Y0137930D01*
X0311244Y0137808D01*
X0311157Y0137689D01*
X0311066Y0137572D01*
X0310972Y0137457D01*
X0310876Y0137345D01*
X0310776Y0137235D01*
X0310674Y0137129D01*
X0310568Y0137025D01*
X0310460Y0136924D01*
X0310349Y0136826D01*
X0310236Y0136730D01*
X0310120Y0136638D01*
X0310002Y0136549D01*
X0309881Y0136464D01*
X0309758Y0136381D01*
X0309633Y0136302D01*
X0309506Y0136226D01*
X0309377Y0136154D01*
X0309246Y0136085D01*
X0309113Y0136020D01*
X0308978Y0135959D01*
X0308842Y0135901D01*
X0308705Y0135846D01*
X0308566Y0135796D01*
X0308425Y0135749D01*
X0308284Y0135706D01*
X0308141Y0135666D01*
X0307997Y0135631D01*
X0307853Y0135599D01*
X0307707Y0135572D01*
X0307561Y0135548D01*
X0307414Y0135528D01*
X0307267Y0135512D01*
X0307120Y0135500D01*
X0306972Y0135492D01*
X0306824Y0135488D01*
X0306676Y0135488D01*
X0306528Y0135492D01*
X0306380Y0135500D01*
X0306233Y0135512D01*
X0306086Y0135528D01*
X0305939Y0135548D01*
X0305793Y0135572D01*
X0305647Y0135599D01*
X0305503Y0135631D01*
X0305359Y0135666D01*
X0305216Y0135706D01*
X0305075Y0135749D01*
X0304934Y0135796D01*
X0304795Y0135846D01*
X0304658Y0135901D01*
X0304522Y0135959D01*
X0304387Y0136020D01*
X0304254Y0136085D01*
X0304123Y0136154D01*
X0303994Y0136226D01*
X0303867Y0136302D01*
X0303742Y0136381D01*
X0303619Y0136464D01*
X0303498Y0136549D01*
X0303380Y0136638D01*
X0303264Y0136730D01*
X0303151Y0136826D01*
X0303040Y0136924D01*
X0302932Y0137025D01*
X0302826Y0137129D01*
X0302724Y0137235D01*
X0302624Y0137345D01*
X0302528Y0137457D01*
X0302434Y0137572D01*
X0302343Y0137689D01*
X0302256Y0137808D01*
X0302172Y0137930D01*
X0302091Y0138054D01*
X0302014Y0138180D01*
X0301940Y0138308D01*
X0301869Y0138438D01*
X0301802Y0138570D01*
X0301739Y0138704D01*
X0301679Y0138839D01*
X0301623Y0138976D01*
X0301570Y0139115D01*
X0301522Y0139255D01*
X0301477Y0139396D01*
X0301436Y0139538D01*
X0301398Y0139681D01*
X0301365Y0139825D01*
X0301335Y0139970D01*
X0301309Y0140116D01*
X0301288Y0140262D01*
X0301270Y0140409D01*
X0301256Y0140556D01*
X0301246Y0140704D01*
X0301240Y0140852D01*
X0301238Y0141000D01*
D12*
X0306750Y0141000D03*
D13*
X0329604Y0137811D03*
X0377636Y0137811D03*
X0321730Y0114189D03*
X0329604Y0090567D03*
X0329604Y0075311D03*
X0377636Y0075311D03*
X0377636Y0090567D03*
X0321730Y0051689D03*
X0329604Y0028067D03*
X0377636Y0028067D03*
D14*
X0240250Y0032937D03*
X0141750Y0067000D03*
X0126376Y0019228D03*
X0229156Y0164937D03*
D15*
X0239156Y0164937D03*
X0039550Y0103900D03*
X0013950Y0103900D03*
X0013950Y0086100D03*
X0039550Y0086100D03*
X0026305Y0144649D03*
X0028041Y0154497D03*
X0029778Y0164345D03*
X0250250Y0032937D03*
X0260250Y0032937D03*
X0270250Y0032937D03*
X0280250Y0032937D03*
X0290250Y0032937D03*
X0116376Y0019228D03*
X0106376Y0019228D03*
X0096376Y0019228D03*
D16*
G36*
X0026997Y0171030D02*
X0028351Y0178710D01*
X0036031Y0177356D01*
X0034677Y0169676D01*
X0026997Y0171030D01*
G37*
D17*
X0059750Y0160000D02*
X0059750Y0154000D01*
X0112750Y0154000D02*
X0112750Y0160000D01*
D18*
X0201250Y0032000D03*
X0210644Y0032000D03*
X0220250Y0032000D03*
D19*
X0167742Y0172531D02*
X0167742Y0176531D01*
X0141758Y0176531D02*
X0141758Y0172531D01*
D20*
X0149138Y0167644D02*
X0150126Y0167644D01*
X0150126Y0162324D01*
X0149138Y0162324D01*
X0149138Y0167644D01*
X0149138Y0163310D02*
X0150126Y0163310D01*
X0150126Y0164296D02*
X0149138Y0164296D01*
X0149138Y0165282D02*
X0150126Y0165282D01*
X0150126Y0166268D02*
X0149138Y0166268D01*
X0149138Y0167254D02*
X0150126Y0167254D01*
X0151697Y0167644D02*
X0152685Y0167644D01*
X0152685Y0162324D01*
X0151697Y0162324D01*
X0151697Y0167644D01*
X0151697Y0163310D02*
X0152685Y0163310D01*
X0152685Y0164296D02*
X0151697Y0164296D01*
X0151697Y0165282D02*
X0152685Y0165282D01*
X0152685Y0166268D02*
X0151697Y0166268D01*
X0151697Y0167254D02*
X0152685Y0167254D01*
X0154256Y0167644D02*
X0155244Y0167644D01*
X0155244Y0162324D01*
X0154256Y0162324D01*
X0154256Y0167644D01*
X0154256Y0163310D02*
X0155244Y0163310D01*
X0155244Y0164296D02*
X0154256Y0164296D01*
X0154256Y0165282D02*
X0155244Y0165282D01*
X0155244Y0166268D02*
X0154256Y0166268D01*
X0154256Y0167254D02*
X0155244Y0167254D01*
X0156815Y0167644D02*
X0157803Y0167644D01*
X0157803Y0162324D01*
X0156815Y0162324D01*
X0156815Y0167644D01*
X0156815Y0163310D02*
X0157803Y0163310D01*
X0157803Y0164296D02*
X0156815Y0164296D01*
X0156815Y0165282D02*
X0157803Y0165282D01*
X0157803Y0166268D02*
X0156815Y0166268D01*
X0156815Y0167254D02*
X0157803Y0167254D01*
X0159374Y0167644D02*
X0160362Y0167644D01*
X0160362Y0162324D01*
X0159374Y0162324D01*
X0159374Y0167644D01*
X0159374Y0163310D02*
X0160362Y0163310D01*
X0160362Y0164296D02*
X0159374Y0164296D01*
X0159374Y0165282D02*
X0160362Y0165282D01*
X0160362Y0166268D02*
X0159374Y0166268D01*
X0159374Y0167254D02*
X0160362Y0167254D01*
D21*
X0166265Y0167159D02*
X0166265Y0164203D01*
X0166265Y0167159D02*
X0170007Y0167159D01*
X0170007Y0164203D01*
X0166265Y0164203D01*
X0166265Y0167158D02*
X0170007Y0167158D01*
X0139493Y0167159D02*
X0139493Y0164203D01*
X0139493Y0167159D02*
X0143235Y0167159D01*
X0143235Y0164203D01*
X0139493Y0164203D01*
X0139493Y0167158D02*
X0143235Y0167158D01*
D22*
X0148056Y0172561D02*
X0151996Y0172561D01*
X0148056Y0172561D02*
X0148056Y0176501D01*
X0151996Y0176501D01*
X0151996Y0172561D01*
X0151996Y0176500D02*
X0148056Y0176500D01*
X0157504Y0172561D02*
X0161444Y0172561D01*
X0157504Y0172561D02*
X0157504Y0176501D01*
X0161444Y0176501D01*
X0161444Y0172561D01*
X0161444Y0176500D02*
X0157504Y0176500D01*
D23*
X0141750Y0087000D03*
X0131750Y0087000D03*
X0131750Y0077000D03*
X0141750Y0077000D03*
X0131750Y0067000D03*
D24*
X0039550Y0037900D03*
X0029750Y0037900D03*
X0029750Y0025300D03*
X0039550Y0025300D03*
D25*
X0058150Y0027300D03*
X0010750Y0027300D03*
D26*
X0475388Y0025134D03*
X0497750Y0025134D03*
X0497750Y0076866D03*
X0475388Y0076866D03*
D27*
X0476766Y0064780D03*
X0487081Y0064780D03*
X0487081Y0054937D03*
X0476766Y0054937D03*
X0476766Y0047063D03*
X0487081Y0047063D03*
X0487081Y0037220D03*
X0476766Y0037220D03*
M02*
