G75*
%MOIN*%
%OFA0B0*%
%FSLAX25Y25*%
%IPPOS*%
%LPD*%
%AMOC8*
5,1,8,0,0,1.08239X$1,22.5*
%
%ADD10C,0.01500*%
%ADD11C,0.00300*%
%ADD12C,0.00000*%
%ADD13C,0.00500*%
%ADD14C,0.00400*%
D10*
X0001750Y0006000D02*
X0545321Y0006000D01*
X0545321Y0096512D01*
X0476238Y0096512D01*
X0411750Y0161000D01*
X0273404Y0161512D01*
X0250864Y0184051D01*
X0001750Y0184051D01*
X0001750Y0006000D01*
D11*
X0101462Y0033917D02*
X0101946Y0033433D01*
X0103397Y0033433D01*
X0103397Y0032466D02*
X0103397Y0035368D01*
X0101946Y0035368D01*
X0101462Y0034884D01*
X0101462Y0033917D01*
X0104408Y0034884D02*
X0104892Y0035368D01*
X0105860Y0035368D01*
X0106343Y0034884D01*
X0106343Y0032949D01*
X0105860Y0032466D01*
X0104892Y0032466D01*
X0104408Y0032949D01*
X0104408Y0034884D01*
X0111269Y0035368D02*
X0112236Y0034401D01*
X0111269Y0035368D02*
X0111269Y0032466D01*
X0112236Y0032466D02*
X0110301Y0032466D01*
X0109290Y0031982D02*
X0107355Y0031982D01*
X0113248Y0032466D02*
X0115183Y0032466D01*
X0114216Y0032466D02*
X0114216Y0035368D01*
X0115183Y0034401D01*
X0116195Y0035368D02*
X0118130Y0035368D01*
X0117162Y0035368D02*
X0117162Y0032466D01*
X0119141Y0032466D02*
X0119141Y0035368D01*
X0119141Y0033917D02*
X0121076Y0033917D01*
X0122088Y0034884D02*
X0122088Y0032949D01*
X0122571Y0032466D01*
X0124023Y0032466D01*
X0124023Y0035368D01*
X0122571Y0035368D01*
X0122088Y0034884D01*
X0121076Y0035368D02*
X0121076Y0032466D01*
X0249112Y0017869D02*
X0249112Y0016901D01*
X0249595Y0016417D01*
X0251047Y0016417D01*
X0251047Y0015450D02*
X0251047Y0018352D01*
X0249595Y0018352D01*
X0249112Y0017869D01*
X0252058Y0017869D02*
X0252542Y0018352D01*
X0253509Y0018352D01*
X0253993Y0017869D01*
X0253993Y0015934D01*
X0253509Y0015450D01*
X0252542Y0015450D01*
X0252058Y0015934D01*
X0252058Y0017869D01*
X0257951Y0018352D02*
X0257951Y0015450D01*
X0256940Y0014966D02*
X0255005Y0014966D01*
X0259886Y0015450D02*
X0259886Y0018352D01*
X0258919Y0017385D01*
X0257951Y0018352D01*
X0260898Y0018352D02*
X0260898Y0015450D01*
X0262833Y0015450D02*
X0262833Y0018352D01*
X0261865Y0017385D01*
X0260898Y0018352D01*
X0263844Y0017869D02*
X0263844Y0015934D01*
X0264328Y0015450D01*
X0265295Y0015450D01*
X0265779Y0015934D01*
X0265779Y0017869D01*
X0265295Y0018352D01*
X0264328Y0018352D01*
X0263844Y0017869D01*
X0266791Y0017869D02*
X0267274Y0018352D01*
X0268242Y0018352D01*
X0268726Y0017869D01*
X0268726Y0015934D01*
X0268242Y0015450D01*
X0267274Y0015450D01*
X0266791Y0015934D01*
X0269737Y0018352D02*
X0271672Y0018352D01*
X0270705Y0018352D02*
X0270705Y0015450D01*
X0272684Y0015934D02*
X0273167Y0015450D01*
X0274619Y0015450D01*
X0274619Y0018352D01*
X0273167Y0018352D01*
X0272684Y0017869D01*
X0272684Y0017385D01*
X0273167Y0016901D01*
X0274619Y0016901D01*
X0273167Y0016901D02*
X0272684Y0016417D01*
X0272684Y0015934D01*
X0229122Y0147402D02*
X0227187Y0147402D01*
X0226176Y0148370D02*
X0225692Y0147886D01*
X0224725Y0147886D01*
X0224241Y0148370D01*
X0224241Y0150305D01*
X0224725Y0150789D01*
X0225692Y0150789D01*
X0226176Y0150305D01*
X0226176Y0148370D01*
X0223229Y0148854D02*
X0221778Y0148854D01*
X0221294Y0149337D01*
X0221294Y0150305D01*
X0221778Y0150789D01*
X0223229Y0150789D01*
X0223229Y0147886D01*
X0230134Y0148370D02*
X0230618Y0147886D01*
X0231585Y0147886D01*
X0232069Y0148370D01*
X0231585Y0149337D02*
X0230618Y0149337D01*
X0230134Y0148854D01*
X0230134Y0148370D01*
X0231585Y0149337D02*
X0232069Y0149821D01*
X0232069Y0150305D01*
X0231585Y0150789D01*
X0230618Y0150789D01*
X0230134Y0150305D01*
X0233080Y0150789D02*
X0235015Y0150789D01*
X0235015Y0147886D01*
X0233080Y0147886D01*
X0234048Y0149337D02*
X0235015Y0149337D01*
X0236027Y0149337D02*
X0236511Y0148854D01*
X0237962Y0148854D01*
X0236994Y0148854D02*
X0236027Y0147886D01*
X0236027Y0149337D02*
X0236027Y0150305D01*
X0236511Y0150789D01*
X0237962Y0150789D01*
X0237962Y0147886D01*
X0238973Y0148370D02*
X0238973Y0150305D01*
X0239457Y0150789D01*
X0240425Y0150789D01*
X0240908Y0150305D01*
X0240908Y0148370D01*
X0240425Y0147886D01*
X0239457Y0147886D01*
X0238973Y0148370D01*
X0241920Y0150789D02*
X0243855Y0150789D01*
X0242887Y0150789D02*
X0242887Y0147886D01*
X0244866Y0148370D02*
X0244866Y0150305D01*
X0245350Y0150789D01*
X0246318Y0150789D01*
X0246801Y0150305D01*
X0246801Y0148370D01*
X0246318Y0147886D01*
X0245350Y0147886D01*
X0244866Y0148370D01*
X0247813Y0147886D02*
X0247813Y0150789D01*
X0247813Y0149337D02*
X0249748Y0149337D01*
X0250760Y0149337D02*
X0251243Y0148854D01*
X0252694Y0148854D01*
X0252694Y0147886D02*
X0252694Y0150789D01*
X0251243Y0150789D01*
X0250760Y0150305D01*
X0250760Y0149337D01*
X0249748Y0147886D02*
X0249748Y0150789D01*
D12*
X0301238Y0141000D02*
X0301240Y0141148D01*
X0301246Y0141296D01*
X0301256Y0141444D01*
X0301270Y0141591D01*
X0301288Y0141738D01*
X0301309Y0141884D01*
X0301335Y0142030D01*
X0301365Y0142175D01*
X0301398Y0142319D01*
X0301436Y0142462D01*
X0301477Y0142604D01*
X0301522Y0142745D01*
X0301570Y0142885D01*
X0301623Y0143024D01*
X0301679Y0143161D01*
X0301739Y0143296D01*
X0301802Y0143430D01*
X0301869Y0143562D01*
X0301940Y0143692D01*
X0302014Y0143820D01*
X0302091Y0143946D01*
X0302172Y0144070D01*
X0302256Y0144192D01*
X0302343Y0144311D01*
X0302434Y0144428D01*
X0302528Y0144543D01*
X0302624Y0144655D01*
X0302724Y0144765D01*
X0302826Y0144871D01*
X0302932Y0144975D01*
X0303040Y0145076D01*
X0303151Y0145174D01*
X0303264Y0145270D01*
X0303380Y0145362D01*
X0303498Y0145451D01*
X0303619Y0145536D01*
X0303742Y0145619D01*
X0303867Y0145698D01*
X0303994Y0145774D01*
X0304123Y0145846D01*
X0304254Y0145915D01*
X0304387Y0145980D01*
X0304522Y0146041D01*
X0304658Y0146099D01*
X0304795Y0146154D01*
X0304934Y0146204D01*
X0305075Y0146251D01*
X0305216Y0146294D01*
X0305359Y0146334D01*
X0305503Y0146369D01*
X0305647Y0146401D01*
X0305793Y0146428D01*
X0305939Y0146452D01*
X0306086Y0146472D01*
X0306233Y0146488D01*
X0306380Y0146500D01*
X0306528Y0146508D01*
X0306676Y0146512D01*
X0306824Y0146512D01*
X0306972Y0146508D01*
X0307120Y0146500D01*
X0307267Y0146488D01*
X0307414Y0146472D01*
X0307561Y0146452D01*
X0307707Y0146428D01*
X0307853Y0146401D01*
X0307997Y0146369D01*
X0308141Y0146334D01*
X0308284Y0146294D01*
X0308425Y0146251D01*
X0308566Y0146204D01*
X0308705Y0146154D01*
X0308842Y0146099D01*
X0308978Y0146041D01*
X0309113Y0145980D01*
X0309246Y0145915D01*
X0309377Y0145846D01*
X0309506Y0145774D01*
X0309633Y0145698D01*
X0309758Y0145619D01*
X0309881Y0145536D01*
X0310002Y0145451D01*
X0310120Y0145362D01*
X0310236Y0145270D01*
X0310349Y0145174D01*
X0310460Y0145076D01*
X0310568Y0144975D01*
X0310674Y0144871D01*
X0310776Y0144765D01*
X0310876Y0144655D01*
X0310972Y0144543D01*
X0311066Y0144428D01*
X0311157Y0144311D01*
X0311244Y0144192D01*
X0311328Y0144070D01*
X0311409Y0143946D01*
X0311486Y0143820D01*
X0311560Y0143692D01*
X0311631Y0143562D01*
X0311698Y0143430D01*
X0311761Y0143296D01*
X0311821Y0143161D01*
X0311877Y0143024D01*
X0311930Y0142885D01*
X0311978Y0142745D01*
X0312023Y0142604D01*
X0312064Y0142462D01*
X0312102Y0142319D01*
X0312135Y0142175D01*
X0312165Y0142030D01*
X0312191Y0141884D01*
X0312212Y0141738D01*
X0312230Y0141591D01*
X0312244Y0141444D01*
X0312254Y0141296D01*
X0312260Y0141148D01*
X0312262Y0141000D01*
X0312260Y0140852D01*
X0312254Y0140704D01*
X0312244Y0140556D01*
X0312230Y0140409D01*
X0312212Y0140262D01*
X0312191Y0140116D01*
X0312165Y0139970D01*
X0312135Y0139825D01*
X0312102Y0139681D01*
X0312064Y0139538D01*
X0312023Y0139396D01*
X0311978Y0139255D01*
X0311930Y0139115D01*
X0311877Y0138976D01*
X0311821Y0138839D01*
X0311761Y0138704D01*
X0311698Y0138570D01*
X0311631Y0138438D01*
X0311560Y0138308D01*
X0311486Y0138180D01*
X0311409Y0138054D01*
X0311328Y0137930D01*
X0311244Y0137808D01*
X0311157Y0137689D01*
X0311066Y0137572D01*
X0310972Y0137457D01*
X0310876Y0137345D01*
X0310776Y0137235D01*
X0310674Y0137129D01*
X0310568Y0137025D01*
X0310460Y0136924D01*
X0310349Y0136826D01*
X0310236Y0136730D01*
X0310120Y0136638D01*
X0310002Y0136549D01*
X0309881Y0136464D01*
X0309758Y0136381D01*
X0309633Y0136302D01*
X0309506Y0136226D01*
X0309377Y0136154D01*
X0309246Y0136085D01*
X0309113Y0136020D01*
X0308978Y0135959D01*
X0308842Y0135901D01*
X0308705Y0135846D01*
X0308566Y0135796D01*
X0308425Y0135749D01*
X0308284Y0135706D01*
X0308141Y0135666D01*
X0307997Y0135631D01*
X0307853Y0135599D01*
X0307707Y0135572D01*
X0307561Y0135548D01*
X0307414Y0135528D01*
X0307267Y0135512D01*
X0307120Y0135500D01*
X0306972Y0135492D01*
X0306824Y0135488D01*
X0306676Y0135488D01*
X0306528Y0135492D01*
X0306380Y0135500D01*
X0306233Y0135512D01*
X0306086Y0135528D01*
X0305939Y0135548D01*
X0305793Y0135572D01*
X0305647Y0135599D01*
X0305503Y0135631D01*
X0305359Y0135666D01*
X0305216Y0135706D01*
X0305075Y0135749D01*
X0304934Y0135796D01*
X0304795Y0135846D01*
X0304658Y0135901D01*
X0304522Y0135959D01*
X0304387Y0136020D01*
X0304254Y0136085D01*
X0304123Y0136154D01*
X0303994Y0136226D01*
X0303867Y0136302D01*
X0303742Y0136381D01*
X0303619Y0136464D01*
X0303498Y0136549D01*
X0303380Y0136638D01*
X0303264Y0136730D01*
X0303151Y0136826D01*
X0303040Y0136924D01*
X0302932Y0137025D01*
X0302826Y0137129D01*
X0302724Y0137235D01*
X0302624Y0137345D01*
X0302528Y0137457D01*
X0302434Y0137572D01*
X0302343Y0137689D01*
X0302256Y0137808D01*
X0302172Y0137930D01*
X0302091Y0138054D01*
X0302014Y0138180D01*
X0301940Y0138308D01*
X0301869Y0138438D01*
X0301802Y0138570D01*
X0301739Y0138704D01*
X0301679Y0138839D01*
X0301623Y0138976D01*
X0301570Y0139115D01*
X0301522Y0139255D01*
X0301477Y0139396D01*
X0301436Y0139538D01*
X0301398Y0139681D01*
X0301365Y0139825D01*
X0301335Y0139970D01*
X0301309Y0140116D01*
X0301288Y0140262D01*
X0301270Y0140409D01*
X0301256Y0140556D01*
X0301246Y0140704D01*
X0301240Y0140852D01*
X0301238Y0141000D01*
D13*
X0244156Y0152937D02*
X0224156Y0152937D01*
X0224156Y0174937D01*
X0229156Y0174937D01*
X0229156Y0169937D01*
X0239156Y0169937D01*
X0239156Y0174937D01*
X0229156Y0174937D01*
X0239156Y0174937D02*
X0244156Y0174937D01*
X0244156Y0152937D01*
X0169317Y0164000D02*
X0169317Y0183685D01*
X0170498Y0186047D01*
X0167348Y0185654D01*
X0141758Y0185654D01*
X0139002Y0186047D01*
X0140183Y0183685D01*
X0140183Y0164000D01*
X0169317Y0164000D01*
X0168136Y0184079D02*
X0141364Y0184079D01*
X0235250Y0042937D02*
X0240250Y0042937D01*
X0240250Y0037937D01*
X0290250Y0037937D01*
X0290250Y0042937D01*
X0240250Y0042937D01*
X0235250Y0042937D02*
X0235250Y0020937D01*
X0295250Y0020937D01*
X0295250Y0042937D01*
X0290250Y0042937D01*
X0131376Y0031228D02*
X0131376Y0009228D01*
X0126376Y0009228D01*
X0126376Y0014228D01*
X0096376Y0014228D01*
X0096376Y0009228D01*
X0126376Y0009228D01*
X0096376Y0009228D02*
X0091376Y0009228D01*
X0091376Y0031228D01*
X0131376Y0031228D01*
D14*
X0157721Y0158700D02*
X0158756Y0158700D01*
X0159273Y0159217D01*
X0159273Y0159734D01*
X0158756Y0160251D01*
X0157721Y0160251D01*
X0157204Y0159734D01*
X0157204Y0159217D01*
X0157721Y0158700D01*
X0157721Y0160251D02*
X0157204Y0160768D01*
X0157204Y0161286D01*
X0157721Y0161803D01*
X0158756Y0161803D01*
X0159273Y0161286D01*
X0159273Y0160768D01*
X0158756Y0160251D01*
X0160427Y0161803D02*
X0161461Y0161803D01*
X0160944Y0161803D02*
X0160944Y0159217D01*
X0161461Y0158700D01*
X0161978Y0158700D01*
X0162495Y0159217D01*
M02*
