G75*
%MOIN*%
%OFA0B0*%
%FSLAX25Y25*%
%IPPOS*%
%LPD*%
%AMOC8*
5,1,8,0,0,1.08239X$1,22.5*
%
%ADD10C,0.01500*%
%ADD11C,0.00000*%
%ADD12R,0.06969X0.07087*%
%ADD13C,0.01000*%
%ADD14R,0.04500X0.04000*%
%ADD15R,0.07087X0.06969*%
%ADD16R,0.06500X0.02500*%
%ADD17C,0.00600*%
%ADD18C,0.30000*%
%ADD19R,0.05906X0.01969*%
%ADD20R,0.01969X0.05906*%
%ADD21C,0.00875*%
%ADD22R,0.04724X0.07087*%
%ADD23R,0.04724X0.04724*%
%ADD24R,0.06600X0.06000*%
D10*
X0001750Y0006000D02*
X0545321Y0006000D01*
X0545321Y0096512D01*
X0476238Y0096512D01*
X0411750Y0161000D01*
X0273404Y0161512D01*
X0250864Y0184051D01*
X0001750Y0184051D01*
X0001750Y0006000D01*
D11*
X0301238Y0141000D02*
X0301240Y0141148D01*
X0301246Y0141296D01*
X0301256Y0141444D01*
X0301270Y0141591D01*
X0301288Y0141738D01*
X0301309Y0141884D01*
X0301335Y0142030D01*
X0301365Y0142175D01*
X0301398Y0142319D01*
X0301436Y0142462D01*
X0301477Y0142604D01*
X0301522Y0142745D01*
X0301570Y0142885D01*
X0301623Y0143024D01*
X0301679Y0143161D01*
X0301739Y0143296D01*
X0301802Y0143430D01*
X0301869Y0143562D01*
X0301940Y0143692D01*
X0302014Y0143820D01*
X0302091Y0143946D01*
X0302172Y0144070D01*
X0302256Y0144192D01*
X0302343Y0144311D01*
X0302434Y0144428D01*
X0302528Y0144543D01*
X0302624Y0144655D01*
X0302724Y0144765D01*
X0302826Y0144871D01*
X0302932Y0144975D01*
X0303040Y0145076D01*
X0303151Y0145174D01*
X0303264Y0145270D01*
X0303380Y0145362D01*
X0303498Y0145451D01*
X0303619Y0145536D01*
X0303742Y0145619D01*
X0303867Y0145698D01*
X0303994Y0145774D01*
X0304123Y0145846D01*
X0304254Y0145915D01*
X0304387Y0145980D01*
X0304522Y0146041D01*
X0304658Y0146099D01*
X0304795Y0146154D01*
X0304934Y0146204D01*
X0305075Y0146251D01*
X0305216Y0146294D01*
X0305359Y0146334D01*
X0305503Y0146369D01*
X0305647Y0146401D01*
X0305793Y0146428D01*
X0305939Y0146452D01*
X0306086Y0146472D01*
X0306233Y0146488D01*
X0306380Y0146500D01*
X0306528Y0146508D01*
X0306676Y0146512D01*
X0306824Y0146512D01*
X0306972Y0146508D01*
X0307120Y0146500D01*
X0307267Y0146488D01*
X0307414Y0146472D01*
X0307561Y0146452D01*
X0307707Y0146428D01*
X0307853Y0146401D01*
X0307997Y0146369D01*
X0308141Y0146334D01*
X0308284Y0146294D01*
X0308425Y0146251D01*
X0308566Y0146204D01*
X0308705Y0146154D01*
X0308842Y0146099D01*
X0308978Y0146041D01*
X0309113Y0145980D01*
X0309246Y0145915D01*
X0309377Y0145846D01*
X0309506Y0145774D01*
X0309633Y0145698D01*
X0309758Y0145619D01*
X0309881Y0145536D01*
X0310002Y0145451D01*
X0310120Y0145362D01*
X0310236Y0145270D01*
X0310349Y0145174D01*
X0310460Y0145076D01*
X0310568Y0144975D01*
X0310674Y0144871D01*
X0310776Y0144765D01*
X0310876Y0144655D01*
X0310972Y0144543D01*
X0311066Y0144428D01*
X0311157Y0144311D01*
X0311244Y0144192D01*
X0311328Y0144070D01*
X0311409Y0143946D01*
X0311486Y0143820D01*
X0311560Y0143692D01*
X0311631Y0143562D01*
X0311698Y0143430D01*
X0311761Y0143296D01*
X0311821Y0143161D01*
X0311877Y0143024D01*
X0311930Y0142885D01*
X0311978Y0142745D01*
X0312023Y0142604D01*
X0312064Y0142462D01*
X0312102Y0142319D01*
X0312135Y0142175D01*
X0312165Y0142030D01*
X0312191Y0141884D01*
X0312212Y0141738D01*
X0312230Y0141591D01*
X0312244Y0141444D01*
X0312254Y0141296D01*
X0312260Y0141148D01*
X0312262Y0141000D01*
X0312260Y0140852D01*
X0312254Y0140704D01*
X0312244Y0140556D01*
X0312230Y0140409D01*
X0312212Y0140262D01*
X0312191Y0140116D01*
X0312165Y0139970D01*
X0312135Y0139825D01*
X0312102Y0139681D01*
X0312064Y0139538D01*
X0312023Y0139396D01*
X0311978Y0139255D01*
X0311930Y0139115D01*
X0311877Y0138976D01*
X0311821Y0138839D01*
X0311761Y0138704D01*
X0311698Y0138570D01*
X0311631Y0138438D01*
X0311560Y0138308D01*
X0311486Y0138180D01*
X0311409Y0138054D01*
X0311328Y0137930D01*
X0311244Y0137808D01*
X0311157Y0137689D01*
X0311066Y0137572D01*
X0310972Y0137457D01*
X0310876Y0137345D01*
X0310776Y0137235D01*
X0310674Y0137129D01*
X0310568Y0137025D01*
X0310460Y0136924D01*
X0310349Y0136826D01*
X0310236Y0136730D01*
X0310120Y0136638D01*
X0310002Y0136549D01*
X0309881Y0136464D01*
X0309758Y0136381D01*
X0309633Y0136302D01*
X0309506Y0136226D01*
X0309377Y0136154D01*
X0309246Y0136085D01*
X0309113Y0136020D01*
X0308978Y0135959D01*
X0308842Y0135901D01*
X0308705Y0135846D01*
X0308566Y0135796D01*
X0308425Y0135749D01*
X0308284Y0135706D01*
X0308141Y0135666D01*
X0307997Y0135631D01*
X0307853Y0135599D01*
X0307707Y0135572D01*
X0307561Y0135548D01*
X0307414Y0135528D01*
X0307267Y0135512D01*
X0307120Y0135500D01*
X0306972Y0135492D01*
X0306824Y0135488D01*
X0306676Y0135488D01*
X0306528Y0135492D01*
X0306380Y0135500D01*
X0306233Y0135512D01*
X0306086Y0135528D01*
X0305939Y0135548D01*
X0305793Y0135572D01*
X0305647Y0135599D01*
X0305503Y0135631D01*
X0305359Y0135666D01*
X0305216Y0135706D01*
X0305075Y0135749D01*
X0304934Y0135796D01*
X0304795Y0135846D01*
X0304658Y0135901D01*
X0304522Y0135959D01*
X0304387Y0136020D01*
X0304254Y0136085D01*
X0304123Y0136154D01*
X0303994Y0136226D01*
X0303867Y0136302D01*
X0303742Y0136381D01*
X0303619Y0136464D01*
X0303498Y0136549D01*
X0303380Y0136638D01*
X0303264Y0136730D01*
X0303151Y0136826D01*
X0303040Y0136924D01*
X0302932Y0137025D01*
X0302826Y0137129D01*
X0302724Y0137235D01*
X0302624Y0137345D01*
X0302528Y0137457D01*
X0302434Y0137572D01*
X0302343Y0137689D01*
X0302256Y0137808D01*
X0302172Y0137930D01*
X0302091Y0138054D01*
X0302014Y0138180D01*
X0301940Y0138308D01*
X0301869Y0138438D01*
X0301802Y0138570D01*
X0301739Y0138704D01*
X0301679Y0138839D01*
X0301623Y0138976D01*
X0301570Y0139115D01*
X0301522Y0139255D01*
X0301477Y0139396D01*
X0301436Y0139538D01*
X0301398Y0139681D01*
X0301365Y0139825D01*
X0301335Y0139970D01*
X0301309Y0140116D01*
X0301288Y0140262D01*
X0301270Y0140409D01*
X0301256Y0140556D01*
X0301246Y0140704D01*
X0301240Y0140852D01*
X0301238Y0141000D01*
D12*
X0309250Y0060539D03*
X0309250Y0044461D03*
D13*
X0295250Y0064750D02*
X0292250Y0064750D01*
X0292250Y0069250D01*
X0295250Y0069250D01*
X0295250Y0064750D01*
X0295250Y0065749D02*
X0292250Y0065749D01*
X0292250Y0066748D02*
X0295250Y0066748D01*
X0295250Y0067747D02*
X0292250Y0067747D01*
X0292250Y0068746D02*
X0295250Y0068746D01*
X0288250Y0064750D02*
X0285250Y0064750D01*
X0285250Y0069250D01*
X0288250Y0069250D01*
X0288250Y0064750D01*
X0288250Y0065749D02*
X0285250Y0065749D01*
X0285250Y0066748D02*
X0288250Y0066748D01*
X0288250Y0067747D02*
X0285250Y0067747D01*
X0285250Y0068746D02*
X0288250Y0068746D01*
X0288250Y0074750D02*
X0285250Y0074750D01*
X0285250Y0079250D01*
X0288250Y0079250D01*
X0288250Y0074750D01*
X0288250Y0075749D02*
X0285250Y0075749D01*
X0285250Y0076748D02*
X0288250Y0076748D01*
X0288250Y0077747D02*
X0285250Y0077747D01*
X0285250Y0078746D02*
X0288250Y0078746D01*
X0292250Y0074750D02*
X0295250Y0074750D01*
X0292250Y0074750D02*
X0292250Y0079250D01*
X0295250Y0079250D01*
X0295250Y0074750D01*
X0295250Y0075749D02*
X0292250Y0075749D01*
X0292250Y0076748D02*
X0295250Y0076748D01*
X0295250Y0077747D02*
X0292250Y0077747D01*
X0292250Y0078746D02*
X0295250Y0078746D01*
X0282250Y0098750D02*
X0279250Y0098750D01*
X0279250Y0103250D01*
X0282250Y0103250D01*
X0282250Y0098750D01*
X0282250Y0099749D02*
X0279250Y0099749D01*
X0279250Y0100748D02*
X0282250Y0100748D01*
X0282250Y0101747D02*
X0279250Y0101747D01*
X0279250Y0102746D02*
X0282250Y0102746D01*
X0275250Y0098750D02*
X0272250Y0098750D01*
X0272250Y0103250D01*
X0275250Y0103250D01*
X0275250Y0098750D01*
X0275250Y0099749D02*
X0272250Y0099749D01*
X0272250Y0100748D02*
X0275250Y0100748D01*
X0275250Y0101747D02*
X0272250Y0101747D01*
X0272250Y0102746D02*
X0275250Y0102746D01*
X0275250Y0108750D02*
X0272250Y0108750D01*
X0272250Y0113250D01*
X0275250Y0113250D01*
X0275250Y0108750D01*
X0275250Y0109749D02*
X0272250Y0109749D01*
X0272250Y0110748D02*
X0275250Y0110748D01*
X0275250Y0111747D02*
X0272250Y0111747D01*
X0272250Y0112746D02*
X0275250Y0112746D01*
X0279250Y0108750D02*
X0282250Y0108750D01*
X0279250Y0108750D02*
X0279250Y0113250D01*
X0282250Y0113250D01*
X0282250Y0108750D01*
X0282250Y0109749D02*
X0279250Y0109749D01*
X0279250Y0110748D02*
X0282250Y0110748D01*
X0282250Y0111747D02*
X0279250Y0111747D01*
X0279250Y0112746D02*
X0282250Y0112746D01*
X0173750Y0101750D02*
X0170750Y0101750D01*
X0170750Y0106250D01*
X0173750Y0106250D01*
X0173750Y0101750D01*
X0173750Y0102749D02*
X0170750Y0102749D01*
X0170750Y0103748D02*
X0173750Y0103748D01*
X0173750Y0104747D02*
X0170750Y0104747D01*
X0170750Y0105746D02*
X0173750Y0105746D01*
X0166750Y0101750D02*
X0163750Y0101750D01*
X0163750Y0106250D01*
X0166750Y0106250D01*
X0166750Y0101750D01*
X0166750Y0102749D02*
X0163750Y0102749D01*
X0163750Y0103748D02*
X0166750Y0103748D01*
X0166750Y0104747D02*
X0163750Y0104747D01*
X0163750Y0105746D02*
X0166750Y0105746D01*
X0166750Y0116250D02*
X0169750Y0116250D01*
X0169750Y0111750D01*
X0166750Y0111750D01*
X0166750Y0116250D01*
X0166750Y0112749D02*
X0169750Y0112749D01*
X0169750Y0113748D02*
X0166750Y0113748D01*
X0166750Y0114747D02*
X0169750Y0114747D01*
X0169750Y0115746D02*
X0166750Y0115746D01*
X0162750Y0116250D02*
X0159750Y0116250D01*
X0162750Y0116250D02*
X0162750Y0111750D01*
X0159750Y0111750D01*
X0159750Y0116250D01*
X0159750Y0112749D02*
X0162750Y0112749D01*
X0162750Y0113748D02*
X0159750Y0113748D01*
X0159750Y0114747D02*
X0162750Y0114747D01*
X0162750Y0115746D02*
X0159750Y0115746D01*
X0140750Y0108750D02*
X0137750Y0108750D01*
X0137750Y0113250D01*
X0140750Y0113250D01*
X0140750Y0108750D01*
X0140750Y0109749D02*
X0137750Y0109749D01*
X0137750Y0110748D02*
X0140750Y0110748D01*
X0140750Y0111747D02*
X0137750Y0111747D01*
X0137750Y0112746D02*
X0140750Y0112746D01*
X0133750Y0108750D02*
X0130750Y0108750D01*
X0130750Y0113250D01*
X0133750Y0113250D01*
X0133750Y0108750D01*
X0133750Y0109749D02*
X0130750Y0109749D01*
X0130750Y0110748D02*
X0133750Y0110748D01*
X0133750Y0111747D02*
X0130750Y0111747D01*
X0130750Y0112746D02*
X0133750Y0112746D01*
X0041000Y0079000D02*
X0041000Y0076000D01*
X0036500Y0076000D01*
X0036500Y0079000D01*
X0041000Y0079000D01*
X0041000Y0076999D02*
X0036500Y0076999D01*
X0036500Y0077998D02*
X0041000Y0077998D01*
X0041000Y0078997D02*
X0036500Y0078997D01*
X0054000Y0076000D02*
X0054000Y0073000D01*
X0049500Y0073000D01*
X0049500Y0076000D01*
X0054000Y0076000D01*
X0054000Y0073999D02*
X0049500Y0073999D01*
X0049500Y0074998D02*
X0054000Y0074998D01*
X0054000Y0075997D02*
X0049500Y0075997D01*
X0064000Y0076000D02*
X0064000Y0073000D01*
X0059500Y0073000D01*
X0059500Y0076000D01*
X0064000Y0076000D01*
X0064000Y0073999D02*
X0059500Y0073999D01*
X0059500Y0074998D02*
X0064000Y0074998D01*
X0064000Y0075997D02*
X0059500Y0075997D01*
X0041000Y0072000D02*
X0041000Y0069000D01*
X0036500Y0069000D01*
X0036500Y0072000D01*
X0041000Y0072000D01*
X0041000Y0069999D02*
X0036500Y0069999D01*
X0036500Y0070998D02*
X0041000Y0070998D01*
X0041000Y0071997D02*
X0036500Y0071997D01*
X0054000Y0069000D02*
X0054000Y0066000D01*
X0049500Y0066000D01*
X0049500Y0069000D01*
X0054000Y0069000D01*
X0054000Y0066999D02*
X0049500Y0066999D01*
X0049500Y0067998D02*
X0054000Y0067998D01*
X0054000Y0068997D02*
X0049500Y0068997D01*
X0064000Y0069000D02*
X0064000Y0066000D01*
X0059500Y0066000D01*
X0059500Y0069000D01*
X0064000Y0069000D01*
X0064000Y0066999D02*
X0059500Y0066999D01*
X0059500Y0067998D02*
X0064000Y0067998D01*
X0064000Y0068997D02*
X0059500Y0068997D01*
X0013000Y0070000D02*
X0013000Y0067000D01*
X0008500Y0067000D01*
X0008500Y0070000D01*
X0013000Y0070000D01*
X0013000Y0067999D02*
X0008500Y0067999D01*
X0008500Y0068998D02*
X0013000Y0068998D01*
X0013000Y0069997D02*
X0008500Y0069997D01*
X0013000Y0074000D02*
X0013000Y0077000D01*
X0013000Y0074000D02*
X0008500Y0074000D01*
X0008500Y0077000D01*
X0013000Y0077000D01*
X0013000Y0074999D02*
X0008500Y0074999D01*
X0008500Y0075998D02*
X0013000Y0075998D01*
X0013000Y0076997D02*
X0008500Y0076997D01*
X0122778Y0034844D02*
X0125778Y0034844D01*
X0122778Y0034844D02*
X0122778Y0039344D01*
X0125778Y0039344D01*
X0125778Y0034844D01*
X0125778Y0035843D02*
X0122778Y0035843D01*
X0122778Y0036842D02*
X0125778Y0036842D01*
X0125778Y0037841D02*
X0122778Y0037841D01*
X0122778Y0038840D02*
X0125778Y0038840D01*
X0129778Y0034844D02*
X0132778Y0034844D01*
X0129778Y0034844D02*
X0129778Y0039344D01*
X0132778Y0039344D01*
X0132778Y0034844D01*
X0132778Y0035843D02*
X0129778Y0035843D01*
X0129778Y0036842D02*
X0132778Y0036842D01*
X0132778Y0037841D02*
X0129778Y0037841D01*
X0129778Y0038840D02*
X0132778Y0038840D01*
X0239750Y0061250D02*
X0242750Y0061250D01*
X0242750Y0056750D01*
X0239750Y0056750D01*
X0239750Y0061250D01*
X0239750Y0057749D02*
X0242750Y0057749D01*
X0242750Y0058748D02*
X0239750Y0058748D01*
X0239750Y0059747D02*
X0242750Y0059747D01*
X0242750Y0060746D02*
X0239750Y0060746D01*
X0246750Y0061250D02*
X0249750Y0061250D01*
X0249750Y0056750D01*
X0246750Y0056750D01*
X0246750Y0061250D01*
X0246750Y0057749D02*
X0249750Y0057749D01*
X0249750Y0058748D02*
X0246750Y0058748D01*
X0246750Y0059747D02*
X0249750Y0059747D01*
X0249750Y0060746D02*
X0246750Y0060746D01*
X0214000Y0166000D02*
X0214000Y0169000D01*
X0214000Y0166000D02*
X0209500Y0166000D01*
X0209500Y0169000D01*
X0214000Y0169000D01*
X0214000Y0166999D02*
X0209500Y0166999D01*
X0209500Y0167998D02*
X0214000Y0167998D01*
X0214000Y0168997D02*
X0209500Y0168997D01*
X0214000Y0173000D02*
X0214000Y0176000D01*
X0214000Y0173000D02*
X0209500Y0173000D01*
X0209500Y0176000D01*
X0214000Y0176000D01*
X0214000Y0173999D02*
X0209500Y0173999D01*
X0209500Y0174998D02*
X0214000Y0174998D01*
X0214000Y0175997D02*
X0209500Y0175997D01*
D14*
X0288250Y0112000D03*
X0296250Y0108500D03*
X0288250Y0105000D03*
X0301250Y0075500D03*
X0309250Y0072000D03*
X0301250Y0068500D03*
D15*
X0294900Y0095437D03*
X0310978Y0095437D03*
D16*
X0066050Y0122500D03*
X0066050Y0127500D03*
X0066050Y0132500D03*
X0066050Y0137500D03*
X0045450Y0137500D03*
X0045450Y0132500D03*
X0045450Y0127500D03*
X0045450Y0122500D03*
D17*
X0072050Y0125800D02*
X0077450Y0125800D01*
X0072050Y0125800D02*
X0072050Y0128200D01*
X0077450Y0128200D01*
X0077450Y0125800D01*
X0077450Y0126399D02*
X0072050Y0126399D01*
X0072050Y0126998D02*
X0077450Y0126998D01*
X0077450Y0127597D02*
X0072050Y0127597D01*
X0072050Y0128196D02*
X0077450Y0128196D01*
X0077450Y0113800D02*
X0072050Y0113800D01*
X0072050Y0116200D01*
X0077450Y0116200D01*
X0077450Y0113800D01*
X0077450Y0114399D02*
X0072050Y0114399D01*
X0072050Y0114998D02*
X0077450Y0114998D01*
X0077450Y0115597D02*
X0072050Y0115597D01*
X0072050Y0116196D02*
X0077450Y0116196D01*
D18*
X0086250Y0157000D03*
D19*
X0200915Y0107748D03*
X0200915Y0104598D03*
X0200915Y0101449D03*
X0200915Y0098299D03*
X0200915Y0095150D03*
X0200915Y0092000D03*
X0200915Y0088850D03*
X0200915Y0085701D03*
X0200915Y0082551D03*
X0200915Y0079402D03*
X0200915Y0076252D03*
X0246585Y0076252D03*
X0246585Y0079402D03*
X0246585Y0082551D03*
X0246585Y0085701D03*
X0246585Y0088850D03*
X0246585Y0092000D03*
X0246585Y0095150D03*
X0246585Y0098299D03*
X0246585Y0101449D03*
X0246585Y0104598D03*
X0246585Y0107748D03*
D20*
X0239498Y0114835D03*
X0236348Y0114835D03*
X0233199Y0114835D03*
X0230049Y0114835D03*
X0226900Y0114835D03*
X0223750Y0114835D03*
X0220600Y0114835D03*
X0217451Y0114835D03*
X0214301Y0114835D03*
X0211152Y0114835D03*
X0208002Y0114835D03*
X0208002Y0069165D03*
X0211152Y0069165D03*
X0214301Y0069165D03*
X0217451Y0069165D03*
X0220600Y0069165D03*
X0223750Y0069165D03*
X0226900Y0069165D03*
X0230049Y0069165D03*
X0233199Y0069165D03*
X0236348Y0069165D03*
X0239498Y0069165D03*
D21*
X0262437Y0069313D02*
X0262437Y0066687D01*
X0262437Y0069313D02*
X0265063Y0069313D01*
X0265063Y0066687D01*
X0262437Y0066687D01*
X0262437Y0067561D02*
X0265063Y0067561D01*
X0265063Y0068435D02*
X0262437Y0068435D01*
X0262437Y0069309D02*
X0265063Y0069309D01*
X0270437Y0069313D02*
X0270437Y0066687D01*
X0270437Y0069313D02*
X0273063Y0069313D01*
X0273063Y0066687D01*
X0270437Y0066687D01*
X0270437Y0067561D02*
X0273063Y0067561D01*
X0273063Y0068435D02*
X0270437Y0068435D01*
X0270437Y0069309D02*
X0273063Y0069309D01*
X0270437Y0072687D02*
X0270437Y0075313D01*
X0273063Y0075313D01*
X0273063Y0072687D01*
X0270437Y0072687D01*
X0270437Y0073561D02*
X0273063Y0073561D01*
X0273063Y0074435D02*
X0270437Y0074435D01*
X0270437Y0075309D02*
X0273063Y0075309D01*
X0262437Y0075313D02*
X0262437Y0072687D01*
X0262437Y0075313D02*
X0265063Y0075313D01*
X0265063Y0072687D01*
X0262437Y0072687D01*
X0262437Y0073561D02*
X0265063Y0073561D01*
X0265063Y0074435D02*
X0262437Y0074435D01*
X0262437Y0075309D02*
X0265063Y0075309D01*
X0213063Y0047687D02*
X0210437Y0047687D01*
X0210437Y0050313D01*
X0213063Y0050313D01*
X0213063Y0047687D01*
X0213063Y0048561D02*
X0210437Y0048561D01*
X0210437Y0049435D02*
X0213063Y0049435D01*
X0213063Y0050309D02*
X0210437Y0050309D01*
X0207063Y0047687D02*
X0204437Y0047687D01*
X0204437Y0050313D01*
X0207063Y0050313D01*
X0207063Y0047687D01*
X0207063Y0048561D02*
X0204437Y0048561D01*
X0204437Y0049435D02*
X0207063Y0049435D01*
X0207063Y0050309D02*
X0204437Y0050309D01*
X0219437Y0047313D02*
X0222063Y0047313D01*
X0222063Y0044687D01*
X0219437Y0044687D01*
X0219437Y0047313D01*
X0219437Y0045561D02*
X0222063Y0045561D01*
X0222063Y0046435D02*
X0219437Y0046435D01*
X0219437Y0047309D02*
X0222063Y0047309D01*
X0225437Y0047313D02*
X0228063Y0047313D01*
X0228063Y0044687D01*
X0225437Y0044687D01*
X0225437Y0047313D01*
X0225437Y0045561D02*
X0228063Y0045561D01*
X0228063Y0046435D02*
X0225437Y0046435D01*
X0225437Y0047309D02*
X0228063Y0047309D01*
X0173063Y0097313D02*
X0170437Y0097313D01*
X0173063Y0097313D02*
X0173063Y0094687D01*
X0170437Y0094687D01*
X0170437Y0097313D01*
X0170437Y0095561D02*
X0173063Y0095561D01*
X0173063Y0096435D02*
X0170437Y0096435D01*
X0170437Y0097309D02*
X0173063Y0097309D01*
X0167063Y0097313D02*
X0164437Y0097313D01*
X0167063Y0097313D02*
X0167063Y0094687D01*
X0164437Y0094687D01*
X0164437Y0097313D01*
X0164437Y0095561D02*
X0167063Y0095561D01*
X0167063Y0096435D02*
X0164437Y0096435D01*
X0164437Y0097309D02*
X0167063Y0097309D01*
X0212063Y0132687D02*
X0212063Y0135313D01*
X0212063Y0132687D02*
X0209437Y0132687D01*
X0209437Y0135313D01*
X0212063Y0135313D01*
X0212063Y0133561D02*
X0209437Y0133561D01*
X0209437Y0134435D02*
X0212063Y0134435D01*
X0212063Y0135309D02*
X0209437Y0135309D01*
X0212063Y0138687D02*
X0212063Y0141313D01*
X0212063Y0138687D02*
X0209437Y0138687D01*
X0209437Y0141313D01*
X0212063Y0141313D01*
X0212063Y0139561D02*
X0209437Y0139561D01*
X0209437Y0140435D02*
X0212063Y0140435D01*
X0212063Y0141309D02*
X0209437Y0141309D01*
X0201063Y0154313D02*
X0198437Y0154313D01*
X0201063Y0154313D02*
X0201063Y0151687D01*
X0198437Y0151687D01*
X0198437Y0154313D01*
X0198437Y0152561D02*
X0201063Y0152561D01*
X0201063Y0153435D02*
X0198437Y0153435D01*
X0198437Y0154309D02*
X0201063Y0154309D01*
X0195063Y0154313D02*
X0192437Y0154313D01*
X0195063Y0154313D02*
X0195063Y0151687D01*
X0192437Y0151687D01*
X0192437Y0154313D01*
X0192437Y0152561D02*
X0195063Y0152561D01*
X0195063Y0153435D02*
X0192437Y0153435D01*
X0192437Y0154309D02*
X0195063Y0154309D01*
D22*
X0208254Y0153000D03*
X0221246Y0153000D03*
D23*
X0139884Y0121000D03*
X0131616Y0121000D03*
X0254616Y0059000D03*
X0262884Y0059000D03*
X0072750Y0031134D03*
X0072750Y0022866D03*
D24*
X0022750Y0065000D03*
X0022750Y0077000D03*
M02*
