G75*
%MOIN*%
%OFA0B0*%
%FSLAX25Y25*%
%IPPOS*%
%LPD*%
%AMOC8*
5,1,8,0,0,1.08239X$1,22.5*
%
%ADD10C,0.01500*%
%ADD11C,0.00000*%
%ADD12C,0.08268*%
%ADD13R,0.07400X0.07400*%
%ADD14C,0.07400*%
%ADD15R,0.07400X0.07400*%
%ADD16C,0.06000*%
%ADD17C,0.04756*%
%ADD18C,0.04000*%
%ADD19C,0.00787*%
%ADD20C,0.02756*%
%ADD21C,0.03740*%
%ADD22OC8,0.07400*%
%ADD23C,0.06600*%
%ADD24C,0.13000*%
%ADD25C,0.13055*%
%ADD26C,0.05622*%
%ADD27C,0.03562*%
%ADD28C,0.01600*%
%ADD29C,0.04134*%
D10*
X0001750Y0006000D02*
X0545321Y0006000D01*
X0545321Y0096512D01*
X0476238Y0096512D01*
X0411750Y0161000D01*
X0273404Y0161512D01*
X0250864Y0184051D01*
X0001750Y0184051D01*
X0001750Y0006000D01*
X0004250Y0008500D02*
X0004250Y0022698D01*
X0006303Y0020645D01*
X0009189Y0019450D01*
X0012311Y0019450D01*
X0015197Y0020645D01*
X0017405Y0022853D01*
X0018600Y0025739D01*
X0018600Y0028861D01*
X0017405Y0031747D01*
X0015197Y0033955D01*
X0012311Y0035150D01*
X0009189Y0035150D01*
X0006303Y0033955D01*
X0004250Y0031902D01*
X0004250Y0181551D01*
X0249829Y0181551D01*
X0271633Y0159746D01*
X0271980Y0159398D01*
X0271984Y0159396D01*
X0271987Y0159392D01*
X0272443Y0159204D01*
X0272897Y0159014D01*
X0272902Y0159014D01*
X0272906Y0159012D01*
X0273399Y0159012D01*
X0410711Y0158504D01*
X0474822Y0094392D01*
X0475741Y0094012D01*
X0542821Y0094012D01*
X0542821Y0008500D01*
X0004250Y0008500D01*
X0004250Y0008997D02*
X0090712Y0008997D01*
X0090859Y0008850D02*
X0177641Y0008850D01*
X0178900Y0010109D01*
X0183900Y0015109D01*
X0183900Y0045109D01*
X0187641Y0048850D01*
X0222641Y0048850D01*
X0223900Y0050109D01*
X0226659Y0052869D01*
X0227373Y0052869D01*
X0228524Y0053346D01*
X0229404Y0054226D01*
X0229881Y0055377D01*
X0229881Y0056623D01*
X0229404Y0057774D01*
X0228524Y0058654D01*
X0227373Y0059131D01*
X0226127Y0059131D01*
X0224976Y0058654D01*
X0224096Y0057774D01*
X0223619Y0056623D01*
X0223619Y0055909D01*
X0220859Y0053150D01*
X0185859Y0053150D01*
X0180859Y0048150D01*
X0179600Y0046891D01*
X0179600Y0016891D01*
X0175859Y0013150D01*
X0092641Y0013150D01*
X0083900Y0021891D01*
X0083900Y0061722D01*
X0084404Y0062226D01*
X0084881Y0063377D01*
X0084881Y0064623D01*
X0084404Y0065774D01*
X0083524Y0066654D01*
X0082373Y0067131D01*
X0081127Y0067131D01*
X0079976Y0066654D01*
X0079096Y0065774D01*
X0078619Y0064623D01*
X0078619Y0063377D01*
X0079096Y0062226D01*
X0079600Y0061722D01*
X0079600Y0020109D01*
X0080859Y0018850D01*
X0090859Y0008850D01*
X0089214Y0010496D02*
X0004250Y0010496D01*
X0004250Y0011994D02*
X0087715Y0011994D01*
X0086217Y0013493D02*
X0004250Y0013493D01*
X0004250Y0014991D02*
X0084718Y0014991D01*
X0083220Y0016490D02*
X0004250Y0016490D01*
X0004250Y0017988D02*
X0081721Y0017988D01*
X0080223Y0019487D02*
X0059800Y0019487D01*
X0059711Y0019450D02*
X0062597Y0020645D01*
X0064805Y0022853D01*
X0066000Y0025739D01*
X0066000Y0028861D01*
X0064805Y0031747D01*
X0062597Y0033955D01*
X0059711Y0035150D01*
X0056589Y0035150D01*
X0053703Y0033955D01*
X0051495Y0031747D01*
X0050300Y0028861D01*
X0050300Y0025739D01*
X0051495Y0022853D01*
X0053703Y0020645D01*
X0056589Y0019450D01*
X0059711Y0019450D01*
X0056500Y0019487D02*
X0012400Y0019487D01*
X0009100Y0019487D02*
X0004250Y0019487D01*
X0004250Y0020985D02*
X0005963Y0020985D01*
X0004465Y0022484D02*
X0004250Y0022484D01*
X0015537Y0020985D02*
X0028016Y0020985D01*
X0028825Y0020650D02*
X0030675Y0020650D01*
X0032384Y0021358D01*
X0033692Y0022666D01*
X0034400Y0024375D01*
X0034400Y0026225D01*
X0033692Y0027934D01*
X0032384Y0029242D01*
X0030675Y0029950D01*
X0028825Y0029950D01*
X0027116Y0029242D01*
X0025808Y0027934D01*
X0025100Y0026225D01*
X0025100Y0024375D01*
X0025808Y0022666D01*
X0027116Y0021358D01*
X0028825Y0020650D01*
X0031484Y0020985D02*
X0036897Y0020985D01*
X0036903Y0020981D02*
X0037611Y0020620D01*
X0038367Y0020374D01*
X0039153Y0020250D01*
X0039400Y0020250D01*
X0039400Y0025150D01*
X0034500Y0025150D01*
X0034500Y0024903D01*
X0034624Y0024117D01*
X0034870Y0023361D01*
X0035231Y0022653D01*
X0035698Y0022010D01*
X0036260Y0021448D01*
X0036903Y0020981D01*
X0035354Y0022484D02*
X0033510Y0022484D01*
X0034237Y0023982D02*
X0034668Y0023982D01*
X0034500Y0025450D02*
X0039400Y0025450D01*
X0039400Y0030350D01*
X0039153Y0030350D01*
X0038367Y0030226D01*
X0037611Y0029980D01*
X0036903Y0029619D01*
X0036260Y0029152D01*
X0035698Y0028590D01*
X0035231Y0027947D01*
X0034870Y0027239D01*
X0034624Y0026483D01*
X0034500Y0025697D01*
X0034500Y0025450D01*
X0034500Y0025481D02*
X0034400Y0025481D01*
X0034088Y0026979D02*
X0034786Y0026979D01*
X0035617Y0028478D02*
X0033148Y0028478D01*
X0037604Y0029976D02*
X0018138Y0029976D01*
X0018600Y0028478D02*
X0026352Y0028478D01*
X0025412Y0026979D02*
X0018600Y0026979D01*
X0018493Y0025481D02*
X0025100Y0025481D01*
X0025263Y0023982D02*
X0017872Y0023982D01*
X0017035Y0022484D02*
X0025990Y0022484D01*
X0039400Y0022484D02*
X0039700Y0022484D01*
X0039700Y0023982D02*
X0039400Y0023982D01*
X0039400Y0025150D02*
X0039700Y0025150D01*
X0039700Y0025450D01*
X0039400Y0025450D01*
X0039400Y0025150D01*
X0039700Y0025150D02*
X0039700Y0020250D01*
X0039947Y0020250D01*
X0040733Y0020374D01*
X0041489Y0020620D01*
X0042197Y0020981D01*
X0042840Y0021448D01*
X0043402Y0022010D01*
X0043869Y0022653D01*
X0044230Y0023361D01*
X0044476Y0024117D01*
X0044600Y0024903D01*
X0044600Y0025150D01*
X0039700Y0025150D01*
X0039700Y0025450D02*
X0044600Y0025450D01*
X0044600Y0025697D01*
X0044476Y0026483D01*
X0044230Y0027239D01*
X0043869Y0027947D01*
X0043402Y0028590D01*
X0042840Y0029152D01*
X0042197Y0029619D01*
X0041489Y0029980D01*
X0040733Y0030226D01*
X0039947Y0030350D01*
X0039700Y0030350D01*
X0039700Y0025450D01*
X0039700Y0025481D02*
X0039400Y0025481D01*
X0039400Y0026979D02*
X0039700Y0026979D01*
X0039700Y0028478D02*
X0039400Y0028478D01*
X0039400Y0029976D02*
X0039700Y0029976D01*
X0041496Y0029976D02*
X0050762Y0029976D01*
X0050300Y0028478D02*
X0043483Y0028478D01*
X0044314Y0026979D02*
X0050300Y0026979D01*
X0050407Y0025481D02*
X0044600Y0025481D01*
X0044432Y0023982D02*
X0051028Y0023982D01*
X0051865Y0022484D02*
X0043746Y0022484D01*
X0042203Y0020985D02*
X0053363Y0020985D01*
X0062937Y0020985D02*
X0079600Y0020985D01*
X0079600Y0022484D02*
X0064435Y0022484D01*
X0065272Y0023982D02*
X0079600Y0023982D01*
X0079600Y0025481D02*
X0065893Y0025481D01*
X0066000Y0026979D02*
X0079600Y0026979D01*
X0079600Y0028478D02*
X0066000Y0028478D01*
X0065538Y0029976D02*
X0079600Y0029976D01*
X0079600Y0031475D02*
X0064918Y0031475D01*
X0063578Y0032973D02*
X0079600Y0032973D01*
X0079600Y0034472D02*
X0061349Y0034472D01*
X0054951Y0034472D02*
X0042698Y0034472D01*
X0042184Y0033958D02*
X0043492Y0035266D01*
X0044200Y0036975D01*
X0044200Y0038825D01*
X0043492Y0040534D01*
X0042900Y0041126D01*
X0042900Y0043866D01*
X0042390Y0045098D01*
X0041448Y0046040D01*
X0036648Y0050840D01*
X0035416Y0051350D01*
X0029138Y0051350D01*
X0028100Y0052388D01*
X0028100Y0104666D01*
X0027590Y0105898D01*
X0026648Y0106840D01*
X0018100Y0115388D01*
X0018100Y0157612D01*
X0021482Y0160995D01*
X0025986Y0160995D01*
X0026917Y0160064D01*
X0028165Y0159547D01*
X0027037Y0159547D01*
X0025180Y0158778D01*
X0023760Y0157357D01*
X0022991Y0155501D01*
X0022991Y0153492D01*
X0023760Y0151636D01*
X0025180Y0150215D01*
X0026428Y0149699D01*
X0025300Y0149699D01*
X0023444Y0148930D01*
X0022023Y0147509D01*
X0021255Y0145653D01*
X0021255Y0143644D01*
X0022023Y0141788D01*
X0023444Y0140367D01*
X0025300Y0139599D01*
X0027309Y0139599D01*
X0029165Y0140367D01*
X0030586Y0141788D01*
X0030600Y0141822D01*
X0030600Y0063109D01*
X0034600Y0059109D01*
X0035859Y0057850D01*
X0049472Y0057850D01*
X0049976Y0057346D01*
X0051127Y0056869D01*
X0052373Y0056869D01*
X0053524Y0057346D01*
X0054404Y0058226D01*
X0054881Y0059377D01*
X0054881Y0060623D01*
X0054404Y0061774D01*
X0053524Y0062654D01*
X0052373Y0063131D01*
X0051127Y0063131D01*
X0049976Y0062654D01*
X0049472Y0062150D01*
X0037641Y0062150D01*
X0034900Y0064891D01*
X0034900Y0084130D01*
X0035269Y0083239D01*
X0036689Y0081819D01*
X0038545Y0081050D01*
X0040555Y0081050D01*
X0042411Y0081819D01*
X0043831Y0083239D01*
X0044600Y0085095D01*
X0044600Y0087105D01*
X0043831Y0088961D01*
X0042791Y0090001D01*
X0043641Y0090850D01*
X0127893Y0090850D01*
X0126300Y0089257D01*
X0126300Y0087250D01*
X0131500Y0087250D01*
X0131500Y0086750D01*
X0126300Y0086750D01*
X0126300Y0084743D01*
X0129325Y0081717D01*
X0126700Y0079092D01*
X0126700Y0074908D01*
X0129608Y0072000D01*
X0126700Y0069092D01*
X0126700Y0064908D01*
X0127659Y0063949D01*
X0120944Y0057234D01*
X0120524Y0057654D01*
X0119373Y0058131D01*
X0118127Y0058131D01*
X0116976Y0057654D01*
X0116096Y0056774D01*
X0115619Y0055623D01*
X0115619Y0054377D01*
X0116096Y0053226D01*
X0116976Y0052346D01*
X0118127Y0051869D01*
X0119373Y0051869D01*
X0120524Y0052346D01*
X0121028Y0052850D01*
X0122641Y0052850D01*
X0123900Y0054109D01*
X0131741Y0061950D01*
X0133842Y0061950D01*
X0136700Y0064808D01*
X0136700Y0062741D01*
X0137491Y0061950D01*
X0146009Y0061950D01*
X0146800Y0062741D01*
X0146800Y0071259D01*
X0146009Y0072050D01*
X0143942Y0072050D01*
X0146800Y0074908D01*
X0146800Y0079092D01*
X0143892Y0082000D01*
X0146800Y0084908D01*
X0146800Y0089092D01*
X0143842Y0092050D01*
X0143741Y0092050D01*
X0141900Y0093891D01*
X0140641Y0095150D01*
X0041859Y0095150D01*
X0037600Y0090891D01*
X0037600Y0090758D01*
X0036689Y0090381D01*
X0035269Y0088961D01*
X0034900Y0088070D01*
X0034900Y0101028D01*
X0035393Y0100350D01*
X0036000Y0099743D01*
X0036694Y0099239D01*
X0037458Y0098849D01*
X0038274Y0098584D01*
X0039121Y0098450D01*
X0039300Y0098450D01*
X0039300Y0103650D01*
X0039800Y0103650D01*
X0039800Y0104150D01*
X0039300Y0104150D01*
X0039300Y0109350D01*
X0039121Y0109350D01*
X0038274Y0109216D01*
X0037458Y0108951D01*
X0036694Y0108561D01*
X0036000Y0108057D01*
X0035393Y0107450D01*
X0034900Y0106772D01*
X0034900Y0150891D01*
X0033641Y0152150D01*
X0032859Y0152932D01*
X0033091Y0153492D01*
X0033091Y0155501D01*
X0032322Y0157357D01*
X0030902Y0158778D01*
X0029654Y0159295D01*
X0030782Y0159295D01*
X0032638Y0160064D01*
X0034059Y0161484D01*
X0034542Y0162650D01*
X0047416Y0162650D01*
X0048648Y0163160D01*
X0049590Y0164102D01*
X0058138Y0172650D01*
X0120362Y0172650D01*
X0123400Y0169612D01*
X0123400Y0160334D01*
X0123910Y0159102D01*
X0124852Y0158160D01*
X0129852Y0153160D01*
X0131084Y0152650D01*
X0140909Y0152650D01*
X0141070Y0152583D01*
X0142430Y0152583D01*
X0142591Y0152650D01*
X0144416Y0152650D01*
X0145648Y0153160D01*
X0146590Y0154102D01*
X0147100Y0155334D01*
X0147100Y0156309D01*
X0150041Y0159250D01*
X0150041Y0114668D01*
X0150619Y0114091D01*
X0150619Y0113377D01*
X0151096Y0112226D01*
X0151976Y0111346D01*
X0153127Y0110869D01*
X0154373Y0110869D01*
X0155524Y0111346D01*
X0156404Y0112226D01*
X0156881Y0113377D01*
X0156881Y0114623D01*
X0156404Y0115774D01*
X0155524Y0116654D01*
X0154373Y0117131D01*
X0154341Y0117131D01*
X0154341Y0130369D01*
X0161619Y0123091D01*
X0161619Y0122377D01*
X0162096Y0121226D01*
X0162976Y0120346D01*
X0164127Y0119869D01*
X0165373Y0119869D01*
X0166524Y0120346D01*
X0167404Y0121226D01*
X0167881Y0122377D01*
X0167881Y0123623D01*
X0167404Y0124774D01*
X0166524Y0125654D01*
X0165373Y0126131D01*
X0164659Y0126131D01*
X0156900Y0133891D01*
X0156900Y0160681D01*
X0158207Y0160681D01*
X0158647Y0160428D01*
X0159192Y0160281D01*
X0159868Y0160281D01*
X0159868Y0164984D01*
X0159868Y0164984D01*
X0159868Y0160281D01*
X0160544Y0160281D01*
X0161089Y0160428D01*
X0161578Y0160710D01*
X0161977Y0161109D01*
X0162259Y0161598D01*
X0162405Y0162143D01*
X0162405Y0164984D01*
X0159868Y0164984D01*
X0159868Y0164984D01*
X0162405Y0164984D01*
X0162405Y0167826D01*
X0162259Y0168371D01*
X0161977Y0168860D01*
X0161780Y0169057D01*
X0162400Y0169180D01*
X0163059Y0169453D01*
X0163652Y0169850D01*
X0164156Y0170354D01*
X0164422Y0170751D01*
X0164829Y0170141D01*
X0165064Y0169906D01*
X0164883Y0169831D01*
X0164370Y0169489D01*
X0163935Y0169053D01*
X0163592Y0168541D01*
X0163356Y0167971D01*
X0163236Y0167367D01*
X0163236Y0166309D01*
X0167508Y0166309D01*
X0167508Y0168781D01*
X0167742Y0168781D01*
X0167742Y0174531D01*
X0167742Y0174531D01*
X0167742Y0168781D01*
X0168111Y0168781D01*
X0168764Y0168911D01*
X0168764Y0166309D01*
X0173035Y0166309D01*
X0173035Y0167367D01*
X0172915Y0167971D01*
X0172679Y0168541D01*
X0172337Y0169053D01*
X0171901Y0169489D01*
X0171389Y0169831D01*
X0170820Y0170067D01*
X0170620Y0170106D01*
X0170655Y0170141D01*
X0171065Y0170755D01*
X0171348Y0171438D01*
X0171492Y0172162D01*
X0171492Y0174531D01*
X0167742Y0174531D01*
X0163992Y0174531D01*
X0163992Y0173782D01*
X0160224Y0173782D01*
X0160224Y0175281D01*
X0163992Y0175281D01*
X0163992Y0174532D01*
X0167742Y0174532D01*
X0167742Y0180281D01*
X0167373Y0180281D01*
X0166648Y0180137D01*
X0165966Y0179855D01*
X0165352Y0179444D01*
X0164829Y0178922D01*
X0164422Y0178312D01*
X0164156Y0178709D01*
X0163652Y0179213D01*
X0163059Y0179610D01*
X0162400Y0179883D01*
X0161701Y0180022D01*
X0160224Y0180022D01*
X0160224Y0175282D01*
X0158724Y0175282D01*
X0158724Y0180022D01*
X0157248Y0180022D01*
X0156548Y0179883D01*
X0155890Y0179610D01*
X0155297Y0179213D01*
X0154792Y0178709D01*
X0154750Y0178646D01*
X0154708Y0178709D01*
X0154203Y0179213D01*
X0153610Y0179610D01*
X0152952Y0179883D01*
X0152252Y0180022D01*
X0150776Y0180022D01*
X0150776Y0175282D01*
X0149276Y0175282D01*
X0149276Y0180022D01*
X0147799Y0180022D01*
X0147100Y0179883D01*
X0146441Y0179610D01*
X0145848Y0179213D01*
X0145344Y0178709D01*
X0145078Y0178312D01*
X0144671Y0178922D01*
X0144148Y0179444D01*
X0143534Y0179855D01*
X0142852Y0180137D01*
X0142127Y0180281D01*
X0141758Y0180281D01*
X0141758Y0174532D01*
X0141758Y0174532D01*
X0141758Y0180281D01*
X0141389Y0180281D01*
X0140664Y0180137D01*
X0139982Y0179855D01*
X0139367Y0179444D01*
X0138845Y0178922D01*
X0138435Y0178308D01*
X0138152Y0177625D01*
X0138008Y0176901D01*
X0138008Y0174532D01*
X0141758Y0174532D01*
X0145508Y0174532D01*
X0145508Y0175281D01*
X0149276Y0175281D01*
X0149276Y0173782D01*
X0145508Y0173782D01*
X0145508Y0174531D01*
X0141758Y0174531D01*
X0141758Y0168781D01*
X0141992Y0168781D01*
X0141992Y0166309D01*
X0140736Y0166309D01*
X0140736Y0165053D01*
X0136465Y0165053D01*
X0136465Y0163995D01*
X0136585Y0163391D01*
X0136821Y0162822D01*
X0137163Y0162309D01*
X0137599Y0161874D01*
X0138111Y0161531D01*
X0138680Y0161295D01*
X0139284Y0161175D01*
X0140736Y0161175D01*
X0140736Y0165053D01*
X0141992Y0165053D01*
X0141992Y0161175D01*
X0143444Y0161175D01*
X0144048Y0161295D01*
X0144617Y0161531D01*
X0145130Y0161874D01*
X0145565Y0162309D01*
X0145908Y0162822D01*
X0146144Y0163391D01*
X0146264Y0163995D01*
X0146264Y0165053D01*
X0141992Y0165053D01*
X0141992Y0166309D01*
X0146264Y0166309D01*
X0146264Y0167367D01*
X0146144Y0167971D01*
X0145908Y0168541D01*
X0145565Y0169053D01*
X0145130Y0169489D01*
X0144617Y0169831D01*
X0144436Y0169906D01*
X0144671Y0170141D01*
X0145078Y0170751D01*
X0145344Y0170354D01*
X0145848Y0169850D01*
X0146441Y0169453D01*
X0147100Y0169180D01*
X0147799Y0169041D01*
X0148094Y0169041D01*
X0148094Y0168866D01*
X0147494Y0168266D01*
X0147494Y0165887D01*
X0147482Y0165875D01*
X0147482Y0162772D01*
X0144059Y0159350D01*
X0142591Y0159350D01*
X0142430Y0159417D01*
X0141070Y0159417D01*
X0140909Y0159350D01*
X0133138Y0159350D01*
X0130100Y0162388D01*
X0130100Y0171666D01*
X0129590Y0172898D01*
X0123648Y0178840D01*
X0122416Y0179350D01*
X0056084Y0179350D01*
X0054852Y0178840D01*
X0045362Y0169350D01*
X0036187Y0169350D01*
X0036199Y0169376D01*
X0036838Y0173000D01*
X0031717Y0173903D01*
X0031804Y0174396D01*
X0031311Y0174482D01*
X0031224Y0173990D01*
X0026103Y0174893D01*
X0025464Y0171269D01*
X0025505Y0170809D01*
X0025662Y0170376D01*
X0025926Y0169999D01*
X0026279Y0169703D01*
X0026697Y0169508D01*
X0028345Y0169217D01*
X0026917Y0168626D01*
X0025986Y0167695D01*
X0019428Y0167695D01*
X0018197Y0167185D01*
X0012852Y0161840D01*
X0011910Y0160898D01*
X0011400Y0159666D01*
X0011400Y0113334D01*
X0011910Y0112102D01*
X0014716Y0109297D01*
X0014379Y0109350D01*
X0014200Y0109350D01*
X0014200Y0104150D01*
X0019400Y0104150D01*
X0019400Y0104329D01*
X0019347Y0104666D01*
X0021400Y0102612D01*
X0021400Y0050334D01*
X0021910Y0049102D01*
X0024910Y0046102D01*
X0025852Y0045160D01*
X0027084Y0044650D01*
X0033362Y0044650D01*
X0036200Y0041812D01*
X0036200Y0041126D01*
X0035608Y0040534D01*
X0034900Y0038825D01*
X0034900Y0036975D01*
X0035608Y0035266D01*
X0036916Y0033958D01*
X0038625Y0033250D01*
X0040475Y0033250D01*
X0042184Y0033958D01*
X0043784Y0035970D02*
X0079600Y0035970D01*
X0079600Y0037469D02*
X0044200Y0037469D01*
X0044141Y0038967D02*
X0079600Y0038967D01*
X0079600Y0040466D02*
X0043520Y0040466D01*
X0042900Y0041964D02*
X0079600Y0041964D01*
X0079600Y0043463D02*
X0042900Y0043463D01*
X0042446Y0044961D02*
X0079600Y0044961D01*
X0079600Y0046460D02*
X0041028Y0046460D01*
X0039529Y0047958D02*
X0079600Y0047958D01*
X0079600Y0049457D02*
X0038031Y0049457D01*
X0036369Y0050955D02*
X0079600Y0050955D01*
X0079600Y0052454D02*
X0028100Y0052454D01*
X0028100Y0053952D02*
X0079600Y0053952D01*
X0079600Y0055451D02*
X0028100Y0055451D01*
X0028100Y0056949D02*
X0050933Y0056949D01*
X0052567Y0056949D02*
X0079600Y0056949D01*
X0079600Y0058448D02*
X0054496Y0058448D01*
X0054881Y0059946D02*
X0079600Y0059946D01*
X0079600Y0061445D02*
X0054541Y0061445D01*
X0052826Y0062943D02*
X0078799Y0062943D01*
X0078619Y0064442D02*
X0035349Y0064442D01*
X0034900Y0065940D02*
X0079262Y0065940D01*
X0084238Y0065940D02*
X0126700Y0065940D01*
X0126700Y0067439D02*
X0034900Y0067439D01*
X0034900Y0068937D02*
X0126700Y0068937D01*
X0128044Y0070436D02*
X0034900Y0070436D01*
X0034900Y0071934D02*
X0129543Y0071934D01*
X0128175Y0073433D02*
X0034900Y0073433D01*
X0034900Y0074932D02*
X0126700Y0074932D01*
X0126700Y0076430D02*
X0034900Y0076430D01*
X0034900Y0077929D02*
X0126700Y0077929D01*
X0127035Y0079427D02*
X0034900Y0079427D01*
X0034900Y0080926D02*
X0128534Y0080926D01*
X0128618Y0082424D02*
X0043016Y0082424D01*
X0044114Y0083923D02*
X0127120Y0083923D01*
X0126300Y0085421D02*
X0044600Y0085421D01*
X0044600Y0086920D02*
X0131500Y0086920D01*
X0126300Y0088418D02*
X0044056Y0088418D01*
X0042875Y0089917D02*
X0126959Y0089917D01*
X0141378Y0094412D02*
X0173600Y0094412D01*
X0173600Y0092914D02*
X0142877Y0092914D01*
X0144477Y0091415D02*
X0173600Y0091415D01*
X0173600Y0089917D02*
X0145975Y0089917D01*
X0146800Y0088418D02*
X0173600Y0088418D01*
X0173600Y0086920D02*
X0146800Y0086920D01*
X0146800Y0085421D02*
X0173600Y0085421D01*
X0173600Y0083923D02*
X0145814Y0083923D01*
X0144316Y0082424D02*
X0173600Y0082424D01*
X0173600Y0080926D02*
X0144966Y0080926D01*
X0146465Y0079427D02*
X0173600Y0079427D01*
X0173600Y0077929D02*
X0146800Y0077929D01*
X0146800Y0076430D02*
X0173600Y0076430D01*
X0173600Y0074932D02*
X0146800Y0074932D01*
X0145325Y0073433D02*
X0173600Y0073433D01*
X0173600Y0071934D02*
X0146125Y0071934D01*
X0146800Y0070436D02*
X0173600Y0070436D01*
X0173600Y0068937D02*
X0146800Y0068937D01*
X0146800Y0067439D02*
X0173600Y0067439D01*
X0173600Y0065940D02*
X0146800Y0065940D01*
X0146800Y0064442D02*
X0173600Y0064442D01*
X0173600Y0062943D02*
X0146800Y0062943D01*
X0136700Y0062943D02*
X0134835Y0062943D01*
X0136334Y0064442D02*
X0136700Y0064442D01*
X0131235Y0061445D02*
X0173600Y0061445D01*
X0173600Y0059946D02*
X0129737Y0059946D01*
X0128238Y0058448D02*
X0173600Y0058448D01*
X0173600Y0056949D02*
X0126740Y0056949D01*
X0125241Y0055451D02*
X0173600Y0055451D01*
X0173600Y0053952D02*
X0123743Y0053952D01*
X0120632Y0052454D02*
X0173600Y0052454D01*
X0173600Y0050955D02*
X0083900Y0050955D01*
X0083900Y0049457D02*
X0173600Y0049457D01*
X0173600Y0047958D02*
X0083900Y0047958D01*
X0083900Y0046460D02*
X0173600Y0046460D01*
X0173600Y0044961D02*
X0083900Y0044961D01*
X0083900Y0043463D02*
X0173600Y0043463D01*
X0173600Y0041964D02*
X0083900Y0041964D01*
X0083900Y0040466D02*
X0173600Y0040466D01*
X0173600Y0038967D02*
X0083900Y0038967D01*
X0083900Y0037469D02*
X0173600Y0037469D01*
X0173600Y0036891D02*
X0165859Y0029150D01*
X0118859Y0029150D01*
X0115485Y0025776D01*
X0114226Y0024517D01*
X0114226Y0023804D01*
X0113515Y0023510D01*
X0112095Y0022089D01*
X0111376Y0020354D01*
X0110657Y0022089D01*
X0109237Y0023510D01*
X0107380Y0024278D01*
X0105371Y0024278D01*
X0103515Y0023510D01*
X0102095Y0022089D01*
X0101580Y0020847D01*
X0101427Y0021320D01*
X0101037Y0022085D01*
X0100533Y0022779D01*
X0099926Y0023385D01*
X0099232Y0023890D01*
X0098468Y0024279D01*
X0097652Y0024544D01*
X0096805Y0024678D01*
X0096626Y0024678D01*
X0096626Y0019478D01*
X0096126Y0019478D01*
X0096126Y0018978D01*
X0096626Y0018978D01*
X0096626Y0013778D01*
X0096805Y0013778D01*
X0097652Y0013913D01*
X0098468Y0014178D01*
X0099232Y0014567D01*
X0099926Y0015071D01*
X0100533Y0015678D01*
X0101037Y0016372D01*
X0101427Y0017136D01*
X0101580Y0017610D01*
X0102095Y0016368D01*
X0103515Y0014947D01*
X0105371Y0014178D01*
X0107380Y0014178D01*
X0109237Y0014947D01*
X0110657Y0016368D01*
X0111376Y0018103D01*
X0112095Y0016368D01*
X0113515Y0014947D01*
X0115371Y0014178D01*
X0117380Y0014178D01*
X0119237Y0014947D01*
X0120657Y0016368D01*
X0121326Y0017982D01*
X0121326Y0014969D01*
X0122117Y0014178D01*
X0130635Y0014178D01*
X0131426Y0014969D01*
X0131426Y0023488D01*
X0130635Y0024278D01*
X0122117Y0024278D01*
X0121326Y0023488D01*
X0121326Y0020474D01*
X0120657Y0022089D01*
X0119268Y0023478D01*
X0120641Y0024850D01*
X0167641Y0024850D01*
X0176641Y0033850D01*
X0177900Y0035109D01*
X0177900Y0114109D01*
X0182641Y0118850D01*
X0252619Y0118850D01*
X0252619Y0118377D01*
X0253096Y0117226D01*
X0253976Y0116346D01*
X0255127Y0115869D01*
X0256373Y0115869D01*
X0257524Y0116346D01*
X0258404Y0117226D01*
X0258881Y0118377D01*
X0258881Y0119623D01*
X0258404Y0120774D01*
X0257524Y0121654D01*
X0256373Y0122131D01*
X0255659Y0122131D01*
X0254641Y0123150D01*
X0180859Y0123150D01*
X0179600Y0121891D01*
X0173600Y0115891D01*
X0173600Y0036891D01*
X0172680Y0035970D02*
X0083900Y0035970D01*
X0083900Y0034472D02*
X0171181Y0034472D01*
X0169683Y0032973D02*
X0083900Y0032973D01*
X0083900Y0031475D02*
X0168184Y0031475D01*
X0166686Y0029976D02*
X0083900Y0029976D01*
X0083900Y0028478D02*
X0118187Y0028478D01*
X0116689Y0026979D02*
X0083900Y0026979D01*
X0083900Y0025481D02*
X0115190Y0025481D01*
X0114226Y0023982D02*
X0108096Y0023982D01*
X0110262Y0022484D02*
X0112489Y0022484D01*
X0111638Y0020985D02*
X0111114Y0020985D01*
X0111328Y0017988D02*
X0111424Y0017988D01*
X0112044Y0016490D02*
X0110708Y0016490D01*
X0109280Y0014991D02*
X0113471Y0014991D01*
X0119280Y0014991D02*
X0121326Y0014991D01*
X0121326Y0016490D02*
X0120708Y0016490D01*
X0121114Y0020985D02*
X0121326Y0020985D01*
X0121326Y0022484D02*
X0120262Y0022484D01*
X0119773Y0023982D02*
X0121821Y0023982D01*
X0130931Y0023982D02*
X0179600Y0023982D01*
X0179600Y0022484D02*
X0131426Y0022484D01*
X0131426Y0020985D02*
X0179600Y0020985D01*
X0179600Y0019487D02*
X0131426Y0019487D01*
X0131426Y0017988D02*
X0179600Y0017988D01*
X0179199Y0016490D02*
X0131426Y0016490D01*
X0131426Y0014991D02*
X0177701Y0014991D01*
X0176202Y0013493D02*
X0092298Y0013493D01*
X0093520Y0014567D02*
X0092826Y0015071D01*
X0092219Y0015678D01*
X0091715Y0016372D01*
X0091325Y0017136D01*
X0091060Y0017952D01*
X0090926Y0018799D01*
X0090926Y0018978D01*
X0096126Y0018978D01*
X0096126Y0013778D01*
X0095947Y0013778D01*
X0095100Y0013913D01*
X0094284Y0014178D01*
X0093520Y0014567D01*
X0092936Y0014991D02*
X0090799Y0014991D01*
X0091655Y0016490D02*
X0089301Y0016490D01*
X0087802Y0017988D02*
X0091054Y0017988D01*
X0090926Y0019478D02*
X0096126Y0019478D01*
X0096126Y0024678D01*
X0095947Y0024678D01*
X0095100Y0024544D01*
X0094284Y0024279D01*
X0093520Y0023890D01*
X0092826Y0023385D01*
X0092219Y0022779D01*
X0091715Y0022085D01*
X0091325Y0021320D01*
X0091060Y0020505D01*
X0090926Y0019657D01*
X0090926Y0019478D01*
X0090926Y0019487D02*
X0086304Y0019487D01*
X0084805Y0020985D02*
X0091216Y0020985D01*
X0092005Y0022484D02*
X0083900Y0022484D01*
X0083900Y0023982D02*
X0093701Y0023982D01*
X0096126Y0023982D02*
X0096626Y0023982D01*
X0096626Y0022484D02*
X0096126Y0022484D01*
X0096126Y0020985D02*
X0096626Y0020985D01*
X0096626Y0019487D02*
X0096126Y0019487D01*
X0096126Y0017988D02*
X0096626Y0017988D01*
X0096626Y0016490D02*
X0096126Y0016490D01*
X0096126Y0014991D02*
X0096626Y0014991D01*
X0099816Y0014991D02*
X0103471Y0014991D01*
X0102044Y0016490D02*
X0101097Y0016490D01*
X0101536Y0020985D02*
X0101638Y0020985D01*
X0102489Y0022484D02*
X0100747Y0022484D01*
X0099051Y0023982D02*
X0104656Y0023982D01*
X0052722Y0032973D02*
X0016178Y0032973D01*
X0017518Y0031475D02*
X0051382Y0031475D01*
X0036402Y0034472D02*
X0032898Y0034472D01*
X0032384Y0033958D02*
X0033692Y0035266D01*
X0034400Y0036975D01*
X0034400Y0038825D01*
X0033692Y0040534D01*
X0032384Y0041842D01*
X0030675Y0042550D01*
X0028825Y0042550D01*
X0027116Y0041842D01*
X0025808Y0040534D01*
X0025100Y0038825D01*
X0025100Y0036975D01*
X0025808Y0035266D01*
X0027116Y0033958D01*
X0028825Y0033250D01*
X0030675Y0033250D01*
X0032384Y0033958D01*
X0033984Y0035970D02*
X0035316Y0035970D01*
X0034900Y0037469D02*
X0034400Y0037469D01*
X0034341Y0038967D02*
X0034959Y0038967D01*
X0035580Y0040466D02*
X0033720Y0040466D01*
X0032089Y0041964D02*
X0036048Y0041964D01*
X0034550Y0043463D02*
X0004250Y0043463D01*
X0004250Y0044961D02*
X0026332Y0044961D01*
X0024553Y0046460D02*
X0004250Y0046460D01*
X0004250Y0047958D02*
X0023054Y0047958D01*
X0021763Y0049457D02*
X0004250Y0049457D01*
X0004250Y0050955D02*
X0021400Y0050955D01*
X0021400Y0052454D02*
X0004250Y0052454D01*
X0004250Y0053952D02*
X0021400Y0053952D01*
X0021400Y0055451D02*
X0004250Y0055451D01*
X0004250Y0056949D02*
X0021400Y0056949D01*
X0021400Y0058448D02*
X0004250Y0058448D01*
X0004250Y0059946D02*
X0021400Y0059946D01*
X0021400Y0061445D02*
X0004250Y0061445D01*
X0004250Y0062943D02*
X0021400Y0062943D01*
X0021400Y0064442D02*
X0004250Y0064442D01*
X0004250Y0065940D02*
X0021400Y0065940D01*
X0021400Y0067439D02*
X0004250Y0067439D01*
X0004250Y0068937D02*
X0021400Y0068937D01*
X0021400Y0070436D02*
X0004250Y0070436D01*
X0004250Y0071934D02*
X0021400Y0071934D01*
X0021400Y0073433D02*
X0004250Y0073433D01*
X0004250Y0074932D02*
X0021400Y0074932D01*
X0021400Y0076430D02*
X0004250Y0076430D01*
X0004250Y0077929D02*
X0021400Y0077929D01*
X0021400Y0079427D02*
X0004250Y0079427D01*
X0004250Y0080926D02*
X0021400Y0080926D01*
X0021400Y0082424D02*
X0017416Y0082424D01*
X0016811Y0081819D02*
X0018231Y0083239D01*
X0019000Y0085095D01*
X0019000Y0087105D01*
X0018231Y0088961D01*
X0016811Y0090381D01*
X0014955Y0091150D01*
X0012945Y0091150D01*
X0011089Y0090381D01*
X0009669Y0088961D01*
X0008900Y0087105D01*
X0008900Y0085095D01*
X0009669Y0083239D01*
X0011089Y0081819D01*
X0012945Y0081050D01*
X0014955Y0081050D01*
X0016811Y0081819D01*
X0018514Y0083923D02*
X0021400Y0083923D01*
X0021400Y0085421D02*
X0019000Y0085421D01*
X0019000Y0086920D02*
X0021400Y0086920D01*
X0021400Y0088418D02*
X0018456Y0088418D01*
X0017275Y0089917D02*
X0021400Y0089917D01*
X0021400Y0091415D02*
X0004250Y0091415D01*
X0004250Y0089917D02*
X0010625Y0089917D01*
X0009444Y0088418D02*
X0004250Y0088418D01*
X0004250Y0086920D02*
X0008900Y0086920D01*
X0008900Y0085421D02*
X0004250Y0085421D01*
X0004250Y0083923D02*
X0009386Y0083923D01*
X0010484Y0082424D02*
X0004250Y0082424D01*
X0028100Y0082424D02*
X0030600Y0082424D01*
X0030600Y0080926D02*
X0028100Y0080926D01*
X0028100Y0079427D02*
X0030600Y0079427D01*
X0030600Y0077929D02*
X0028100Y0077929D01*
X0028100Y0076430D02*
X0030600Y0076430D01*
X0030600Y0074932D02*
X0028100Y0074932D01*
X0028100Y0073433D02*
X0030600Y0073433D01*
X0030600Y0071934D02*
X0028100Y0071934D01*
X0028100Y0070436D02*
X0030600Y0070436D01*
X0030600Y0068937D02*
X0028100Y0068937D01*
X0028100Y0067439D02*
X0030600Y0067439D01*
X0030600Y0065940D02*
X0028100Y0065940D01*
X0028100Y0064442D02*
X0030600Y0064442D01*
X0030766Y0062943D02*
X0028100Y0062943D01*
X0028100Y0061445D02*
X0032265Y0061445D01*
X0033763Y0059946D02*
X0028100Y0059946D01*
X0028100Y0058448D02*
X0035262Y0058448D01*
X0036847Y0062943D02*
X0050674Y0062943D01*
X0083900Y0061445D02*
X0125154Y0061445D01*
X0123656Y0059946D02*
X0083900Y0059946D01*
X0083900Y0058448D02*
X0122157Y0058448D01*
X0116271Y0056949D02*
X0083900Y0056949D01*
X0083900Y0055451D02*
X0115619Y0055451D01*
X0115795Y0053952D02*
X0083900Y0053952D01*
X0083900Y0052454D02*
X0116868Y0052454D01*
X0126653Y0062943D02*
X0084701Y0062943D01*
X0084881Y0064442D02*
X0127166Y0064442D01*
X0177900Y0064442D02*
X0472205Y0064442D01*
X0472205Y0064421D02*
X0472317Y0063711D01*
X0472539Y0063029D01*
X0472865Y0062389D01*
X0473287Y0061808D01*
X0473794Y0061301D01*
X0474375Y0060879D01*
X0475015Y0060553D01*
X0475698Y0060331D01*
X0476407Y0060219D01*
X0476610Y0060218D01*
X0476610Y0064624D01*
X0472205Y0064624D01*
X0472205Y0064421D01*
X0472205Y0064935D02*
X0476610Y0064935D01*
X0476610Y0064624D01*
X0476921Y0064624D01*
X0476921Y0060219D01*
X0477125Y0060219D01*
X0477834Y0060331D01*
X0478517Y0060553D01*
X0479156Y0060879D01*
X0479737Y0061301D01*
X0480245Y0061808D01*
X0480667Y0062389D01*
X0480993Y0063029D01*
X0481214Y0063711D01*
X0481327Y0064421D01*
X0481327Y0064624D01*
X0476921Y0064624D01*
X0476921Y0064935D01*
X0481327Y0064935D01*
X0481327Y0065138D01*
X0481214Y0065848D01*
X0480993Y0066530D01*
X0480667Y0067170D01*
X0480245Y0067751D01*
X0479737Y0068258D01*
X0479156Y0068680D01*
X0478517Y0069006D01*
X0477834Y0069228D01*
X0477616Y0069263D01*
X0479850Y0070188D01*
X0482066Y0072404D01*
X0483265Y0075299D01*
X0483265Y0078433D01*
X0482066Y0081328D01*
X0479850Y0083544D01*
X0476955Y0084744D01*
X0473821Y0084744D01*
X0470926Y0083544D01*
X0468710Y0081328D01*
X0467510Y0078433D01*
X0467510Y0075299D01*
X0468710Y0072404D01*
X0470926Y0070188D01*
X0473821Y0068989D01*
X0474980Y0068989D01*
X0474375Y0068680D01*
X0473794Y0068258D01*
X0473287Y0067751D01*
X0472865Y0067170D01*
X0472539Y0066530D01*
X0472317Y0065848D01*
X0472205Y0065138D01*
X0472205Y0064935D01*
X0472347Y0065940D02*
X0177900Y0065940D01*
X0177900Y0067439D02*
X0473060Y0067439D01*
X0474880Y0068937D02*
X0177900Y0068937D01*
X0177900Y0070436D02*
X0327044Y0070436D01*
X0326498Y0070662D02*
X0328514Y0069827D01*
X0330695Y0069827D01*
X0332711Y0070662D01*
X0334253Y0072205D01*
X0335088Y0074220D01*
X0335088Y0076402D01*
X0334253Y0078417D01*
X0332711Y0079960D01*
X0330695Y0080795D01*
X0328514Y0080795D01*
X0326498Y0079960D01*
X0324955Y0078417D01*
X0324120Y0076402D01*
X0324120Y0074220D01*
X0324955Y0072205D01*
X0326498Y0070662D01*
X0325226Y0071934D02*
X0177900Y0071934D01*
X0177900Y0073433D02*
X0324447Y0073433D01*
X0324120Y0074932D02*
X0177900Y0074932D01*
X0177900Y0076430D02*
X0324132Y0076430D01*
X0324753Y0077929D02*
X0177900Y0077929D01*
X0177900Y0079427D02*
X0325965Y0079427D01*
X0333244Y0079427D02*
X0373997Y0079427D01*
X0374529Y0079960D02*
X0372987Y0078417D01*
X0372152Y0076402D01*
X0372152Y0074220D01*
X0372987Y0072205D01*
X0374529Y0070662D01*
X0376545Y0069827D01*
X0378727Y0069827D01*
X0380742Y0070662D01*
X0382285Y0072205D01*
X0383120Y0074220D01*
X0383120Y0076402D01*
X0382285Y0078417D01*
X0380742Y0079960D01*
X0378727Y0080795D01*
X0376545Y0080795D01*
X0374529Y0079960D01*
X0372784Y0077929D02*
X0334456Y0077929D01*
X0335077Y0076430D02*
X0372164Y0076430D01*
X0372152Y0074932D02*
X0335088Y0074932D01*
X0334762Y0073433D02*
X0372478Y0073433D01*
X0373257Y0071934D02*
X0333983Y0071934D01*
X0332165Y0070436D02*
X0375075Y0070436D01*
X0380196Y0070436D02*
X0470677Y0070436D01*
X0469179Y0071934D02*
X0382015Y0071934D01*
X0382794Y0073433D02*
X0468283Y0073433D01*
X0467663Y0074932D02*
X0383120Y0074932D01*
X0383108Y0076430D02*
X0467510Y0076430D01*
X0467510Y0077929D02*
X0382487Y0077929D01*
X0381275Y0079427D02*
X0467922Y0079427D01*
X0468543Y0080926D02*
X0177900Y0080926D01*
X0177900Y0082424D02*
X0469805Y0082424D01*
X0471839Y0083923D02*
X0177900Y0083923D01*
X0177900Y0085421D02*
X0327697Y0085421D01*
X0328514Y0085083D02*
X0330695Y0085083D01*
X0332711Y0085918D01*
X0334253Y0087461D01*
X0335088Y0089476D01*
X0335088Y0091658D01*
X0334253Y0093673D01*
X0332711Y0095216D01*
X0330695Y0096051D01*
X0328514Y0096051D01*
X0326498Y0095216D01*
X0324955Y0093673D01*
X0324120Y0091658D01*
X0324120Y0089476D01*
X0324955Y0087461D01*
X0326498Y0085918D01*
X0328514Y0085083D01*
X0331511Y0085421D02*
X0375729Y0085421D01*
X0376545Y0085083D02*
X0378727Y0085083D01*
X0380742Y0085918D01*
X0382285Y0087461D01*
X0383120Y0089476D01*
X0383120Y0091658D01*
X0382285Y0093673D01*
X0380742Y0095216D01*
X0378727Y0096051D01*
X0376545Y0096051D01*
X0374529Y0095216D01*
X0372987Y0093673D01*
X0372152Y0091658D01*
X0372152Y0089476D01*
X0372987Y0087461D01*
X0374529Y0085918D01*
X0376545Y0085083D01*
X0379543Y0085421D02*
X0542821Y0085421D01*
X0542821Y0083923D02*
X0501299Y0083923D01*
X0502212Y0083544D02*
X0499317Y0084744D01*
X0496183Y0084744D01*
X0493288Y0083544D01*
X0491072Y0081328D01*
X0489872Y0078433D01*
X0489872Y0075299D01*
X0491072Y0072404D01*
X0493288Y0070188D01*
X0496183Y0068989D01*
X0499317Y0068989D01*
X0502212Y0070188D01*
X0504428Y0072404D01*
X0505628Y0075299D01*
X0505628Y0078433D01*
X0504428Y0081328D01*
X0502212Y0083544D01*
X0503333Y0082424D02*
X0542821Y0082424D01*
X0542821Y0080926D02*
X0504595Y0080926D01*
X0505216Y0079427D02*
X0542821Y0079427D01*
X0542821Y0077929D02*
X0505628Y0077929D01*
X0505628Y0076430D02*
X0542821Y0076430D01*
X0542821Y0074932D02*
X0505475Y0074932D01*
X0504855Y0073433D02*
X0542821Y0073433D01*
X0542821Y0071934D02*
X0503959Y0071934D01*
X0502460Y0070436D02*
X0542821Y0070436D01*
X0542821Y0068937D02*
X0488967Y0068937D01*
X0488832Y0069006D02*
X0488149Y0069228D01*
X0487440Y0069341D01*
X0487236Y0069341D01*
X0487236Y0064935D01*
X0486925Y0064935D01*
X0486925Y0064624D01*
X0482520Y0064624D01*
X0482520Y0064421D01*
X0482632Y0063711D01*
X0482854Y0063029D01*
X0483180Y0062389D01*
X0483602Y0061808D01*
X0484109Y0061301D01*
X0484690Y0060879D01*
X0485330Y0060553D01*
X0486013Y0060331D01*
X0486722Y0060219D01*
X0486925Y0060218D01*
X0486925Y0064624D01*
X0487236Y0064624D01*
X0487236Y0060219D01*
X0487440Y0060219D01*
X0488149Y0060331D01*
X0488832Y0060553D01*
X0489471Y0060879D01*
X0490052Y0061301D01*
X0490560Y0061808D01*
X0490982Y0062389D01*
X0491308Y0063029D01*
X0491529Y0063711D01*
X0491642Y0064421D01*
X0491642Y0064624D01*
X0487236Y0064624D01*
X0487236Y0064935D01*
X0491642Y0064935D01*
X0491642Y0065138D01*
X0491529Y0065848D01*
X0491308Y0066530D01*
X0490982Y0067170D01*
X0490560Y0067751D01*
X0490052Y0068258D01*
X0489471Y0068680D01*
X0488832Y0069006D01*
X0487236Y0068937D02*
X0486925Y0068937D01*
X0486925Y0069341D02*
X0486722Y0069341D01*
X0486013Y0069228D01*
X0485330Y0069006D01*
X0484690Y0068680D01*
X0484109Y0068258D01*
X0483602Y0067751D01*
X0483180Y0067170D01*
X0482854Y0066530D01*
X0482632Y0065848D01*
X0482520Y0065138D01*
X0482520Y0064935D01*
X0486925Y0064935D01*
X0486925Y0069341D01*
X0485195Y0068937D02*
X0478652Y0068937D01*
X0480098Y0070436D02*
X0493040Y0070436D01*
X0491541Y0071934D02*
X0481597Y0071934D01*
X0482492Y0073433D02*
X0490645Y0073433D01*
X0490025Y0074932D02*
X0483113Y0074932D01*
X0483265Y0076430D02*
X0489872Y0076430D01*
X0489872Y0077929D02*
X0483265Y0077929D01*
X0482854Y0079427D02*
X0490284Y0079427D01*
X0490905Y0080926D02*
X0482233Y0080926D01*
X0480970Y0082424D02*
X0492167Y0082424D01*
X0494201Y0083923D02*
X0478937Y0083923D01*
X0474802Y0094412D02*
X0381546Y0094412D01*
X0382599Y0092914D02*
X0542821Y0092914D01*
X0542821Y0091415D02*
X0383120Y0091415D01*
X0383120Y0089917D02*
X0542821Y0089917D01*
X0542821Y0088418D02*
X0382681Y0088418D01*
X0381744Y0086920D02*
X0542821Y0086920D01*
X0542821Y0067439D02*
X0490786Y0067439D01*
X0491499Y0065940D02*
X0542821Y0065940D01*
X0542821Y0064442D02*
X0491642Y0064442D01*
X0491264Y0062943D02*
X0542821Y0062943D01*
X0542821Y0061445D02*
X0490196Y0061445D01*
X0487236Y0061445D02*
X0486925Y0061445D01*
X0486925Y0062943D02*
X0487236Y0062943D01*
X0487236Y0064442D02*
X0486925Y0064442D01*
X0486925Y0065940D02*
X0487236Y0065940D01*
X0487236Y0067439D02*
X0486925Y0067439D01*
X0483375Y0067439D02*
X0480471Y0067439D01*
X0481184Y0065940D02*
X0482662Y0065940D01*
X0482520Y0064442D02*
X0481327Y0064442D01*
X0480949Y0062943D02*
X0482897Y0062943D01*
X0483965Y0061445D02*
X0479881Y0061445D01*
X0476921Y0061445D02*
X0476610Y0061445D01*
X0476610Y0062943D02*
X0476921Y0062943D01*
X0476921Y0064442D02*
X0476610Y0064442D01*
X0473650Y0061445D02*
X0177900Y0061445D01*
X0177900Y0062943D02*
X0472582Y0062943D01*
X0474409Y0058465D02*
X0473238Y0057294D01*
X0472605Y0055765D01*
X0472605Y0054109D01*
X0473238Y0052580D01*
X0474409Y0051409D01*
X0475397Y0051000D01*
X0474409Y0050591D01*
X0473238Y0049420D01*
X0472605Y0047891D01*
X0472605Y0046235D01*
X0473238Y0044706D01*
X0474409Y0043535D01*
X0475938Y0042902D01*
X0477593Y0042902D01*
X0479123Y0043535D01*
X0480293Y0044706D01*
X0480927Y0046235D01*
X0480927Y0047891D01*
X0480293Y0049420D01*
X0479123Y0050591D01*
X0478134Y0051000D01*
X0479123Y0051409D01*
X0480293Y0052580D01*
X0480927Y0054109D01*
X0480927Y0055765D01*
X0480293Y0057294D01*
X0479123Y0058465D01*
X0477593Y0059098D01*
X0475938Y0059098D01*
X0474409Y0058465D01*
X0474392Y0058448D02*
X0228730Y0058448D01*
X0229746Y0056949D02*
X0320100Y0056949D01*
X0320639Y0057173D02*
X0318624Y0056338D01*
X0317081Y0054795D01*
X0316246Y0052780D01*
X0316246Y0050598D01*
X0317081Y0048583D01*
X0318624Y0047040D01*
X0320639Y0046205D01*
X0322821Y0046205D01*
X0324837Y0047040D01*
X0326379Y0048583D01*
X0327214Y0050598D01*
X0327214Y0052780D01*
X0326379Y0054795D01*
X0324837Y0056338D01*
X0322821Y0057173D01*
X0320639Y0057173D01*
X0323361Y0056949D02*
X0473095Y0056949D01*
X0472605Y0055451D02*
X0325724Y0055451D01*
X0326728Y0053952D02*
X0472670Y0053952D01*
X0473364Y0052454D02*
X0327214Y0052454D01*
X0327214Y0050955D02*
X0475289Y0050955D01*
X0473275Y0049457D02*
X0326741Y0049457D01*
X0325755Y0047958D02*
X0472633Y0047958D01*
X0472605Y0046460D02*
X0323436Y0046460D01*
X0320025Y0046460D02*
X0185250Y0046460D01*
X0183900Y0044961D02*
X0473132Y0044961D01*
X0474584Y0043463D02*
X0183900Y0043463D01*
X0183900Y0041964D02*
X0542821Y0041964D01*
X0542821Y0040466D02*
X0489720Y0040466D01*
X0489438Y0040748D02*
X0487908Y0041381D01*
X0486253Y0041381D01*
X0484724Y0040748D01*
X0483553Y0039577D01*
X0482920Y0038048D01*
X0482920Y0036393D01*
X0483553Y0034863D01*
X0484724Y0033693D01*
X0486253Y0033059D01*
X0487908Y0033059D01*
X0489438Y0033693D01*
X0490608Y0034863D01*
X0491242Y0036393D01*
X0491242Y0038048D01*
X0490608Y0039577D01*
X0489438Y0040748D01*
X0490861Y0038967D02*
X0542821Y0038967D01*
X0542821Y0037469D02*
X0491242Y0037469D01*
X0491067Y0035970D02*
X0542821Y0035970D01*
X0542821Y0034472D02*
X0490217Y0034472D01*
X0492950Y0031475D02*
X0480187Y0031475D01*
X0479850Y0031812D02*
X0476955Y0033011D01*
X0473821Y0033011D01*
X0470926Y0031812D01*
X0468710Y0029596D01*
X0467510Y0026701D01*
X0467510Y0023567D01*
X0468710Y0020672D01*
X0470926Y0018456D01*
X0473821Y0017256D01*
X0476955Y0017256D01*
X0479850Y0018456D01*
X0482066Y0020672D01*
X0483265Y0023567D01*
X0483265Y0026701D01*
X0482066Y0029596D01*
X0479850Y0031812D01*
X0479123Y0033693D02*
X0477593Y0033059D01*
X0475938Y0033059D01*
X0474409Y0033693D01*
X0473238Y0034863D01*
X0472605Y0036393D01*
X0472605Y0038048D01*
X0473238Y0039577D01*
X0474409Y0040748D01*
X0475938Y0041381D01*
X0477593Y0041381D01*
X0479123Y0040748D01*
X0480293Y0039577D01*
X0480927Y0038048D01*
X0480927Y0036393D01*
X0480293Y0034863D01*
X0479123Y0033693D01*
X0479902Y0034472D02*
X0483945Y0034472D01*
X0483095Y0035970D02*
X0480752Y0035970D01*
X0480927Y0037469D02*
X0482920Y0037469D01*
X0483300Y0038967D02*
X0480546Y0038967D01*
X0479405Y0040466D02*
X0484441Y0040466D01*
X0484899Y0043463D02*
X0478947Y0043463D01*
X0480399Y0044961D02*
X0483447Y0044961D01*
X0483553Y0044706D02*
X0482920Y0046235D01*
X0482920Y0047891D01*
X0483553Y0049420D01*
X0484724Y0050591D01*
X0485712Y0051000D01*
X0484724Y0051409D01*
X0483553Y0052580D01*
X0482920Y0054109D01*
X0482920Y0055765D01*
X0483553Y0057294D01*
X0484724Y0058465D01*
X0486253Y0059098D01*
X0487908Y0059098D01*
X0489438Y0058465D01*
X0490608Y0057294D01*
X0491242Y0055765D01*
X0491242Y0054109D01*
X0490608Y0052580D01*
X0489438Y0051409D01*
X0488449Y0051000D01*
X0489438Y0050591D01*
X0490608Y0049420D01*
X0491242Y0047891D01*
X0491242Y0046235D01*
X0490608Y0044706D01*
X0489438Y0043535D01*
X0487908Y0042902D01*
X0486253Y0042902D01*
X0484724Y0043535D01*
X0483553Y0044706D01*
X0482920Y0046460D02*
X0480927Y0046460D01*
X0480899Y0047958D02*
X0482948Y0047958D01*
X0483590Y0049457D02*
X0480256Y0049457D01*
X0478242Y0050955D02*
X0485604Y0050955D01*
X0483679Y0052454D02*
X0480167Y0052454D01*
X0480862Y0053952D02*
X0482985Y0053952D01*
X0482920Y0055451D02*
X0480927Y0055451D01*
X0480436Y0056949D02*
X0483410Y0056949D01*
X0484707Y0058448D02*
X0479139Y0058448D01*
X0489454Y0058448D02*
X0542821Y0058448D01*
X0542821Y0059946D02*
X0177900Y0059946D01*
X0177900Y0058448D02*
X0224770Y0058448D01*
X0223754Y0056949D02*
X0177900Y0056949D01*
X0177900Y0055451D02*
X0223160Y0055451D01*
X0221662Y0053952D02*
X0177900Y0053952D01*
X0177900Y0052454D02*
X0185163Y0052454D01*
X0183665Y0050955D02*
X0177900Y0050955D01*
X0177900Y0049457D02*
X0182166Y0049457D01*
X0180668Y0047958D02*
X0177900Y0047958D01*
X0177900Y0046460D02*
X0179600Y0046460D01*
X0179600Y0044961D02*
X0177900Y0044961D01*
X0177900Y0043463D02*
X0179600Y0043463D01*
X0179600Y0041964D02*
X0177900Y0041964D01*
X0177900Y0040466D02*
X0179600Y0040466D01*
X0179600Y0038967D02*
X0177900Y0038967D01*
X0177900Y0037469D02*
X0179600Y0037469D01*
X0179600Y0035970D02*
X0177900Y0035970D01*
X0177262Y0034472D02*
X0179600Y0034472D01*
X0179600Y0032973D02*
X0175764Y0032973D01*
X0174265Y0031475D02*
X0179600Y0031475D01*
X0179600Y0029976D02*
X0172767Y0029976D01*
X0171268Y0028478D02*
X0179600Y0028478D01*
X0179600Y0026979D02*
X0169770Y0026979D01*
X0168271Y0025481D02*
X0179600Y0025481D01*
X0183900Y0025481D02*
X0324740Y0025481D01*
X0324955Y0024961D02*
X0326498Y0023418D01*
X0328514Y0022583D01*
X0330695Y0022583D01*
X0332711Y0023418D01*
X0334253Y0024961D01*
X0335088Y0026976D01*
X0335088Y0029158D01*
X0334253Y0031173D01*
X0332711Y0032716D01*
X0330695Y0033551D01*
X0328514Y0033551D01*
X0326498Y0032716D01*
X0324955Y0031173D01*
X0324120Y0029158D01*
X0324120Y0026976D01*
X0324955Y0024961D01*
X0325934Y0023982D02*
X0183900Y0023982D01*
X0183900Y0022484D02*
X0467959Y0022484D01*
X0467510Y0023982D02*
X0381306Y0023982D01*
X0380742Y0023418D02*
X0382285Y0024961D01*
X0383120Y0026976D01*
X0383120Y0029158D01*
X0382285Y0031173D01*
X0380742Y0032716D01*
X0378727Y0033551D01*
X0376545Y0033551D01*
X0374529Y0032716D01*
X0372987Y0031173D01*
X0372152Y0029158D01*
X0372152Y0026976D01*
X0372987Y0024961D01*
X0374529Y0023418D01*
X0376545Y0022583D01*
X0378727Y0022583D01*
X0380742Y0023418D01*
X0382500Y0025481D02*
X0467510Y0025481D01*
X0467626Y0026979D02*
X0383120Y0026979D01*
X0383120Y0028478D02*
X0468246Y0028478D01*
X0469090Y0029976D02*
X0382781Y0029976D01*
X0381983Y0031475D02*
X0470588Y0031475D01*
X0473729Y0032973D02*
X0380121Y0032973D01*
X0375151Y0032973D02*
X0332090Y0032973D01*
X0333952Y0031475D02*
X0373288Y0031475D01*
X0372491Y0029976D02*
X0334749Y0029976D01*
X0335088Y0028478D02*
X0372152Y0028478D01*
X0372152Y0026979D02*
X0335088Y0026979D01*
X0334469Y0025481D02*
X0372771Y0025481D01*
X0373965Y0023982D02*
X0333275Y0023982D01*
X0324120Y0026979D02*
X0183900Y0026979D01*
X0183900Y0028478D02*
X0200012Y0028478D01*
X0200508Y0028272D02*
X0201992Y0028272D01*
X0203362Y0028840D01*
X0204410Y0029888D01*
X0204978Y0031258D01*
X0204978Y0032742D01*
X0204410Y0034112D01*
X0203362Y0035160D01*
X0201992Y0035728D01*
X0200508Y0035728D01*
X0199138Y0035160D01*
X0198090Y0034112D01*
X0197522Y0032742D01*
X0197522Y0031258D01*
X0198090Y0029888D01*
X0199138Y0028840D01*
X0200508Y0028272D01*
X0202488Y0028478D02*
X0208469Y0028478D01*
X0208480Y0028469D02*
X0209059Y0028174D01*
X0209677Y0027974D01*
X0210319Y0027872D01*
X0210644Y0027872D01*
X0210969Y0027872D01*
X0211610Y0027974D01*
X0212228Y0028174D01*
X0212807Y0028469D01*
X0213333Y0028851D01*
X0213792Y0029311D01*
X0214174Y0029836D01*
X0214469Y0030415D01*
X0214670Y0031033D01*
X0214772Y0031675D01*
X0214772Y0032000D01*
X0214772Y0032325D01*
X0214670Y0032967D01*
X0214469Y0033585D01*
X0214174Y0034164D01*
X0213792Y0034689D01*
X0213333Y0035149D01*
X0212807Y0035531D01*
X0212228Y0035826D01*
X0211610Y0036026D01*
X0210969Y0036128D01*
X0210644Y0036128D01*
X0210644Y0032000D01*
X0214772Y0032000D01*
X0210644Y0032000D01*
X0210644Y0032000D01*
X0210644Y0027872D01*
X0210644Y0032000D01*
X0210644Y0032000D01*
X0210644Y0032000D01*
X0210644Y0036128D01*
X0210319Y0036128D01*
X0209677Y0036026D01*
X0209059Y0035826D01*
X0208480Y0035531D01*
X0207955Y0035149D01*
X0207495Y0034689D01*
X0207113Y0034164D01*
X0206818Y0033585D01*
X0206617Y0032967D01*
X0206516Y0032325D01*
X0206516Y0032000D01*
X0206516Y0031675D01*
X0206617Y0031033D01*
X0206818Y0030415D01*
X0207113Y0029836D01*
X0207495Y0029311D01*
X0207955Y0028851D01*
X0208480Y0028469D01*
X0207042Y0029976D02*
X0204447Y0029976D01*
X0204978Y0031475D02*
X0206547Y0031475D01*
X0206516Y0032000D02*
X0210644Y0032000D01*
X0210644Y0032000D01*
X0206516Y0032000D01*
X0206620Y0032973D02*
X0204882Y0032973D01*
X0204050Y0034472D02*
X0207337Y0034472D01*
X0209505Y0035970D02*
X0183900Y0035970D01*
X0183900Y0034472D02*
X0198450Y0034472D01*
X0197618Y0032973D02*
X0183900Y0032973D01*
X0183900Y0031475D02*
X0197522Y0031475D01*
X0198053Y0029976D02*
X0183900Y0029976D01*
X0183900Y0037469D02*
X0235473Y0037469D01*
X0235200Y0037196D02*
X0235200Y0028678D01*
X0235991Y0027887D01*
X0244509Y0027887D01*
X0245300Y0028678D01*
X0245300Y0031691D01*
X0245969Y0030076D01*
X0247389Y0028656D01*
X0249245Y0027887D01*
X0251255Y0027887D01*
X0253111Y0028656D01*
X0254531Y0030076D01*
X0255046Y0031318D01*
X0255199Y0030845D01*
X0255589Y0030081D01*
X0256093Y0029387D01*
X0256700Y0028780D01*
X0257394Y0028276D01*
X0258158Y0027886D01*
X0258974Y0027621D01*
X0259821Y0027487D01*
X0260000Y0027487D01*
X0260000Y0032687D01*
X0260500Y0032687D01*
X0260500Y0027487D01*
X0260679Y0027487D01*
X0261526Y0027621D01*
X0262342Y0027886D01*
X0263106Y0028276D01*
X0263800Y0028780D01*
X0264407Y0029387D01*
X0264911Y0030081D01*
X0265301Y0030845D01*
X0265454Y0031318D01*
X0265969Y0030076D01*
X0267389Y0028656D01*
X0269245Y0027887D01*
X0271255Y0027887D01*
X0273111Y0028656D01*
X0274531Y0030076D01*
X0275250Y0031812D01*
X0275969Y0030076D01*
X0277389Y0028656D01*
X0279245Y0027887D01*
X0281255Y0027887D01*
X0283111Y0028656D01*
X0284531Y0030076D01*
X0285250Y0031812D01*
X0285969Y0030076D01*
X0287389Y0028656D01*
X0289245Y0027887D01*
X0291255Y0027887D01*
X0293111Y0028656D01*
X0294531Y0030076D01*
X0295300Y0031932D01*
X0295300Y0033942D01*
X0294531Y0035798D01*
X0293111Y0037218D01*
X0291255Y0037987D01*
X0289245Y0037987D01*
X0287389Y0037218D01*
X0285969Y0035798D01*
X0285250Y0034062D01*
X0284531Y0035798D01*
X0283111Y0037218D01*
X0281255Y0037987D01*
X0279245Y0037987D01*
X0277389Y0037218D01*
X0275969Y0035798D01*
X0275250Y0034062D01*
X0274531Y0035798D01*
X0273111Y0037218D01*
X0271255Y0037987D01*
X0269245Y0037987D01*
X0267389Y0037218D01*
X0265969Y0035798D01*
X0265454Y0034556D01*
X0265301Y0035029D01*
X0264911Y0035793D01*
X0264407Y0036487D01*
X0263800Y0037094D01*
X0263106Y0037598D01*
X0262342Y0037988D01*
X0261526Y0038253D01*
X0260679Y0038387D01*
X0260500Y0038387D01*
X0260500Y0033187D01*
X0260000Y0033187D01*
X0260000Y0038387D01*
X0259821Y0038387D01*
X0258974Y0038253D01*
X0258158Y0037988D01*
X0257394Y0037598D01*
X0256700Y0037094D01*
X0256093Y0036487D01*
X0255589Y0035793D01*
X0255199Y0035029D01*
X0255046Y0034556D01*
X0254531Y0035798D01*
X0253111Y0037218D01*
X0251255Y0037987D01*
X0249245Y0037987D01*
X0247389Y0037218D01*
X0245969Y0035798D01*
X0245300Y0034183D01*
X0245300Y0037196D01*
X0244509Y0037987D01*
X0235991Y0037987D01*
X0235200Y0037196D01*
X0235200Y0035970D02*
X0211783Y0035970D01*
X0210644Y0035970D02*
X0210644Y0035970D01*
X0210644Y0034472D02*
X0210644Y0034472D01*
X0210644Y0032973D02*
X0210644Y0032973D01*
X0210644Y0031475D02*
X0210644Y0031475D01*
X0210644Y0029976D02*
X0210644Y0029976D01*
X0210644Y0028478D02*
X0210644Y0028478D01*
X0212819Y0028478D02*
X0219012Y0028478D01*
X0219508Y0028272D02*
X0220992Y0028272D01*
X0222362Y0028840D01*
X0223410Y0029888D01*
X0223978Y0031258D01*
X0223978Y0032742D01*
X0223410Y0034112D01*
X0222362Y0035160D01*
X0220992Y0035728D01*
X0219508Y0035728D01*
X0218138Y0035160D01*
X0217090Y0034112D01*
X0216522Y0032742D01*
X0216522Y0031258D01*
X0217090Y0029888D01*
X0218138Y0028840D01*
X0219508Y0028272D01*
X0221488Y0028478D02*
X0235400Y0028478D01*
X0235200Y0029976D02*
X0223447Y0029976D01*
X0223978Y0031475D02*
X0235200Y0031475D01*
X0235200Y0032973D02*
X0223882Y0032973D01*
X0223050Y0034472D02*
X0235200Y0034472D01*
X0245300Y0034472D02*
X0245420Y0034472D01*
X0245300Y0035970D02*
X0246141Y0035970D01*
X0245027Y0037469D02*
X0247994Y0037469D01*
X0252506Y0037469D02*
X0257215Y0037469D01*
X0255717Y0035970D02*
X0254359Y0035970D01*
X0260000Y0035970D02*
X0260500Y0035970D01*
X0260500Y0034472D02*
X0260000Y0034472D01*
X0260000Y0031475D02*
X0260500Y0031475D01*
X0260500Y0029976D02*
X0260000Y0029976D01*
X0260000Y0028478D02*
X0260500Y0028478D01*
X0263384Y0028478D02*
X0267819Y0028478D01*
X0266069Y0029976D02*
X0264835Y0029976D01*
X0272680Y0028478D02*
X0277819Y0028478D01*
X0276069Y0029976D02*
X0274431Y0029976D01*
X0275110Y0031475D02*
X0275390Y0031475D01*
X0275420Y0034472D02*
X0275080Y0034472D01*
X0274359Y0035970D02*
X0276141Y0035970D01*
X0277994Y0037469D02*
X0272506Y0037469D01*
X0267994Y0037469D02*
X0263285Y0037469D01*
X0264783Y0035970D02*
X0266141Y0035970D01*
X0260500Y0037469D02*
X0260000Y0037469D01*
X0245390Y0031475D02*
X0245300Y0031475D01*
X0245300Y0029976D02*
X0246069Y0029976D01*
X0245100Y0028478D02*
X0247819Y0028478D01*
X0252680Y0028478D02*
X0257116Y0028478D01*
X0255665Y0029976D02*
X0254431Y0029976D01*
X0282680Y0028478D02*
X0287819Y0028478D01*
X0286069Y0029976D02*
X0284431Y0029976D01*
X0285110Y0031475D02*
X0285390Y0031475D01*
X0285420Y0034472D02*
X0285080Y0034472D01*
X0284359Y0035970D02*
X0286141Y0035970D01*
X0287994Y0037469D02*
X0282506Y0037469D01*
X0292506Y0037469D02*
X0472605Y0037469D01*
X0472780Y0035970D02*
X0294359Y0035970D01*
X0295080Y0034472D02*
X0473630Y0034472D01*
X0477047Y0032973D02*
X0496091Y0032973D01*
X0496183Y0033011D02*
X0493288Y0031812D01*
X0491072Y0029596D01*
X0489872Y0026701D01*
X0489872Y0023567D01*
X0491072Y0020672D01*
X0493288Y0018456D01*
X0496183Y0017256D01*
X0499317Y0017256D01*
X0502212Y0018456D01*
X0504428Y0020672D01*
X0505628Y0023567D01*
X0505628Y0026701D01*
X0504428Y0029596D01*
X0502212Y0031812D01*
X0499317Y0033011D01*
X0496183Y0033011D01*
X0499409Y0032973D02*
X0542821Y0032973D01*
X0542821Y0031475D02*
X0502550Y0031475D01*
X0504048Y0029976D02*
X0542821Y0029976D01*
X0542821Y0028478D02*
X0504892Y0028478D01*
X0505512Y0026979D02*
X0542821Y0026979D01*
X0542821Y0025481D02*
X0505628Y0025481D01*
X0505628Y0023982D02*
X0542821Y0023982D01*
X0542821Y0022484D02*
X0505179Y0022484D01*
X0504558Y0020985D02*
X0542821Y0020985D01*
X0542821Y0019487D02*
X0503243Y0019487D01*
X0501084Y0017988D02*
X0542821Y0017988D01*
X0542821Y0016490D02*
X0183900Y0016490D01*
X0183900Y0017988D02*
X0472054Y0017988D01*
X0469895Y0019487D02*
X0183900Y0019487D01*
X0183900Y0020985D02*
X0468580Y0020985D01*
X0478721Y0017988D02*
X0494416Y0017988D01*
X0492257Y0019487D02*
X0480881Y0019487D01*
X0482196Y0020985D02*
X0490942Y0020985D01*
X0490321Y0022484D02*
X0482817Y0022484D01*
X0483265Y0023982D02*
X0489872Y0023982D01*
X0489872Y0025481D02*
X0483265Y0025481D01*
X0483150Y0026979D02*
X0489988Y0026979D01*
X0490608Y0028478D02*
X0482529Y0028478D01*
X0481686Y0029976D02*
X0491452Y0029976D01*
X0472985Y0038967D02*
X0183900Y0038967D01*
X0183900Y0040466D02*
X0474126Y0040466D01*
X0489262Y0043463D02*
X0542821Y0043463D01*
X0542821Y0044961D02*
X0490714Y0044961D01*
X0491242Y0046460D02*
X0542821Y0046460D01*
X0542821Y0047958D02*
X0491214Y0047958D01*
X0490571Y0049457D02*
X0542821Y0049457D01*
X0542821Y0050955D02*
X0488557Y0050955D01*
X0490482Y0052454D02*
X0542821Y0052454D01*
X0542821Y0053952D02*
X0491177Y0053952D01*
X0491242Y0055451D02*
X0542821Y0055451D01*
X0542821Y0056949D02*
X0490751Y0056949D01*
X0473304Y0095911D02*
X0379065Y0095911D01*
X0376207Y0095911D02*
X0331033Y0095911D01*
X0328175Y0095911D02*
X0177900Y0095911D01*
X0177900Y0097409D02*
X0471805Y0097409D01*
X0470307Y0098908D02*
X0177900Y0098908D01*
X0177900Y0100406D02*
X0468808Y0100406D01*
X0467310Y0101905D02*
X0177900Y0101905D01*
X0177900Y0103403D02*
X0465811Y0103403D01*
X0464313Y0104902D02*
X0177900Y0104902D01*
X0177900Y0106400D02*
X0462814Y0106400D01*
X0461316Y0107899D02*
X0177900Y0107899D01*
X0177900Y0109397D02*
X0318968Y0109397D01*
X0318624Y0109540D02*
X0320639Y0108705D01*
X0322821Y0108705D01*
X0324837Y0109540D01*
X0326379Y0111083D01*
X0327214Y0113098D01*
X0327214Y0115280D01*
X0326379Y0117295D01*
X0324837Y0118838D01*
X0322821Y0119673D01*
X0320639Y0119673D01*
X0318624Y0118838D01*
X0317081Y0117295D01*
X0316246Y0115280D01*
X0316246Y0113098D01*
X0317081Y0111083D01*
X0318624Y0109540D01*
X0317268Y0110896D02*
X0177900Y0110896D01*
X0177900Y0112394D02*
X0316538Y0112394D01*
X0316246Y0113893D02*
X0177900Y0113893D01*
X0179182Y0115391D02*
X0316293Y0115391D01*
X0316913Y0116890D02*
X0258068Y0116890D01*
X0258881Y0118388D02*
X0318174Y0118388D01*
X0325286Y0118388D02*
X0450826Y0118388D01*
X0452325Y0116890D02*
X0326547Y0116890D01*
X0327168Y0115391D02*
X0453823Y0115391D01*
X0455322Y0113893D02*
X0327214Y0113893D01*
X0326923Y0112394D02*
X0456820Y0112394D01*
X0458319Y0110896D02*
X0326192Y0110896D01*
X0324492Y0109397D02*
X0459817Y0109397D01*
X0449328Y0119887D02*
X0258772Y0119887D01*
X0257793Y0121385D02*
X0447829Y0121385D01*
X0446331Y0122884D02*
X0254907Y0122884D01*
X0252619Y0118388D02*
X0182179Y0118388D01*
X0180680Y0116890D02*
X0253432Y0116890D01*
X0302637Y0134844D02*
X0305306Y0133738D01*
X0308194Y0133738D01*
X0310863Y0134844D01*
X0312906Y0136887D01*
X0314012Y0139556D01*
X0314012Y0142444D01*
X0312906Y0145113D01*
X0310863Y0147156D01*
X0308194Y0148262D01*
X0305306Y0148262D01*
X0302637Y0147156D01*
X0300594Y0145113D01*
X0299488Y0142444D01*
X0299488Y0139556D01*
X0300594Y0136887D01*
X0302637Y0134844D01*
X0302608Y0134872D02*
X0156900Y0134872D01*
X0156900Y0136370D02*
X0301110Y0136370D01*
X0300187Y0137869D02*
X0156900Y0137869D01*
X0156900Y0139368D02*
X0299566Y0139368D01*
X0299488Y0140866D02*
X0156900Y0140866D01*
X0156900Y0142365D02*
X0299488Y0142365D01*
X0300076Y0143863D02*
X0156900Y0143863D01*
X0156900Y0145362D02*
X0300842Y0145362D01*
X0302340Y0146860D02*
X0156900Y0146860D01*
X0156900Y0148359D02*
X0420856Y0148359D01*
X0419357Y0149857D02*
X0156900Y0149857D01*
X0156900Y0151356D02*
X0417859Y0151356D01*
X0416360Y0152854D02*
X0156900Y0152854D01*
X0156900Y0154353D02*
X0414862Y0154353D01*
X0413363Y0155851D02*
X0156900Y0155851D01*
X0156900Y0157350D02*
X0411865Y0157350D01*
X0422354Y0146860D02*
X0311160Y0146860D01*
X0312658Y0145362D02*
X0423853Y0145362D01*
X0425351Y0143863D02*
X0313424Y0143863D01*
X0314012Y0142365D02*
X0326402Y0142365D01*
X0326498Y0142460D02*
X0324955Y0140917D01*
X0324120Y0138902D01*
X0324120Y0136720D01*
X0324955Y0134705D01*
X0326498Y0133162D01*
X0328514Y0132327D01*
X0330695Y0132327D01*
X0332711Y0133162D01*
X0334253Y0134705D01*
X0335088Y0136720D01*
X0335088Y0138902D01*
X0334253Y0140917D01*
X0332711Y0142460D01*
X0330695Y0143295D01*
X0328514Y0143295D01*
X0326498Y0142460D01*
X0324934Y0140866D02*
X0314012Y0140866D01*
X0313934Y0139368D02*
X0324313Y0139368D01*
X0324120Y0137869D02*
X0313313Y0137869D01*
X0312390Y0136370D02*
X0324265Y0136370D01*
X0324886Y0134872D02*
X0310892Y0134872D01*
X0326287Y0133373D02*
X0157417Y0133373D01*
X0158916Y0131875D02*
X0437340Y0131875D01*
X0438838Y0130376D02*
X0160414Y0130376D01*
X0161913Y0128878D02*
X0440337Y0128878D01*
X0441835Y0127379D02*
X0163411Y0127379D01*
X0165977Y0125881D02*
X0443334Y0125881D01*
X0444832Y0124382D02*
X0167566Y0124382D01*
X0167881Y0122884D02*
X0180593Y0122884D01*
X0179095Y0121385D02*
X0167470Y0121385D01*
X0165416Y0119887D02*
X0177596Y0119887D01*
X0176098Y0118388D02*
X0154341Y0118388D01*
X0154341Y0119887D02*
X0164084Y0119887D01*
X0162030Y0121385D02*
X0154341Y0121385D01*
X0154341Y0122884D02*
X0161619Y0122884D01*
X0160327Y0124382D02*
X0154341Y0124382D01*
X0154341Y0125881D02*
X0158829Y0125881D01*
X0157330Y0127379D02*
X0154341Y0127379D01*
X0154341Y0128878D02*
X0155832Y0128878D01*
X0150041Y0128878D02*
X0034900Y0128878D01*
X0034900Y0130376D02*
X0150041Y0130376D01*
X0150041Y0131875D02*
X0034900Y0131875D01*
X0034900Y0133373D02*
X0150041Y0133373D01*
X0150041Y0134872D02*
X0034900Y0134872D01*
X0034900Y0136370D02*
X0150041Y0136370D01*
X0150041Y0137869D02*
X0034900Y0137869D01*
X0034900Y0139368D02*
X0150041Y0139368D01*
X0150041Y0140866D02*
X0034900Y0140866D01*
X0034900Y0142365D02*
X0150041Y0142365D01*
X0150041Y0143863D02*
X0034900Y0143863D01*
X0034900Y0145362D02*
X0150041Y0145362D01*
X0150041Y0146860D02*
X0034900Y0146860D01*
X0034900Y0148359D02*
X0150041Y0148359D01*
X0150041Y0149857D02*
X0114115Y0149857D01*
X0113615Y0149650D02*
X0115214Y0150312D01*
X0116438Y0151536D01*
X0117100Y0153135D01*
X0117100Y0160865D01*
X0116438Y0162464D01*
X0115214Y0163688D01*
X0113615Y0164350D01*
X0111885Y0164350D01*
X0110286Y0163688D01*
X0109062Y0162464D01*
X0108400Y0160865D01*
X0108400Y0153135D01*
X0109062Y0151536D01*
X0110286Y0150312D01*
X0111885Y0149650D01*
X0113615Y0149650D01*
X0111385Y0149857D02*
X0061115Y0149857D01*
X0060615Y0149650D02*
X0062214Y0150312D01*
X0063438Y0151536D01*
X0064100Y0153135D01*
X0064100Y0160865D01*
X0063438Y0162464D01*
X0062214Y0163688D01*
X0060615Y0164350D01*
X0058885Y0164350D01*
X0057286Y0163688D01*
X0056062Y0162464D01*
X0055400Y0160865D01*
X0055400Y0153135D01*
X0056062Y0151536D01*
X0057286Y0150312D01*
X0058885Y0149650D01*
X0060615Y0149650D01*
X0058385Y0149857D02*
X0034900Y0149857D01*
X0034435Y0151356D02*
X0056243Y0151356D01*
X0055516Y0152854D02*
X0032936Y0152854D01*
X0033091Y0154353D02*
X0055400Y0154353D01*
X0055400Y0155851D02*
X0032946Y0155851D01*
X0032325Y0157350D02*
X0055400Y0157350D01*
X0055400Y0158848D02*
X0030732Y0158848D01*
X0032921Y0160347D02*
X0055400Y0160347D01*
X0055806Y0161845D02*
X0034208Y0161845D01*
X0026634Y0160347D02*
X0020834Y0160347D01*
X0019336Y0158848D02*
X0025350Y0158848D01*
X0023757Y0157350D02*
X0018100Y0157350D01*
X0018100Y0155851D02*
X0023136Y0155851D01*
X0022991Y0154353D02*
X0018100Y0154353D01*
X0018100Y0152854D02*
X0023255Y0152854D01*
X0024040Y0151356D02*
X0018100Y0151356D01*
X0018100Y0149857D02*
X0026046Y0149857D01*
X0022873Y0148359D02*
X0018100Y0148359D01*
X0018100Y0146860D02*
X0021755Y0146860D01*
X0021255Y0145362D02*
X0018100Y0145362D01*
X0018100Y0143863D02*
X0021255Y0143863D01*
X0021785Y0142365D02*
X0018100Y0142365D01*
X0018100Y0140866D02*
X0022945Y0140866D01*
X0018100Y0139368D02*
X0030600Y0139368D01*
X0030600Y0140866D02*
X0029664Y0140866D01*
X0030600Y0137869D02*
X0018100Y0137869D01*
X0018100Y0136370D02*
X0030600Y0136370D01*
X0030600Y0134872D02*
X0018100Y0134872D01*
X0018100Y0133373D02*
X0030600Y0133373D01*
X0030600Y0131875D02*
X0018100Y0131875D01*
X0018100Y0130376D02*
X0030600Y0130376D01*
X0030600Y0128878D02*
X0018100Y0128878D01*
X0018100Y0127379D02*
X0030600Y0127379D01*
X0030600Y0125881D02*
X0018100Y0125881D01*
X0018100Y0124382D02*
X0030600Y0124382D01*
X0030600Y0122884D02*
X0018100Y0122884D01*
X0018100Y0121385D02*
X0030600Y0121385D01*
X0030600Y0119887D02*
X0018100Y0119887D01*
X0018100Y0118388D02*
X0030600Y0118388D01*
X0030600Y0116890D02*
X0018100Y0116890D01*
X0018100Y0115391D02*
X0030600Y0115391D01*
X0030600Y0113893D02*
X0019595Y0113893D01*
X0021093Y0112394D02*
X0030600Y0112394D01*
X0030600Y0110896D02*
X0022592Y0110896D01*
X0024090Y0109397D02*
X0030600Y0109397D01*
X0030600Y0107899D02*
X0025589Y0107899D01*
X0027087Y0106400D02*
X0030600Y0106400D01*
X0030600Y0104902D02*
X0028002Y0104902D01*
X0028100Y0103403D02*
X0030600Y0103403D01*
X0030600Y0101905D02*
X0028100Y0101905D01*
X0028100Y0100406D02*
X0030600Y0100406D01*
X0030600Y0098908D02*
X0028100Y0098908D01*
X0028100Y0097409D02*
X0030600Y0097409D01*
X0030600Y0095911D02*
X0028100Y0095911D01*
X0028100Y0094412D02*
X0030600Y0094412D01*
X0030600Y0092914D02*
X0028100Y0092914D01*
X0028100Y0091415D02*
X0030600Y0091415D01*
X0030600Y0089917D02*
X0028100Y0089917D01*
X0028100Y0088418D02*
X0030600Y0088418D01*
X0030600Y0086920D02*
X0028100Y0086920D01*
X0028100Y0085421D02*
X0030600Y0085421D01*
X0030600Y0083923D02*
X0028100Y0083923D01*
X0034900Y0083923D02*
X0034986Y0083923D01*
X0034900Y0082424D02*
X0036084Y0082424D01*
X0035044Y0088418D02*
X0034900Y0088418D01*
X0034900Y0089917D02*
X0036225Y0089917D01*
X0034900Y0091415D02*
X0038125Y0091415D01*
X0039623Y0092914D02*
X0034900Y0092914D01*
X0034900Y0094412D02*
X0041122Y0094412D01*
X0034900Y0095911D02*
X0173600Y0095911D01*
X0173600Y0097409D02*
X0034900Y0097409D01*
X0034900Y0098908D02*
X0037343Y0098908D01*
X0039300Y0098908D02*
X0039800Y0098908D01*
X0039800Y0098450D02*
X0039979Y0098450D01*
X0040826Y0098584D01*
X0041642Y0098849D01*
X0042406Y0099239D01*
X0043100Y0099743D01*
X0043707Y0100350D01*
X0044211Y0101044D01*
X0044601Y0101808D01*
X0044866Y0102624D01*
X0045000Y0103471D01*
X0045000Y0103650D01*
X0039800Y0103650D01*
X0039800Y0098450D01*
X0039800Y0100406D02*
X0039300Y0100406D01*
X0039300Y0101905D02*
X0039800Y0101905D01*
X0039800Y0103403D02*
X0039300Y0103403D01*
X0039800Y0104150D02*
X0045000Y0104150D01*
X0045000Y0104329D01*
X0044866Y0105176D01*
X0044601Y0105992D01*
X0044211Y0106756D01*
X0043707Y0107450D01*
X0043100Y0108057D01*
X0042406Y0108561D01*
X0041642Y0108951D01*
X0040826Y0109216D01*
X0039979Y0109350D01*
X0039800Y0109350D01*
X0039800Y0104150D01*
X0039800Y0104902D02*
X0039300Y0104902D01*
X0039300Y0106400D02*
X0039800Y0106400D01*
X0039800Y0107899D02*
X0039300Y0107899D01*
X0035841Y0107899D02*
X0034900Y0107899D01*
X0034900Y0109397D02*
X0173600Y0109397D01*
X0173600Y0107899D02*
X0043259Y0107899D01*
X0044393Y0106400D02*
X0173600Y0106400D01*
X0173600Y0104902D02*
X0044909Y0104902D01*
X0044989Y0103403D02*
X0173600Y0103403D01*
X0173600Y0101905D02*
X0044632Y0101905D01*
X0043748Y0100406D02*
X0173600Y0100406D01*
X0173600Y0098908D02*
X0041757Y0098908D01*
X0035352Y0100406D02*
X0034900Y0100406D01*
X0021400Y0100406D02*
X0018148Y0100406D01*
X0018107Y0100350D02*
X0018611Y0101044D01*
X0019001Y0101808D01*
X0019266Y0102624D01*
X0019400Y0103471D01*
X0019400Y0103650D01*
X0014200Y0103650D01*
X0014200Y0104150D01*
X0013700Y0104150D01*
X0013700Y0109350D01*
X0013521Y0109350D01*
X0012674Y0109216D01*
X0011858Y0108951D01*
X0011094Y0108561D01*
X0010400Y0108057D01*
X0009793Y0107450D01*
X0009289Y0106756D01*
X0008899Y0105992D01*
X0008634Y0105176D01*
X0008500Y0104329D01*
X0008500Y0104150D01*
X0013700Y0104150D01*
X0013700Y0103650D01*
X0014200Y0103650D01*
X0014200Y0098450D01*
X0014379Y0098450D01*
X0015226Y0098584D01*
X0016042Y0098849D01*
X0016806Y0099239D01*
X0017500Y0099743D01*
X0018107Y0100350D01*
X0019032Y0101905D02*
X0021400Y0101905D01*
X0020609Y0103403D02*
X0019389Y0103403D01*
X0014200Y0103403D02*
X0013700Y0103403D01*
X0013700Y0103650D02*
X0013700Y0098450D01*
X0013521Y0098450D01*
X0012674Y0098584D01*
X0011858Y0098849D01*
X0011094Y0099239D01*
X0010400Y0099743D01*
X0009793Y0100350D01*
X0009289Y0101044D01*
X0008899Y0101808D01*
X0008634Y0102624D01*
X0008500Y0103471D01*
X0008500Y0103650D01*
X0013700Y0103650D01*
X0013700Y0104902D02*
X0014200Y0104902D01*
X0014200Y0106400D02*
X0013700Y0106400D01*
X0013700Y0107899D02*
X0014200Y0107899D01*
X0014615Y0109397D02*
X0004250Y0109397D01*
X0004250Y0107899D02*
X0010241Y0107899D01*
X0009107Y0106400D02*
X0004250Y0106400D01*
X0004250Y0104902D02*
X0008591Y0104902D01*
X0008511Y0103403D02*
X0004250Y0103403D01*
X0004250Y0101905D02*
X0008868Y0101905D01*
X0009752Y0100406D02*
X0004250Y0100406D01*
X0004250Y0098908D02*
X0011743Y0098908D01*
X0013700Y0098908D02*
X0014200Y0098908D01*
X0014200Y0100406D02*
X0013700Y0100406D01*
X0013700Y0101905D02*
X0014200Y0101905D01*
X0016157Y0098908D02*
X0021400Y0098908D01*
X0021400Y0097409D02*
X0004250Y0097409D01*
X0004250Y0095911D02*
X0021400Y0095911D01*
X0021400Y0094412D02*
X0004250Y0094412D01*
X0004250Y0092914D02*
X0021400Y0092914D01*
X0013117Y0110896D02*
X0004250Y0110896D01*
X0004250Y0112394D02*
X0011789Y0112394D01*
X0011400Y0113893D02*
X0004250Y0113893D01*
X0004250Y0115391D02*
X0011400Y0115391D01*
X0011400Y0116890D02*
X0004250Y0116890D01*
X0004250Y0118388D02*
X0011400Y0118388D01*
X0011400Y0119887D02*
X0004250Y0119887D01*
X0004250Y0121385D02*
X0011400Y0121385D01*
X0011400Y0122884D02*
X0004250Y0122884D01*
X0004250Y0124382D02*
X0011400Y0124382D01*
X0011400Y0125881D02*
X0004250Y0125881D01*
X0004250Y0127379D02*
X0011400Y0127379D01*
X0011400Y0128878D02*
X0004250Y0128878D01*
X0004250Y0130376D02*
X0011400Y0130376D01*
X0011400Y0131875D02*
X0004250Y0131875D01*
X0004250Y0133373D02*
X0011400Y0133373D01*
X0011400Y0134872D02*
X0004250Y0134872D01*
X0004250Y0136370D02*
X0011400Y0136370D01*
X0011400Y0137869D02*
X0004250Y0137869D01*
X0004250Y0139368D02*
X0011400Y0139368D01*
X0011400Y0140866D02*
X0004250Y0140866D01*
X0004250Y0142365D02*
X0011400Y0142365D01*
X0011400Y0143863D02*
X0004250Y0143863D01*
X0004250Y0145362D02*
X0011400Y0145362D01*
X0011400Y0146860D02*
X0004250Y0146860D01*
X0004250Y0148359D02*
X0011400Y0148359D01*
X0011400Y0149857D02*
X0004250Y0149857D01*
X0004250Y0151356D02*
X0011400Y0151356D01*
X0011400Y0152854D02*
X0004250Y0152854D01*
X0004250Y0154353D02*
X0011400Y0154353D01*
X0011400Y0155851D02*
X0004250Y0155851D01*
X0004250Y0157350D02*
X0011400Y0157350D01*
X0011400Y0158848D02*
X0004250Y0158848D01*
X0004250Y0160347D02*
X0011682Y0160347D01*
X0012858Y0161845D02*
X0004250Y0161845D01*
X0004250Y0163344D02*
X0014356Y0163344D01*
X0015855Y0164842D02*
X0004250Y0164842D01*
X0004250Y0166341D02*
X0017353Y0166341D01*
X0026130Y0167839D02*
X0004250Y0167839D01*
X0004250Y0169338D02*
X0027663Y0169338D01*
X0025502Y0170836D02*
X0004250Y0170836D01*
X0004250Y0172335D02*
X0025652Y0172335D01*
X0025917Y0173833D02*
X0004250Y0173833D01*
X0004250Y0175332D02*
X0026494Y0175332D01*
X0026190Y0175385D02*
X0031311Y0174482D01*
X0032214Y0179603D01*
X0028590Y0180242D01*
X0028131Y0180202D01*
X0027698Y0180045D01*
X0027320Y0179780D01*
X0027024Y0179427D01*
X0026829Y0179010D01*
X0026190Y0175385D01*
X0026445Y0176830D02*
X0004250Y0176830D01*
X0004250Y0178329D02*
X0026709Y0178329D01*
X0027387Y0179827D02*
X0004250Y0179827D01*
X0004250Y0181326D02*
X0250054Y0181326D01*
X0251552Y0179827D02*
X0169559Y0179827D01*
X0169518Y0179855D02*
X0168836Y0180137D01*
X0168111Y0180281D01*
X0167742Y0180281D01*
X0167742Y0174532D01*
X0167742Y0174532D01*
X0167742Y0174531D01*
X0167742Y0174532D01*
X0171492Y0174532D01*
X0171492Y0176901D01*
X0171348Y0177625D01*
X0171065Y0178308D01*
X0170655Y0178922D01*
X0170133Y0179444D01*
X0169518Y0179855D01*
X0167742Y0179827D02*
X0167742Y0179827D01*
X0167742Y0178329D02*
X0167742Y0178329D01*
X0167742Y0176830D02*
X0167742Y0176830D01*
X0167742Y0175332D02*
X0167742Y0175332D01*
X0167742Y0173833D02*
X0167742Y0173833D01*
X0167742Y0172335D02*
X0167742Y0172335D01*
X0167742Y0170836D02*
X0167742Y0170836D01*
X0167742Y0169338D02*
X0167742Y0169338D01*
X0167508Y0167839D02*
X0168764Y0167839D01*
X0168764Y0166341D02*
X0167508Y0166341D01*
X0167508Y0166309D02*
X0168764Y0166309D01*
X0168764Y0165053D01*
X0173035Y0165053D01*
X0173035Y0163995D01*
X0172915Y0163391D01*
X0172679Y0162822D01*
X0172337Y0162309D01*
X0171901Y0161874D01*
X0171389Y0161531D01*
X0170820Y0161295D01*
X0170216Y0161175D01*
X0168764Y0161175D01*
X0168764Y0165053D01*
X0167508Y0165053D01*
X0167508Y0161175D01*
X0166056Y0161175D01*
X0165452Y0161295D01*
X0164883Y0161531D01*
X0164370Y0161874D01*
X0163935Y0162309D01*
X0163592Y0162822D01*
X0163356Y0163391D01*
X0163236Y0163995D01*
X0163236Y0165053D01*
X0167508Y0165053D01*
X0167508Y0166309D01*
X0167508Y0164842D02*
X0168764Y0164842D01*
X0168764Y0163344D02*
X0167508Y0163344D01*
X0167508Y0161845D02*
X0168764Y0161845D01*
X0171859Y0161845D02*
X0224106Y0161845D01*
X0224106Y0160678D02*
X0224896Y0159887D01*
X0233415Y0159887D01*
X0234205Y0160678D01*
X0234205Y0162647D01*
X0234494Y0162081D01*
X0234998Y0161387D01*
X0235605Y0160780D01*
X0236299Y0160276D01*
X0237063Y0159886D01*
X0237879Y0159621D01*
X0238727Y0159487D01*
X0238905Y0159487D01*
X0238905Y0164687D01*
X0239406Y0164687D01*
X0239406Y0165187D01*
X0244605Y0165187D01*
X0244605Y0165366D01*
X0244471Y0166213D01*
X0244206Y0167029D01*
X0243817Y0167793D01*
X0243313Y0168487D01*
X0242706Y0169094D01*
X0242012Y0169598D01*
X0241248Y0169988D01*
X0240432Y0170253D01*
X0239584Y0170387D01*
X0239406Y0170387D01*
X0239406Y0165187D01*
X0238905Y0165187D01*
X0238905Y0170387D01*
X0238727Y0170387D01*
X0237879Y0170253D01*
X0237063Y0169988D01*
X0236299Y0169598D01*
X0235605Y0169094D01*
X0234998Y0168487D01*
X0234494Y0167793D01*
X0234205Y0167227D01*
X0234205Y0169196D01*
X0233415Y0169987D01*
X0224896Y0169987D01*
X0224106Y0169196D01*
X0224106Y0160678D01*
X0224437Y0160347D02*
X0160787Y0160347D01*
X0159868Y0160347D02*
X0159868Y0160347D01*
X0158949Y0160347D02*
X0156900Y0160347D01*
X0156900Y0158848D02*
X0317638Y0158848D01*
X0332806Y0142365D02*
X0374434Y0142365D01*
X0374529Y0142460D02*
X0372987Y0140917D01*
X0372152Y0138902D01*
X0372152Y0136720D01*
X0372987Y0134705D01*
X0374529Y0133162D01*
X0376545Y0132327D01*
X0378727Y0132327D01*
X0380742Y0133162D01*
X0382285Y0134705D01*
X0383120Y0136720D01*
X0383120Y0138902D01*
X0382285Y0140917D01*
X0380742Y0142460D01*
X0378727Y0143295D01*
X0376545Y0143295D01*
X0374529Y0142460D01*
X0372966Y0140866D02*
X0334275Y0140866D01*
X0334895Y0139368D02*
X0372345Y0139368D01*
X0372152Y0137869D02*
X0335088Y0137869D01*
X0334943Y0136370D02*
X0372297Y0136370D01*
X0372918Y0134872D02*
X0334323Y0134872D01*
X0332922Y0133373D02*
X0374318Y0133373D01*
X0380954Y0133373D02*
X0435841Y0133373D01*
X0434342Y0134872D02*
X0382354Y0134872D01*
X0382975Y0136370D02*
X0432844Y0136370D01*
X0431345Y0137869D02*
X0383120Y0137869D01*
X0382927Y0139368D02*
X0429847Y0139368D01*
X0428348Y0140866D02*
X0382306Y0140866D01*
X0380838Y0142365D02*
X0426850Y0142365D01*
X0373726Y0094412D02*
X0333514Y0094412D01*
X0334568Y0092914D02*
X0372672Y0092914D01*
X0372152Y0091415D02*
X0335088Y0091415D01*
X0335088Y0089917D02*
X0372152Y0089917D01*
X0372590Y0088418D02*
X0334650Y0088418D01*
X0333712Y0086920D02*
X0373528Y0086920D01*
X0325496Y0086920D02*
X0177900Y0086920D01*
X0177900Y0088418D02*
X0324559Y0088418D01*
X0324120Y0089917D02*
X0177900Y0089917D01*
X0177900Y0091415D02*
X0324120Y0091415D01*
X0324641Y0092914D02*
X0177900Y0092914D01*
X0177900Y0094412D02*
X0325694Y0094412D01*
X0317737Y0055451D02*
X0229881Y0055451D01*
X0229130Y0053952D02*
X0316732Y0053952D01*
X0316246Y0052454D02*
X0226244Y0052454D01*
X0224746Y0050955D02*
X0316246Y0050955D01*
X0316719Y0049457D02*
X0223247Y0049457D01*
X0186749Y0047958D02*
X0317706Y0047958D01*
X0327119Y0032973D02*
X0295300Y0032973D01*
X0295110Y0031475D02*
X0325257Y0031475D01*
X0324459Y0029976D02*
X0294431Y0029976D01*
X0292680Y0028478D02*
X0324120Y0028478D01*
X0217450Y0034472D02*
X0213950Y0034472D01*
X0214668Y0032973D02*
X0216618Y0032973D01*
X0216522Y0031475D02*
X0214740Y0031475D01*
X0214245Y0029976D02*
X0217053Y0029976D01*
X0183782Y0014991D02*
X0542821Y0014991D01*
X0542821Y0013493D02*
X0182283Y0013493D01*
X0180785Y0011994D02*
X0542821Y0011994D01*
X0542821Y0010496D02*
X0179286Y0010496D01*
X0177788Y0008997D02*
X0542821Y0008997D01*
X0173600Y0110896D02*
X0154438Y0110896D01*
X0153062Y0110896D02*
X0034900Y0110896D01*
X0034900Y0112394D02*
X0151026Y0112394D01*
X0150619Y0113893D02*
X0034900Y0113893D01*
X0034900Y0115391D02*
X0150041Y0115391D01*
X0150041Y0116890D02*
X0034900Y0116890D01*
X0034900Y0118388D02*
X0150041Y0118388D01*
X0150041Y0119887D02*
X0034900Y0119887D01*
X0034900Y0121385D02*
X0150041Y0121385D01*
X0150041Y0122884D02*
X0034900Y0122884D01*
X0034900Y0124382D02*
X0150041Y0124382D01*
X0150041Y0125881D02*
X0034900Y0125881D01*
X0034900Y0127379D02*
X0150041Y0127379D01*
X0154955Y0116890D02*
X0174599Y0116890D01*
X0173600Y0115391D02*
X0156563Y0115391D01*
X0156881Y0113893D02*
X0173600Y0113893D01*
X0173600Y0112394D02*
X0156474Y0112394D01*
X0150041Y0151356D02*
X0116257Y0151356D01*
X0116984Y0152854D02*
X0130591Y0152854D01*
X0128660Y0154353D02*
X0117100Y0154353D01*
X0117100Y0155851D02*
X0127161Y0155851D01*
X0125663Y0157350D02*
X0117100Y0157350D01*
X0117100Y0158848D02*
X0124164Y0158848D01*
X0123400Y0160347D02*
X0117100Y0160347D01*
X0116694Y0161845D02*
X0123400Y0161845D01*
X0123400Y0163344D02*
X0115558Y0163344D01*
X0109942Y0163344D02*
X0062558Y0163344D01*
X0063694Y0161845D02*
X0108806Y0161845D01*
X0108400Y0160347D02*
X0064100Y0160347D01*
X0064100Y0158848D02*
X0108400Y0158848D01*
X0108400Y0157350D02*
X0064100Y0157350D01*
X0064100Y0155851D02*
X0108400Y0155851D01*
X0108400Y0154353D02*
X0064100Y0154353D01*
X0063984Y0152854D02*
X0108516Y0152854D01*
X0109243Y0151356D02*
X0063257Y0151356D01*
X0056942Y0163344D02*
X0048831Y0163344D01*
X0050330Y0164842D02*
X0123400Y0164842D01*
X0123400Y0166341D02*
X0051828Y0166341D01*
X0053327Y0167839D02*
X0123400Y0167839D01*
X0123400Y0169338D02*
X0054825Y0169338D01*
X0056324Y0170836D02*
X0122176Y0170836D01*
X0120678Y0172335D02*
X0057822Y0172335D01*
X0049846Y0173833D02*
X0036985Y0173833D01*
X0036925Y0173493D02*
X0037564Y0177117D01*
X0037524Y0177576D01*
X0037366Y0178009D01*
X0037102Y0178387D01*
X0036749Y0178683D01*
X0036331Y0178877D01*
X0032707Y0179517D01*
X0031804Y0174396D01*
X0036925Y0173493D01*
X0036720Y0172335D02*
X0048347Y0172335D01*
X0046849Y0170836D02*
X0036456Y0170836D01*
X0034993Y0173833D02*
X0032113Y0173833D01*
X0031969Y0175332D02*
X0031461Y0175332D01*
X0031725Y0176830D02*
X0032233Y0176830D01*
X0031989Y0178329D02*
X0032497Y0178329D01*
X0030944Y0179827D02*
X0139941Y0179827D01*
X0141758Y0179827D02*
X0141758Y0179827D01*
X0141758Y0178329D02*
X0141758Y0178329D01*
X0141758Y0176830D02*
X0141758Y0176830D01*
X0141758Y0175332D02*
X0141758Y0175332D01*
X0141758Y0174532D02*
X0141758Y0174531D01*
X0141758Y0174531D01*
X0141758Y0168781D01*
X0141389Y0168781D01*
X0140736Y0168911D01*
X0140736Y0166309D01*
X0136465Y0166309D01*
X0136465Y0167367D01*
X0136585Y0167971D01*
X0136821Y0168541D01*
X0137163Y0169053D01*
X0137599Y0169489D01*
X0138111Y0169831D01*
X0138680Y0170067D01*
X0138880Y0170106D01*
X0138845Y0170141D01*
X0138435Y0170755D01*
X0138152Y0171438D01*
X0138008Y0172162D01*
X0138008Y0174531D01*
X0141758Y0174531D01*
X0141758Y0174532D01*
X0141758Y0173833D02*
X0141758Y0173833D01*
X0141758Y0172335D02*
X0141758Y0172335D01*
X0141758Y0170836D02*
X0141758Y0170836D01*
X0141758Y0169338D02*
X0141758Y0169338D01*
X0141992Y0167839D02*
X0140736Y0167839D01*
X0140736Y0166341D02*
X0141992Y0166341D01*
X0141992Y0164842D02*
X0140736Y0164842D01*
X0140736Y0163344D02*
X0141992Y0163344D01*
X0141992Y0161845D02*
X0140736Y0161845D01*
X0137641Y0161845D02*
X0130642Y0161845D01*
X0130100Y0163344D02*
X0136604Y0163344D01*
X0136465Y0164842D02*
X0130100Y0164842D01*
X0130100Y0166341D02*
X0136465Y0166341D01*
X0136558Y0167839D02*
X0130100Y0167839D01*
X0130100Y0169338D02*
X0137448Y0169338D01*
X0138401Y0170836D02*
X0130100Y0170836D01*
X0129823Y0172335D02*
X0138008Y0172335D01*
X0138008Y0173833D02*
X0128654Y0173833D01*
X0127156Y0175332D02*
X0138008Y0175332D01*
X0138008Y0176830D02*
X0125657Y0176830D01*
X0124159Y0178329D02*
X0138449Y0178329D01*
X0143575Y0179827D02*
X0146966Y0179827D01*
X0149276Y0179827D02*
X0150776Y0179827D01*
X0150776Y0178329D02*
X0149276Y0178329D01*
X0149276Y0176830D02*
X0150776Y0176830D01*
X0150776Y0175332D02*
X0149276Y0175332D01*
X0149276Y0173833D02*
X0145508Y0173833D01*
X0150776Y0173833D02*
X0158724Y0173833D01*
X0158724Y0173782D02*
X0153984Y0173782D01*
X0150776Y0173782D01*
X0150776Y0175281D01*
X0158724Y0175281D01*
X0158724Y0173782D01*
X0160224Y0173833D02*
X0163992Y0173833D01*
X0160224Y0175332D02*
X0158724Y0175332D01*
X0158724Y0176830D02*
X0160224Y0176830D01*
X0160224Y0178329D02*
X0158724Y0178329D01*
X0158724Y0179827D02*
X0160224Y0179827D01*
X0162534Y0179827D02*
X0165925Y0179827D01*
X0164433Y0178329D02*
X0164411Y0178329D01*
X0156415Y0179827D02*
X0153085Y0179827D01*
X0145089Y0178329D02*
X0145067Y0178329D01*
X0145281Y0169338D02*
X0146720Y0169338D01*
X0146170Y0167839D02*
X0147494Y0167839D01*
X0147494Y0166341D02*
X0146264Y0166341D01*
X0146264Y0164842D02*
X0147482Y0164842D01*
X0147482Y0163344D02*
X0146124Y0163344D01*
X0146555Y0161845D02*
X0145087Y0161845D01*
X0145056Y0160347D02*
X0132141Y0160347D01*
X0147100Y0155851D02*
X0150041Y0155851D01*
X0150041Y0154353D02*
X0146694Y0154353D01*
X0144909Y0152854D02*
X0150041Y0152854D01*
X0150041Y0157350D02*
X0148140Y0157350D01*
X0149639Y0158848D02*
X0150041Y0158848D01*
X0159868Y0161845D02*
X0159868Y0161845D01*
X0159868Y0163344D02*
X0159868Y0163344D01*
X0159868Y0164842D02*
X0159868Y0164842D01*
X0162405Y0164842D02*
X0163236Y0164842D01*
X0163236Y0166341D02*
X0162405Y0166341D01*
X0162402Y0167839D02*
X0163330Y0167839D01*
X0162780Y0169338D02*
X0164219Y0169338D01*
X0171099Y0170836D02*
X0260544Y0170836D01*
X0262042Y0169338D02*
X0242371Y0169338D01*
X0243783Y0167839D02*
X0263541Y0167839D01*
X0265039Y0166341D02*
X0244430Y0166341D01*
X0244605Y0164687D02*
X0239406Y0164687D01*
X0239406Y0159487D01*
X0239584Y0159487D01*
X0240432Y0159621D01*
X0241248Y0159886D01*
X0242012Y0160276D01*
X0242706Y0160780D01*
X0243313Y0161387D01*
X0243817Y0162081D01*
X0244206Y0162845D01*
X0244471Y0163661D01*
X0244605Y0164508D01*
X0244605Y0164687D01*
X0244368Y0163344D02*
X0268036Y0163344D01*
X0266538Y0164842D02*
X0239406Y0164842D01*
X0239406Y0163344D02*
X0238905Y0163344D01*
X0238905Y0161845D02*
X0239406Y0161845D01*
X0239406Y0160347D02*
X0238905Y0160347D01*
X0236201Y0160347D02*
X0233874Y0160347D01*
X0234205Y0161845D02*
X0234665Y0161845D01*
X0238905Y0166341D02*
X0239406Y0166341D01*
X0239406Y0167839D02*
X0238905Y0167839D01*
X0238905Y0169338D02*
X0239406Y0169338D01*
X0235941Y0169338D02*
X0234064Y0169338D01*
X0234205Y0167839D02*
X0234528Y0167839D01*
X0224247Y0169338D02*
X0172052Y0169338D01*
X0172942Y0167839D02*
X0224106Y0167839D01*
X0224106Y0166341D02*
X0173035Y0166341D01*
X0173035Y0164842D02*
X0224106Y0164842D01*
X0224106Y0163344D02*
X0172896Y0163344D01*
X0164413Y0161845D02*
X0162326Y0161845D01*
X0162405Y0163344D02*
X0163376Y0163344D01*
X0171492Y0172335D02*
X0259045Y0172335D01*
X0257547Y0173833D02*
X0171492Y0173833D01*
X0171492Y0175332D02*
X0256048Y0175332D01*
X0254550Y0176830D02*
X0171492Y0176830D01*
X0171051Y0178329D02*
X0253051Y0178329D01*
X0243646Y0161845D02*
X0269535Y0161845D01*
X0271033Y0160347D02*
X0242110Y0160347D01*
X0054341Y0178329D02*
X0037142Y0178329D01*
X0037513Y0176830D02*
X0052843Y0176830D01*
X0051344Y0175332D02*
X0037249Y0175332D01*
X0027411Y0041964D02*
X0004250Y0041964D01*
X0004250Y0040466D02*
X0025780Y0040466D01*
X0025159Y0038967D02*
X0004250Y0038967D01*
X0004250Y0037469D02*
X0025100Y0037469D01*
X0025516Y0035970D02*
X0004250Y0035970D01*
X0004250Y0034472D02*
X0007551Y0034472D01*
X0005322Y0032973D02*
X0004250Y0032973D01*
X0013949Y0034472D02*
X0026602Y0034472D01*
X0039400Y0020985D02*
X0039700Y0020985D01*
D11*
X0301238Y0141000D02*
X0301240Y0141148D01*
X0301246Y0141296D01*
X0301256Y0141444D01*
X0301270Y0141591D01*
X0301288Y0141738D01*
X0301309Y0141884D01*
X0301335Y0142030D01*
X0301365Y0142175D01*
X0301398Y0142319D01*
X0301436Y0142462D01*
X0301477Y0142604D01*
X0301522Y0142745D01*
X0301570Y0142885D01*
X0301623Y0143024D01*
X0301679Y0143161D01*
X0301739Y0143296D01*
X0301802Y0143430D01*
X0301869Y0143562D01*
X0301940Y0143692D01*
X0302014Y0143820D01*
X0302091Y0143946D01*
X0302172Y0144070D01*
X0302256Y0144192D01*
X0302343Y0144311D01*
X0302434Y0144428D01*
X0302528Y0144543D01*
X0302624Y0144655D01*
X0302724Y0144765D01*
X0302826Y0144871D01*
X0302932Y0144975D01*
X0303040Y0145076D01*
X0303151Y0145174D01*
X0303264Y0145270D01*
X0303380Y0145362D01*
X0303498Y0145451D01*
X0303619Y0145536D01*
X0303742Y0145619D01*
X0303867Y0145698D01*
X0303994Y0145774D01*
X0304123Y0145846D01*
X0304254Y0145915D01*
X0304387Y0145980D01*
X0304522Y0146041D01*
X0304658Y0146099D01*
X0304795Y0146154D01*
X0304934Y0146204D01*
X0305075Y0146251D01*
X0305216Y0146294D01*
X0305359Y0146334D01*
X0305503Y0146369D01*
X0305647Y0146401D01*
X0305793Y0146428D01*
X0305939Y0146452D01*
X0306086Y0146472D01*
X0306233Y0146488D01*
X0306380Y0146500D01*
X0306528Y0146508D01*
X0306676Y0146512D01*
X0306824Y0146512D01*
X0306972Y0146508D01*
X0307120Y0146500D01*
X0307267Y0146488D01*
X0307414Y0146472D01*
X0307561Y0146452D01*
X0307707Y0146428D01*
X0307853Y0146401D01*
X0307997Y0146369D01*
X0308141Y0146334D01*
X0308284Y0146294D01*
X0308425Y0146251D01*
X0308566Y0146204D01*
X0308705Y0146154D01*
X0308842Y0146099D01*
X0308978Y0146041D01*
X0309113Y0145980D01*
X0309246Y0145915D01*
X0309377Y0145846D01*
X0309506Y0145774D01*
X0309633Y0145698D01*
X0309758Y0145619D01*
X0309881Y0145536D01*
X0310002Y0145451D01*
X0310120Y0145362D01*
X0310236Y0145270D01*
X0310349Y0145174D01*
X0310460Y0145076D01*
X0310568Y0144975D01*
X0310674Y0144871D01*
X0310776Y0144765D01*
X0310876Y0144655D01*
X0310972Y0144543D01*
X0311066Y0144428D01*
X0311157Y0144311D01*
X0311244Y0144192D01*
X0311328Y0144070D01*
X0311409Y0143946D01*
X0311486Y0143820D01*
X0311560Y0143692D01*
X0311631Y0143562D01*
X0311698Y0143430D01*
X0311761Y0143296D01*
X0311821Y0143161D01*
X0311877Y0143024D01*
X0311930Y0142885D01*
X0311978Y0142745D01*
X0312023Y0142604D01*
X0312064Y0142462D01*
X0312102Y0142319D01*
X0312135Y0142175D01*
X0312165Y0142030D01*
X0312191Y0141884D01*
X0312212Y0141738D01*
X0312230Y0141591D01*
X0312244Y0141444D01*
X0312254Y0141296D01*
X0312260Y0141148D01*
X0312262Y0141000D01*
X0312260Y0140852D01*
X0312254Y0140704D01*
X0312244Y0140556D01*
X0312230Y0140409D01*
X0312212Y0140262D01*
X0312191Y0140116D01*
X0312165Y0139970D01*
X0312135Y0139825D01*
X0312102Y0139681D01*
X0312064Y0139538D01*
X0312023Y0139396D01*
X0311978Y0139255D01*
X0311930Y0139115D01*
X0311877Y0138976D01*
X0311821Y0138839D01*
X0311761Y0138704D01*
X0311698Y0138570D01*
X0311631Y0138438D01*
X0311560Y0138308D01*
X0311486Y0138180D01*
X0311409Y0138054D01*
X0311328Y0137930D01*
X0311244Y0137808D01*
X0311157Y0137689D01*
X0311066Y0137572D01*
X0310972Y0137457D01*
X0310876Y0137345D01*
X0310776Y0137235D01*
X0310674Y0137129D01*
X0310568Y0137025D01*
X0310460Y0136924D01*
X0310349Y0136826D01*
X0310236Y0136730D01*
X0310120Y0136638D01*
X0310002Y0136549D01*
X0309881Y0136464D01*
X0309758Y0136381D01*
X0309633Y0136302D01*
X0309506Y0136226D01*
X0309377Y0136154D01*
X0309246Y0136085D01*
X0309113Y0136020D01*
X0308978Y0135959D01*
X0308842Y0135901D01*
X0308705Y0135846D01*
X0308566Y0135796D01*
X0308425Y0135749D01*
X0308284Y0135706D01*
X0308141Y0135666D01*
X0307997Y0135631D01*
X0307853Y0135599D01*
X0307707Y0135572D01*
X0307561Y0135548D01*
X0307414Y0135528D01*
X0307267Y0135512D01*
X0307120Y0135500D01*
X0306972Y0135492D01*
X0306824Y0135488D01*
X0306676Y0135488D01*
X0306528Y0135492D01*
X0306380Y0135500D01*
X0306233Y0135512D01*
X0306086Y0135528D01*
X0305939Y0135548D01*
X0305793Y0135572D01*
X0305647Y0135599D01*
X0305503Y0135631D01*
X0305359Y0135666D01*
X0305216Y0135706D01*
X0305075Y0135749D01*
X0304934Y0135796D01*
X0304795Y0135846D01*
X0304658Y0135901D01*
X0304522Y0135959D01*
X0304387Y0136020D01*
X0304254Y0136085D01*
X0304123Y0136154D01*
X0303994Y0136226D01*
X0303867Y0136302D01*
X0303742Y0136381D01*
X0303619Y0136464D01*
X0303498Y0136549D01*
X0303380Y0136638D01*
X0303264Y0136730D01*
X0303151Y0136826D01*
X0303040Y0136924D01*
X0302932Y0137025D01*
X0302826Y0137129D01*
X0302724Y0137235D01*
X0302624Y0137345D01*
X0302528Y0137457D01*
X0302434Y0137572D01*
X0302343Y0137689D01*
X0302256Y0137808D01*
X0302172Y0137930D01*
X0302091Y0138054D01*
X0302014Y0138180D01*
X0301940Y0138308D01*
X0301869Y0138438D01*
X0301802Y0138570D01*
X0301739Y0138704D01*
X0301679Y0138839D01*
X0301623Y0138976D01*
X0301570Y0139115D01*
X0301522Y0139255D01*
X0301477Y0139396D01*
X0301436Y0139538D01*
X0301398Y0139681D01*
X0301365Y0139825D01*
X0301335Y0139970D01*
X0301309Y0140116D01*
X0301288Y0140262D01*
X0301270Y0140409D01*
X0301256Y0140556D01*
X0301246Y0140704D01*
X0301240Y0140852D01*
X0301238Y0141000D01*
D12*
X0329604Y0137811D03*
X0377636Y0137811D03*
X0321730Y0114189D03*
X0329604Y0090567D03*
X0329604Y0075311D03*
X0377636Y0075311D03*
X0377636Y0090567D03*
X0321730Y0051689D03*
X0329604Y0028067D03*
X0377636Y0028067D03*
D13*
X0240250Y0032937D03*
X0141750Y0067000D03*
X0126376Y0019228D03*
X0229156Y0164937D03*
D14*
X0239156Y0164937D03*
X0039550Y0103900D03*
X0013950Y0103900D03*
X0013950Y0086100D03*
X0039550Y0086100D03*
X0026305Y0144649D03*
X0028041Y0154497D03*
X0029778Y0164345D03*
X0250250Y0032937D03*
X0260250Y0032937D03*
X0270250Y0032937D03*
X0280250Y0032937D03*
X0290250Y0032937D03*
X0116376Y0019228D03*
X0106376Y0019228D03*
X0096376Y0019228D03*
D15*
G36*
X0027228Y0171192D02*
X0028513Y0178479D01*
X0035800Y0177194D01*
X0034515Y0169907D01*
X0027228Y0171192D01*
G37*
D16*
X0059750Y0160000D02*
X0059750Y0154000D01*
X0112750Y0154000D02*
X0112750Y0160000D01*
D17*
X0201250Y0032000D03*
X0210644Y0032000D03*
X0220250Y0032000D03*
D18*
X0039550Y0037900D02*
X0039550Y0043200D01*
X0034750Y0048000D01*
X0027750Y0048000D01*
X0024750Y0051000D01*
X0024750Y0104000D01*
X0014750Y0114000D01*
X0014750Y0159000D01*
X0020095Y0164345D01*
X0029778Y0164345D01*
X0031433Y0166000D01*
X0046750Y0166000D01*
X0056750Y0176000D01*
X0121750Y0176000D01*
X0126750Y0171000D01*
X0126750Y0161000D01*
X0131750Y0156000D01*
X0141750Y0156000D01*
X0143750Y0156000D01*
X0141758Y0172531D02*
X0141758Y0176531D01*
X0167742Y0176531D02*
X0167742Y0172531D01*
D19*
X0160262Y0167544D02*
X0159474Y0167544D01*
X0160262Y0167544D02*
X0160262Y0162424D01*
X0159474Y0162424D01*
X0159474Y0167544D01*
X0159474Y0163210D02*
X0160262Y0163210D01*
X0160262Y0163996D02*
X0159474Y0163996D01*
X0159474Y0164782D02*
X0160262Y0164782D01*
X0160262Y0165568D02*
X0159474Y0165568D01*
X0159474Y0166354D02*
X0160262Y0166354D01*
X0160262Y0167140D02*
X0159474Y0167140D01*
X0157703Y0167544D02*
X0156915Y0167544D01*
X0157703Y0167544D02*
X0157703Y0162424D01*
X0156915Y0162424D01*
X0156915Y0167544D01*
X0156915Y0163210D02*
X0157703Y0163210D01*
X0157703Y0163996D02*
X0156915Y0163996D01*
X0156915Y0164782D02*
X0157703Y0164782D01*
X0157703Y0165568D02*
X0156915Y0165568D01*
X0156915Y0166354D02*
X0157703Y0166354D01*
X0157703Y0167140D02*
X0156915Y0167140D01*
X0155144Y0167544D02*
X0154356Y0167544D01*
X0155144Y0167544D02*
X0155144Y0162424D01*
X0154356Y0162424D01*
X0154356Y0167544D01*
X0154356Y0163210D02*
X0155144Y0163210D01*
X0155144Y0163996D02*
X0154356Y0163996D01*
X0154356Y0164782D02*
X0155144Y0164782D01*
X0155144Y0165568D02*
X0154356Y0165568D01*
X0154356Y0166354D02*
X0155144Y0166354D01*
X0155144Y0167140D02*
X0154356Y0167140D01*
X0152585Y0167544D02*
X0151797Y0167544D01*
X0152585Y0167544D02*
X0152585Y0162424D01*
X0151797Y0162424D01*
X0151797Y0167544D01*
X0151797Y0163210D02*
X0152585Y0163210D01*
X0152585Y0163996D02*
X0151797Y0163996D01*
X0151797Y0164782D02*
X0152585Y0164782D01*
X0152585Y0165568D02*
X0151797Y0165568D01*
X0151797Y0166354D02*
X0152585Y0166354D01*
X0152585Y0167140D02*
X0151797Y0167140D01*
X0150026Y0167544D02*
X0149238Y0167544D01*
X0150026Y0167544D02*
X0150026Y0162424D01*
X0149238Y0162424D01*
X0149238Y0167544D01*
X0149238Y0163210D02*
X0150026Y0163210D01*
X0150026Y0163996D02*
X0149238Y0163996D01*
X0149238Y0164782D02*
X0150026Y0164782D01*
X0150026Y0165568D02*
X0149238Y0165568D01*
X0149238Y0166354D02*
X0150026Y0166354D01*
X0150026Y0167140D02*
X0149238Y0167140D01*
D20*
X0139593Y0167059D02*
X0139593Y0164303D01*
X0139593Y0167059D02*
X0143135Y0167059D01*
X0143135Y0164303D01*
X0139593Y0164303D01*
X0139593Y0167058D02*
X0143135Y0167058D01*
X0166365Y0167059D02*
X0166365Y0164303D01*
X0166365Y0167059D02*
X0169907Y0167059D01*
X0169907Y0164303D01*
X0166365Y0164303D01*
X0166365Y0167058D02*
X0169907Y0167058D01*
D21*
X0161344Y0172661D02*
X0157604Y0172661D01*
X0157604Y0176401D01*
X0161344Y0176401D01*
X0161344Y0172661D01*
X0161344Y0176400D02*
X0157604Y0176400D01*
X0151896Y0172661D02*
X0148156Y0172661D01*
X0148156Y0176401D01*
X0151896Y0176401D01*
X0151896Y0172661D01*
X0151896Y0176400D02*
X0148156Y0176400D01*
D22*
X0141750Y0087000D03*
X0131750Y0087000D03*
X0131750Y0077000D03*
X0141750Y0077000D03*
X0131750Y0067000D03*
D23*
X0039550Y0037900D03*
X0029750Y0037900D03*
X0029750Y0025300D03*
X0039550Y0025300D03*
D24*
X0058150Y0027300D03*
X0010750Y0027300D03*
D25*
X0475388Y0025134D03*
X0497750Y0025134D03*
X0497750Y0076866D03*
X0475388Y0076866D03*
D26*
X0476766Y0064780D03*
X0487081Y0064780D03*
X0487081Y0054937D03*
X0476766Y0054937D03*
X0476766Y0047063D03*
X0487081Y0047063D03*
X0487081Y0037220D03*
X0476766Y0037220D03*
D27*
X0255750Y0119000D03*
X0164750Y0123000D03*
X0153750Y0114000D03*
X0081750Y0064000D03*
X0051750Y0060000D03*
X0118750Y0055000D03*
X0226750Y0056000D03*
D28*
X0221750Y0051000D01*
X0186750Y0051000D01*
X0181750Y0046000D01*
X0181750Y0016000D01*
X0176750Y0011000D01*
X0091750Y0011000D01*
X0081750Y0021000D01*
X0081750Y0064000D01*
X0051750Y0060000D02*
X0036750Y0060000D01*
X0032750Y0064000D01*
X0032750Y0150000D01*
X0028253Y0154497D01*
X0028041Y0154497D01*
X0143750Y0156000D02*
X0149632Y0161882D01*
X0149632Y0164984D01*
X0152191Y0164984D02*
X0152191Y0115559D01*
X0153750Y0114000D01*
X0175750Y0115000D02*
X0181750Y0121000D01*
X0253750Y0121000D01*
X0255750Y0119000D01*
X0175750Y0115000D02*
X0175750Y0036000D01*
X0166750Y0027000D01*
X0119750Y0027000D01*
X0116376Y0023626D01*
X0116376Y0019228D01*
X0118750Y0055000D02*
X0121750Y0055000D01*
X0131750Y0065000D01*
X0131750Y0067000D01*
X0141750Y0087000D02*
X0141750Y0091000D01*
X0139750Y0093000D01*
X0042750Y0093000D01*
X0039750Y0090000D01*
X0039750Y0086300D01*
X0039550Y0086100D01*
X0154750Y0133000D02*
X0164750Y0123000D01*
X0154750Y0133000D02*
X0154750Y0164984D01*
D29*
X0141750Y0156000D03*
M02*
