%
M48
M72
T01C0.02000
T02C0.02362
T03C0.02500
T04C0.02756
T05C0.03600
T06C0.03622
T07C0.04000
T08C0.05118
T09C0.09000
T10C0.09055
T11C0.11024
%
T01
X167742Y174531
X141758Y174531
T02
X255750Y119000
X164750Y123000
X153750Y114000
X81750Y64000
X51750Y60000
X118750Y55000
X226750Y56000
T03
X112750Y157000
X59750Y157000
T04
X220250Y32000
X210644Y32000
X201250Y32000
X141750Y156000
T05
X39550Y37900
X29750Y37900
X29750Y25300
X39550Y25300
T06
X487081Y37220
X476766Y37220
X476766Y47063
X487081Y47063
X487081Y54937
X476766Y54937
X476766Y64780
X487081Y64780
T07
X290250Y32937
X280250Y32937
X270250Y32937
X260250Y32937
X250250Y32937
X240250Y32937
X141750Y67000
X131750Y67000
X131750Y77000
X141750Y77000
X141750Y87000
X131750Y87000
X39550Y86100
X13950Y86100
X13950Y103900
X39550Y103900
X26305Y144649
X28041Y154497
X29778Y164345
X31514Y174193
X229156Y164937
X239156Y164937
X126376Y19228
X116376Y19228
X106376Y19228
X96376Y19228
T08
X377636Y28067
X329604Y28067
X321730Y51689
X329604Y75311
X329604Y90567
X377636Y90567
X377636Y75311
X321730Y114189
X329604Y137811
X377636Y137811
T09
X58150Y27300
X10750Y27300
T10
X497750Y25134
X475388Y25134
X475388Y76866
X497750Y76866
T11
X306750Y141000
M30
