G75*
%MOIN*%
%OFA0B0*%
%FSLAX25Y25*%
%IPPOS*%
%LPD*%
%AMOC8*
5,1,8,0,0,1.08239X$1,22.5*
%
%ADD10C,0.01500*%
%ADD11C,0.00000*%
%ADD12R,0.06969X0.07087*%
%ADD13C,0.01000*%
%ADD14R,0.04500X0.04000*%
%ADD15C,0.08268*%
%ADD16R,0.07087X0.06969*%
%ADD17R,0.07400X0.07400*%
%ADD18C,0.07400*%
%ADD19R,0.07400X0.07400*%
%ADD20R,0.06500X0.02500*%
%ADD21C,0.00600*%
%ADD22C,0.06000*%
%ADD23C,0.30000*%
%ADD24R,0.05906X0.01969*%
%ADD25R,0.01969X0.05906*%
%ADD26C,0.00875*%
%ADD27R,0.04724X0.07087*%
%ADD28C,0.04756*%
%ADD29C,0.04000*%
%ADD30R,0.04724X0.04724*%
%ADD31R,0.06600X0.06000*%
%ADD32OC8,0.07400*%
%ADD33C,0.06600*%
%ADD34C,0.13000*%
%ADD35C,0.13055*%
%ADD36C,0.05622*%
%ADD37C,0.01600*%
%ADD38C,0.03562*%
%ADD39C,0.02400*%
%ADD40C,0.01200*%
%ADD41C,0.04134*%
D10*
X0001750Y0006000D02*
X0545321Y0006000D01*
X0545321Y0096512D01*
X0476238Y0096512D01*
X0411750Y0161000D01*
X0273404Y0161512D01*
X0250864Y0184051D01*
X0001750Y0184051D01*
X0001750Y0006000D01*
X0004250Y0008500D02*
X0004250Y0022698D01*
X0006303Y0020645D01*
X0009189Y0019450D01*
X0012311Y0019450D01*
X0015197Y0020645D01*
X0017405Y0022853D01*
X0018600Y0025739D01*
X0018600Y0028861D01*
X0017405Y0031747D01*
X0015197Y0033955D01*
X0012311Y0035150D01*
X0009189Y0035150D01*
X0006303Y0033955D01*
X0004250Y0031902D01*
X0004250Y0181551D01*
X0249829Y0181551D01*
X0271633Y0159746D01*
X0271980Y0159398D01*
X0271984Y0159396D01*
X0271987Y0159392D01*
X0272443Y0159204D01*
X0272897Y0159014D01*
X0272902Y0159014D01*
X0272906Y0159012D01*
X0273399Y0159012D01*
X0410711Y0158504D01*
X0474822Y0094392D01*
X0475741Y0094012D01*
X0542821Y0094012D01*
X0542821Y0008500D01*
X0004250Y0008500D01*
X0004250Y0008997D02*
X0542821Y0008997D01*
X0542821Y0010496D02*
X0004250Y0010496D01*
X0004250Y0011994D02*
X0410018Y0011994D01*
X0410852Y0011160D02*
X0412084Y0010650D01*
X0484416Y0010650D01*
X0485648Y0011160D01*
X0486590Y0012102D01*
X0489921Y0015433D01*
X0490431Y0016664D01*
X0490431Y0022219D01*
X0491072Y0020672D01*
X0493288Y0018456D01*
X0496183Y0017256D01*
X0499317Y0017256D01*
X0502212Y0018456D01*
X0504428Y0020672D01*
X0505628Y0023567D01*
X0505628Y0026701D01*
X0504428Y0029596D01*
X0502212Y0031812D01*
X0499317Y0033011D01*
X0496183Y0033011D01*
X0493288Y0031812D01*
X0491072Y0029596D01*
X0490431Y0028049D01*
X0490431Y0034686D01*
X0490608Y0034863D01*
X0491242Y0036393D01*
X0491242Y0038048D01*
X0490608Y0039577D01*
X0489438Y0040748D01*
X0487908Y0041381D01*
X0486253Y0041381D01*
X0484724Y0040748D01*
X0483553Y0039577D01*
X0482920Y0038048D01*
X0482920Y0036393D01*
X0483553Y0034863D01*
X0483731Y0034686D01*
X0483731Y0018718D01*
X0482362Y0017350D01*
X0477181Y0017350D01*
X0479850Y0018456D01*
X0482066Y0020672D01*
X0483265Y0023567D01*
X0483265Y0026701D01*
X0482066Y0029596D01*
X0479850Y0031812D01*
X0476955Y0033011D01*
X0473821Y0033011D01*
X0470926Y0031812D01*
X0468710Y0029596D01*
X0467510Y0026701D01*
X0467510Y0023567D01*
X0468710Y0020672D01*
X0470926Y0018456D01*
X0473595Y0017350D01*
X0414138Y0017350D01*
X0401590Y0029898D01*
X0400648Y0030840D01*
X0399416Y0031350D01*
X0382108Y0031350D01*
X0380742Y0032716D01*
X0378727Y0033551D01*
X0376545Y0033551D01*
X0374529Y0032716D01*
X0372987Y0031173D01*
X0372152Y0029158D01*
X0372152Y0026976D01*
X0372987Y0024961D01*
X0374529Y0023418D01*
X0376545Y0022583D01*
X0378727Y0022583D01*
X0380742Y0023418D01*
X0381974Y0024650D01*
X0397362Y0024650D01*
X0410852Y0011160D01*
X0408520Y0013493D02*
X0004250Y0013493D01*
X0004250Y0014991D02*
X0092936Y0014991D01*
X0092826Y0015071D02*
X0093520Y0014567D01*
X0094284Y0014178D01*
X0095100Y0013913D01*
X0095947Y0013778D01*
X0096126Y0013778D01*
X0096126Y0018978D01*
X0096626Y0018978D01*
X0096626Y0013778D01*
X0096805Y0013778D01*
X0097652Y0013913D01*
X0098468Y0014178D01*
X0099232Y0014567D01*
X0099926Y0015071D01*
X0100533Y0015678D01*
X0101037Y0016372D01*
X0101427Y0017136D01*
X0101580Y0017610D01*
X0102095Y0016368D01*
X0103515Y0014947D01*
X0105371Y0014178D01*
X0107380Y0014178D01*
X0109237Y0014947D01*
X0110657Y0016368D01*
X0111376Y0018103D01*
X0112095Y0016368D01*
X0113515Y0014947D01*
X0115371Y0014178D01*
X0117380Y0014178D01*
X0119237Y0014947D01*
X0120657Y0016368D01*
X0121326Y0017982D01*
X0121326Y0014969D01*
X0122117Y0014178D01*
X0130635Y0014178D01*
X0131426Y0014969D01*
X0131426Y0017078D01*
X0307869Y0017078D01*
X0310141Y0019350D01*
X0311400Y0020609D01*
X0311400Y0024650D01*
X0325266Y0024650D01*
X0326498Y0023418D01*
X0328514Y0022583D01*
X0330695Y0022583D01*
X0332711Y0023418D01*
X0334010Y0024717D01*
X0336922Y0024717D01*
X0337084Y0024650D01*
X0338416Y0024650D01*
X0339648Y0025160D01*
X0340590Y0026102D01*
X0343590Y0029102D01*
X0344100Y0030334D01*
X0344100Y0087666D01*
X0343590Y0088898D01*
X0342648Y0089840D01*
X0340023Y0092465D01*
X0339081Y0093407D01*
X0337849Y0093917D01*
X0334010Y0093917D01*
X0332711Y0095216D01*
X0330695Y0096051D01*
X0328514Y0096051D01*
X0326498Y0095216D01*
X0325199Y0093917D01*
X0317236Y0093917D01*
X0315872Y0095281D01*
X0315872Y0099384D01*
X0324570Y0108083D01*
X0325080Y0109314D01*
X0325080Y0109784D01*
X0326379Y0111083D01*
X0327029Y0112650D01*
X0337416Y0112650D01*
X0338648Y0113160D01*
X0339590Y0114102D01*
X0344590Y0119102D01*
X0345100Y0120334D01*
X0345100Y0151666D01*
X0344590Y0152898D01*
X0343648Y0153840D01*
X0341648Y0155840D01*
X0340416Y0156350D01*
X0255100Y0156350D01*
X0255100Y0171666D01*
X0254590Y0172898D01*
X0253648Y0173840D01*
X0253648Y0173840D01*
X0250148Y0177340D01*
X0248916Y0177850D01*
X0190584Y0177850D01*
X0189352Y0177340D01*
X0185852Y0173840D01*
X0184910Y0172898D01*
X0184400Y0171666D01*
X0184400Y0139350D01*
X0145100Y0139350D01*
X0145100Y0155159D01*
X0145167Y0155320D01*
X0145167Y0156680D01*
X0144647Y0157936D01*
X0143686Y0158897D01*
X0142430Y0159417D01*
X0141070Y0159417D01*
X0139814Y0158897D01*
X0138853Y0157936D01*
X0138333Y0156680D01*
X0138333Y0155320D01*
X0138400Y0155159D01*
X0138400Y0138150D01*
X0122859Y0138150D01*
X0121600Y0136891D01*
X0116600Y0131891D01*
X0116600Y0057278D01*
X0116096Y0056774D01*
X0115619Y0055623D01*
X0115619Y0054377D01*
X0116096Y0053226D01*
X0116172Y0053150D01*
X0057641Y0053150D01*
X0053900Y0056891D01*
X0053900Y0057722D01*
X0054404Y0058226D01*
X0054881Y0059377D01*
X0054881Y0060623D01*
X0054404Y0061774D01*
X0053900Y0062278D01*
X0053900Y0064150D01*
X0054766Y0064150D01*
X0055850Y0065234D01*
X0055850Y0069766D01*
X0054766Y0070850D01*
X0048734Y0070850D01*
X0047650Y0069766D01*
X0047650Y0065234D01*
X0048734Y0064150D01*
X0049600Y0064150D01*
X0049600Y0062278D01*
X0049096Y0061774D01*
X0048619Y0060623D01*
X0048619Y0059377D01*
X0049096Y0058226D01*
X0049600Y0057722D01*
X0049600Y0055109D01*
X0055859Y0048850D01*
X0155859Y0048850D01*
X0170859Y0033850D01*
X0187859Y0033850D01*
X0198859Y0022850D01*
X0228641Y0022850D01*
X0229900Y0024109D01*
X0229900Y0024109D01*
X0232900Y0027109D01*
X0232900Y0047809D01*
X0233859Y0046850D01*
X0266859Y0046850D01*
X0268600Y0045109D01*
X0268600Y0037720D01*
X0267389Y0037218D01*
X0265969Y0035798D01*
X0265454Y0034556D01*
X0265301Y0035029D01*
X0264911Y0035793D01*
X0264407Y0036487D01*
X0263800Y0037094D01*
X0263106Y0037598D01*
X0262342Y0037988D01*
X0261526Y0038253D01*
X0260679Y0038387D01*
X0260500Y0038387D01*
X0260500Y0033187D01*
X0260000Y0033187D01*
X0260000Y0038387D01*
X0259821Y0038387D01*
X0258974Y0038253D01*
X0258158Y0037988D01*
X0257394Y0037598D01*
X0256700Y0037094D01*
X0256093Y0036487D01*
X0255589Y0035793D01*
X0255199Y0035029D01*
X0255046Y0034556D01*
X0254531Y0035798D01*
X0253111Y0037218D01*
X0251255Y0037987D01*
X0249245Y0037987D01*
X0247389Y0037218D01*
X0245969Y0035798D01*
X0245300Y0034183D01*
X0245300Y0037196D01*
X0244509Y0037987D01*
X0235991Y0037987D01*
X0235200Y0037196D01*
X0235200Y0028678D01*
X0235991Y0027887D01*
X0244509Y0027887D01*
X0245300Y0028678D01*
X0245300Y0031691D01*
X0245969Y0030076D01*
X0247389Y0028656D01*
X0248100Y0028361D01*
X0248100Y0021619D01*
X0247859Y0021378D01*
X0133428Y0021378D01*
X0133428Y0032994D01*
X0133544Y0032994D01*
X0134628Y0034078D01*
X0134628Y0040111D01*
X0133544Y0041194D01*
X0129011Y0041194D01*
X0127928Y0040111D01*
X0127928Y0034078D01*
X0129011Y0032994D01*
X0129128Y0032994D01*
X0129128Y0024278D01*
X0122117Y0024278D01*
X0121326Y0023488D01*
X0121326Y0020474D01*
X0120657Y0022089D01*
X0119237Y0023510D01*
X0118900Y0023649D01*
X0118900Y0034944D01*
X0120928Y0034944D01*
X0120928Y0034078D01*
X0122011Y0032994D01*
X0126544Y0032994D01*
X0127628Y0034078D01*
X0127628Y0040111D01*
X0126544Y0041194D01*
X0122011Y0041194D01*
X0120928Y0040111D01*
X0120928Y0039244D01*
X0116954Y0039244D01*
X0115859Y0038150D01*
X0114600Y0036891D01*
X0114600Y0023959D01*
X0113515Y0023510D01*
X0112095Y0022089D01*
X0111376Y0020354D01*
X0110657Y0022089D01*
X0109237Y0023510D01*
X0107380Y0024278D01*
X0105371Y0024278D01*
X0103515Y0023510D01*
X0102095Y0022089D01*
X0101580Y0020847D01*
X0101427Y0021320D01*
X0101037Y0022085D01*
X0100533Y0022779D01*
X0099926Y0023385D01*
X0099232Y0023890D01*
X0098468Y0024279D01*
X0097652Y0024544D01*
X0096805Y0024678D01*
X0096626Y0024678D01*
X0096626Y0019478D01*
X0096126Y0019478D01*
X0096126Y0018978D01*
X0090926Y0018978D01*
X0090926Y0018799D01*
X0091060Y0017952D01*
X0091325Y0017136D01*
X0091715Y0016372D01*
X0092219Y0015678D01*
X0092826Y0015071D01*
X0091655Y0016490D02*
X0004250Y0016490D01*
X0004250Y0017988D02*
X0091054Y0017988D01*
X0090926Y0019478D02*
X0096126Y0019478D01*
X0096126Y0024678D01*
X0095947Y0024678D01*
X0095100Y0024544D01*
X0094284Y0024279D01*
X0093520Y0023890D01*
X0092826Y0023385D01*
X0092219Y0022779D01*
X0091715Y0022085D01*
X0091325Y0021320D01*
X0091060Y0020505D01*
X0090926Y0019657D01*
X0090926Y0019478D01*
X0090926Y0019487D02*
X0076546Y0019487D01*
X0076513Y0019429D02*
X0076743Y0019828D01*
X0076862Y0020274D01*
X0076862Y0022435D01*
X0073181Y0022435D01*
X0073181Y0018754D01*
X0075343Y0018754D01*
X0075788Y0018873D01*
X0076187Y0019104D01*
X0076513Y0019429D01*
X0076862Y0020985D02*
X0091216Y0020985D01*
X0092005Y0022484D02*
X0073181Y0022484D01*
X0073181Y0022435D02*
X0073181Y0023297D01*
X0076862Y0023297D01*
X0076862Y0025459D01*
X0076743Y0025904D01*
X0076513Y0026303D01*
X0076187Y0026629D01*
X0075788Y0026859D01*
X0075343Y0026978D01*
X0073181Y0026978D01*
X0073181Y0023297D01*
X0072319Y0023297D01*
X0072319Y0022435D01*
X0073181Y0022435D01*
X0072319Y0022435D02*
X0072319Y0018754D01*
X0070157Y0018754D01*
X0069712Y0018873D01*
X0069313Y0019104D01*
X0068987Y0019429D01*
X0068757Y0019828D01*
X0068638Y0020274D01*
X0068638Y0022435D01*
X0072319Y0022435D01*
X0072319Y0022484D02*
X0064435Y0022484D01*
X0064805Y0022853D02*
X0066000Y0025739D01*
X0066000Y0028861D01*
X0064805Y0031747D01*
X0062597Y0033955D01*
X0059711Y0035150D01*
X0056589Y0035150D01*
X0053703Y0033955D01*
X0051495Y0031747D01*
X0050300Y0028861D01*
X0050300Y0025739D01*
X0051495Y0022853D01*
X0053703Y0020645D01*
X0056589Y0019450D01*
X0059711Y0019450D01*
X0062597Y0020645D01*
X0064805Y0022853D01*
X0065272Y0023982D02*
X0068638Y0023982D01*
X0068638Y0023297D02*
X0072319Y0023297D01*
X0072319Y0026978D01*
X0070157Y0026978D01*
X0069712Y0026859D01*
X0069313Y0026629D01*
X0068987Y0026303D01*
X0068757Y0025904D01*
X0068638Y0025459D01*
X0068638Y0023297D01*
X0068644Y0025481D02*
X0065893Y0025481D01*
X0066000Y0026979D02*
X0114600Y0026979D01*
X0114600Y0025481D02*
X0076856Y0025481D01*
X0076862Y0023982D02*
X0093701Y0023982D01*
X0096126Y0023982D02*
X0096626Y0023982D01*
X0096626Y0022484D02*
X0096126Y0022484D01*
X0096126Y0020985D02*
X0096626Y0020985D01*
X0096626Y0019487D02*
X0096126Y0019487D01*
X0096126Y0017988D02*
X0096626Y0017988D01*
X0096626Y0016490D02*
X0096126Y0016490D01*
X0096126Y0014991D02*
X0096626Y0014991D01*
X0099816Y0014991D02*
X0103471Y0014991D01*
X0102044Y0016490D02*
X0101097Y0016490D01*
X0109280Y0014991D02*
X0113471Y0014991D01*
X0112044Y0016490D02*
X0110708Y0016490D01*
X0111328Y0017988D02*
X0111424Y0017988D01*
X0111638Y0020985D02*
X0111114Y0020985D01*
X0110262Y0022484D02*
X0112489Y0022484D01*
X0114600Y0023982D02*
X0108096Y0023982D01*
X0104656Y0023982D02*
X0099051Y0023982D01*
X0100747Y0022484D02*
X0102489Y0022484D01*
X0101638Y0020985D02*
X0101536Y0020985D01*
X0118900Y0023982D02*
X0121821Y0023982D01*
X0121326Y0022484D02*
X0120262Y0022484D01*
X0121114Y0020985D02*
X0121326Y0020985D01*
X0121326Y0016490D02*
X0120708Y0016490D01*
X0121326Y0014991D02*
X0119280Y0014991D01*
X0131426Y0014991D02*
X0407021Y0014991D01*
X0405523Y0016490D02*
X0131426Y0016490D01*
X0133428Y0022484D02*
X0248100Y0022484D01*
X0248100Y0023982D02*
X0229773Y0023982D01*
X0231271Y0025481D02*
X0248100Y0025481D01*
X0248100Y0026979D02*
X0232770Y0026979D01*
X0232900Y0028478D02*
X0235400Y0028478D01*
X0235200Y0029976D02*
X0232900Y0029976D01*
X0232900Y0031475D02*
X0235200Y0031475D01*
X0235200Y0032973D02*
X0232900Y0032973D01*
X0232900Y0034472D02*
X0235200Y0034472D01*
X0235200Y0035970D02*
X0232900Y0035970D01*
X0232900Y0037469D02*
X0235473Y0037469D01*
X0232900Y0038967D02*
X0268600Y0038967D01*
X0268600Y0040466D02*
X0232900Y0040466D01*
X0232900Y0041964D02*
X0268600Y0041964D01*
X0268600Y0043463D02*
X0232900Y0043463D01*
X0232900Y0044961D02*
X0268600Y0044961D01*
X0267250Y0046460D02*
X0232900Y0046460D01*
X0228600Y0049433D02*
X0228350Y0049500D01*
X0226875Y0049500D01*
X0226875Y0046125D01*
X0226625Y0046125D01*
X0226625Y0049500D01*
X0225149Y0049500D01*
X0224900Y0049433D01*
X0224900Y0053422D01*
X0224976Y0053346D01*
X0226127Y0052869D01*
X0227373Y0052869D01*
X0228524Y0053346D01*
X0228600Y0053422D01*
X0228600Y0049433D01*
X0228600Y0049457D02*
X0228512Y0049457D01*
X0228600Y0050955D02*
X0224900Y0050955D01*
X0224900Y0049457D02*
X0224988Y0049457D01*
X0226625Y0049457D02*
X0226875Y0049457D01*
X0226875Y0047958D02*
X0226625Y0047958D01*
X0226625Y0046460D02*
X0226875Y0046460D01*
X0226875Y0045875D02*
X0226875Y0042500D01*
X0228350Y0042500D01*
X0228600Y0042567D01*
X0228600Y0028891D01*
X0226859Y0027150D01*
X0200641Y0027150D01*
X0189641Y0038150D01*
X0172641Y0038150D01*
X0158900Y0051891D01*
X0157941Y0052850D01*
X0205641Y0052850D01*
X0206900Y0054109D01*
X0206900Y0054109D01*
X0215192Y0062401D01*
X0216451Y0063661D01*
X0216451Y0064463D01*
X0217451Y0064463D01*
X0218450Y0064463D01*
X0218450Y0060741D01*
X0209809Y0052100D01*
X0209697Y0052100D01*
X0208974Y0051377D01*
X0208813Y0051656D01*
X0208406Y0052063D01*
X0207907Y0052351D01*
X0207350Y0052500D01*
X0205875Y0052500D01*
X0205875Y0049125D01*
X0205625Y0049125D01*
X0205625Y0052500D01*
X0204149Y0052500D01*
X0203593Y0052351D01*
X0203094Y0052063D01*
X0202687Y0051656D01*
X0202399Y0051157D01*
X0202250Y0050600D01*
X0202250Y0049125D01*
X0205625Y0049125D01*
X0205625Y0048875D01*
X0205875Y0048875D01*
X0205875Y0045500D01*
X0207209Y0045500D01*
X0199100Y0037391D01*
X0199100Y0035122D01*
X0198090Y0034112D01*
X0197522Y0032742D01*
X0197522Y0031258D01*
X0198090Y0029888D01*
X0199138Y0028840D01*
X0200508Y0028272D01*
X0201992Y0028272D01*
X0203362Y0028840D01*
X0204410Y0029888D01*
X0204978Y0031258D01*
X0204978Y0032742D01*
X0204410Y0034112D01*
X0203400Y0035122D01*
X0203400Y0035609D01*
X0213691Y0045900D01*
X0213803Y0045900D01*
X0214850Y0046947D01*
X0214850Y0051053D01*
X0214847Y0051056D01*
X0220600Y0056809D01*
X0220600Y0049100D01*
X0218697Y0049100D01*
X0217650Y0048053D01*
X0217650Y0043947D01*
X0218697Y0042900D01*
X0220600Y0042900D01*
X0220600Y0035728D01*
X0219508Y0035728D01*
X0218138Y0035160D01*
X0217090Y0034112D01*
X0216522Y0032742D01*
X0216522Y0031258D01*
X0217090Y0029888D01*
X0218138Y0028840D01*
X0219508Y0028272D01*
X0220992Y0028272D01*
X0222362Y0028840D01*
X0223410Y0029888D01*
X0223978Y0031258D01*
X0223978Y0032687D01*
X0224900Y0033609D01*
X0224900Y0042567D01*
X0225149Y0042500D01*
X0226625Y0042500D01*
X0226625Y0045875D01*
X0226875Y0045875D01*
X0226875Y0044961D02*
X0226625Y0044961D01*
X0226625Y0043463D02*
X0226875Y0043463D01*
X0228600Y0041964D02*
X0224900Y0041964D01*
X0224900Y0040466D02*
X0228600Y0040466D01*
X0228600Y0038967D02*
X0224900Y0038967D01*
X0224900Y0037469D02*
X0228600Y0037469D01*
X0228600Y0035970D02*
X0224900Y0035970D01*
X0224900Y0034472D02*
X0228600Y0034472D01*
X0228600Y0032973D02*
X0224264Y0032973D01*
X0223978Y0031475D02*
X0228600Y0031475D01*
X0228600Y0029976D02*
X0223447Y0029976D01*
X0221488Y0028478D02*
X0228187Y0028478D01*
X0219012Y0028478D02*
X0212819Y0028478D01*
X0212807Y0028469D02*
X0213333Y0028851D01*
X0213792Y0029311D01*
X0214174Y0029836D01*
X0214469Y0030415D01*
X0214670Y0031033D01*
X0214772Y0031675D01*
X0214772Y0032000D01*
X0214772Y0032325D01*
X0214670Y0032967D01*
X0214469Y0033585D01*
X0214174Y0034164D01*
X0213792Y0034689D01*
X0213333Y0035149D01*
X0212807Y0035531D01*
X0212228Y0035826D01*
X0211610Y0036026D01*
X0210969Y0036128D01*
X0210644Y0036128D01*
X0210644Y0032000D01*
X0214772Y0032000D01*
X0210644Y0032000D01*
X0210644Y0032000D01*
X0210644Y0027872D01*
X0210969Y0027872D01*
X0211610Y0027974D01*
X0212228Y0028174D01*
X0212807Y0028469D01*
X0214245Y0029976D02*
X0217053Y0029976D01*
X0216522Y0031475D02*
X0214740Y0031475D01*
X0214668Y0032973D02*
X0216618Y0032973D01*
X0217450Y0034472D02*
X0213950Y0034472D01*
X0211783Y0035970D02*
X0220600Y0035970D01*
X0220600Y0037469D02*
X0205259Y0037469D01*
X0203761Y0035970D02*
X0209505Y0035970D01*
X0209677Y0036026D02*
X0209059Y0035826D01*
X0208480Y0035531D01*
X0207955Y0035149D01*
X0207495Y0034689D01*
X0207113Y0034164D01*
X0206818Y0033585D01*
X0206617Y0032967D01*
X0206516Y0032325D01*
X0206516Y0032000D01*
X0206516Y0031675D01*
X0206617Y0031033D01*
X0206818Y0030415D01*
X0207113Y0029836D01*
X0207495Y0029311D01*
X0207955Y0028851D01*
X0208480Y0028469D01*
X0209059Y0028174D01*
X0209677Y0027974D01*
X0210319Y0027872D01*
X0210644Y0027872D01*
X0210644Y0032000D01*
X0210644Y0032000D01*
X0210644Y0032000D01*
X0210644Y0036128D01*
X0210319Y0036128D01*
X0209677Y0036026D01*
X0210644Y0035970D02*
X0210644Y0035970D01*
X0210644Y0034472D02*
X0210644Y0034472D01*
X0210644Y0032973D02*
X0210644Y0032973D01*
X0210644Y0032000D02*
X0206516Y0032000D01*
X0210644Y0032000D01*
X0210644Y0032000D01*
X0210644Y0031475D02*
X0210644Y0031475D01*
X0210644Y0029976D02*
X0210644Y0029976D01*
X0210644Y0028478D02*
X0210644Y0028478D01*
X0208469Y0028478D02*
X0202488Y0028478D01*
X0204447Y0029976D02*
X0207042Y0029976D01*
X0206547Y0031475D02*
X0204978Y0031475D01*
X0204882Y0032973D02*
X0206620Y0032973D01*
X0207337Y0034472D02*
X0204050Y0034472D01*
X0199100Y0035970D02*
X0191820Y0035970D01*
X0190322Y0037469D02*
X0199178Y0037469D01*
X0200677Y0038967D02*
X0171823Y0038967D01*
X0170325Y0040466D02*
X0202175Y0040466D01*
X0203674Y0041964D02*
X0168826Y0041964D01*
X0167328Y0043463D02*
X0205172Y0043463D01*
X0205625Y0045500D02*
X0205625Y0048875D01*
X0202250Y0048875D01*
X0202250Y0047399D01*
X0202399Y0046843D01*
X0202687Y0046344D01*
X0203094Y0045937D01*
X0203593Y0045649D01*
X0204149Y0045500D01*
X0205625Y0045500D01*
X0205625Y0046460D02*
X0205875Y0046460D01*
X0205875Y0047958D02*
X0205625Y0047958D01*
X0205625Y0049457D02*
X0205875Y0049457D01*
X0205875Y0050955D02*
X0205625Y0050955D01*
X0205625Y0052454D02*
X0205875Y0052454D01*
X0207523Y0052454D02*
X0210163Y0052454D01*
X0211662Y0053952D02*
X0206743Y0053952D01*
X0208241Y0055451D02*
X0213160Y0055451D01*
X0214659Y0056949D02*
X0209740Y0056949D01*
X0211238Y0058448D02*
X0216157Y0058448D01*
X0217656Y0059946D02*
X0212737Y0059946D01*
X0214235Y0061445D02*
X0218450Y0061445D01*
X0218450Y0062943D02*
X0215734Y0062943D01*
X0215192Y0062401D02*
X0215192Y0062401D01*
X0216451Y0064442D02*
X0218450Y0064442D01*
X0217451Y0064463D02*
X0217451Y0069165D01*
X0217451Y0069165D01*
X0217451Y0064463D01*
X0217451Y0065940D02*
X0217451Y0065940D01*
X0217451Y0067439D02*
X0217451Y0067439D01*
X0217451Y0068937D02*
X0217451Y0068937D01*
X0217451Y0069165D02*
X0217451Y0073868D01*
X0217451Y0069165D01*
X0217451Y0069165D01*
X0217451Y0070436D02*
X0217451Y0070436D01*
X0217451Y0071934D02*
X0217451Y0071934D01*
X0217451Y0073433D02*
X0217451Y0073433D01*
X0217451Y0073868D02*
X0218665Y0073868D01*
X0219111Y0073749D01*
X0219510Y0073518D01*
X0219560Y0073468D01*
X0222144Y0073468D01*
X0222175Y0073437D01*
X0222207Y0073468D01*
X0225293Y0073468D01*
X0225325Y0073437D01*
X0225356Y0073468D01*
X0228443Y0073468D01*
X0228474Y0073437D01*
X0228506Y0073468D01*
X0231593Y0073468D01*
X0231624Y0073437D01*
X0231655Y0073468D01*
X0234742Y0073468D01*
X0234774Y0073437D01*
X0234805Y0073468D01*
X0237892Y0073468D01*
X0237923Y0073437D01*
X0237955Y0073468D01*
X0241041Y0073468D01*
X0241832Y0072677D01*
X0241832Y0065653D01*
X0241648Y0065469D01*
X0241648Y0063100D01*
X0243516Y0063100D01*
X0244600Y0062016D01*
X0244600Y0055984D01*
X0243516Y0054900D01*
X0238984Y0054900D01*
X0238498Y0055385D01*
X0238498Y0054292D01*
X0238641Y0054150D01*
X0269641Y0054150D01*
X0275900Y0047891D01*
X0275900Y0038891D01*
X0277519Y0037272D01*
X0279245Y0037987D01*
X0281255Y0037987D01*
X0283111Y0037218D01*
X0284531Y0035798D01*
X0285250Y0034062D01*
X0285969Y0035798D01*
X0287389Y0037218D01*
X0289245Y0037987D01*
X0291255Y0037987D01*
X0293111Y0037218D01*
X0294531Y0035798D01*
X0295300Y0033942D01*
X0295300Y0031932D01*
X0294531Y0030076D01*
X0293111Y0028656D01*
X0291255Y0027887D01*
X0289245Y0027887D01*
X0287389Y0028656D01*
X0285969Y0030076D01*
X0285250Y0031812D01*
X0284531Y0030076D01*
X0283111Y0028656D01*
X0281255Y0027887D01*
X0279245Y0027887D01*
X0277389Y0028656D01*
X0275969Y0030076D01*
X0275250Y0031812D01*
X0274531Y0030076D01*
X0273111Y0028656D01*
X0271255Y0027887D01*
X0269245Y0027887D01*
X0267389Y0028656D01*
X0265969Y0030076D01*
X0265454Y0031318D01*
X0265301Y0030845D01*
X0264911Y0030081D01*
X0264407Y0029387D01*
X0263800Y0028780D01*
X0263106Y0028276D01*
X0262342Y0027886D01*
X0261526Y0027621D01*
X0260679Y0027487D01*
X0260500Y0027487D01*
X0260500Y0032687D01*
X0260000Y0032687D01*
X0260000Y0027487D01*
X0259821Y0027487D01*
X0258974Y0027621D01*
X0258158Y0027886D01*
X0257394Y0028276D01*
X0256700Y0028780D01*
X0256093Y0029387D01*
X0255589Y0030081D01*
X0255199Y0030845D01*
X0255046Y0031318D01*
X0254531Y0030076D01*
X0253111Y0028656D01*
X0252400Y0028361D01*
X0252400Y0021378D01*
X0306088Y0021378D01*
X0307100Y0022391D01*
X0307100Y0025412D01*
X0306410Y0026102D01*
X0305900Y0027334D01*
X0305900Y0039567D01*
X0305207Y0039567D01*
X0304416Y0040358D01*
X0304416Y0042450D01*
X0292243Y0042450D01*
X0291306Y0042838D01*
X0280306Y0053838D01*
X0280306Y0053838D01*
X0279588Y0054556D01*
X0279200Y0055493D01*
X0279200Y0069944D01*
X0277694Y0071450D01*
X0274353Y0071450D01*
X0274127Y0071224D01*
X0274406Y0071063D01*
X0274813Y0070656D01*
X0275101Y0070157D01*
X0275250Y0069600D01*
X0275250Y0068125D01*
X0271875Y0068125D01*
X0271875Y0067875D01*
X0275250Y0067875D01*
X0275250Y0066399D01*
X0275101Y0065843D01*
X0274813Y0065344D01*
X0274406Y0064937D01*
X0273907Y0064649D01*
X0273350Y0064500D01*
X0271875Y0064500D01*
X0271875Y0067875D01*
X0271625Y0067875D01*
X0271625Y0064500D01*
X0270149Y0064500D01*
X0269593Y0064649D01*
X0269094Y0064937D01*
X0268687Y0065344D01*
X0268399Y0065843D01*
X0268250Y0066399D01*
X0268250Y0067875D01*
X0271625Y0067875D01*
X0271625Y0068125D01*
X0268250Y0068125D01*
X0268250Y0069600D01*
X0268399Y0070157D01*
X0268687Y0070656D01*
X0269094Y0071063D01*
X0269373Y0071224D01*
X0269147Y0071450D01*
X0266353Y0071450D01*
X0266127Y0071224D01*
X0266406Y0071063D01*
X0266813Y0070656D01*
X0267101Y0070157D01*
X0267250Y0069600D01*
X0267250Y0068125D01*
X0263875Y0068125D01*
X0263875Y0067875D01*
X0267250Y0067875D01*
X0267250Y0066399D01*
X0267101Y0065843D01*
X0266813Y0065344D01*
X0266406Y0064937D01*
X0265907Y0064649D01*
X0265350Y0064500D01*
X0263875Y0064500D01*
X0263875Y0067875D01*
X0263625Y0067875D01*
X0263625Y0064500D01*
X0262149Y0064500D01*
X0261593Y0064649D01*
X0261094Y0064937D01*
X0260687Y0065344D01*
X0260399Y0065843D01*
X0260250Y0066399D01*
X0260250Y0067875D01*
X0263625Y0067875D01*
X0263625Y0068125D01*
X0260250Y0068125D01*
X0260250Y0069600D01*
X0260399Y0070157D01*
X0260687Y0070656D01*
X0261094Y0071063D01*
X0261373Y0071224D01*
X0260650Y0071947D01*
X0260650Y0074059D01*
X0257458Y0077252D01*
X0251287Y0077252D01*
X0251287Y0076252D01*
X0246585Y0076252D01*
X0246585Y0076252D01*
X0251287Y0076252D01*
X0251287Y0075037D01*
X0251168Y0074592D01*
X0250938Y0074193D01*
X0250612Y0073867D01*
X0250213Y0073637D01*
X0249768Y0073518D01*
X0246585Y0073518D01*
X0246585Y0076252D01*
X0246585Y0076252D01*
X0246585Y0073518D01*
X0243401Y0073518D01*
X0242956Y0073637D01*
X0242557Y0073867D01*
X0242232Y0074193D01*
X0242001Y0074592D01*
X0241882Y0075037D01*
X0241882Y0076252D01*
X0246585Y0076252D01*
X0246585Y0076252D01*
X0241882Y0076252D01*
X0241882Y0077467D01*
X0242001Y0077912D01*
X0242232Y0078311D01*
X0242282Y0078361D01*
X0242282Y0080945D01*
X0242313Y0080976D01*
X0242282Y0081008D01*
X0242282Y0084095D01*
X0242313Y0084126D01*
X0242282Y0084157D01*
X0242282Y0087244D01*
X0242313Y0087276D01*
X0242282Y0087307D01*
X0242282Y0090394D01*
X0242313Y0090425D01*
X0242282Y0090457D01*
X0242282Y0093543D01*
X0242313Y0093575D01*
X0242282Y0093606D01*
X0242282Y0096693D01*
X0242313Y0096724D01*
X0242282Y0096756D01*
X0242282Y0099843D01*
X0242313Y0099874D01*
X0242282Y0099905D01*
X0242282Y0102992D01*
X0242313Y0103024D01*
X0242282Y0103055D01*
X0242282Y0106142D01*
X0242313Y0106173D01*
X0242282Y0106205D01*
X0242282Y0109291D01*
X0243073Y0110082D01*
X0250097Y0110082D01*
X0250887Y0109291D01*
X0250887Y0106748D01*
X0254458Y0106748D01*
X0254600Y0106891D01*
X0254600Y0116087D01*
X0253976Y0116346D01*
X0253096Y0117226D01*
X0252619Y0118377D01*
X0252619Y0119623D01*
X0253096Y0120774D01*
X0253976Y0121654D01*
X0255127Y0122131D01*
X0256373Y0122131D01*
X0257524Y0121654D01*
X0258404Y0120774D01*
X0258881Y0119623D01*
X0258881Y0118909D01*
X0258900Y0118891D01*
X0258900Y0105109D01*
X0257641Y0103850D01*
X0256239Y0102448D01*
X0250887Y0102448D01*
X0250887Y0099905D01*
X0250856Y0099874D01*
X0250887Y0099843D01*
X0250887Y0097300D01*
X0267009Y0097300D01*
X0270400Y0100691D01*
X0270400Y0104016D01*
X0271484Y0105100D01*
X0276016Y0105100D01*
X0277100Y0104016D01*
X0277100Y0097984D01*
X0276016Y0096900D01*
X0272691Y0096900D01*
X0268790Y0093000D01*
X0250887Y0093000D01*
X0250887Y0090457D01*
X0250856Y0090425D01*
X0250887Y0090394D01*
X0250887Y0087307D01*
X0250856Y0087276D01*
X0250887Y0087244D01*
X0250887Y0084701D01*
X0282089Y0084701D01*
X0285691Y0081100D01*
X0289016Y0081100D01*
X0290100Y0080016D01*
X0290100Y0073984D01*
X0289016Y0072900D01*
X0284484Y0072900D01*
X0283400Y0073984D01*
X0283400Y0077309D01*
X0280308Y0080401D01*
X0260389Y0080401D01*
X0263691Y0077100D01*
X0265803Y0077100D01*
X0266353Y0076550D01*
X0269147Y0076550D01*
X0269697Y0077100D01*
X0273803Y0077100D01*
X0274353Y0076550D01*
X0279257Y0076550D01*
X0280194Y0076162D01*
X0280912Y0075444D01*
X0280912Y0075444D01*
X0283194Y0073162D01*
X0283912Y0072444D01*
X0284300Y0071507D01*
X0284300Y0071300D01*
X0284382Y0071347D01*
X0284954Y0071500D01*
X0286500Y0071500D01*
X0286500Y0067250D01*
X0287000Y0067250D01*
X0287000Y0071500D01*
X0288546Y0071500D01*
X0289118Y0071347D01*
X0289632Y0071050D01*
X0290050Y0070632D01*
X0290347Y0070118D01*
X0290400Y0069919D01*
X0290400Y0070016D01*
X0291484Y0071100D01*
X0291600Y0071100D01*
X0291600Y0072900D01*
X0291484Y0072900D01*
X0290400Y0073984D01*
X0290400Y0080016D01*
X0291484Y0081100D01*
X0296016Y0081100D01*
X0297100Y0080016D01*
X0297100Y0077650D01*
X0297650Y0077650D01*
X0297650Y0078059D01*
X0298441Y0078850D01*
X0304059Y0078850D01*
X0304850Y0078059D01*
X0304850Y0072941D01*
X0304069Y0072159D01*
X0304175Y0072131D01*
X0304575Y0071900D01*
X0304900Y0071575D01*
X0305131Y0071175D01*
X0305250Y0070730D01*
X0305250Y0068750D01*
X0301500Y0068750D01*
X0301500Y0068250D01*
X0305250Y0068250D01*
X0305250Y0066270D01*
X0305131Y0065825D01*
X0304900Y0065425D01*
X0304575Y0065100D01*
X0304175Y0064869D01*
X0303730Y0064750D01*
X0301500Y0064750D01*
X0301500Y0068250D01*
X0301000Y0068250D01*
X0301000Y0064750D01*
X0298770Y0064750D01*
X0298325Y0064869D01*
X0297925Y0065100D01*
X0297600Y0065425D01*
X0297369Y0065825D01*
X0297250Y0066270D01*
X0297250Y0068250D01*
X0301000Y0068250D01*
X0301000Y0068750D01*
X0297250Y0068750D01*
X0297250Y0070730D01*
X0297369Y0071175D01*
X0297600Y0071575D01*
X0297925Y0071900D01*
X0298325Y0072131D01*
X0298431Y0072159D01*
X0297650Y0072941D01*
X0297650Y0073350D01*
X0296466Y0073350D01*
X0296016Y0072900D01*
X0295900Y0072900D01*
X0295900Y0071100D01*
X0296016Y0071100D01*
X0297100Y0070016D01*
X0297100Y0063984D01*
X0296016Y0062900D01*
X0291484Y0062900D01*
X0290400Y0063984D01*
X0290400Y0064081D01*
X0290347Y0063882D01*
X0290050Y0063368D01*
X0289632Y0062950D01*
X0289118Y0062653D01*
X0288546Y0062500D01*
X0287000Y0062500D01*
X0287000Y0066750D01*
X0286500Y0066750D01*
X0286500Y0062500D01*
X0284954Y0062500D01*
X0284382Y0062653D01*
X0284300Y0062700D01*
X0284300Y0057056D01*
X0293806Y0047550D01*
X0304416Y0047550D01*
X0304416Y0048563D01*
X0305207Y0049354D01*
X0309406Y0049354D01*
X0314581Y0054529D01*
X0315812Y0055039D01*
X0317325Y0055039D01*
X0318624Y0056338D01*
X0320639Y0057173D01*
X0322821Y0057173D01*
X0324837Y0056338D01*
X0326379Y0054795D01*
X0327214Y0052780D01*
X0327214Y0050598D01*
X0326379Y0048583D01*
X0324837Y0047040D01*
X0322821Y0046205D01*
X0320639Y0046205D01*
X0318624Y0047040D01*
X0317595Y0048068D01*
X0314084Y0044557D01*
X0314084Y0040358D01*
X0313293Y0039567D01*
X0312600Y0039567D01*
X0312600Y0031350D01*
X0325132Y0031350D01*
X0326498Y0032716D01*
X0328514Y0033551D01*
X0330695Y0033551D01*
X0332711Y0032716D01*
X0334010Y0031417D01*
X0336429Y0031417D01*
X0337400Y0032388D01*
X0337400Y0085612D01*
X0335795Y0087217D01*
X0334010Y0087217D01*
X0332711Y0085918D01*
X0330695Y0085083D01*
X0328514Y0085083D01*
X0326498Y0085918D01*
X0325199Y0087217D01*
X0315182Y0087217D01*
X0313951Y0087727D01*
X0311075Y0090603D01*
X0306876Y0090603D01*
X0306085Y0091394D01*
X0306085Y0099480D01*
X0306876Y0100271D01*
X0307784Y0100271D01*
X0308138Y0101126D01*
X0317588Y0110576D01*
X0317081Y0111083D01*
X0316246Y0113098D01*
X0316246Y0115280D01*
X0317081Y0117295D01*
X0318624Y0118838D01*
X0320639Y0119673D01*
X0322821Y0119673D01*
X0323601Y0119350D01*
X0335362Y0119350D01*
X0338400Y0122388D01*
X0338400Y0149612D01*
X0338362Y0149650D01*
X0242006Y0149650D01*
X0241660Y0149304D01*
X0241660Y0149304D01*
X0241648Y0149292D01*
X0241648Y0118531D01*
X0241832Y0118347D01*
X0241832Y0111323D01*
X0241041Y0110532D01*
X0238458Y0110532D01*
X0238407Y0110482D01*
X0238008Y0110251D01*
X0237563Y0110132D01*
X0236348Y0110132D01*
X0236348Y0114835D01*
X0236348Y0119537D01*
X0235134Y0119537D01*
X0234689Y0119418D01*
X0234290Y0119188D01*
X0234239Y0119137D01*
X0231655Y0119137D01*
X0231624Y0119106D01*
X0231593Y0119137D01*
X0228506Y0119137D01*
X0228474Y0119106D01*
X0228443Y0119137D01*
X0225356Y0119137D01*
X0225325Y0119106D01*
X0225293Y0119137D01*
X0222207Y0119137D01*
X0222175Y0119106D01*
X0222144Y0119137D01*
X0219601Y0119137D01*
X0219601Y0148107D01*
X0224167Y0148107D01*
X0224958Y0148898D01*
X0224958Y0150450D01*
X0236190Y0150450D01*
X0237348Y0149292D01*
X0237348Y0119537D01*
X0236348Y0119537D01*
X0236348Y0114835D01*
X0236348Y0114835D01*
X0236348Y0114835D01*
X0236348Y0110132D01*
X0235134Y0110132D01*
X0234689Y0110251D01*
X0234290Y0110482D01*
X0234239Y0110532D01*
X0231655Y0110532D01*
X0231624Y0110563D01*
X0231593Y0110532D01*
X0228506Y0110532D01*
X0228474Y0110563D01*
X0228443Y0110532D01*
X0225356Y0110532D01*
X0225325Y0110563D01*
X0225293Y0110532D01*
X0222207Y0110532D01*
X0222175Y0110563D01*
X0222144Y0110532D01*
X0219057Y0110532D01*
X0219026Y0110563D01*
X0218994Y0110532D01*
X0215907Y0110532D01*
X0215876Y0110563D01*
X0215845Y0110532D01*
X0213261Y0110532D01*
X0213210Y0110482D01*
X0212811Y0110251D01*
X0212366Y0110132D01*
X0211152Y0110132D01*
X0211152Y0114835D01*
X0211152Y0114835D01*
X0211152Y0119537D01*
X0211172Y0119537D01*
X0208600Y0122109D01*
X0208600Y0130997D01*
X0207650Y0131947D01*
X0207650Y0136053D01*
X0208373Y0136776D01*
X0208094Y0136937D01*
X0207687Y0137344D01*
X0207399Y0137843D01*
X0207250Y0138399D01*
X0207250Y0139875D01*
X0210625Y0139875D01*
X0210625Y0140125D01*
X0210625Y0143500D01*
X0209149Y0143500D01*
X0208593Y0143351D01*
X0208094Y0143063D01*
X0207687Y0142656D01*
X0207399Y0142157D01*
X0207250Y0141600D01*
X0207250Y0140125D01*
X0210625Y0140125D01*
X0210875Y0140125D01*
X0210875Y0143500D01*
X0212350Y0143500D01*
X0212907Y0143351D01*
X0213406Y0143063D01*
X0213813Y0142656D01*
X0214101Y0142157D01*
X0214250Y0141600D01*
X0214250Y0140125D01*
X0210875Y0140125D01*
X0210875Y0139875D01*
X0214250Y0139875D01*
X0214250Y0138399D01*
X0214101Y0137843D01*
X0213813Y0137344D01*
X0213406Y0136937D01*
X0213127Y0136776D01*
X0213850Y0136053D01*
X0213850Y0131947D01*
X0212900Y0130997D01*
X0212900Y0123891D01*
X0215301Y0121490D01*
X0215301Y0164685D01*
X0214766Y0164150D01*
X0208734Y0164150D01*
X0207650Y0165234D01*
X0207650Y0169766D01*
X0208734Y0170850D01*
X0214766Y0170850D01*
X0215850Y0169766D01*
X0215850Y0169650D01*
X0224559Y0169650D01*
X0224896Y0169987D01*
X0233415Y0169987D01*
X0234205Y0169196D01*
X0234205Y0167227D01*
X0234494Y0167793D01*
X0234998Y0168487D01*
X0235605Y0169094D01*
X0236299Y0169598D01*
X0237063Y0169988D01*
X0237879Y0170253D01*
X0238727Y0170387D01*
X0238905Y0170387D01*
X0238905Y0165187D01*
X0239406Y0165187D01*
X0244605Y0165187D01*
X0244605Y0165366D01*
X0244471Y0166213D01*
X0244206Y0167029D01*
X0243817Y0167793D01*
X0243313Y0168487D01*
X0242706Y0169094D01*
X0242012Y0169598D01*
X0241248Y0169988D01*
X0240432Y0170253D01*
X0239584Y0170387D01*
X0239406Y0170387D01*
X0239406Y0165187D01*
X0239406Y0164687D01*
X0244605Y0164687D01*
X0244605Y0164508D01*
X0244471Y0163661D01*
X0244206Y0162845D01*
X0243817Y0162081D01*
X0243313Y0161387D01*
X0242706Y0160780D01*
X0242012Y0160276D01*
X0241248Y0159886D01*
X0240432Y0159621D01*
X0239584Y0159487D01*
X0239406Y0159487D01*
X0239406Y0164687D01*
X0238905Y0164687D01*
X0238905Y0159487D01*
X0238727Y0159487D01*
X0237879Y0159621D01*
X0237063Y0159886D01*
X0236299Y0160276D01*
X0235605Y0160780D01*
X0234998Y0161387D01*
X0234494Y0162081D01*
X0234205Y0162647D01*
X0234205Y0160678D01*
X0233415Y0159887D01*
X0224896Y0159887D01*
X0224106Y0160678D01*
X0224106Y0165350D01*
X0219601Y0165350D01*
X0219601Y0157893D01*
X0224167Y0157893D01*
X0224958Y0157102D01*
X0224958Y0155550D01*
X0237753Y0155550D01*
X0238691Y0155162D01*
X0238932Y0154920D01*
X0239852Y0155840D01*
X0241084Y0156350D01*
X0248400Y0156350D01*
X0248400Y0169612D01*
X0246862Y0171150D01*
X0192638Y0171150D01*
X0191100Y0169612D01*
X0191100Y0156066D01*
X0191593Y0156351D01*
X0192149Y0156500D01*
X0193625Y0156500D01*
X0193625Y0153125D01*
X0193875Y0153125D01*
X0193875Y0156500D01*
X0195350Y0156500D01*
X0195907Y0156351D01*
X0196406Y0156063D01*
X0196813Y0155656D01*
X0196974Y0155377D01*
X0197697Y0156100D01*
X0201803Y0156100D01*
X0202753Y0155150D01*
X0204542Y0155150D01*
X0204542Y0157102D01*
X0205333Y0157893D01*
X0211175Y0157893D01*
X0211966Y0157102D01*
X0211966Y0148898D01*
X0211175Y0148107D01*
X0205900Y0148107D01*
X0205900Y0121891D01*
X0206400Y0121391D01*
X0208653Y0119137D01*
X0209042Y0119137D01*
X0209093Y0119188D01*
X0209492Y0119418D01*
X0209937Y0119537D01*
X0211152Y0119537D01*
X0211152Y0114835D01*
X0211152Y0114835D01*
X0211152Y0110132D01*
X0209937Y0110132D01*
X0209492Y0110251D01*
X0209093Y0110482D01*
X0209042Y0110532D01*
X0206459Y0110532D01*
X0205668Y0111323D01*
X0205668Y0116042D01*
X0203359Y0118350D01*
X0201600Y0120109D01*
X0201600Y0149900D01*
X0197697Y0149900D01*
X0196974Y0150623D01*
X0196813Y0150344D01*
X0196406Y0149937D01*
X0195907Y0149649D01*
X0195350Y0149500D01*
X0193875Y0149500D01*
X0193875Y0152875D01*
X0193625Y0152875D01*
X0193625Y0149500D01*
X0192149Y0149500D01*
X0191593Y0149649D01*
X0191100Y0149934D01*
X0191100Y0136334D01*
X0190590Y0135102D01*
X0189590Y0134102D01*
X0188648Y0133160D01*
X0187416Y0132650D01*
X0183900Y0132650D01*
X0183900Y0114891D01*
X0192042Y0106748D01*
X0196613Y0106748D01*
X0196613Y0109291D01*
X0197403Y0110082D01*
X0204427Y0110082D01*
X0205218Y0109291D01*
X0205218Y0106205D01*
X0205187Y0106173D01*
X0205218Y0106142D01*
X0205218Y0103055D01*
X0205187Y0103024D01*
X0205218Y0102992D01*
X0205218Y0099905D01*
X0205187Y0099874D01*
X0205218Y0099843D01*
X0205218Y0097259D01*
X0205268Y0097208D01*
X0205499Y0096809D01*
X0205618Y0096364D01*
X0205618Y0095150D01*
X0200915Y0095150D01*
X0200915Y0095150D01*
X0196213Y0095150D01*
X0196213Y0096149D01*
X0187560Y0096149D01*
X0181859Y0101850D01*
X0175600Y0101850D01*
X0175600Y0100984D01*
X0174516Y0099900D01*
X0169984Y0099900D01*
X0168900Y0100984D01*
X0168900Y0107016D01*
X0169984Y0108100D01*
X0174516Y0108100D01*
X0175600Y0107016D01*
X0175600Y0106150D01*
X0181559Y0106150D01*
X0175859Y0111850D01*
X0171600Y0111850D01*
X0171600Y0110984D01*
X0170516Y0109900D01*
X0166900Y0109900D01*
X0166900Y0108100D01*
X0167516Y0108100D01*
X0168600Y0107016D01*
X0168600Y0100984D01*
X0167516Y0099900D01*
X0162984Y0099900D01*
X0161900Y0100984D01*
X0161900Y0107016D01*
X0162600Y0107716D01*
X0162600Y0109900D01*
X0158984Y0109900D01*
X0157900Y0110984D01*
X0157900Y0111850D01*
X0156028Y0111850D01*
X0155524Y0111346D01*
X0154373Y0110869D01*
X0153127Y0110869D01*
X0151976Y0111346D01*
X0151096Y0112226D01*
X0150619Y0113377D01*
X0150619Y0114623D01*
X0151096Y0115774D01*
X0151976Y0116654D01*
X0153127Y0117131D01*
X0154373Y0117131D01*
X0155524Y0116654D01*
X0156028Y0116150D01*
X0157900Y0116150D01*
X0157900Y0117016D01*
X0158984Y0118100D01*
X0162600Y0118100D01*
X0162600Y0120722D01*
X0162096Y0121226D01*
X0161619Y0122377D01*
X0161619Y0123623D01*
X0162096Y0124774D01*
X0162976Y0125654D01*
X0164127Y0126131D01*
X0165373Y0126131D01*
X0166524Y0125654D01*
X0167404Y0124774D01*
X0167881Y0123623D01*
X0167881Y0122377D01*
X0167404Y0121226D01*
X0166900Y0120722D01*
X0166900Y0118100D01*
X0170516Y0118100D01*
X0171600Y0117016D01*
X0171600Y0116150D01*
X0177641Y0116150D01*
X0179600Y0114191D01*
X0179600Y0132650D01*
X0148900Y0132650D01*
X0148900Y0106891D01*
X0164641Y0091150D01*
X0184559Y0091150D01*
X0181859Y0093850D01*
X0174753Y0093850D01*
X0173803Y0092900D01*
X0169697Y0092900D01*
X0168974Y0093623D01*
X0168813Y0093344D01*
X0168406Y0092937D01*
X0167907Y0092649D01*
X0167350Y0092500D01*
X0165875Y0092500D01*
X0165875Y0095875D01*
X0165625Y0095875D01*
X0165625Y0092500D01*
X0164149Y0092500D01*
X0163593Y0092649D01*
X0163094Y0092937D01*
X0162687Y0093344D01*
X0162399Y0093843D01*
X0162250Y0094399D01*
X0162250Y0095875D01*
X0165625Y0095875D01*
X0165625Y0096125D01*
X0165625Y0099500D01*
X0164149Y0099500D01*
X0163593Y0099351D01*
X0163094Y0099063D01*
X0162687Y0098656D01*
X0162399Y0098157D01*
X0162250Y0097600D01*
X0162250Y0096125D01*
X0165625Y0096125D01*
X0165875Y0096125D01*
X0165875Y0099500D01*
X0167350Y0099500D01*
X0167907Y0099351D01*
X0168406Y0099063D01*
X0168813Y0098656D01*
X0168974Y0098377D01*
X0169697Y0099100D01*
X0173803Y0099100D01*
X0174753Y0098150D01*
X0183641Y0098150D01*
X0187641Y0094150D01*
X0196213Y0094150D01*
X0196213Y0095150D01*
X0200915Y0095150D01*
X0200915Y0095150D01*
X0205618Y0095150D01*
X0205618Y0093935D01*
X0205499Y0093490D01*
X0205268Y0093091D01*
X0205218Y0093040D01*
X0205218Y0090457D01*
X0205187Y0090425D01*
X0205218Y0090394D01*
X0205218Y0087307D01*
X0205187Y0087276D01*
X0205218Y0087244D01*
X0205218Y0084157D01*
X0205187Y0084126D01*
X0205218Y0084095D01*
X0205218Y0081008D01*
X0205187Y0080976D01*
X0205218Y0080945D01*
X0205218Y0077858D01*
X0205187Y0077827D01*
X0205218Y0077795D01*
X0205218Y0074709D01*
X0204427Y0073918D01*
X0198708Y0073918D01*
X0189641Y0064850D01*
X0146800Y0064850D01*
X0146800Y0062741D01*
X0146209Y0062150D01*
X0204859Y0062150D01*
X0207572Y0064863D01*
X0206459Y0064863D01*
X0205668Y0065653D01*
X0205668Y0072677D01*
X0206459Y0073468D01*
X0209545Y0073468D01*
X0209577Y0073437D01*
X0209608Y0073468D01*
X0212695Y0073468D01*
X0212726Y0073437D01*
X0212758Y0073468D01*
X0215342Y0073468D01*
X0215392Y0073518D01*
X0215791Y0073749D01*
X0216236Y0073868D01*
X0217451Y0073868D01*
X0206423Y0073433D02*
X0198224Y0073433D01*
X0196725Y0071934D02*
X0205668Y0071934D01*
X0205668Y0070436D02*
X0195227Y0070436D01*
X0193728Y0068937D02*
X0205668Y0068937D01*
X0205668Y0067439D02*
X0192230Y0067439D01*
X0190731Y0065940D02*
X0205668Y0065940D01*
X0207151Y0064442D02*
X0146800Y0064442D01*
X0146800Y0062943D02*
X0205653Y0062943D01*
X0204559Y0057850D02*
X0203859Y0057150D01*
X0121028Y0057150D01*
X0120900Y0057278D01*
X0120900Y0130109D01*
X0124641Y0133850D01*
X0140162Y0133850D01*
X0140852Y0133160D01*
X0142084Y0132650D01*
X0144600Y0132650D01*
X0144600Y0105109D01*
X0145859Y0103850D01*
X0161859Y0087851D01*
X0159940Y0087851D01*
X0141400Y0106391D01*
X0141400Y0106900D01*
X0141516Y0106900D01*
X0142600Y0107984D01*
X0142600Y0114016D01*
X0141516Y0115100D01*
X0136984Y0115100D01*
X0135900Y0114016D01*
X0135900Y0107984D01*
X0136984Y0106900D01*
X0137100Y0106900D01*
X0137100Y0104609D01*
X0158159Y0083551D01*
X0192260Y0083551D01*
X0186859Y0078150D01*
X0146800Y0078150D01*
X0146800Y0079092D01*
X0143892Y0082000D01*
X0146800Y0084908D01*
X0146800Y0089092D01*
X0143842Y0092050D01*
X0139658Y0092050D01*
X0137033Y0089425D01*
X0134007Y0092450D01*
X0132000Y0092450D01*
X0132000Y0087250D01*
X0131500Y0087250D01*
X0131500Y0092450D01*
X0129493Y0092450D01*
X0126300Y0089257D01*
X0126300Y0087250D01*
X0131500Y0087250D01*
X0131500Y0086750D01*
X0126300Y0086750D01*
X0126300Y0084743D01*
X0127093Y0083950D01*
X0125841Y0083950D01*
X0125641Y0084150D01*
X0123859Y0084150D01*
X0121600Y0081891D01*
X0121600Y0062109D01*
X0125859Y0057850D01*
X0204559Y0057850D01*
X0217743Y0053952D02*
X0220600Y0053952D01*
X0220600Y0052454D02*
X0216244Y0052454D01*
X0214850Y0050955D02*
X0220600Y0050955D01*
X0220600Y0049457D02*
X0214850Y0049457D01*
X0214850Y0047958D02*
X0217650Y0047958D01*
X0217650Y0046460D02*
X0214363Y0046460D01*
X0212752Y0044961D02*
X0217650Y0044961D01*
X0218134Y0043463D02*
X0211253Y0043463D01*
X0209755Y0041964D02*
X0220600Y0041964D01*
X0220600Y0040466D02*
X0208256Y0040466D01*
X0206758Y0038967D02*
X0220600Y0038967D01*
X0206671Y0044961D02*
X0165829Y0044961D01*
X0164331Y0046460D02*
X0202620Y0046460D01*
X0202250Y0047958D02*
X0162832Y0047958D01*
X0161334Y0049457D02*
X0202250Y0049457D01*
X0202345Y0050955D02*
X0159835Y0050955D01*
X0158337Y0052454D02*
X0203977Y0052454D01*
X0219241Y0055451D02*
X0220600Y0055451D01*
X0224900Y0052454D02*
X0228600Y0052454D01*
X0244067Y0055451D02*
X0245433Y0055451D01*
X0244900Y0055984D02*
X0245984Y0054900D01*
X0250516Y0054900D01*
X0251299Y0055683D01*
X0251695Y0055288D01*
X0257538Y0055288D01*
X0258328Y0056079D01*
X0258328Y0061921D01*
X0257538Y0062712D01*
X0251695Y0062712D01*
X0251299Y0062317D01*
X0250516Y0063100D01*
X0245984Y0063100D01*
X0244900Y0062016D01*
X0244900Y0055984D01*
X0244900Y0056949D02*
X0244600Y0056949D01*
X0244600Y0058448D02*
X0244900Y0058448D01*
X0244900Y0059946D02*
X0244600Y0059946D01*
X0244600Y0061445D02*
X0244900Y0061445D01*
X0245827Y0062943D02*
X0243673Y0062943D01*
X0241648Y0064442D02*
X0279200Y0064442D01*
X0279200Y0065940D02*
X0275127Y0065940D01*
X0275250Y0067439D02*
X0279200Y0067439D01*
X0279200Y0068937D02*
X0275250Y0068937D01*
X0274940Y0070436D02*
X0278708Y0070436D01*
X0284123Y0071934D02*
X0291600Y0071934D01*
X0290951Y0073433D02*
X0289549Y0073433D01*
X0290100Y0074932D02*
X0290400Y0074932D01*
X0290400Y0076430D02*
X0290100Y0076430D01*
X0290100Y0077929D02*
X0290400Y0077929D01*
X0290400Y0079427D02*
X0290100Y0079427D01*
X0289191Y0080926D02*
X0291309Y0080926D01*
X0296191Y0080926D02*
X0337400Y0080926D01*
X0337400Y0082424D02*
X0284366Y0082424D01*
X0282868Y0083923D02*
X0337400Y0083923D01*
X0337400Y0085421D02*
X0331511Y0085421D01*
X0333712Y0086920D02*
X0336093Y0086920D01*
X0342571Y0089917D02*
X0372152Y0089917D01*
X0372152Y0089476D02*
X0372987Y0087461D01*
X0374529Y0085918D01*
X0376545Y0085083D01*
X0378727Y0085083D01*
X0380742Y0085918D01*
X0382285Y0087461D01*
X0382363Y0087650D01*
X0452362Y0087650D01*
X0455400Y0084612D01*
X0455400Y0041334D01*
X0455910Y0040102D01*
X0460690Y0035323D01*
X0461632Y0034380D01*
X0462863Y0033870D01*
X0474231Y0033870D01*
X0474409Y0033693D01*
X0475938Y0033059D01*
X0477593Y0033059D01*
X0479123Y0033693D01*
X0480293Y0034863D01*
X0480927Y0036393D01*
X0480927Y0038048D01*
X0480293Y0039577D01*
X0479123Y0040748D01*
X0477593Y0041381D01*
X0475938Y0041381D01*
X0474409Y0040748D01*
X0474231Y0040570D01*
X0464917Y0040570D01*
X0462100Y0043388D01*
X0462100Y0086666D01*
X0461590Y0087898D01*
X0460648Y0088840D01*
X0460648Y0088840D01*
X0456590Y0092898D01*
X0455648Y0093840D01*
X0454416Y0094350D01*
X0381608Y0094350D01*
X0380742Y0095216D01*
X0378727Y0096051D01*
X0376545Y0096051D01*
X0374529Y0095216D01*
X0372987Y0093673D01*
X0372152Y0091658D01*
X0372152Y0089476D01*
X0372590Y0088418D02*
X0343789Y0088418D01*
X0344100Y0086920D02*
X0373528Y0086920D01*
X0375729Y0085421D02*
X0344100Y0085421D01*
X0344100Y0083923D02*
X0455400Y0083923D01*
X0455400Y0082424D02*
X0344100Y0082424D01*
X0344100Y0080926D02*
X0455400Y0080926D01*
X0455400Y0079427D02*
X0381275Y0079427D01*
X0380742Y0079960D02*
X0378727Y0080795D01*
X0376545Y0080795D01*
X0374529Y0079960D01*
X0372987Y0078417D01*
X0372152Y0076402D01*
X0372152Y0074220D01*
X0372987Y0072205D01*
X0374529Y0070662D01*
X0376545Y0069827D01*
X0378727Y0069827D01*
X0380742Y0070662D01*
X0382285Y0072205D01*
X0383120Y0074220D01*
X0383120Y0076402D01*
X0382285Y0078417D01*
X0380742Y0079960D01*
X0382487Y0077929D02*
X0455400Y0077929D01*
X0455400Y0076430D02*
X0383108Y0076430D01*
X0383120Y0074932D02*
X0455400Y0074932D01*
X0455400Y0073433D02*
X0382794Y0073433D01*
X0382015Y0071934D02*
X0455400Y0071934D01*
X0455400Y0070436D02*
X0380196Y0070436D01*
X0375075Y0070436D02*
X0344100Y0070436D01*
X0344100Y0071934D02*
X0373257Y0071934D01*
X0372478Y0073433D02*
X0344100Y0073433D01*
X0344100Y0074932D02*
X0372152Y0074932D01*
X0372164Y0076430D02*
X0344100Y0076430D01*
X0344100Y0077929D02*
X0372784Y0077929D01*
X0373997Y0079427D02*
X0344100Y0079427D01*
X0337400Y0079427D02*
X0333244Y0079427D01*
X0332711Y0079960D02*
X0330695Y0080795D01*
X0328514Y0080795D01*
X0326498Y0079960D01*
X0324955Y0078417D01*
X0324120Y0076402D01*
X0324120Y0074220D01*
X0324150Y0074150D01*
X0312850Y0074150D01*
X0312850Y0074559D01*
X0312059Y0075350D01*
X0306441Y0075350D01*
X0305650Y0074559D01*
X0305650Y0069441D01*
X0306441Y0068650D01*
X0306639Y0068650D01*
X0306639Y0065433D01*
X0305207Y0065433D01*
X0304416Y0064642D01*
X0304416Y0056437D01*
X0305207Y0055646D01*
X0313293Y0055646D01*
X0314084Y0056437D01*
X0314084Y0064642D01*
X0313293Y0065433D01*
X0310939Y0065433D01*
X0310939Y0068650D01*
X0312059Y0068650D01*
X0312850Y0069441D01*
X0312850Y0069850D01*
X0327184Y0069850D01*
X0327557Y0070223D01*
X0328514Y0069827D01*
X0330695Y0069827D01*
X0332711Y0070662D01*
X0334253Y0072205D01*
X0335088Y0074220D01*
X0335088Y0076402D01*
X0334253Y0078417D01*
X0332711Y0079960D01*
X0334456Y0077929D02*
X0337400Y0077929D01*
X0337400Y0076430D02*
X0335077Y0076430D01*
X0335088Y0074932D02*
X0337400Y0074932D01*
X0337400Y0073433D02*
X0334762Y0073433D01*
X0333983Y0071934D02*
X0337400Y0071934D01*
X0337400Y0070436D02*
X0332165Y0070436D01*
X0337400Y0068937D02*
X0312347Y0068937D01*
X0310939Y0067439D02*
X0337400Y0067439D01*
X0337400Y0065940D02*
X0310939Y0065940D01*
X0314084Y0064442D02*
X0337400Y0064442D01*
X0337400Y0062943D02*
X0314084Y0062943D01*
X0314084Y0061445D02*
X0337400Y0061445D01*
X0337400Y0059946D02*
X0314084Y0059946D01*
X0314084Y0058448D02*
X0337400Y0058448D01*
X0337400Y0056949D02*
X0323361Y0056949D01*
X0325724Y0055451D02*
X0337400Y0055451D01*
X0337400Y0053952D02*
X0326728Y0053952D01*
X0327214Y0052454D02*
X0337400Y0052454D01*
X0337400Y0050955D02*
X0327214Y0050955D01*
X0326741Y0049457D02*
X0337400Y0049457D01*
X0337400Y0047958D02*
X0325755Y0047958D01*
X0323436Y0046460D02*
X0337400Y0046460D01*
X0337400Y0044961D02*
X0314488Y0044961D01*
X0314084Y0043463D02*
X0337400Y0043463D01*
X0337400Y0041964D02*
X0314084Y0041964D01*
X0314084Y0040466D02*
X0337400Y0040466D01*
X0337400Y0038967D02*
X0312600Y0038967D01*
X0312600Y0037469D02*
X0337400Y0037469D01*
X0337400Y0035970D02*
X0312600Y0035970D01*
X0312600Y0034472D02*
X0337400Y0034472D01*
X0337400Y0032973D02*
X0332090Y0032973D01*
X0333952Y0031475D02*
X0336487Y0031475D01*
X0344100Y0031475D02*
X0373288Y0031475D01*
X0372491Y0029976D02*
X0343952Y0029976D01*
X0342965Y0028478D02*
X0372152Y0028478D01*
X0372152Y0026979D02*
X0341467Y0026979D01*
X0339968Y0025481D02*
X0372771Y0025481D01*
X0373965Y0023982D02*
X0333275Y0023982D01*
X0325934Y0023982D02*
X0311400Y0023982D01*
X0311400Y0022484D02*
X0399529Y0022484D01*
X0398030Y0023982D02*
X0381306Y0023982D01*
X0401027Y0020985D02*
X0311400Y0020985D01*
X0310277Y0019487D02*
X0402526Y0019487D01*
X0404024Y0017988D02*
X0308779Y0017988D01*
X0307100Y0022484D02*
X0252400Y0022484D01*
X0252400Y0023982D02*
X0307100Y0023982D01*
X0307032Y0025481D02*
X0252400Y0025481D01*
X0252400Y0026979D02*
X0306047Y0026979D01*
X0305900Y0028478D02*
X0292680Y0028478D01*
X0294431Y0029976D02*
X0305900Y0029976D01*
X0305900Y0031475D02*
X0295110Y0031475D01*
X0295300Y0032973D02*
X0305900Y0032973D01*
X0305900Y0034472D02*
X0295080Y0034472D01*
X0294359Y0035970D02*
X0305900Y0035970D01*
X0305900Y0037469D02*
X0292506Y0037469D01*
X0287994Y0037469D02*
X0282506Y0037469D01*
X0284359Y0035970D02*
X0286141Y0035970D01*
X0285420Y0034472D02*
X0285080Y0034472D01*
X0285110Y0031475D02*
X0285390Y0031475D01*
X0286069Y0029976D02*
X0284431Y0029976D01*
X0282680Y0028478D02*
X0287819Y0028478D01*
X0277819Y0028478D02*
X0272680Y0028478D01*
X0274431Y0029976D02*
X0276069Y0029976D01*
X0275390Y0031475D02*
X0275110Y0031475D01*
X0267819Y0028478D02*
X0263384Y0028478D01*
X0264835Y0029976D02*
X0266069Y0029976D01*
X0260500Y0029976D02*
X0260000Y0029976D01*
X0260000Y0028478D02*
X0260500Y0028478D01*
X0257116Y0028478D02*
X0252680Y0028478D01*
X0254431Y0029976D02*
X0255665Y0029976D01*
X0260000Y0031475D02*
X0260500Y0031475D01*
X0260500Y0034472D02*
X0260000Y0034472D01*
X0260000Y0035970D02*
X0260500Y0035970D01*
X0260500Y0037469D02*
X0260000Y0037469D01*
X0257215Y0037469D02*
X0252506Y0037469D01*
X0254359Y0035970D02*
X0255717Y0035970D01*
X0263285Y0037469D02*
X0267994Y0037469D01*
X0266141Y0035970D02*
X0264783Y0035970D01*
X0275900Y0038967D02*
X0305900Y0038967D01*
X0304416Y0040466D02*
X0275900Y0040466D01*
X0275900Y0041964D02*
X0304416Y0041964D01*
X0304416Y0047958D02*
X0293398Y0047958D01*
X0291899Y0049457D02*
X0309509Y0049457D01*
X0311007Y0050955D02*
X0290401Y0050955D01*
X0288902Y0052454D02*
X0312506Y0052454D01*
X0314004Y0053952D02*
X0287404Y0053952D01*
X0285905Y0055451D02*
X0317737Y0055451D01*
X0320100Y0056949D02*
X0314084Y0056949D01*
X0304416Y0056949D02*
X0284407Y0056949D01*
X0284300Y0058448D02*
X0304416Y0058448D01*
X0304416Y0059946D02*
X0284300Y0059946D01*
X0284300Y0061445D02*
X0304416Y0061445D01*
X0304416Y0062943D02*
X0296060Y0062943D01*
X0297100Y0064442D02*
X0304416Y0064442D01*
X0305162Y0065940D02*
X0306639Y0065940D01*
X0306639Y0067439D02*
X0305250Y0067439D01*
X0305250Y0068937D02*
X0306153Y0068937D01*
X0305650Y0070436D02*
X0305250Y0070436D01*
X0305650Y0071934D02*
X0304515Y0071934D01*
X0304850Y0073433D02*
X0305650Y0073433D01*
X0306022Y0074932D02*
X0304850Y0074932D01*
X0304850Y0076430D02*
X0324132Y0076430D01*
X0324120Y0074932D02*
X0312478Y0074932D01*
X0304850Y0077929D02*
X0324753Y0077929D01*
X0325965Y0079427D02*
X0297100Y0079427D01*
X0297100Y0077929D02*
X0297650Y0077929D01*
X0297985Y0071934D02*
X0295900Y0071934D01*
X0296680Y0070436D02*
X0297250Y0070436D01*
X0297250Y0068937D02*
X0297100Y0068937D01*
X0297100Y0067439D02*
X0297250Y0067439D01*
X0297338Y0065940D02*
X0297100Y0065940D01*
X0301000Y0065940D02*
X0301500Y0065940D01*
X0301500Y0067439D02*
X0301000Y0067439D01*
X0290820Y0070436D02*
X0290163Y0070436D01*
X0287000Y0070436D02*
X0286500Y0070436D01*
X0286500Y0068937D02*
X0287000Y0068937D01*
X0287000Y0067439D02*
X0286500Y0067439D01*
X0286500Y0065940D02*
X0287000Y0065940D01*
X0287000Y0064442D02*
X0286500Y0064442D01*
X0286500Y0062943D02*
X0287000Y0062943D01*
X0289621Y0062943D02*
X0291440Y0062943D01*
X0279200Y0062943D02*
X0266007Y0062943D01*
X0265922Y0062993D02*
X0265476Y0063112D01*
X0263315Y0063112D01*
X0263315Y0059431D01*
X0266996Y0059431D01*
X0266996Y0061593D01*
X0266877Y0062038D01*
X0266646Y0062437D01*
X0266321Y0062763D01*
X0265922Y0062993D01*
X0266996Y0061445D02*
X0279200Y0061445D01*
X0279200Y0059946D02*
X0266996Y0059946D01*
X0266996Y0058569D02*
X0263315Y0058569D01*
X0263315Y0059431D01*
X0262453Y0059431D01*
X0262453Y0063112D01*
X0260291Y0063112D01*
X0259846Y0062993D01*
X0259447Y0062763D01*
X0259121Y0062437D01*
X0258891Y0062038D01*
X0258772Y0061593D01*
X0258772Y0059431D01*
X0262453Y0059431D01*
X0262453Y0058569D01*
X0263315Y0058569D01*
X0263315Y0054888D01*
X0265476Y0054888D01*
X0265922Y0055007D01*
X0266321Y0055237D01*
X0266646Y0055563D01*
X0266877Y0055962D01*
X0266996Y0056407D01*
X0266996Y0058569D01*
X0266996Y0058448D02*
X0279200Y0058448D01*
X0279200Y0056949D02*
X0266996Y0056949D01*
X0266534Y0055451D02*
X0279217Y0055451D01*
X0280191Y0053952D02*
X0269838Y0053952D01*
X0271337Y0052454D02*
X0281690Y0052454D01*
X0283188Y0050955D02*
X0272835Y0050955D01*
X0274334Y0049457D02*
X0284687Y0049457D01*
X0286185Y0047958D02*
X0275832Y0047958D01*
X0275900Y0046460D02*
X0287684Y0046460D01*
X0289182Y0044961D02*
X0275900Y0044961D01*
X0275900Y0043463D02*
X0290681Y0043463D01*
X0277994Y0037469D02*
X0277322Y0037469D01*
X0247994Y0037469D02*
X0245027Y0037469D01*
X0245300Y0035970D02*
X0246141Y0035970D01*
X0245420Y0034472D02*
X0245300Y0034472D01*
X0245300Y0031475D02*
X0245390Y0031475D01*
X0245300Y0029976D02*
X0246069Y0029976D01*
X0245100Y0028478D02*
X0247820Y0028478D01*
X0200012Y0028478D02*
X0199313Y0028478D01*
X0198053Y0029976D02*
X0197814Y0029976D01*
X0197522Y0031475D02*
X0196316Y0031475D01*
X0197618Y0032973D02*
X0194817Y0032973D01*
X0193319Y0034472D02*
X0198450Y0034472D01*
X0191733Y0029976D02*
X0133428Y0029976D01*
X0133428Y0028478D02*
X0193232Y0028478D01*
X0194730Y0026979D02*
X0133428Y0026979D01*
X0133428Y0025481D02*
X0196229Y0025481D01*
X0197727Y0023982D02*
X0133428Y0023982D01*
X0129128Y0025481D02*
X0118900Y0025481D01*
X0118900Y0026979D02*
X0129128Y0026979D01*
X0129128Y0028478D02*
X0118900Y0028478D01*
X0118900Y0029976D02*
X0129128Y0029976D01*
X0129128Y0031475D02*
X0118900Y0031475D01*
X0118900Y0032973D02*
X0129128Y0032973D01*
X0127928Y0034472D02*
X0127628Y0034472D01*
X0127628Y0035970D02*
X0127928Y0035970D01*
X0127928Y0037469D02*
X0127628Y0037469D01*
X0127628Y0038967D02*
X0127928Y0038967D01*
X0128283Y0040466D02*
X0127273Y0040466D01*
X0121283Y0040466D02*
X0073325Y0040466D01*
X0073641Y0040150D02*
X0067641Y0046150D01*
X0047641Y0046150D01*
X0040900Y0052891D01*
X0040900Y0067150D01*
X0041766Y0067150D01*
X0042850Y0068234D01*
X0042850Y0072766D01*
X0041766Y0073850D01*
X0035734Y0073850D01*
X0034650Y0072766D01*
X0034650Y0068234D01*
X0035734Y0067150D01*
X0036600Y0067150D01*
X0036600Y0051109D01*
X0044600Y0043109D01*
X0045859Y0041850D01*
X0065859Y0041850D01*
X0070600Y0037109D01*
X0070600Y0034846D01*
X0069829Y0034846D01*
X0069038Y0034055D01*
X0069038Y0028212D01*
X0069829Y0027422D01*
X0075671Y0027422D01*
X0076462Y0028212D01*
X0076462Y0034055D01*
X0075671Y0034846D01*
X0074900Y0034846D01*
X0074900Y0038891D01*
X0073641Y0040150D01*
X0074823Y0038967D02*
X0116677Y0038967D01*
X0115178Y0037469D02*
X0074900Y0037469D01*
X0074900Y0035970D02*
X0114600Y0035970D01*
X0114600Y0034472D02*
X0076046Y0034472D01*
X0076462Y0032973D02*
X0114600Y0032973D01*
X0114600Y0031475D02*
X0076462Y0031475D01*
X0076462Y0029976D02*
X0114600Y0029976D01*
X0114600Y0028478D02*
X0076462Y0028478D01*
X0073181Y0025481D02*
X0072319Y0025481D01*
X0072319Y0023982D02*
X0073181Y0023982D01*
X0073181Y0020985D02*
X0072319Y0020985D01*
X0072319Y0019487D02*
X0073181Y0019487D01*
X0068954Y0019487D02*
X0059800Y0019487D01*
X0056500Y0019487D02*
X0012400Y0019487D01*
X0009100Y0019487D02*
X0004250Y0019487D01*
X0004250Y0020985D02*
X0005963Y0020985D01*
X0004465Y0022484D02*
X0004250Y0022484D01*
X0015537Y0020985D02*
X0028016Y0020985D01*
X0028825Y0020650D02*
X0030675Y0020650D01*
X0032384Y0021358D01*
X0033692Y0022666D01*
X0034400Y0024375D01*
X0034400Y0026225D01*
X0033692Y0027934D01*
X0032384Y0029242D01*
X0030675Y0029950D01*
X0028825Y0029950D01*
X0027116Y0029242D01*
X0025808Y0027934D01*
X0025100Y0026225D01*
X0025100Y0024375D01*
X0025808Y0022666D01*
X0027116Y0021358D01*
X0028825Y0020650D01*
X0031484Y0020985D02*
X0036897Y0020985D01*
X0036903Y0020981D02*
X0037611Y0020620D01*
X0038367Y0020374D01*
X0039153Y0020250D01*
X0039400Y0020250D01*
X0039400Y0025150D01*
X0034500Y0025150D01*
X0034500Y0024903D01*
X0034624Y0024117D01*
X0034870Y0023361D01*
X0035231Y0022653D01*
X0035698Y0022010D01*
X0036260Y0021448D01*
X0036903Y0020981D01*
X0035354Y0022484D02*
X0033510Y0022484D01*
X0034237Y0023982D02*
X0034668Y0023982D01*
X0034500Y0025450D02*
X0039400Y0025450D01*
X0039400Y0030350D01*
X0039153Y0030350D01*
X0038367Y0030226D01*
X0037611Y0029980D01*
X0036903Y0029619D01*
X0036260Y0029152D01*
X0035698Y0028590D01*
X0035231Y0027947D01*
X0034870Y0027239D01*
X0034624Y0026483D01*
X0034500Y0025697D01*
X0034500Y0025450D01*
X0034500Y0025481D02*
X0034400Y0025481D01*
X0034088Y0026979D02*
X0034786Y0026979D01*
X0035617Y0028478D02*
X0033148Y0028478D01*
X0037604Y0029976D02*
X0018138Y0029976D01*
X0018600Y0028478D02*
X0026352Y0028478D01*
X0025412Y0026979D02*
X0018600Y0026979D01*
X0018493Y0025481D02*
X0025100Y0025481D01*
X0025263Y0023982D02*
X0017872Y0023982D01*
X0017035Y0022484D02*
X0025990Y0022484D01*
X0039400Y0022484D02*
X0039700Y0022484D01*
X0039700Y0023982D02*
X0039400Y0023982D01*
X0039400Y0025150D02*
X0039700Y0025150D01*
X0039700Y0025450D01*
X0039400Y0025450D01*
X0039400Y0025150D01*
X0039700Y0025150D02*
X0039700Y0020250D01*
X0039947Y0020250D01*
X0040733Y0020374D01*
X0041489Y0020620D01*
X0042197Y0020981D01*
X0042840Y0021448D01*
X0043402Y0022010D01*
X0043869Y0022653D01*
X0044230Y0023361D01*
X0044476Y0024117D01*
X0044600Y0024903D01*
X0044600Y0025150D01*
X0039700Y0025150D01*
X0039700Y0025450D02*
X0044600Y0025450D01*
X0044600Y0025697D01*
X0044476Y0026483D01*
X0044230Y0027239D01*
X0043869Y0027947D01*
X0043402Y0028590D01*
X0042840Y0029152D01*
X0042197Y0029619D01*
X0041489Y0029980D01*
X0040733Y0030226D01*
X0039947Y0030350D01*
X0039700Y0030350D01*
X0039700Y0025450D01*
X0039700Y0025481D02*
X0039400Y0025481D01*
X0039400Y0026979D02*
X0039700Y0026979D01*
X0039700Y0028478D02*
X0039400Y0028478D01*
X0039400Y0029976D02*
X0039700Y0029976D01*
X0041496Y0029976D02*
X0050762Y0029976D01*
X0050300Y0028478D02*
X0043483Y0028478D01*
X0044314Y0026979D02*
X0050300Y0026979D01*
X0050407Y0025481D02*
X0044600Y0025481D01*
X0044432Y0023982D02*
X0051028Y0023982D01*
X0051865Y0022484D02*
X0043746Y0022484D01*
X0042203Y0020985D02*
X0053363Y0020985D01*
X0062937Y0020985D02*
X0068638Y0020985D01*
X0069038Y0028478D02*
X0066000Y0028478D01*
X0065538Y0029976D02*
X0069038Y0029976D01*
X0069038Y0031475D02*
X0064918Y0031475D01*
X0063578Y0032973D02*
X0069038Y0032973D01*
X0069454Y0034472D02*
X0061349Y0034472D01*
X0054951Y0034472D02*
X0042698Y0034472D01*
X0042184Y0033958D02*
X0043492Y0035266D01*
X0044200Y0036975D01*
X0044200Y0038825D01*
X0043492Y0040534D01*
X0042184Y0041842D01*
X0042100Y0041877D01*
X0042100Y0043707D01*
X0041712Y0044644D01*
X0040994Y0045362D01*
X0036194Y0050162D01*
X0035257Y0050550D01*
X0025806Y0050550D01*
X0025300Y0051056D01*
X0025300Y0060650D01*
X0026609Y0060650D01*
X0027400Y0061441D01*
X0027400Y0062850D01*
X0029641Y0062850D01*
X0030900Y0064109D01*
X0032900Y0066109D01*
X0032900Y0074109D01*
X0034141Y0075350D01*
X0034650Y0075350D01*
X0034650Y0075234D01*
X0035734Y0074150D01*
X0041766Y0074150D01*
X0042850Y0075234D01*
X0042850Y0075350D01*
X0047650Y0075350D01*
X0047650Y0072234D01*
X0048734Y0071150D01*
X0054766Y0071150D01*
X0055850Y0072234D01*
X0055850Y0072350D01*
X0057650Y0072350D01*
X0057650Y0072234D01*
X0058734Y0071150D01*
X0064766Y0071150D01*
X0065850Y0072234D01*
X0065850Y0076766D01*
X0064766Y0077850D01*
X0058734Y0077850D01*
X0057650Y0076766D01*
X0057650Y0076650D01*
X0055850Y0076650D01*
X0055850Y0076766D01*
X0054766Y0077850D01*
X0053900Y0077850D01*
X0053900Y0113891D01*
X0052641Y0115150D01*
X0049641Y0118150D01*
X0040900Y0118150D01*
X0040900Y0120109D01*
X0041141Y0120350D01*
X0041191Y0120350D01*
X0041641Y0119900D01*
X0049259Y0119900D01*
X0050050Y0120691D01*
X0050050Y0124309D01*
X0049359Y0125000D01*
X0050050Y0125691D01*
X0050050Y0128850D01*
X0051859Y0128850D01*
X0056600Y0124109D01*
X0056600Y0091109D01*
X0067600Y0080109D01*
X0067600Y0066150D01*
X0066141Y0066150D01*
X0065850Y0066441D01*
X0065850Y0069766D01*
X0064766Y0070850D01*
X0058734Y0070850D01*
X0057650Y0069766D01*
X0057650Y0065234D01*
X0058734Y0064150D01*
X0062059Y0064150D01*
X0064359Y0061850D01*
X0079472Y0061850D01*
X0079976Y0061346D01*
X0081127Y0060869D01*
X0082373Y0060869D01*
X0083524Y0061346D01*
X0084404Y0062226D01*
X0084881Y0063377D01*
X0084881Y0064623D01*
X0084404Y0065774D01*
X0083524Y0066654D01*
X0082373Y0067131D01*
X0081127Y0067131D01*
X0079976Y0066654D01*
X0079472Y0066150D01*
X0071900Y0066150D01*
X0071900Y0081891D01*
X0070641Y0083150D01*
X0060900Y0092891D01*
X0060900Y0125891D01*
X0059641Y0127150D01*
X0053641Y0133150D01*
X0050050Y0133150D01*
X0050050Y0134309D01*
X0049359Y0135000D01*
X0050050Y0135691D01*
X0050050Y0139309D01*
X0049259Y0140100D01*
X0041641Y0140100D01*
X0041191Y0139650D01*
X0035141Y0139650D01*
X0034900Y0139891D01*
X0034900Y0150678D01*
X0033641Y0151938D01*
X0033641Y0151938D01*
X0032797Y0152782D01*
X0033091Y0153492D01*
X0033091Y0155501D01*
X0032322Y0157357D01*
X0030902Y0158778D01*
X0029654Y0159295D01*
X0030782Y0159295D01*
X0032638Y0160064D01*
X0034059Y0161484D01*
X0034828Y0163340D01*
X0034828Y0165349D01*
X0034059Y0167205D01*
X0032839Y0168425D01*
X0034438Y0168143D01*
X0034897Y0168183D01*
X0035330Y0168341D01*
X0035708Y0168605D01*
X0036004Y0168958D01*
X0036199Y0169376D01*
X0036838Y0173000D01*
X0031717Y0173903D01*
X0031804Y0174396D01*
X0031311Y0174482D01*
X0031224Y0173990D01*
X0026103Y0174893D01*
X0025464Y0171269D01*
X0025505Y0170809D01*
X0025662Y0170376D01*
X0025926Y0169999D01*
X0026279Y0169703D01*
X0026697Y0169508D01*
X0028345Y0169217D01*
X0026917Y0168626D01*
X0025496Y0167205D01*
X0024728Y0165349D01*
X0024728Y0163340D01*
X0025496Y0161484D01*
X0026917Y0160064D01*
X0028165Y0159547D01*
X0027037Y0159547D01*
X0025180Y0158778D01*
X0023760Y0157357D01*
X0022991Y0155501D01*
X0022991Y0153492D01*
X0023760Y0151636D01*
X0025180Y0150215D01*
X0026428Y0149699D01*
X0025300Y0149699D01*
X0023444Y0148930D01*
X0022023Y0147509D01*
X0021255Y0145653D01*
X0021255Y0143644D01*
X0022023Y0141788D01*
X0023444Y0140367D01*
X0024155Y0140073D01*
X0024155Y0135555D01*
X0029600Y0130109D01*
X0030859Y0128850D01*
X0040850Y0128850D01*
X0040850Y0125691D01*
X0041541Y0125000D01*
X0041191Y0124650D01*
X0039359Y0124650D01*
X0037859Y0123150D01*
X0036600Y0121891D01*
X0036600Y0116109D01*
X0037600Y0115109D01*
X0038859Y0113850D01*
X0047859Y0113850D01*
X0049600Y0112109D01*
X0049600Y0079650D01*
X0042850Y0079650D01*
X0042850Y0079766D01*
X0041766Y0080850D01*
X0035734Y0080850D01*
X0034650Y0079766D01*
X0034650Y0079650D01*
X0032359Y0079650D01*
X0029859Y0077150D01*
X0028600Y0075891D01*
X0028600Y0067891D01*
X0027859Y0067150D01*
X0027400Y0067150D01*
X0027400Y0068559D01*
X0026609Y0069350D01*
X0018891Y0069350D01*
X0018100Y0068559D01*
X0018100Y0067550D01*
X0015306Y0067550D01*
X0014850Y0068006D01*
X0014850Y0070766D01*
X0013766Y0071850D01*
X0007734Y0071850D01*
X0006650Y0070766D01*
X0006650Y0066234D01*
X0007734Y0065150D01*
X0010494Y0065150D01*
X0012806Y0062838D01*
X0013743Y0062450D01*
X0018100Y0062450D01*
X0018100Y0061441D01*
X0018891Y0060650D01*
X0020200Y0060650D01*
X0020200Y0049493D01*
X0020588Y0048556D01*
X0022588Y0046556D01*
X0022588Y0046556D01*
X0023306Y0045838D01*
X0024243Y0045450D01*
X0033694Y0045450D01*
X0037000Y0042144D01*
X0037000Y0041877D01*
X0036916Y0041842D01*
X0035608Y0040534D01*
X0034900Y0038825D01*
X0034900Y0036975D01*
X0035608Y0035266D01*
X0036916Y0033958D01*
X0038625Y0033250D01*
X0040475Y0033250D01*
X0042184Y0033958D01*
X0043784Y0035970D02*
X0070600Y0035970D01*
X0070241Y0037469D02*
X0044200Y0037469D01*
X0044141Y0038967D02*
X0068742Y0038967D01*
X0067244Y0040466D02*
X0043520Y0040466D01*
X0042100Y0041964D02*
X0045745Y0041964D01*
X0044247Y0043463D02*
X0042100Y0043463D01*
X0042748Y0044961D02*
X0041395Y0044961D01*
X0041250Y0046460D02*
X0039896Y0046460D01*
X0039751Y0047958D02*
X0038398Y0047958D01*
X0038253Y0049457D02*
X0036899Y0049457D01*
X0036754Y0050955D02*
X0025401Y0050955D01*
X0025300Y0052454D02*
X0036600Y0052454D01*
X0036600Y0053952D02*
X0025300Y0053952D01*
X0025300Y0055451D02*
X0036600Y0055451D01*
X0036600Y0056949D02*
X0025300Y0056949D01*
X0025300Y0058448D02*
X0036600Y0058448D01*
X0036600Y0059946D02*
X0025300Y0059946D01*
X0027400Y0061445D02*
X0036600Y0061445D01*
X0036600Y0062943D02*
X0029734Y0062943D01*
X0031232Y0064442D02*
X0036600Y0064442D01*
X0036600Y0065940D02*
X0032731Y0065940D01*
X0032900Y0067439D02*
X0035445Y0067439D01*
X0034650Y0068937D02*
X0032900Y0068937D01*
X0032900Y0070436D02*
X0034650Y0070436D01*
X0034650Y0071934D02*
X0032900Y0071934D01*
X0032900Y0073433D02*
X0035317Y0073433D01*
X0034952Y0074932D02*
X0033722Y0074932D01*
X0030638Y0077929D02*
X0027400Y0077929D01*
X0027400Y0079427D02*
X0032137Y0079427D01*
X0027400Y0080559D02*
X0026609Y0081350D01*
X0024900Y0081350D01*
X0024900Y0083950D01*
X0034974Y0083950D01*
X0035269Y0083239D01*
X0036689Y0081819D01*
X0038545Y0081050D01*
X0040555Y0081050D01*
X0042411Y0081819D01*
X0043831Y0083239D01*
X0044600Y0085095D01*
X0044600Y0087105D01*
X0043831Y0088961D01*
X0042411Y0090381D01*
X0040555Y0091150D01*
X0038545Y0091150D01*
X0036689Y0090381D01*
X0035269Y0088961D01*
X0034974Y0088250D01*
X0018526Y0088250D01*
X0018231Y0088961D01*
X0016811Y0090381D01*
X0014955Y0091150D01*
X0012945Y0091150D01*
X0011089Y0090381D01*
X0009669Y0088961D01*
X0008900Y0087105D01*
X0008900Y0085095D01*
X0009669Y0083239D01*
X0011089Y0081819D01*
X0012945Y0081050D01*
X0014955Y0081050D01*
X0016811Y0081819D01*
X0018231Y0083239D01*
X0018526Y0083950D01*
X0020600Y0083950D01*
X0020600Y0081350D01*
X0018891Y0081350D01*
X0018100Y0080559D01*
X0018100Y0078050D01*
X0014566Y0078050D01*
X0013766Y0078850D01*
X0007734Y0078850D01*
X0006650Y0077766D01*
X0006650Y0073234D01*
X0007734Y0072150D01*
X0013766Y0072150D01*
X0014566Y0072950D01*
X0018591Y0072950D01*
X0018891Y0072650D01*
X0026609Y0072650D01*
X0027400Y0073441D01*
X0027400Y0080559D01*
X0027034Y0080926D02*
X0049600Y0080926D01*
X0049600Y0082424D02*
X0043016Y0082424D01*
X0044114Y0083923D02*
X0049600Y0083923D01*
X0049600Y0085421D02*
X0044600Y0085421D01*
X0044600Y0086920D02*
X0049600Y0086920D01*
X0049600Y0088418D02*
X0044056Y0088418D01*
X0042875Y0089917D02*
X0049600Y0089917D01*
X0049600Y0091415D02*
X0004250Y0091415D01*
X0004250Y0089917D02*
X0010625Y0089917D01*
X0009444Y0088418D02*
X0004250Y0088418D01*
X0004250Y0086920D02*
X0008900Y0086920D01*
X0008900Y0085421D02*
X0004250Y0085421D01*
X0004250Y0083923D02*
X0009386Y0083923D01*
X0010484Y0082424D02*
X0004250Y0082424D01*
X0004250Y0080926D02*
X0018466Y0080926D01*
X0018100Y0079427D02*
X0004250Y0079427D01*
X0004250Y0077929D02*
X0006812Y0077929D01*
X0006650Y0076430D02*
X0004250Y0076430D01*
X0004250Y0074932D02*
X0006650Y0074932D01*
X0006650Y0073433D02*
X0004250Y0073433D01*
X0004250Y0071934D02*
X0028600Y0071934D01*
X0028600Y0070436D02*
X0014850Y0070436D01*
X0014850Y0068937D02*
X0018478Y0068937D01*
X0027022Y0068937D02*
X0028600Y0068937D01*
X0028148Y0067439D02*
X0027400Y0067439D01*
X0011202Y0064442D02*
X0004250Y0064442D01*
X0004250Y0065940D02*
X0006943Y0065940D01*
X0006650Y0067439D02*
X0004250Y0067439D01*
X0004250Y0068937D02*
X0006650Y0068937D01*
X0006650Y0070436D02*
X0004250Y0070436D01*
X0004250Y0062943D02*
X0012700Y0062943D01*
X0018100Y0061445D02*
X0004250Y0061445D01*
X0004250Y0059946D02*
X0020200Y0059946D01*
X0020200Y0058448D02*
X0004250Y0058448D01*
X0004250Y0056949D02*
X0020200Y0056949D01*
X0020200Y0055451D02*
X0004250Y0055451D01*
X0004250Y0053952D02*
X0020200Y0053952D01*
X0020200Y0052454D02*
X0004250Y0052454D01*
X0004250Y0050955D02*
X0020200Y0050955D01*
X0020215Y0049457D02*
X0004250Y0049457D01*
X0004250Y0047958D02*
X0021185Y0047958D01*
X0022684Y0046460D02*
X0004250Y0046460D01*
X0004250Y0044961D02*
X0034182Y0044961D01*
X0035681Y0043463D02*
X0004250Y0043463D01*
X0004250Y0041964D02*
X0027411Y0041964D01*
X0027116Y0041842D02*
X0025808Y0040534D01*
X0025100Y0038825D01*
X0025100Y0036975D01*
X0025808Y0035266D01*
X0027116Y0033958D01*
X0028825Y0033250D01*
X0030675Y0033250D01*
X0032384Y0033958D01*
X0033692Y0035266D01*
X0034400Y0036975D01*
X0034400Y0038825D01*
X0033692Y0040534D01*
X0032384Y0041842D01*
X0030675Y0042550D01*
X0028825Y0042550D01*
X0027116Y0041842D01*
X0025780Y0040466D02*
X0004250Y0040466D01*
X0004250Y0038967D02*
X0025159Y0038967D01*
X0025100Y0037469D02*
X0004250Y0037469D01*
X0004250Y0035970D02*
X0025516Y0035970D01*
X0026602Y0034472D02*
X0013949Y0034472D01*
X0016178Y0032973D02*
X0052722Y0032973D01*
X0051382Y0031475D02*
X0017518Y0031475D01*
X0007551Y0034472D02*
X0004250Y0034472D01*
X0004250Y0032973D02*
X0005322Y0032973D01*
X0032898Y0034472D02*
X0036402Y0034472D01*
X0035316Y0035970D02*
X0033984Y0035970D01*
X0034400Y0037469D02*
X0034900Y0037469D01*
X0034959Y0038967D02*
X0034341Y0038967D01*
X0033720Y0040466D02*
X0035580Y0040466D01*
X0037000Y0041964D02*
X0032089Y0041964D01*
X0045832Y0047958D02*
X0156751Y0047958D01*
X0158250Y0046460D02*
X0047331Y0046460D01*
X0044334Y0049457D02*
X0055253Y0049457D01*
X0053754Y0050955D02*
X0042835Y0050955D01*
X0041337Y0052454D02*
X0052256Y0052454D01*
X0050757Y0053952D02*
X0040900Y0053952D01*
X0040900Y0055451D02*
X0049600Y0055451D01*
X0049600Y0056949D02*
X0040900Y0056949D01*
X0040900Y0058448D02*
X0049004Y0058448D01*
X0048619Y0059946D02*
X0040900Y0059946D01*
X0040900Y0061445D02*
X0048959Y0061445D01*
X0049600Y0062943D02*
X0040900Y0062943D01*
X0040900Y0064442D02*
X0048442Y0064442D01*
X0047650Y0065940D02*
X0040900Y0065940D01*
X0042055Y0067439D02*
X0047650Y0067439D01*
X0047650Y0068937D02*
X0042850Y0068937D01*
X0042850Y0070436D02*
X0048320Y0070436D01*
X0047949Y0071934D02*
X0042850Y0071934D01*
X0042183Y0073433D02*
X0047650Y0073433D01*
X0047650Y0074932D02*
X0042548Y0074932D01*
X0053900Y0077929D02*
X0067600Y0077929D01*
X0067600Y0079427D02*
X0053900Y0079427D01*
X0053900Y0080926D02*
X0066784Y0080926D01*
X0065285Y0082424D02*
X0053900Y0082424D01*
X0053900Y0083923D02*
X0063787Y0083923D01*
X0062288Y0085421D02*
X0053900Y0085421D01*
X0053900Y0086920D02*
X0060790Y0086920D01*
X0059291Y0088418D02*
X0053900Y0088418D01*
X0053900Y0089917D02*
X0057793Y0089917D01*
X0056600Y0091415D02*
X0053900Y0091415D01*
X0053900Y0092914D02*
X0056600Y0092914D01*
X0056600Y0094412D02*
X0053900Y0094412D01*
X0053900Y0095911D02*
X0056600Y0095911D01*
X0056600Y0097409D02*
X0053900Y0097409D01*
X0053900Y0098908D02*
X0056600Y0098908D01*
X0056600Y0100406D02*
X0053900Y0100406D01*
X0053900Y0101905D02*
X0056600Y0101905D01*
X0056600Y0103403D02*
X0053900Y0103403D01*
X0053900Y0104902D02*
X0056600Y0104902D01*
X0056600Y0106400D02*
X0053900Y0106400D01*
X0053900Y0107899D02*
X0056600Y0107899D01*
X0056600Y0109397D02*
X0053900Y0109397D01*
X0053900Y0110896D02*
X0056600Y0110896D01*
X0056600Y0112394D02*
X0053900Y0112394D01*
X0053898Y0113893D02*
X0056600Y0113893D01*
X0056600Y0115391D02*
X0052399Y0115391D01*
X0050901Y0116890D02*
X0056600Y0116890D01*
X0056600Y0118388D02*
X0040900Y0118388D01*
X0040900Y0119887D02*
X0056600Y0119887D01*
X0056600Y0121385D02*
X0050050Y0121385D01*
X0050050Y0122884D02*
X0056600Y0122884D01*
X0056327Y0124382D02*
X0049977Y0124382D01*
X0050050Y0125881D02*
X0054829Y0125881D01*
X0053330Y0127379D02*
X0050050Y0127379D01*
X0056414Y0130376D02*
X0059333Y0130376D01*
X0059359Y0130350D02*
X0061791Y0130350D01*
X0062141Y0130000D01*
X0061450Y0129309D01*
X0061450Y0125691D01*
X0062141Y0125000D01*
X0061450Y0124309D01*
X0061450Y0120691D01*
X0062241Y0119900D01*
X0066809Y0119900D01*
X0070400Y0116309D01*
X0070400Y0113117D01*
X0071367Y0112150D01*
X0078133Y0112150D01*
X0079100Y0113117D01*
X0079100Y0116883D01*
X0078133Y0117850D01*
X0074941Y0117850D01*
X0070650Y0122141D01*
X0070650Y0124309D01*
X0069959Y0125000D01*
X0070309Y0125350D01*
X0070400Y0125350D01*
X0070400Y0125117D01*
X0071367Y0124150D01*
X0078133Y0124150D01*
X0079100Y0125117D01*
X0079100Y0128883D01*
X0078133Y0129850D01*
X0071367Y0129850D01*
X0071167Y0129650D01*
X0070309Y0129650D01*
X0069959Y0130000D01*
X0070309Y0130350D01*
X0104141Y0130350D01*
X0112641Y0138850D01*
X0113900Y0140109D01*
X0113900Y0149768D01*
X0115214Y0150312D01*
X0116438Y0151536D01*
X0117100Y0153135D01*
X0117100Y0160865D01*
X0116438Y0162464D01*
X0115214Y0163688D01*
X0113615Y0164350D01*
X0111885Y0164350D01*
X0110286Y0163688D01*
X0109062Y0162464D01*
X0108400Y0160865D01*
X0108400Y0153135D01*
X0109062Y0151536D01*
X0109600Y0150998D01*
X0109600Y0141891D01*
X0102359Y0134650D01*
X0070309Y0134650D01*
X0070207Y0134753D01*
X0070375Y0134850D01*
X0070700Y0135175D01*
X0070931Y0135575D01*
X0071050Y0136020D01*
X0071050Y0137500D01*
X0071050Y0138980D01*
X0070931Y0139425D01*
X0070700Y0139825D01*
X0070375Y0140150D01*
X0069975Y0140381D01*
X0069530Y0140500D01*
X0066050Y0140500D01*
X0066050Y0137500D01*
X0066050Y0137500D01*
X0071050Y0137500D01*
X0066050Y0137500D01*
X0066050Y0137500D01*
X0066050Y0137500D01*
X0061050Y0137500D01*
X0061050Y0138980D01*
X0061169Y0139425D01*
X0061400Y0139825D01*
X0061725Y0140150D01*
X0062125Y0140381D01*
X0062570Y0140500D01*
X0066050Y0140500D01*
X0066050Y0137500D01*
X0061050Y0137500D01*
X0061050Y0136020D01*
X0061169Y0135575D01*
X0061400Y0135175D01*
X0061725Y0134850D01*
X0061893Y0134753D01*
X0061791Y0134650D01*
X0061141Y0134650D01*
X0058900Y0136891D01*
X0058900Y0149650D01*
X0060615Y0149650D01*
X0062214Y0150312D01*
X0063438Y0151536D01*
X0064100Y0153135D01*
X0064100Y0160865D01*
X0063438Y0162464D01*
X0062214Y0163688D01*
X0060615Y0164350D01*
X0058885Y0164350D01*
X0057286Y0163688D01*
X0056062Y0162464D01*
X0055400Y0160865D01*
X0055400Y0155691D01*
X0054600Y0154891D01*
X0054600Y0135109D01*
X0055859Y0133850D01*
X0059359Y0130350D01*
X0057913Y0128878D02*
X0061450Y0128878D01*
X0061450Y0127379D02*
X0059411Y0127379D01*
X0060900Y0125881D02*
X0061450Y0125881D01*
X0061523Y0124382D02*
X0060900Y0124382D01*
X0060900Y0122884D02*
X0061450Y0122884D01*
X0061450Y0121385D02*
X0060900Y0121385D01*
X0060900Y0119887D02*
X0066823Y0119887D01*
X0068321Y0118388D02*
X0060900Y0118388D01*
X0060900Y0116890D02*
X0069820Y0116890D01*
X0070400Y0115391D02*
X0060900Y0115391D01*
X0060900Y0113893D02*
X0070400Y0113893D01*
X0071122Y0112394D02*
X0060900Y0112394D01*
X0060900Y0110896D02*
X0116600Y0110896D01*
X0116600Y0112394D02*
X0078378Y0112394D01*
X0079100Y0113893D02*
X0116600Y0113893D01*
X0116600Y0115391D02*
X0079100Y0115391D01*
X0079094Y0116890D02*
X0116600Y0116890D01*
X0116600Y0118388D02*
X0074402Y0118388D01*
X0072904Y0119887D02*
X0116600Y0119887D01*
X0116600Y0121385D02*
X0071405Y0121385D01*
X0070650Y0122884D02*
X0116600Y0122884D01*
X0116600Y0124382D02*
X0078366Y0124382D01*
X0079100Y0125881D02*
X0116600Y0125881D01*
X0116600Y0127379D02*
X0079100Y0127379D01*
X0079100Y0128878D02*
X0116600Y0128878D01*
X0116600Y0130376D02*
X0104167Y0130376D01*
X0105666Y0131875D02*
X0116600Y0131875D01*
X0118083Y0133373D02*
X0107164Y0133373D01*
X0108663Y0134872D02*
X0119581Y0134872D01*
X0121080Y0136370D02*
X0110161Y0136370D01*
X0111660Y0137869D02*
X0122578Y0137869D01*
X0124164Y0133373D02*
X0140639Y0133373D01*
X0144600Y0131875D02*
X0122666Y0131875D01*
X0121167Y0130376D02*
X0144600Y0130376D01*
X0144600Y0128878D02*
X0120900Y0128878D01*
X0120900Y0127379D02*
X0144600Y0127379D01*
X0144600Y0125881D02*
X0120900Y0125881D01*
X0120900Y0124382D02*
X0128365Y0124382D01*
X0128695Y0124712D02*
X0127904Y0123921D01*
X0127904Y0118079D01*
X0128695Y0117288D01*
X0130100Y0117288D01*
X0130100Y0115100D01*
X0129984Y0115100D01*
X0128900Y0114016D01*
X0128900Y0107984D01*
X0129984Y0106900D01*
X0134516Y0106900D01*
X0135600Y0107984D01*
X0135600Y0114016D01*
X0134516Y0115100D01*
X0134400Y0115100D01*
X0134400Y0117288D01*
X0134538Y0117288D01*
X0135328Y0118079D01*
X0135328Y0123921D01*
X0134538Y0124712D01*
X0128695Y0124712D01*
X0127904Y0122884D02*
X0120900Y0122884D01*
X0120900Y0121385D02*
X0127904Y0121385D01*
X0127904Y0119887D02*
X0120900Y0119887D01*
X0120900Y0118388D02*
X0127904Y0118388D01*
X0130100Y0116890D02*
X0120900Y0116890D01*
X0120900Y0115391D02*
X0130100Y0115391D01*
X0128900Y0113893D02*
X0120900Y0113893D01*
X0120900Y0112394D02*
X0128900Y0112394D01*
X0128900Y0110896D02*
X0120900Y0110896D01*
X0120900Y0109397D02*
X0128900Y0109397D01*
X0128985Y0107899D02*
X0120900Y0107899D01*
X0120900Y0106400D02*
X0137100Y0106400D01*
X0137100Y0104902D02*
X0120900Y0104902D01*
X0120900Y0103403D02*
X0138306Y0103403D01*
X0139805Y0101905D02*
X0120900Y0101905D01*
X0120900Y0100406D02*
X0141303Y0100406D01*
X0142802Y0098908D02*
X0120900Y0098908D01*
X0120900Y0097409D02*
X0144300Y0097409D01*
X0145799Y0095911D02*
X0120900Y0095911D01*
X0120900Y0094412D02*
X0147297Y0094412D01*
X0148796Y0092914D02*
X0120900Y0092914D01*
X0120900Y0091415D02*
X0128458Y0091415D01*
X0126959Y0089917D02*
X0120900Y0089917D01*
X0120900Y0088418D02*
X0126300Y0088418D01*
X0131500Y0088418D02*
X0132000Y0088418D01*
X0132000Y0089917D02*
X0131500Y0089917D01*
X0131500Y0091415D02*
X0132000Y0091415D01*
X0135042Y0091415D02*
X0139023Y0091415D01*
X0137525Y0089917D02*
X0136541Y0089917D01*
X0131500Y0086920D02*
X0120900Y0086920D01*
X0120900Y0085421D02*
X0126300Y0085421D01*
X0123632Y0083923D02*
X0120900Y0083923D01*
X0120900Y0082424D02*
X0122134Y0082424D01*
X0121600Y0080926D02*
X0120900Y0080926D01*
X0120900Y0079427D02*
X0121600Y0079427D01*
X0121600Y0077929D02*
X0120900Y0077929D01*
X0120900Y0076430D02*
X0121600Y0076430D01*
X0121600Y0074932D02*
X0120900Y0074932D01*
X0120900Y0073433D02*
X0121600Y0073433D01*
X0121600Y0071934D02*
X0120900Y0071934D01*
X0120900Y0070436D02*
X0121600Y0070436D01*
X0121600Y0068937D02*
X0120900Y0068937D01*
X0120900Y0067439D02*
X0121600Y0067439D01*
X0121600Y0065940D02*
X0120900Y0065940D01*
X0120900Y0064442D02*
X0121600Y0064442D01*
X0121600Y0062943D02*
X0120900Y0062943D01*
X0120900Y0061445D02*
X0122265Y0061445D01*
X0120900Y0059946D02*
X0123763Y0059946D01*
X0125262Y0058448D02*
X0120900Y0058448D01*
X0116600Y0058448D02*
X0054496Y0058448D01*
X0054881Y0059946D02*
X0116600Y0059946D01*
X0116600Y0061445D02*
X0083623Y0061445D01*
X0084701Y0062943D02*
X0116600Y0062943D01*
X0116600Y0064442D02*
X0084881Y0064442D01*
X0084238Y0065940D02*
X0116600Y0065940D01*
X0116600Y0067439D02*
X0071900Y0067439D01*
X0071900Y0068937D02*
X0116600Y0068937D01*
X0116600Y0070436D02*
X0071900Y0070436D01*
X0071900Y0071934D02*
X0116600Y0071934D01*
X0116600Y0073433D02*
X0071900Y0073433D01*
X0071900Y0074932D02*
X0116600Y0074932D01*
X0116600Y0076430D02*
X0071900Y0076430D01*
X0071900Y0077929D02*
X0116600Y0077929D01*
X0116600Y0079427D02*
X0071900Y0079427D01*
X0071900Y0080926D02*
X0116600Y0080926D01*
X0116600Y0082424D02*
X0071366Y0082424D01*
X0069868Y0083923D02*
X0116600Y0083923D01*
X0116600Y0085421D02*
X0068369Y0085421D01*
X0066871Y0086920D02*
X0116600Y0086920D01*
X0116600Y0088418D02*
X0065372Y0088418D01*
X0063874Y0089917D02*
X0116600Y0089917D01*
X0116600Y0091415D02*
X0062375Y0091415D01*
X0060900Y0092914D02*
X0116600Y0092914D01*
X0116600Y0094412D02*
X0060900Y0094412D01*
X0060900Y0095911D02*
X0116600Y0095911D01*
X0116600Y0097409D02*
X0060900Y0097409D01*
X0060900Y0098908D02*
X0116600Y0098908D01*
X0116600Y0100406D02*
X0060900Y0100406D01*
X0060900Y0101905D02*
X0116600Y0101905D01*
X0116600Y0103403D02*
X0060900Y0103403D01*
X0060900Y0104902D02*
X0116600Y0104902D01*
X0116600Y0106400D02*
X0060900Y0106400D01*
X0060900Y0107899D02*
X0116600Y0107899D01*
X0116600Y0109397D02*
X0060900Y0109397D01*
X0049600Y0109397D02*
X0004250Y0109397D01*
X0004250Y0107899D02*
X0010241Y0107899D01*
X0010400Y0108057D02*
X0009793Y0107450D01*
X0009289Y0106756D01*
X0008899Y0105992D01*
X0008634Y0105176D01*
X0008500Y0104329D01*
X0008500Y0104150D01*
X0013700Y0104150D01*
X0013700Y0109350D01*
X0013521Y0109350D01*
X0012674Y0109216D01*
X0011858Y0108951D01*
X0011094Y0108561D01*
X0010400Y0108057D01*
X0009107Y0106400D02*
X0004250Y0106400D01*
X0004250Y0104902D02*
X0008591Y0104902D01*
X0008500Y0103650D02*
X0008500Y0103471D01*
X0008634Y0102624D01*
X0008899Y0101808D01*
X0009289Y0101044D01*
X0009793Y0100350D01*
X0010400Y0099743D01*
X0011094Y0099239D01*
X0011858Y0098849D01*
X0012674Y0098584D01*
X0013521Y0098450D01*
X0013700Y0098450D01*
X0013700Y0103650D01*
X0014200Y0103650D01*
X0014200Y0104150D01*
X0019400Y0104150D01*
X0019400Y0104329D01*
X0019266Y0105176D01*
X0019001Y0105992D01*
X0018611Y0106756D01*
X0018107Y0107450D01*
X0017500Y0108057D01*
X0016806Y0108561D01*
X0016042Y0108951D01*
X0015226Y0109216D01*
X0014379Y0109350D01*
X0014200Y0109350D01*
X0014200Y0104150D01*
X0013700Y0104150D01*
X0013700Y0103650D01*
X0008500Y0103650D01*
X0008511Y0103403D02*
X0004250Y0103403D01*
X0004250Y0101905D02*
X0008868Y0101905D01*
X0009752Y0100406D02*
X0004250Y0100406D01*
X0004250Y0098908D02*
X0011743Y0098908D01*
X0013700Y0098908D02*
X0014200Y0098908D01*
X0014200Y0098450D02*
X0014379Y0098450D01*
X0015226Y0098584D01*
X0016042Y0098849D01*
X0016806Y0099239D01*
X0017500Y0099743D01*
X0018107Y0100350D01*
X0018611Y0101044D01*
X0019001Y0101808D01*
X0019266Y0102624D01*
X0019400Y0103471D01*
X0019400Y0103650D01*
X0014200Y0103650D01*
X0014200Y0098450D01*
X0014200Y0100406D02*
X0013700Y0100406D01*
X0013700Y0101905D02*
X0014200Y0101905D01*
X0014200Y0103403D02*
X0013700Y0103403D01*
X0013700Y0104902D02*
X0014200Y0104902D01*
X0014200Y0106400D02*
X0013700Y0106400D01*
X0013700Y0107899D02*
X0014200Y0107899D01*
X0017659Y0107899D02*
X0035841Y0107899D01*
X0036000Y0108057D02*
X0035393Y0107450D01*
X0034889Y0106756D01*
X0034499Y0105992D01*
X0034234Y0105176D01*
X0034100Y0104329D01*
X0034100Y0104150D01*
X0039300Y0104150D01*
X0039300Y0109350D01*
X0039121Y0109350D01*
X0038274Y0109216D01*
X0037458Y0108951D01*
X0036694Y0108561D01*
X0036000Y0108057D01*
X0034707Y0106400D02*
X0018793Y0106400D01*
X0019309Y0104902D02*
X0034191Y0104902D01*
X0034100Y0103650D02*
X0034100Y0103471D01*
X0034234Y0102624D01*
X0034499Y0101808D01*
X0034889Y0101044D01*
X0035393Y0100350D01*
X0036000Y0099743D01*
X0036694Y0099239D01*
X0037458Y0098849D01*
X0038274Y0098584D01*
X0039121Y0098450D01*
X0039300Y0098450D01*
X0039300Y0103650D01*
X0039800Y0103650D01*
X0039800Y0104150D01*
X0045000Y0104150D01*
X0045000Y0104329D01*
X0044866Y0105176D01*
X0044601Y0105992D01*
X0044211Y0106756D01*
X0043707Y0107450D01*
X0043100Y0108057D01*
X0042406Y0108561D01*
X0041642Y0108951D01*
X0040826Y0109216D01*
X0039979Y0109350D01*
X0039800Y0109350D01*
X0039800Y0104150D01*
X0039300Y0104150D01*
X0039300Y0103650D01*
X0034100Y0103650D01*
X0034111Y0103403D02*
X0019389Y0103403D01*
X0019032Y0101905D02*
X0034468Y0101905D01*
X0035352Y0100406D02*
X0018148Y0100406D01*
X0016157Y0098908D02*
X0037343Y0098908D01*
X0039300Y0098908D02*
X0039800Y0098908D01*
X0039800Y0098450D02*
X0039979Y0098450D01*
X0040826Y0098584D01*
X0041642Y0098849D01*
X0042406Y0099239D01*
X0043100Y0099743D01*
X0043707Y0100350D01*
X0044211Y0101044D01*
X0044601Y0101808D01*
X0044866Y0102624D01*
X0045000Y0103471D01*
X0045000Y0103650D01*
X0039800Y0103650D01*
X0039800Y0098450D01*
X0039800Y0100406D02*
X0039300Y0100406D01*
X0039300Y0101905D02*
X0039800Y0101905D01*
X0039800Y0103403D02*
X0039300Y0103403D01*
X0039300Y0104902D02*
X0039800Y0104902D01*
X0039800Y0106400D02*
X0039300Y0106400D01*
X0039300Y0107899D02*
X0039800Y0107899D01*
X0043259Y0107899D02*
X0049600Y0107899D01*
X0049600Y0106400D02*
X0044393Y0106400D01*
X0044909Y0104902D02*
X0049600Y0104902D01*
X0049600Y0103403D02*
X0044989Y0103403D01*
X0044632Y0101905D02*
X0049600Y0101905D01*
X0049600Y0100406D02*
X0043748Y0100406D01*
X0041757Y0098908D02*
X0049600Y0098908D01*
X0049600Y0097409D02*
X0004250Y0097409D01*
X0004250Y0095911D02*
X0049600Y0095911D01*
X0049600Y0094412D02*
X0004250Y0094412D01*
X0004250Y0092914D02*
X0049600Y0092914D01*
X0036225Y0089917D02*
X0017275Y0089917D01*
X0018456Y0088418D02*
X0035044Y0088418D01*
X0034986Y0083923D02*
X0024900Y0083923D01*
X0024900Y0082424D02*
X0036084Y0082424D01*
X0029139Y0076430D02*
X0027400Y0076430D01*
X0027400Y0074932D02*
X0028600Y0074932D01*
X0028600Y0073433D02*
X0027392Y0073433D01*
X0020600Y0082424D02*
X0017416Y0082424D01*
X0018514Y0083923D02*
X0020600Y0083923D01*
X0055551Y0071934D02*
X0057949Y0071934D01*
X0058320Y0070436D02*
X0055180Y0070436D01*
X0055850Y0068937D02*
X0057650Y0068937D01*
X0057650Y0067439D02*
X0055850Y0067439D01*
X0055850Y0065940D02*
X0057650Y0065940D01*
X0058442Y0064442D02*
X0055058Y0064442D01*
X0053900Y0062943D02*
X0063266Y0062943D01*
X0054541Y0061445D02*
X0079877Y0061445D01*
X0067600Y0067439D02*
X0065850Y0067439D01*
X0065850Y0068937D02*
X0067600Y0068937D01*
X0067600Y0070436D02*
X0065180Y0070436D01*
X0065551Y0071934D02*
X0067600Y0071934D01*
X0067600Y0073433D02*
X0065850Y0073433D01*
X0065850Y0074932D02*
X0067600Y0074932D01*
X0067600Y0076430D02*
X0065850Y0076430D01*
X0053900Y0056949D02*
X0116271Y0056949D01*
X0115619Y0055451D02*
X0055340Y0055451D01*
X0056838Y0053952D02*
X0115795Y0053952D01*
X0134273Y0040466D02*
X0164244Y0040466D01*
X0165742Y0038967D02*
X0134628Y0038967D01*
X0134628Y0037469D02*
X0167241Y0037469D01*
X0168739Y0035970D02*
X0134628Y0035970D01*
X0134628Y0034472D02*
X0170238Y0034472D01*
X0162745Y0041964D02*
X0071826Y0041964D01*
X0070328Y0043463D02*
X0161247Y0043463D01*
X0159748Y0044961D02*
X0068829Y0044961D01*
X0118900Y0034472D02*
X0120928Y0034472D01*
X0133428Y0032973D02*
X0188736Y0032973D01*
X0190235Y0031475D02*
X0133428Y0031475D01*
X0039700Y0020985D02*
X0039400Y0020985D01*
X0205218Y0074932D02*
X0241910Y0074932D01*
X0241882Y0076430D02*
X0205218Y0076430D01*
X0205218Y0077929D02*
X0242011Y0077929D01*
X0242282Y0079427D02*
X0205218Y0079427D01*
X0205218Y0080926D02*
X0242282Y0080926D01*
X0242282Y0082424D02*
X0205218Y0082424D01*
X0205218Y0083923D02*
X0242282Y0083923D01*
X0242282Y0085421D02*
X0205218Y0085421D01*
X0205218Y0086920D02*
X0242282Y0086920D01*
X0242282Y0088418D02*
X0205218Y0088418D01*
X0205218Y0089917D02*
X0242282Y0089917D01*
X0242282Y0091415D02*
X0205218Y0091415D01*
X0205218Y0092914D02*
X0242282Y0092914D01*
X0242282Y0094412D02*
X0205618Y0094412D01*
X0205618Y0095911D02*
X0242282Y0095911D01*
X0242282Y0097409D02*
X0205218Y0097409D01*
X0205218Y0098908D02*
X0242282Y0098908D01*
X0242282Y0100406D02*
X0205218Y0100406D01*
X0205218Y0101905D02*
X0242282Y0101905D01*
X0242282Y0103403D02*
X0205218Y0103403D01*
X0205218Y0104902D02*
X0242282Y0104902D01*
X0242282Y0106400D02*
X0205218Y0106400D01*
X0205218Y0107899D02*
X0242282Y0107899D01*
X0242388Y0109397D02*
X0205112Y0109397D01*
X0206095Y0110896D02*
X0187895Y0110896D01*
X0189393Y0109397D02*
X0196718Y0109397D01*
X0196613Y0107899D02*
X0190892Y0107899D01*
X0186396Y0112394D02*
X0205668Y0112394D01*
X0205668Y0113893D02*
X0184898Y0113893D01*
X0183900Y0115391D02*
X0205668Y0115391D01*
X0204820Y0116890D02*
X0183900Y0116890D01*
X0183900Y0118388D02*
X0203321Y0118388D01*
X0201823Y0119887D02*
X0183900Y0119887D01*
X0183900Y0121385D02*
X0201600Y0121385D01*
X0201600Y0122884D02*
X0183900Y0122884D01*
X0183900Y0124382D02*
X0201600Y0124382D01*
X0201600Y0125881D02*
X0183900Y0125881D01*
X0183900Y0127379D02*
X0201600Y0127379D01*
X0201600Y0128878D02*
X0183900Y0128878D01*
X0183900Y0130376D02*
X0201600Y0130376D01*
X0201600Y0131875D02*
X0183900Y0131875D01*
X0179600Y0131875D02*
X0148900Y0131875D01*
X0148900Y0130376D02*
X0179600Y0130376D01*
X0179600Y0128878D02*
X0148900Y0128878D01*
X0148900Y0127379D02*
X0179600Y0127379D01*
X0179600Y0125881D02*
X0165977Y0125881D01*
X0167566Y0124382D02*
X0179600Y0124382D01*
X0179600Y0122884D02*
X0167881Y0122884D01*
X0167470Y0121385D02*
X0179600Y0121385D01*
X0179600Y0119887D02*
X0166900Y0119887D01*
X0166900Y0118388D02*
X0179600Y0118388D01*
X0179600Y0116890D02*
X0171600Y0116890D01*
X0178399Y0115391D02*
X0179600Y0115391D01*
X0176814Y0110896D02*
X0171512Y0110896D01*
X0169782Y0107899D02*
X0167718Y0107899D01*
X0166900Y0109397D02*
X0178312Y0109397D01*
X0179811Y0107899D02*
X0174718Y0107899D01*
X0175600Y0106400D02*
X0181309Y0106400D01*
X0168900Y0106400D02*
X0168600Y0106400D01*
X0168600Y0104902D02*
X0168900Y0104902D01*
X0168900Y0103403D02*
X0168600Y0103403D01*
X0168600Y0101905D02*
X0168900Y0101905D01*
X0169477Y0100406D02*
X0168023Y0100406D01*
X0168561Y0098908D02*
X0169505Y0098908D01*
X0165875Y0098908D02*
X0165625Y0098908D01*
X0165625Y0097409D02*
X0165875Y0097409D01*
X0165625Y0095911D02*
X0159880Y0095911D01*
X0158381Y0097409D02*
X0162250Y0097409D01*
X0162939Y0098908D02*
X0156883Y0098908D01*
X0155384Y0100406D02*
X0162477Y0100406D01*
X0161900Y0101905D02*
X0153886Y0101905D01*
X0152387Y0103403D02*
X0161900Y0103403D01*
X0161900Y0104902D02*
X0150889Y0104902D01*
X0149390Y0106400D02*
X0161900Y0106400D01*
X0162600Y0107899D02*
X0148900Y0107899D01*
X0148900Y0109397D02*
X0162600Y0109397D01*
X0157988Y0110896D02*
X0154438Y0110896D01*
X0153062Y0110896D02*
X0148900Y0110896D01*
X0148900Y0112394D02*
X0151026Y0112394D01*
X0150619Y0113893D02*
X0148900Y0113893D01*
X0148900Y0115391D02*
X0150937Y0115391D01*
X0152545Y0116890D02*
X0148900Y0116890D01*
X0148900Y0118388D02*
X0162600Y0118388D01*
X0162600Y0119887D02*
X0148900Y0119887D01*
X0148900Y0121385D02*
X0162030Y0121385D01*
X0161619Y0122884D02*
X0148900Y0122884D01*
X0148900Y0124382D02*
X0161934Y0124382D01*
X0163523Y0125881D02*
X0148900Y0125881D01*
X0144600Y0124382D02*
X0143678Y0124382D01*
X0143646Y0124437D02*
X0143321Y0124763D01*
X0142922Y0124993D01*
X0142476Y0125112D01*
X0140315Y0125112D01*
X0140315Y0121431D01*
X0143996Y0121431D01*
X0143996Y0123593D01*
X0143877Y0124038D01*
X0143646Y0124437D01*
X0143996Y0122884D02*
X0144600Y0122884D01*
X0144600Y0121385D02*
X0140315Y0121385D01*
X0140315Y0121431D02*
X0140315Y0120569D01*
X0143996Y0120569D01*
X0143996Y0118407D01*
X0143877Y0117962D01*
X0143646Y0117563D01*
X0143321Y0117237D01*
X0142922Y0117007D01*
X0142476Y0116888D01*
X0140315Y0116888D01*
X0140315Y0120569D01*
X0139453Y0120569D01*
X0139453Y0116888D01*
X0137291Y0116888D01*
X0136846Y0117007D01*
X0136447Y0117237D01*
X0136121Y0117563D01*
X0135891Y0117962D01*
X0135772Y0118407D01*
X0135772Y0120569D01*
X0139453Y0120569D01*
X0139453Y0121431D01*
X0139453Y0125112D01*
X0137291Y0125112D01*
X0136846Y0124993D01*
X0136447Y0124763D01*
X0136121Y0124437D01*
X0135891Y0124038D01*
X0135772Y0123593D01*
X0135772Y0121431D01*
X0139453Y0121431D01*
X0140315Y0121431D01*
X0139453Y0121385D02*
X0135328Y0121385D01*
X0135328Y0119887D02*
X0135772Y0119887D01*
X0135777Y0118388D02*
X0135328Y0118388D01*
X0134400Y0116890D02*
X0137284Y0116890D01*
X0139453Y0116890D02*
X0140315Y0116890D01*
X0140315Y0118388D02*
X0139453Y0118388D01*
X0139453Y0119887D02*
X0140315Y0119887D01*
X0143996Y0119887D02*
X0144600Y0119887D01*
X0144600Y0118388D02*
X0143991Y0118388D01*
X0144600Y0116890D02*
X0142484Y0116890D01*
X0144600Y0115391D02*
X0134400Y0115391D01*
X0135600Y0113893D02*
X0135900Y0113893D01*
X0135900Y0112394D02*
X0135600Y0112394D01*
X0135600Y0110896D02*
X0135900Y0110896D01*
X0135900Y0109397D02*
X0135600Y0109397D01*
X0135515Y0107899D02*
X0135985Y0107899D01*
X0141400Y0106400D02*
X0144600Y0106400D01*
X0144600Y0107899D02*
X0142515Y0107899D01*
X0142600Y0109397D02*
X0144600Y0109397D01*
X0144600Y0110896D02*
X0142600Y0110896D01*
X0142600Y0112394D02*
X0144600Y0112394D01*
X0144600Y0113893D02*
X0142600Y0113893D01*
X0154955Y0116890D02*
X0157900Y0116890D01*
X0140315Y0122884D02*
X0139453Y0122884D01*
X0139453Y0124382D02*
X0140315Y0124382D01*
X0136090Y0124382D02*
X0134867Y0124382D01*
X0135328Y0122884D02*
X0135772Y0122884D01*
X0102581Y0134872D02*
X0070397Y0134872D01*
X0071050Y0136370D02*
X0104080Y0136370D01*
X0105578Y0137869D02*
X0071050Y0137869D01*
X0070946Y0139368D02*
X0107077Y0139368D01*
X0108575Y0140866D02*
X0090754Y0140866D01*
X0091292Y0141010D02*
X0092666Y0141510D01*
X0093992Y0142128D01*
X0095258Y0142860D01*
X0096456Y0143699D01*
X0097577Y0144639D01*
X0098611Y0145673D01*
X0099551Y0146794D01*
X0100390Y0147992D01*
X0101122Y0149258D01*
X0101740Y0150584D01*
X0102240Y0151958D01*
X0102619Y0153371D01*
X0102873Y0154812D01*
X0102998Y0156250D01*
X0087000Y0156250D01*
X0087000Y0157750D01*
X0102998Y0157750D01*
X0102873Y0159188D01*
X0102619Y0160629D01*
X0102240Y0162042D01*
X0101740Y0163416D01*
X0101122Y0164742D01*
X0100390Y0166008D01*
X0099551Y0167206D01*
X0098611Y0168327D01*
X0097577Y0169361D01*
X0096456Y0170301D01*
X0095258Y0171140D01*
X0093992Y0171872D01*
X0092666Y0172490D01*
X0091292Y0172990D01*
X0089879Y0173369D01*
X0088438Y0173623D01*
X0087000Y0173748D01*
X0087000Y0157750D01*
X0085500Y0157750D01*
X0085500Y0173748D01*
X0084062Y0173623D01*
X0082621Y0173369D01*
X0081208Y0172990D01*
X0079834Y0172490D01*
X0078508Y0171872D01*
X0077242Y0171140D01*
X0076044Y0170301D01*
X0074923Y0169361D01*
X0073889Y0168327D01*
X0072949Y0167206D01*
X0072110Y0166008D01*
X0071378Y0164742D01*
X0070760Y0163416D01*
X0070260Y0162042D01*
X0069881Y0160629D01*
X0069627Y0159188D01*
X0069502Y0157750D01*
X0085500Y0157750D01*
X0085500Y0156250D01*
X0087000Y0156250D01*
X0087000Y0140252D01*
X0088438Y0140377D01*
X0089879Y0140631D01*
X0091292Y0141010D01*
X0094401Y0142365D02*
X0109600Y0142365D01*
X0109600Y0143863D02*
X0096652Y0143863D01*
X0098300Y0145362D02*
X0109600Y0145362D01*
X0109600Y0146860D02*
X0099598Y0146860D01*
X0100602Y0148359D02*
X0109600Y0148359D01*
X0109600Y0149857D02*
X0101401Y0149857D01*
X0102021Y0151356D02*
X0109243Y0151356D01*
X0108516Y0152854D02*
X0102480Y0152854D01*
X0102792Y0154353D02*
X0108400Y0154353D01*
X0108400Y0155851D02*
X0102963Y0155851D01*
X0102902Y0158848D02*
X0108400Y0158848D01*
X0108400Y0157350D02*
X0087000Y0157350D01*
X0087000Y0158848D02*
X0085500Y0158848D01*
X0085500Y0157350D02*
X0064100Y0157350D01*
X0064100Y0158848D02*
X0069598Y0158848D01*
X0069832Y0160347D02*
X0064100Y0160347D01*
X0063694Y0161845D02*
X0070207Y0161845D01*
X0070734Y0163344D02*
X0062558Y0163344D01*
X0056942Y0163344D02*
X0034828Y0163344D01*
X0034828Y0164842D02*
X0071436Y0164842D01*
X0072342Y0166341D02*
X0034417Y0166341D01*
X0033425Y0167839D02*
X0073480Y0167839D01*
X0074900Y0169338D02*
X0036181Y0169338D01*
X0036456Y0170836D02*
X0076807Y0170836D01*
X0079502Y0172335D02*
X0036720Y0172335D01*
X0036925Y0173493D02*
X0031804Y0174396D01*
X0032707Y0179517D01*
X0036331Y0178877D01*
X0036749Y0178683D01*
X0037102Y0178387D01*
X0037366Y0178009D01*
X0037524Y0177576D01*
X0037564Y0177117D01*
X0036925Y0173493D01*
X0036985Y0173833D02*
X0138008Y0173833D01*
X0138008Y0174531D02*
X0138008Y0172162D01*
X0138152Y0171438D01*
X0138435Y0170755D01*
X0138845Y0170141D01*
X0139367Y0169619D01*
X0139982Y0169208D01*
X0140664Y0168926D01*
X0141389Y0168781D01*
X0141758Y0168781D01*
X0142127Y0168781D01*
X0142852Y0168926D01*
X0143534Y0169208D01*
X0144148Y0169619D01*
X0144671Y0170141D01*
X0145081Y0170755D01*
X0145364Y0171438D01*
X0145508Y0172162D01*
X0145508Y0174531D01*
X0141758Y0174531D01*
X0141758Y0168781D01*
X0141758Y0174531D01*
X0141758Y0174531D01*
X0141758Y0174532D01*
X0141758Y0174532D01*
X0141758Y0180281D01*
X0142127Y0180281D01*
X0142852Y0180137D01*
X0143534Y0179855D01*
X0144148Y0179444D01*
X0144671Y0178922D01*
X0145081Y0178308D01*
X0145364Y0177625D01*
X0145508Y0176901D01*
X0145508Y0174532D01*
X0141758Y0174532D01*
X0141758Y0180281D01*
X0141389Y0180281D01*
X0140664Y0180137D01*
X0139982Y0179855D01*
X0139367Y0179444D01*
X0138845Y0178922D01*
X0138435Y0178308D01*
X0138152Y0177625D01*
X0138008Y0176901D01*
X0138008Y0174532D01*
X0141758Y0174532D01*
X0141758Y0174531D01*
X0138008Y0174531D01*
X0138008Y0175332D02*
X0037249Y0175332D01*
X0037513Y0176830D02*
X0138008Y0176830D01*
X0138449Y0178329D02*
X0037142Y0178329D01*
X0032497Y0178329D02*
X0031989Y0178329D01*
X0032214Y0179603D02*
X0028590Y0180242D01*
X0028131Y0180202D01*
X0027698Y0180045D01*
X0027320Y0179780D01*
X0027024Y0179427D01*
X0026829Y0179010D01*
X0026190Y0175385D01*
X0031311Y0174482D01*
X0032214Y0179603D01*
X0030944Y0179827D02*
X0139941Y0179827D01*
X0141758Y0179827D02*
X0141758Y0179827D01*
X0141758Y0178329D02*
X0141758Y0178329D01*
X0141758Y0176830D02*
X0141758Y0176830D01*
X0141758Y0175332D02*
X0141758Y0175332D01*
X0141758Y0173833D02*
X0141758Y0173833D01*
X0141758Y0172335D02*
X0141758Y0172335D01*
X0141758Y0170836D02*
X0141758Y0170836D01*
X0141758Y0169338D02*
X0141758Y0169338D01*
X0143728Y0169338D02*
X0165772Y0169338D01*
X0165966Y0169208D02*
X0166648Y0168926D01*
X0167373Y0168781D01*
X0167742Y0168781D01*
X0167742Y0174531D01*
X0167742Y0174531D01*
X0167742Y0168781D01*
X0168111Y0168781D01*
X0168836Y0168926D01*
X0169518Y0169208D01*
X0170133Y0169619D01*
X0170655Y0170141D01*
X0171065Y0170755D01*
X0171348Y0171438D01*
X0171492Y0172162D01*
X0171492Y0174531D01*
X0167742Y0174531D01*
X0163992Y0174531D01*
X0163992Y0172162D01*
X0164136Y0171438D01*
X0164419Y0170755D01*
X0164829Y0170141D01*
X0165352Y0169619D01*
X0165966Y0169208D01*
X0167742Y0169338D02*
X0167742Y0169338D01*
X0167742Y0170836D02*
X0167742Y0170836D01*
X0167742Y0172335D02*
X0167742Y0172335D01*
X0167742Y0173833D02*
X0167742Y0173833D01*
X0167742Y0174531D02*
X0167742Y0174532D01*
X0167742Y0180281D01*
X0167373Y0180281D01*
X0166648Y0180137D01*
X0165966Y0179855D01*
X0165352Y0179444D01*
X0164829Y0178922D01*
X0164419Y0178308D01*
X0164136Y0177625D01*
X0163992Y0176901D01*
X0163992Y0174532D01*
X0167742Y0174532D01*
X0167742Y0174532D01*
X0167742Y0180281D01*
X0168111Y0180281D01*
X0168836Y0180137D01*
X0169518Y0179855D01*
X0170133Y0179444D01*
X0170655Y0178922D01*
X0171065Y0178308D01*
X0171348Y0177625D01*
X0171492Y0176901D01*
X0171492Y0174532D01*
X0167742Y0174532D01*
X0167742Y0174531D01*
X0167742Y0175332D02*
X0167742Y0175332D01*
X0167742Y0176830D02*
X0167742Y0176830D01*
X0167742Y0178329D02*
X0167742Y0178329D01*
X0167742Y0179827D02*
X0167742Y0179827D01*
X0165925Y0179827D02*
X0143575Y0179827D01*
X0145067Y0178329D02*
X0164433Y0178329D01*
X0163992Y0176830D02*
X0145508Y0176830D01*
X0145508Y0175332D02*
X0163992Y0175332D01*
X0163992Y0173833D02*
X0145508Y0173833D01*
X0145508Y0172335D02*
X0163992Y0172335D01*
X0164385Y0170836D02*
X0145115Y0170836D01*
X0139788Y0169338D02*
X0097600Y0169338D01*
X0099020Y0167839D02*
X0184400Y0167839D01*
X0184400Y0166341D02*
X0100158Y0166341D01*
X0101064Y0164842D02*
X0184400Y0164842D01*
X0184400Y0163344D02*
X0115558Y0163344D01*
X0116694Y0161845D02*
X0184400Y0161845D01*
X0184400Y0160347D02*
X0117100Y0160347D01*
X0117100Y0158848D02*
X0139766Y0158848D01*
X0138611Y0157350D02*
X0117100Y0157350D01*
X0117100Y0155851D02*
X0138333Y0155851D01*
X0138400Y0154353D02*
X0117100Y0154353D01*
X0116984Y0152854D02*
X0138400Y0152854D01*
X0138400Y0151356D02*
X0116257Y0151356D01*
X0114115Y0149857D02*
X0138400Y0149857D01*
X0138400Y0148359D02*
X0113900Y0148359D01*
X0113900Y0146860D02*
X0138400Y0146860D01*
X0138400Y0145362D02*
X0113900Y0145362D01*
X0113900Y0143863D02*
X0138400Y0143863D01*
X0138400Y0142365D02*
X0113900Y0142365D01*
X0113900Y0140866D02*
X0138400Y0140866D01*
X0138400Y0139368D02*
X0113158Y0139368D01*
X0087000Y0140866D02*
X0085500Y0140866D01*
X0085500Y0140252D02*
X0085500Y0156250D01*
X0069502Y0156250D01*
X0069627Y0154812D01*
X0069881Y0153371D01*
X0070260Y0151958D01*
X0070760Y0150584D01*
X0071378Y0149258D01*
X0072110Y0147992D01*
X0072949Y0146794D01*
X0073889Y0145673D01*
X0074923Y0144639D01*
X0076044Y0143699D01*
X0077242Y0142860D01*
X0078508Y0142128D01*
X0079834Y0141510D01*
X0081208Y0141010D01*
X0082621Y0140631D01*
X0084062Y0140377D01*
X0085500Y0140252D01*
X0085500Y0142365D02*
X0087000Y0142365D01*
X0087000Y0143863D02*
X0085500Y0143863D01*
X0085500Y0145362D02*
X0087000Y0145362D01*
X0087000Y0146860D02*
X0085500Y0146860D01*
X0085500Y0148359D02*
X0087000Y0148359D01*
X0087000Y0149857D02*
X0085500Y0149857D01*
X0085500Y0151356D02*
X0087000Y0151356D01*
X0087000Y0152854D02*
X0085500Y0152854D01*
X0085500Y0154353D02*
X0087000Y0154353D01*
X0087000Y0155851D02*
X0085500Y0155851D01*
X0085500Y0160347D02*
X0087000Y0160347D01*
X0087000Y0161845D02*
X0085500Y0161845D01*
X0085500Y0163344D02*
X0087000Y0163344D01*
X0087000Y0164842D02*
X0085500Y0164842D01*
X0085500Y0166341D02*
X0087000Y0166341D01*
X0087000Y0167839D02*
X0085500Y0167839D01*
X0085500Y0169338D02*
X0087000Y0169338D01*
X0087000Y0170836D02*
X0085500Y0170836D01*
X0085500Y0172335D02*
X0087000Y0172335D01*
X0092998Y0172335D02*
X0138008Y0172335D01*
X0138401Y0170836D02*
X0095693Y0170836D01*
X0101766Y0163344D02*
X0109942Y0163344D01*
X0108806Y0161845D02*
X0102293Y0161845D01*
X0102668Y0160347D02*
X0108400Y0160347D01*
X0071898Y0148359D02*
X0058900Y0148359D01*
X0058900Y0146860D02*
X0072902Y0146860D01*
X0074200Y0145362D02*
X0058900Y0145362D01*
X0058900Y0143863D02*
X0075848Y0143863D01*
X0078099Y0142365D02*
X0058900Y0142365D01*
X0058900Y0140866D02*
X0081746Y0140866D01*
X0066050Y0139368D02*
X0066050Y0139368D01*
X0066050Y0137869D02*
X0066050Y0137869D01*
X0061050Y0137869D02*
X0058900Y0137869D01*
X0058900Y0139368D02*
X0061154Y0139368D01*
X0061050Y0136370D02*
X0059420Y0136370D01*
X0060919Y0134872D02*
X0061703Y0134872D01*
X0056336Y0133373D02*
X0050050Y0133373D01*
X0049487Y0134872D02*
X0054837Y0134872D01*
X0054600Y0136370D02*
X0050050Y0136370D01*
X0050050Y0137869D02*
X0054600Y0137869D01*
X0054600Y0139368D02*
X0049992Y0139368D01*
X0054600Y0140866D02*
X0034900Y0140866D01*
X0034900Y0142365D02*
X0054600Y0142365D01*
X0054600Y0143863D02*
X0034900Y0143863D01*
X0034900Y0145362D02*
X0054600Y0145362D01*
X0054600Y0146860D02*
X0034900Y0146860D01*
X0034900Y0148359D02*
X0054600Y0148359D01*
X0054600Y0149857D02*
X0034900Y0149857D01*
X0034223Y0151356D02*
X0054600Y0151356D01*
X0054600Y0152854D02*
X0032827Y0152854D01*
X0033091Y0154353D02*
X0054600Y0154353D01*
X0055400Y0155851D02*
X0032946Y0155851D01*
X0032325Y0157350D02*
X0055400Y0157350D01*
X0055400Y0158848D02*
X0030732Y0158848D01*
X0032921Y0160347D02*
X0055400Y0160347D01*
X0055806Y0161845D02*
X0034208Y0161845D01*
X0026634Y0160347D02*
X0004250Y0160347D01*
X0004250Y0161845D02*
X0025347Y0161845D01*
X0024728Y0163344D02*
X0004250Y0163344D01*
X0004250Y0164842D02*
X0024728Y0164842D01*
X0025138Y0166341D02*
X0004250Y0166341D01*
X0004250Y0167839D02*
X0026130Y0167839D01*
X0027663Y0169338D02*
X0004250Y0169338D01*
X0004250Y0170836D02*
X0025502Y0170836D01*
X0025652Y0172335D02*
X0004250Y0172335D01*
X0004250Y0173833D02*
X0025917Y0173833D01*
X0026494Y0175332D02*
X0004250Y0175332D01*
X0004250Y0176830D02*
X0026445Y0176830D01*
X0026709Y0178329D02*
X0004250Y0178329D01*
X0004250Y0179827D02*
X0027387Y0179827D01*
X0031725Y0176830D02*
X0032233Y0176830D01*
X0031969Y0175332D02*
X0031461Y0175332D01*
X0032113Y0173833D02*
X0034993Y0173833D01*
X0004250Y0181326D02*
X0250054Y0181326D01*
X0251552Y0179827D02*
X0169559Y0179827D01*
X0171051Y0178329D02*
X0253051Y0178329D01*
X0254550Y0176830D02*
X0250657Y0176830D01*
X0252156Y0175332D02*
X0256048Y0175332D01*
X0257547Y0173833D02*
X0253654Y0173833D01*
X0254823Y0172335D02*
X0259045Y0172335D01*
X0260544Y0170836D02*
X0255100Y0170836D01*
X0255100Y0169338D02*
X0262042Y0169338D01*
X0263541Y0167839D02*
X0255100Y0167839D01*
X0255100Y0166341D02*
X0265039Y0166341D01*
X0266538Y0164842D02*
X0255100Y0164842D01*
X0255100Y0163344D02*
X0268036Y0163344D01*
X0269535Y0161845D02*
X0255100Y0161845D01*
X0255100Y0160347D02*
X0271033Y0160347D01*
X0255100Y0158848D02*
X0317638Y0158848D01*
X0310863Y0147156D02*
X0308194Y0148262D01*
X0305306Y0148262D01*
X0302637Y0147156D01*
X0300594Y0145113D01*
X0299488Y0142444D01*
X0299488Y0139556D01*
X0300594Y0136887D01*
X0302637Y0134844D01*
X0305306Y0133738D01*
X0308194Y0133738D01*
X0310863Y0134844D01*
X0312906Y0136887D01*
X0314012Y0139556D01*
X0314012Y0142444D01*
X0312906Y0145113D01*
X0310863Y0147156D01*
X0311160Y0146860D02*
X0338400Y0146860D01*
X0338400Y0145362D02*
X0312658Y0145362D01*
X0313424Y0143863D02*
X0338400Y0143863D01*
X0338400Y0142365D02*
X0332806Y0142365D01*
X0332711Y0142460D02*
X0330695Y0143295D01*
X0328514Y0143295D01*
X0326498Y0142460D01*
X0324955Y0140917D01*
X0324120Y0138902D01*
X0324120Y0136720D01*
X0324955Y0134705D01*
X0326185Y0133475D01*
X0305859Y0113150D01*
X0297859Y0113150D01*
X0296559Y0111850D01*
X0293441Y0111850D01*
X0292650Y0111059D01*
X0292650Y0105941D01*
X0292750Y0105841D01*
X0292750Y0100271D01*
X0290797Y0100271D01*
X0290006Y0099480D01*
X0290006Y0091394D01*
X0290797Y0090603D01*
X0299002Y0090603D01*
X0299793Y0091394D01*
X0299793Y0099480D01*
X0299002Y0100271D01*
X0297050Y0100271D01*
X0297050Y0105150D01*
X0299059Y0105150D01*
X0299850Y0105941D01*
X0299850Y0108850D01*
X0307641Y0108850D01*
X0308900Y0110109D01*
X0331417Y0132626D01*
X0332711Y0133162D01*
X0334253Y0134705D01*
X0335088Y0136720D01*
X0335088Y0138902D01*
X0334253Y0140917D01*
X0332711Y0142460D01*
X0334275Y0140866D02*
X0338400Y0140866D01*
X0338400Y0139368D02*
X0334895Y0139368D01*
X0335088Y0137869D02*
X0338400Y0137869D01*
X0338400Y0136370D02*
X0334943Y0136370D01*
X0334323Y0134872D02*
X0338400Y0134872D01*
X0338400Y0133373D02*
X0332922Y0133373D01*
X0330665Y0131875D02*
X0338400Y0131875D01*
X0338400Y0130376D02*
X0329167Y0130376D01*
X0327668Y0128878D02*
X0338400Y0128878D01*
X0338400Y0127379D02*
X0326170Y0127379D01*
X0324671Y0125881D02*
X0338400Y0125881D01*
X0338400Y0124382D02*
X0323173Y0124382D01*
X0321674Y0122884D02*
X0338400Y0122884D01*
X0337398Y0121385D02*
X0320176Y0121385D01*
X0318677Y0119887D02*
X0335899Y0119887D01*
X0343876Y0118388D02*
X0450826Y0118388D01*
X0452325Y0116890D02*
X0342377Y0116890D01*
X0340879Y0115391D02*
X0453823Y0115391D01*
X0455322Y0113893D02*
X0339380Y0113893D01*
X0326923Y0112394D02*
X0456820Y0112394D01*
X0458319Y0110896D02*
X0326192Y0110896D01*
X0325080Y0109397D02*
X0459817Y0109397D01*
X0461316Y0107899D02*
X0324386Y0107899D01*
X0322888Y0106400D02*
X0462814Y0106400D01*
X0464313Y0104902D02*
X0321389Y0104902D01*
X0319891Y0103403D02*
X0465811Y0103403D01*
X0467310Y0101905D02*
X0318392Y0101905D01*
X0316894Y0100406D02*
X0468808Y0100406D01*
X0470307Y0098908D02*
X0315872Y0098908D01*
X0315872Y0097409D02*
X0471805Y0097409D01*
X0473304Y0095911D02*
X0379065Y0095911D01*
X0376207Y0095911D02*
X0331033Y0095911D01*
X0328175Y0095911D02*
X0315872Y0095911D01*
X0316741Y0094412D02*
X0325694Y0094412D01*
X0333514Y0094412D02*
X0373726Y0094412D01*
X0372672Y0092914D02*
X0339574Y0092914D01*
X0341072Y0091415D02*
X0372152Y0091415D01*
X0381546Y0094412D02*
X0474802Y0094412D01*
X0461069Y0088418D02*
X0542821Y0088418D01*
X0542821Y0086920D02*
X0461995Y0086920D01*
X0462100Y0085421D02*
X0542821Y0085421D01*
X0542821Y0083923D02*
X0501299Y0083923D01*
X0502212Y0083544D02*
X0499317Y0084744D01*
X0496183Y0084744D01*
X0493288Y0083544D01*
X0491072Y0081328D01*
X0489872Y0078433D01*
X0489872Y0075299D01*
X0491072Y0072404D01*
X0493288Y0070188D01*
X0496183Y0068989D01*
X0499317Y0068989D01*
X0502212Y0070188D01*
X0504428Y0072404D01*
X0505628Y0075299D01*
X0505628Y0078433D01*
X0504428Y0081328D01*
X0502212Y0083544D01*
X0503333Y0082424D02*
X0542821Y0082424D01*
X0542821Y0080926D02*
X0504595Y0080926D01*
X0505216Y0079427D02*
X0542821Y0079427D01*
X0542821Y0077929D02*
X0505628Y0077929D01*
X0505628Y0076430D02*
X0542821Y0076430D01*
X0542821Y0074932D02*
X0505475Y0074932D01*
X0504855Y0073433D02*
X0542821Y0073433D01*
X0542821Y0071934D02*
X0503959Y0071934D01*
X0502460Y0070436D02*
X0542821Y0070436D01*
X0542821Y0068937D02*
X0488967Y0068937D01*
X0488832Y0069006D02*
X0488149Y0069228D01*
X0487440Y0069341D01*
X0487236Y0069341D01*
X0487236Y0064935D01*
X0486925Y0064935D01*
X0486925Y0064624D01*
X0482520Y0064624D01*
X0482520Y0064421D01*
X0482632Y0063711D01*
X0482854Y0063029D01*
X0483180Y0062389D01*
X0483602Y0061808D01*
X0484109Y0061301D01*
X0484690Y0060879D01*
X0485330Y0060553D01*
X0486013Y0060331D01*
X0486722Y0060219D01*
X0486925Y0060218D01*
X0486925Y0064624D01*
X0487236Y0064624D01*
X0487236Y0060219D01*
X0487440Y0060219D01*
X0488149Y0060331D01*
X0488832Y0060553D01*
X0489471Y0060879D01*
X0490052Y0061301D01*
X0490560Y0061808D01*
X0490982Y0062389D01*
X0491308Y0063029D01*
X0491529Y0063711D01*
X0491642Y0064421D01*
X0491642Y0064624D01*
X0487236Y0064624D01*
X0487236Y0064935D01*
X0491642Y0064935D01*
X0491642Y0065138D01*
X0491529Y0065848D01*
X0491308Y0066530D01*
X0490982Y0067170D01*
X0490560Y0067751D01*
X0490052Y0068258D01*
X0489471Y0068680D01*
X0488832Y0069006D01*
X0487236Y0068937D02*
X0486925Y0068937D01*
X0486925Y0069341D02*
X0486722Y0069341D01*
X0486013Y0069228D01*
X0485330Y0069006D01*
X0484690Y0068680D01*
X0484109Y0068258D01*
X0483602Y0067751D01*
X0483180Y0067170D01*
X0482854Y0066530D01*
X0482632Y0065848D01*
X0482520Y0065138D01*
X0482520Y0064935D01*
X0486925Y0064935D01*
X0486925Y0069341D01*
X0485195Y0068937D02*
X0478652Y0068937D01*
X0478517Y0069006D02*
X0477834Y0069228D01*
X0477616Y0069263D01*
X0479850Y0070188D01*
X0482066Y0072404D01*
X0483265Y0075299D01*
X0483265Y0078433D01*
X0482066Y0081328D01*
X0479850Y0083544D01*
X0476955Y0084744D01*
X0473821Y0084744D01*
X0470926Y0083544D01*
X0468710Y0081328D01*
X0467510Y0078433D01*
X0467510Y0075299D01*
X0468710Y0072404D01*
X0470926Y0070188D01*
X0473821Y0068989D01*
X0474980Y0068989D01*
X0474375Y0068680D01*
X0473794Y0068258D01*
X0473287Y0067751D01*
X0472865Y0067170D01*
X0472539Y0066530D01*
X0472317Y0065848D01*
X0472205Y0065138D01*
X0472205Y0064935D01*
X0476610Y0064935D01*
X0476610Y0064624D01*
X0472205Y0064624D01*
X0472205Y0064421D01*
X0472317Y0063711D01*
X0472539Y0063029D01*
X0472865Y0062389D01*
X0473287Y0061808D01*
X0473794Y0061301D01*
X0474375Y0060879D01*
X0475015Y0060553D01*
X0475698Y0060331D01*
X0476407Y0060219D01*
X0476610Y0060218D01*
X0476610Y0064624D01*
X0476921Y0064624D01*
X0476921Y0060219D01*
X0477125Y0060219D01*
X0477834Y0060331D01*
X0478517Y0060553D01*
X0479156Y0060879D01*
X0479737Y0061301D01*
X0480245Y0061808D01*
X0480667Y0062389D01*
X0480993Y0063029D01*
X0481214Y0063711D01*
X0481327Y0064421D01*
X0481327Y0064624D01*
X0476921Y0064624D01*
X0476921Y0064935D01*
X0481327Y0064935D01*
X0481327Y0065138D01*
X0481214Y0065848D01*
X0480993Y0066530D01*
X0480667Y0067170D01*
X0480245Y0067751D01*
X0479737Y0068258D01*
X0479156Y0068680D01*
X0478517Y0069006D01*
X0480098Y0070436D02*
X0493040Y0070436D01*
X0491541Y0071934D02*
X0481597Y0071934D01*
X0482492Y0073433D02*
X0490645Y0073433D01*
X0490025Y0074932D02*
X0483113Y0074932D01*
X0483265Y0076430D02*
X0489872Y0076430D01*
X0489872Y0077929D02*
X0483265Y0077929D01*
X0482854Y0079427D02*
X0490284Y0079427D01*
X0490905Y0080926D02*
X0482233Y0080926D01*
X0480970Y0082424D02*
X0492167Y0082424D01*
X0494201Y0083923D02*
X0478937Y0083923D01*
X0471839Y0083923D02*
X0462100Y0083923D01*
X0462100Y0082424D02*
X0469805Y0082424D01*
X0468543Y0080926D02*
X0462100Y0080926D01*
X0462100Y0079427D02*
X0467922Y0079427D01*
X0467510Y0077929D02*
X0462100Y0077929D01*
X0462100Y0076430D02*
X0467510Y0076430D01*
X0467663Y0074932D02*
X0462100Y0074932D01*
X0462100Y0073433D02*
X0468283Y0073433D01*
X0469179Y0071934D02*
X0462100Y0071934D01*
X0462100Y0070436D02*
X0470677Y0070436D01*
X0473060Y0067439D02*
X0462100Y0067439D01*
X0462100Y0068937D02*
X0474880Y0068937D01*
X0472347Y0065940D02*
X0462100Y0065940D01*
X0462100Y0064442D02*
X0472205Y0064442D01*
X0472582Y0062943D02*
X0462100Y0062943D01*
X0462100Y0061445D02*
X0473650Y0061445D01*
X0476610Y0061445D02*
X0476921Y0061445D01*
X0476921Y0062943D02*
X0476610Y0062943D01*
X0476610Y0064442D02*
X0476921Y0064442D01*
X0479881Y0061445D02*
X0483965Y0061445D01*
X0482897Y0062943D02*
X0480949Y0062943D01*
X0481327Y0064442D02*
X0482520Y0064442D01*
X0482662Y0065940D02*
X0481184Y0065940D01*
X0480471Y0067439D02*
X0483375Y0067439D01*
X0486925Y0067439D02*
X0487236Y0067439D01*
X0487236Y0065940D02*
X0486925Y0065940D01*
X0486925Y0064442D02*
X0487236Y0064442D01*
X0487236Y0062943D02*
X0486925Y0062943D01*
X0486925Y0061445D02*
X0487236Y0061445D01*
X0490196Y0061445D02*
X0542821Y0061445D01*
X0542821Y0062943D02*
X0491264Y0062943D01*
X0491642Y0064442D02*
X0542821Y0064442D01*
X0542821Y0065940D02*
X0491499Y0065940D01*
X0490786Y0067439D02*
X0542821Y0067439D01*
X0542821Y0059946D02*
X0462100Y0059946D01*
X0462100Y0058448D02*
X0474392Y0058448D01*
X0474409Y0058465D02*
X0473238Y0057294D01*
X0472605Y0055765D01*
X0472605Y0054109D01*
X0473238Y0052580D01*
X0474409Y0051409D01*
X0475397Y0051000D01*
X0474409Y0050591D01*
X0473238Y0049420D01*
X0472605Y0047891D01*
X0472605Y0046235D01*
X0473238Y0044706D01*
X0474409Y0043535D01*
X0475938Y0042902D01*
X0477593Y0042902D01*
X0479123Y0043535D01*
X0480293Y0044706D01*
X0480927Y0046235D01*
X0480927Y0047891D01*
X0480293Y0049420D01*
X0479123Y0050591D01*
X0478134Y0051000D01*
X0479123Y0051409D01*
X0480293Y0052580D01*
X0480927Y0054109D01*
X0480927Y0055765D01*
X0480293Y0057294D01*
X0479123Y0058465D01*
X0477593Y0059098D01*
X0475938Y0059098D01*
X0474409Y0058465D01*
X0473095Y0056949D02*
X0462100Y0056949D01*
X0462100Y0055451D02*
X0472605Y0055451D01*
X0472670Y0053952D02*
X0462100Y0053952D01*
X0462100Y0052454D02*
X0473364Y0052454D01*
X0475289Y0050955D02*
X0462100Y0050955D01*
X0462100Y0049457D02*
X0473275Y0049457D01*
X0472633Y0047958D02*
X0462100Y0047958D01*
X0462100Y0046460D02*
X0472605Y0046460D01*
X0473132Y0044961D02*
X0462100Y0044961D01*
X0462100Y0043463D02*
X0474584Y0043463D01*
X0478947Y0043463D02*
X0484899Y0043463D01*
X0484724Y0043535D02*
X0486253Y0042902D01*
X0487908Y0042902D01*
X0489438Y0043535D01*
X0490608Y0044706D01*
X0491242Y0046235D01*
X0491242Y0047891D01*
X0490608Y0049420D01*
X0489438Y0050591D01*
X0488449Y0051000D01*
X0489438Y0051409D01*
X0490608Y0052580D01*
X0491242Y0054109D01*
X0491242Y0055765D01*
X0490608Y0057294D01*
X0489438Y0058465D01*
X0487908Y0059098D01*
X0486253Y0059098D01*
X0484724Y0058465D01*
X0483553Y0057294D01*
X0482920Y0055765D01*
X0482920Y0054109D01*
X0483553Y0052580D01*
X0484724Y0051409D01*
X0485712Y0051000D01*
X0484724Y0050591D01*
X0483553Y0049420D01*
X0482920Y0047891D01*
X0482920Y0046235D01*
X0483553Y0044706D01*
X0484724Y0043535D01*
X0483447Y0044961D02*
X0480399Y0044961D01*
X0480927Y0046460D02*
X0482920Y0046460D01*
X0482948Y0047958D02*
X0480899Y0047958D01*
X0480256Y0049457D02*
X0483590Y0049457D01*
X0485604Y0050955D02*
X0478242Y0050955D01*
X0480167Y0052454D02*
X0483679Y0052454D01*
X0482985Y0053952D02*
X0480862Y0053952D01*
X0480927Y0055451D02*
X0482920Y0055451D01*
X0483410Y0056949D02*
X0480436Y0056949D01*
X0479139Y0058448D02*
X0484707Y0058448D01*
X0489454Y0058448D02*
X0542821Y0058448D01*
X0542821Y0056949D02*
X0490751Y0056949D01*
X0491242Y0055451D02*
X0542821Y0055451D01*
X0542821Y0053952D02*
X0491177Y0053952D01*
X0490482Y0052454D02*
X0542821Y0052454D01*
X0542821Y0050955D02*
X0488557Y0050955D01*
X0490571Y0049457D02*
X0542821Y0049457D01*
X0542821Y0047958D02*
X0491214Y0047958D01*
X0491242Y0046460D02*
X0542821Y0046460D01*
X0542821Y0044961D02*
X0490714Y0044961D01*
X0489262Y0043463D02*
X0542821Y0043463D01*
X0542821Y0041964D02*
X0463523Y0041964D01*
X0457045Y0038967D02*
X0344100Y0038967D01*
X0344100Y0037469D02*
X0458544Y0037469D01*
X0460042Y0035970D02*
X0344100Y0035970D01*
X0344100Y0034472D02*
X0461541Y0034472D01*
X0460690Y0035323D02*
X0460690Y0035323D01*
X0470588Y0031475D02*
X0381983Y0031475D01*
X0380121Y0032973D02*
X0473729Y0032973D01*
X0477047Y0032973D02*
X0483731Y0032973D01*
X0483731Y0031475D02*
X0480187Y0031475D01*
X0481686Y0029976D02*
X0483731Y0029976D01*
X0483731Y0028478D02*
X0482529Y0028478D01*
X0483150Y0026979D02*
X0483731Y0026979D01*
X0483731Y0025481D02*
X0483265Y0025481D01*
X0483265Y0023982D02*
X0483731Y0023982D01*
X0483731Y0022484D02*
X0482817Y0022484D01*
X0482196Y0020985D02*
X0483731Y0020985D01*
X0483731Y0019487D02*
X0480881Y0019487D01*
X0483000Y0017988D02*
X0478721Y0017988D01*
X0472054Y0017988D02*
X0413500Y0017988D01*
X0412001Y0019487D02*
X0469895Y0019487D01*
X0468580Y0020985D02*
X0410502Y0020985D01*
X0409004Y0022484D02*
X0467959Y0022484D01*
X0467510Y0023982D02*
X0407505Y0023982D01*
X0406007Y0025481D02*
X0467510Y0025481D01*
X0467626Y0026979D02*
X0404508Y0026979D01*
X0403010Y0028478D02*
X0468246Y0028478D01*
X0469090Y0029976D02*
X0401511Y0029976D01*
X0375151Y0032973D02*
X0344100Y0032973D01*
X0327119Y0032973D02*
X0312600Y0032973D01*
X0312600Y0031475D02*
X0325257Y0031475D01*
X0344100Y0040466D02*
X0455759Y0040466D01*
X0455400Y0041964D02*
X0344100Y0041964D01*
X0344100Y0043463D02*
X0455400Y0043463D01*
X0455400Y0044961D02*
X0344100Y0044961D01*
X0344100Y0046460D02*
X0455400Y0046460D01*
X0455400Y0047958D02*
X0344100Y0047958D01*
X0344100Y0049457D02*
X0455400Y0049457D01*
X0455400Y0050955D02*
X0344100Y0050955D01*
X0344100Y0052454D02*
X0455400Y0052454D01*
X0455400Y0053952D02*
X0344100Y0053952D01*
X0344100Y0055451D02*
X0455400Y0055451D01*
X0455400Y0056949D02*
X0344100Y0056949D01*
X0344100Y0058448D02*
X0455400Y0058448D01*
X0455400Y0059946D02*
X0344100Y0059946D01*
X0344100Y0061445D02*
X0455400Y0061445D01*
X0455400Y0062943D02*
X0344100Y0062943D01*
X0344100Y0064442D02*
X0455400Y0064442D01*
X0455400Y0065940D02*
X0344100Y0065940D01*
X0344100Y0067439D02*
X0455400Y0067439D01*
X0455400Y0068937D02*
X0344100Y0068937D01*
X0327697Y0085421D02*
X0250887Y0085421D01*
X0250887Y0086920D02*
X0325496Y0086920D01*
X0313260Y0088418D02*
X0250887Y0088418D01*
X0250887Y0089917D02*
X0311761Y0089917D01*
X0306085Y0091415D02*
X0299793Y0091415D01*
X0299793Y0092914D02*
X0306085Y0092914D01*
X0306085Y0094412D02*
X0299793Y0094412D01*
X0299793Y0095911D02*
X0306085Y0095911D01*
X0306085Y0097409D02*
X0299793Y0097409D01*
X0299793Y0098908D02*
X0306085Y0098908D01*
X0307840Y0100406D02*
X0297050Y0100406D01*
X0297050Y0101905D02*
X0308917Y0101905D01*
X0310416Y0103403D02*
X0297050Y0103403D01*
X0297050Y0104902D02*
X0311914Y0104902D01*
X0313413Y0106400D02*
X0299850Y0106400D01*
X0299850Y0107899D02*
X0314911Y0107899D01*
X0316410Y0109397D02*
X0308188Y0109397D01*
X0309686Y0110896D02*
X0317268Y0110896D01*
X0316538Y0112394D02*
X0311185Y0112394D01*
X0312683Y0113893D02*
X0316246Y0113893D01*
X0316293Y0115391D02*
X0314182Y0115391D01*
X0315680Y0116890D02*
X0316913Y0116890D01*
X0317179Y0118388D02*
X0318174Y0118388D01*
X0312596Y0119887D02*
X0258772Y0119887D01*
X0258900Y0118388D02*
X0311098Y0118388D01*
X0309599Y0116890D02*
X0258900Y0116890D01*
X0258900Y0115391D02*
X0271548Y0115391D01*
X0271382Y0115347D02*
X0270868Y0115050D01*
X0270450Y0114632D01*
X0270153Y0114118D01*
X0270000Y0113546D01*
X0270000Y0111250D01*
X0273500Y0111250D01*
X0273500Y0115500D01*
X0271954Y0115500D01*
X0271382Y0115347D01*
X0270093Y0113893D02*
X0258900Y0113893D01*
X0258900Y0112394D02*
X0270000Y0112394D01*
X0270000Y0110750D02*
X0270000Y0108454D01*
X0270153Y0107882D01*
X0270450Y0107368D01*
X0270868Y0106950D01*
X0271382Y0106653D01*
X0271954Y0106500D01*
X0273500Y0106500D01*
X0273500Y0110750D01*
X0274000Y0110750D01*
X0274000Y0106500D01*
X0275546Y0106500D01*
X0276118Y0106653D01*
X0276632Y0106950D01*
X0277050Y0107368D01*
X0277347Y0107882D01*
X0277400Y0108081D01*
X0277400Y0107984D01*
X0278484Y0106900D01*
X0278600Y0106900D01*
X0278600Y0105100D01*
X0278484Y0105100D01*
X0277400Y0104016D01*
X0277400Y0097984D01*
X0278484Y0096900D01*
X0283016Y0096900D01*
X0284100Y0097984D01*
X0284100Y0104016D01*
X0283016Y0105100D01*
X0282900Y0105100D01*
X0282900Y0106900D01*
X0283016Y0106900D01*
X0284100Y0107984D01*
X0284100Y0108850D01*
X0285241Y0108850D01*
X0285431Y0108659D01*
X0285325Y0108631D01*
X0284925Y0108400D01*
X0284600Y0108075D01*
X0284369Y0107675D01*
X0284250Y0107230D01*
X0284250Y0105250D01*
X0288000Y0105250D01*
X0288000Y0104750D01*
X0288500Y0104750D01*
X0288500Y0105250D01*
X0292250Y0105250D01*
X0292250Y0107230D01*
X0292131Y0107675D01*
X0291900Y0108075D01*
X0291575Y0108400D01*
X0291175Y0108631D01*
X0291069Y0108659D01*
X0291850Y0109441D01*
X0291850Y0114559D01*
X0291059Y0115350D01*
X0285441Y0115350D01*
X0284650Y0114559D01*
X0284650Y0113150D01*
X0284100Y0113150D01*
X0284100Y0114016D01*
X0283016Y0115100D01*
X0278484Y0115100D01*
X0277400Y0114016D01*
X0277400Y0113919D01*
X0277347Y0114118D01*
X0277050Y0114632D01*
X0276632Y0115050D01*
X0276118Y0115347D01*
X0275546Y0115500D01*
X0274000Y0115500D01*
X0274000Y0111250D01*
X0273500Y0111250D01*
X0273500Y0110750D01*
X0270000Y0110750D01*
X0270000Y0109397D02*
X0258900Y0109397D01*
X0258900Y0107899D02*
X0270149Y0107899D01*
X0273500Y0107899D02*
X0274000Y0107899D01*
X0274000Y0109397D02*
X0273500Y0109397D01*
X0273500Y0110896D02*
X0258900Y0110896D01*
X0254600Y0110896D02*
X0241405Y0110896D01*
X0241832Y0112394D02*
X0254600Y0112394D01*
X0254600Y0113893D02*
X0241832Y0113893D01*
X0241832Y0115391D02*
X0254600Y0115391D01*
X0253432Y0116890D02*
X0241832Y0116890D01*
X0241791Y0118388D02*
X0252619Y0118388D01*
X0252728Y0119887D02*
X0241648Y0119887D01*
X0241648Y0121385D02*
X0253707Y0121385D01*
X0257793Y0121385D02*
X0314095Y0121385D01*
X0315593Y0122884D02*
X0241648Y0122884D01*
X0241648Y0124382D02*
X0317092Y0124382D01*
X0318590Y0125881D02*
X0241648Y0125881D01*
X0241648Y0127379D02*
X0320089Y0127379D01*
X0321587Y0128878D02*
X0241648Y0128878D01*
X0241648Y0130376D02*
X0323086Y0130376D01*
X0324584Y0131875D02*
X0241648Y0131875D01*
X0241648Y0133373D02*
X0326083Y0133373D01*
X0324886Y0134872D02*
X0310892Y0134872D01*
X0312390Y0136370D02*
X0324265Y0136370D01*
X0324120Y0137869D02*
X0313313Y0137869D01*
X0313934Y0139368D02*
X0324313Y0139368D01*
X0324934Y0140866D02*
X0314012Y0140866D01*
X0314012Y0142365D02*
X0326402Y0142365D01*
X0338400Y0148359D02*
X0241648Y0148359D01*
X0241648Y0146860D02*
X0302340Y0146860D01*
X0300842Y0145362D02*
X0241648Y0145362D01*
X0241648Y0143863D02*
X0300076Y0143863D01*
X0299488Y0142365D02*
X0241648Y0142365D01*
X0241648Y0140866D02*
X0299488Y0140866D01*
X0299566Y0139368D02*
X0241648Y0139368D01*
X0241648Y0137869D02*
X0300187Y0137869D01*
X0301110Y0136370D02*
X0241648Y0136370D01*
X0241648Y0134872D02*
X0302608Y0134872D01*
X0345100Y0134872D02*
X0372918Y0134872D01*
X0372987Y0134705D02*
X0374529Y0133162D01*
X0376545Y0132327D01*
X0378727Y0132327D01*
X0380742Y0133162D01*
X0382285Y0134705D01*
X0383120Y0136720D01*
X0383120Y0138902D01*
X0382285Y0140917D01*
X0380742Y0142460D01*
X0378727Y0143295D01*
X0376545Y0143295D01*
X0374529Y0142460D01*
X0372987Y0140917D01*
X0372152Y0138902D01*
X0372152Y0136720D01*
X0372987Y0134705D01*
X0372297Y0136370D02*
X0345100Y0136370D01*
X0345100Y0137869D02*
X0372152Y0137869D01*
X0372345Y0139368D02*
X0345100Y0139368D01*
X0345100Y0140866D02*
X0372966Y0140866D01*
X0374434Y0142365D02*
X0345100Y0142365D01*
X0345100Y0143863D02*
X0425351Y0143863D01*
X0423853Y0145362D02*
X0345100Y0145362D01*
X0345100Y0146860D02*
X0422354Y0146860D01*
X0420856Y0148359D02*
X0345100Y0148359D01*
X0345100Y0149857D02*
X0419357Y0149857D01*
X0417859Y0151356D02*
X0345100Y0151356D01*
X0344608Y0152854D02*
X0416360Y0152854D01*
X0414862Y0154353D02*
X0343135Y0154353D01*
X0341621Y0155851D02*
X0413363Y0155851D01*
X0411865Y0157350D02*
X0255100Y0157350D01*
X0248400Y0157350D02*
X0224711Y0157350D01*
X0224958Y0155851D02*
X0239879Y0155851D01*
X0239406Y0160347D02*
X0238905Y0160347D01*
X0238905Y0161845D02*
X0239406Y0161845D01*
X0239406Y0163344D02*
X0238905Y0163344D01*
X0239406Y0164842D02*
X0248400Y0164842D01*
X0248400Y0163344D02*
X0244368Y0163344D01*
X0243646Y0161845D02*
X0248400Y0161845D01*
X0248400Y0160347D02*
X0242110Y0160347D01*
X0248400Y0158848D02*
X0219601Y0158848D01*
X0219601Y0160347D02*
X0224437Y0160347D01*
X0224106Y0161845D02*
X0219601Y0161845D01*
X0219601Y0163344D02*
X0224106Y0163344D01*
X0224106Y0164842D02*
X0219601Y0164842D01*
X0215301Y0163344D02*
X0191100Y0163344D01*
X0191100Y0164842D02*
X0208041Y0164842D01*
X0207650Y0166341D02*
X0191100Y0166341D01*
X0191100Y0167839D02*
X0207650Y0167839D01*
X0207650Y0169338D02*
X0191100Y0169338D01*
X0192324Y0170836D02*
X0208720Y0170836D01*
X0214780Y0170836D02*
X0247176Y0170836D01*
X0248400Y0169338D02*
X0242371Y0169338D01*
X0243783Y0167839D02*
X0248400Y0167839D01*
X0248400Y0166341D02*
X0244430Y0166341D01*
X0239406Y0166341D02*
X0238905Y0166341D01*
X0238905Y0167839D02*
X0239406Y0167839D01*
X0239406Y0169338D02*
X0238905Y0169338D01*
X0235941Y0169338D02*
X0234064Y0169338D01*
X0234205Y0167839D02*
X0234528Y0167839D01*
X0234665Y0161845D02*
X0234205Y0161845D01*
X0233874Y0160347D02*
X0236201Y0160347D01*
X0215301Y0160347D02*
X0191100Y0160347D01*
X0191100Y0161845D02*
X0215301Y0161845D01*
X0215301Y0158848D02*
X0191100Y0158848D01*
X0191100Y0157350D02*
X0204789Y0157350D01*
X0204542Y0155851D02*
X0202052Y0155851D01*
X0197448Y0155851D02*
X0196617Y0155851D01*
X0193875Y0155851D02*
X0193625Y0155851D01*
X0193625Y0154353D02*
X0193875Y0154353D01*
X0193875Y0152854D02*
X0193625Y0152854D01*
X0193625Y0151356D02*
X0193875Y0151356D01*
X0193875Y0149857D02*
X0193625Y0149857D01*
X0191233Y0149857D02*
X0191100Y0149857D01*
X0191100Y0148359D02*
X0201600Y0148359D01*
X0201600Y0149857D02*
X0196267Y0149857D01*
X0191100Y0146860D02*
X0201600Y0146860D01*
X0201600Y0145362D02*
X0191100Y0145362D01*
X0191100Y0143863D02*
X0201600Y0143863D01*
X0201600Y0142365D02*
X0191100Y0142365D01*
X0191100Y0140866D02*
X0201600Y0140866D01*
X0201600Y0139368D02*
X0191100Y0139368D01*
X0191100Y0137869D02*
X0201600Y0137869D01*
X0201600Y0136370D02*
X0191100Y0136370D01*
X0190360Y0134872D02*
X0201600Y0134872D01*
X0201600Y0133373D02*
X0188861Y0133373D01*
X0184400Y0139368D02*
X0145100Y0139368D01*
X0145100Y0140866D02*
X0184400Y0140866D01*
X0184400Y0142365D02*
X0145100Y0142365D01*
X0145100Y0143863D02*
X0184400Y0143863D01*
X0184400Y0145362D02*
X0145100Y0145362D01*
X0145100Y0146860D02*
X0184400Y0146860D01*
X0184400Y0148359D02*
X0145100Y0148359D01*
X0145100Y0149857D02*
X0184400Y0149857D01*
X0184400Y0151356D02*
X0145100Y0151356D01*
X0145100Y0152854D02*
X0184400Y0152854D01*
X0184400Y0154353D02*
X0145100Y0154353D01*
X0145167Y0155851D02*
X0184400Y0155851D01*
X0184400Y0157350D02*
X0144889Y0157350D01*
X0143734Y0158848D02*
X0184400Y0158848D01*
X0211719Y0157350D02*
X0215301Y0157350D01*
X0215301Y0155851D02*
X0211966Y0155851D01*
X0211966Y0154353D02*
X0215301Y0154353D01*
X0215301Y0152854D02*
X0211966Y0152854D01*
X0211966Y0151356D02*
X0215301Y0151356D01*
X0215301Y0149857D02*
X0211966Y0149857D01*
X0211427Y0148359D02*
X0215301Y0148359D01*
X0215301Y0146860D02*
X0205900Y0146860D01*
X0205900Y0145362D02*
X0215301Y0145362D01*
X0215301Y0143863D02*
X0205900Y0143863D01*
X0205900Y0142365D02*
X0207519Y0142365D01*
X0207250Y0140866D02*
X0205900Y0140866D01*
X0205900Y0139368D02*
X0207250Y0139368D01*
X0207392Y0137869D02*
X0205900Y0137869D01*
X0205900Y0136370D02*
X0207968Y0136370D01*
X0207650Y0134872D02*
X0205900Y0134872D01*
X0205900Y0133373D02*
X0207650Y0133373D01*
X0207722Y0131875D02*
X0205900Y0131875D01*
X0205900Y0130376D02*
X0208600Y0130376D01*
X0208600Y0128878D02*
X0205900Y0128878D01*
X0205900Y0127379D02*
X0208600Y0127379D01*
X0208600Y0125881D02*
X0205900Y0125881D01*
X0205900Y0124382D02*
X0208600Y0124382D01*
X0208600Y0122884D02*
X0205900Y0122884D01*
X0206405Y0121385D02*
X0209324Y0121385D01*
X0207904Y0119887D02*
X0210823Y0119887D01*
X0211152Y0118388D02*
X0211152Y0118388D01*
X0211152Y0116890D02*
X0211152Y0116890D01*
X0211152Y0115391D02*
X0211152Y0115391D01*
X0211152Y0113893D02*
X0211152Y0113893D01*
X0211152Y0112394D02*
X0211152Y0112394D01*
X0211152Y0110896D02*
X0211152Y0110896D01*
X0219601Y0119887D02*
X0237348Y0119887D01*
X0237348Y0121385D02*
X0219601Y0121385D01*
X0219601Y0122884D02*
X0237348Y0122884D01*
X0237348Y0124382D02*
X0219601Y0124382D01*
X0219601Y0125881D02*
X0237348Y0125881D01*
X0237348Y0127379D02*
X0219601Y0127379D01*
X0219601Y0128878D02*
X0237348Y0128878D01*
X0237348Y0130376D02*
X0219601Y0130376D01*
X0219601Y0131875D02*
X0237348Y0131875D01*
X0237348Y0133373D02*
X0219601Y0133373D01*
X0219601Y0134872D02*
X0237348Y0134872D01*
X0237348Y0136370D02*
X0219601Y0136370D01*
X0219601Y0137869D02*
X0237348Y0137869D01*
X0237348Y0139368D02*
X0219601Y0139368D01*
X0219601Y0140866D02*
X0237348Y0140866D01*
X0237348Y0142365D02*
X0219601Y0142365D01*
X0219601Y0143863D02*
X0237348Y0143863D01*
X0237348Y0145362D02*
X0219601Y0145362D01*
X0219601Y0146860D02*
X0237348Y0146860D01*
X0237348Y0148359D02*
X0224419Y0148359D01*
X0224958Y0149857D02*
X0236783Y0149857D01*
X0215301Y0142365D02*
X0213981Y0142365D01*
X0214250Y0140866D02*
X0215301Y0140866D01*
X0215301Y0139368D02*
X0214250Y0139368D01*
X0214108Y0137869D02*
X0215301Y0137869D01*
X0215301Y0136370D02*
X0213532Y0136370D01*
X0213850Y0134872D02*
X0215301Y0134872D01*
X0215301Y0133373D02*
X0213850Y0133373D01*
X0213778Y0131875D02*
X0215301Y0131875D01*
X0215301Y0130376D02*
X0212900Y0130376D01*
X0212900Y0128878D02*
X0215301Y0128878D01*
X0215301Y0127379D02*
X0212900Y0127379D01*
X0212900Y0125881D02*
X0215301Y0125881D01*
X0215301Y0124382D02*
X0212900Y0124382D01*
X0213907Y0122884D02*
X0215301Y0122884D01*
X0236348Y0118388D02*
X0236348Y0118388D01*
X0236348Y0116890D02*
X0236348Y0116890D01*
X0236348Y0115391D02*
X0236348Y0115391D01*
X0236348Y0113893D02*
X0236348Y0113893D01*
X0236348Y0112394D02*
X0236348Y0112394D01*
X0236348Y0110896D02*
X0236348Y0110896D01*
X0250782Y0109397D02*
X0254600Y0109397D01*
X0254600Y0107899D02*
X0250887Y0107899D01*
X0258900Y0106400D02*
X0278600Y0106400D01*
X0278285Y0104902D02*
X0276215Y0104902D01*
X0277100Y0103403D02*
X0277400Y0103403D01*
X0277400Y0101905D02*
X0277100Y0101905D01*
X0277100Y0100406D02*
X0277400Y0100406D01*
X0277400Y0098908D02*
X0277100Y0098908D01*
X0276525Y0097409D02*
X0277975Y0097409D01*
X0283525Y0097409D02*
X0290006Y0097409D01*
X0290006Y0095911D02*
X0271701Y0095911D01*
X0270203Y0094412D02*
X0290006Y0094412D01*
X0290006Y0092914D02*
X0250887Y0092914D01*
X0250887Y0091415D02*
X0290006Y0091415D01*
X0290006Y0098908D02*
X0284100Y0098908D01*
X0284100Y0100406D02*
X0292750Y0100406D01*
X0292750Y0101905D02*
X0291880Y0101905D01*
X0291900Y0101925D02*
X0292131Y0102325D01*
X0292250Y0102770D01*
X0292250Y0104750D01*
X0288500Y0104750D01*
X0288500Y0101250D01*
X0290730Y0101250D01*
X0291175Y0101369D01*
X0291575Y0101600D01*
X0291900Y0101925D01*
X0292250Y0103403D02*
X0292750Y0103403D01*
X0292750Y0104902D02*
X0288500Y0104902D01*
X0288000Y0104902D02*
X0283215Y0104902D01*
X0284250Y0104750D02*
X0284250Y0102770D01*
X0284369Y0102325D01*
X0284600Y0101925D01*
X0284925Y0101600D01*
X0285325Y0101369D01*
X0285770Y0101250D01*
X0288000Y0101250D01*
X0288000Y0104750D01*
X0284250Y0104750D01*
X0284250Y0103403D02*
X0284100Y0103403D01*
X0284100Y0101905D02*
X0284620Y0101905D01*
X0288000Y0101905D02*
X0288500Y0101905D01*
X0288500Y0103403D02*
X0288000Y0103403D01*
X0284250Y0106400D02*
X0282900Y0106400D01*
X0284015Y0107899D02*
X0284498Y0107899D01*
X0277485Y0107899D02*
X0277351Y0107899D01*
X0274000Y0112394D02*
X0273500Y0112394D01*
X0273500Y0113893D02*
X0274000Y0113893D01*
X0274000Y0115391D02*
X0273500Y0115391D01*
X0275952Y0115391D02*
X0308101Y0115391D01*
X0306602Y0113893D02*
X0291850Y0113893D01*
X0291850Y0112394D02*
X0297104Y0112394D01*
X0292650Y0110896D02*
X0291850Y0110896D01*
X0291806Y0109397D02*
X0292650Y0109397D01*
X0292650Y0107899D02*
X0292002Y0107899D01*
X0292250Y0106400D02*
X0292650Y0106400D01*
X0284650Y0113893D02*
X0284100Y0113893D01*
X0271285Y0104902D02*
X0258692Y0104902D01*
X0257194Y0103403D02*
X0270400Y0103403D01*
X0270400Y0101905D02*
X0250887Y0101905D01*
X0250887Y0100406D02*
X0270116Y0100406D01*
X0268617Y0098908D02*
X0250887Y0098908D01*
X0250887Y0097409D02*
X0267119Y0097409D01*
X0261363Y0079427D02*
X0281282Y0079427D01*
X0282781Y0077929D02*
X0262862Y0077929D01*
X0259778Y0074932D02*
X0251259Y0074932D01*
X0251287Y0076430D02*
X0258279Y0076430D01*
X0260650Y0073433D02*
X0241077Y0073433D01*
X0241832Y0071934D02*
X0260663Y0071934D01*
X0260560Y0070436D02*
X0241832Y0070436D01*
X0241832Y0068937D02*
X0260250Y0068937D01*
X0260250Y0067439D02*
X0241832Y0067439D01*
X0241832Y0065940D02*
X0260373Y0065940D01*
X0263625Y0065940D02*
X0263875Y0065940D01*
X0263875Y0067439D02*
X0263625Y0067439D01*
X0267250Y0067439D02*
X0268250Y0067439D01*
X0268250Y0068937D02*
X0267250Y0068937D01*
X0266940Y0070436D02*
X0268560Y0070436D01*
X0271625Y0067439D02*
X0271875Y0067439D01*
X0271875Y0065940D02*
X0271625Y0065940D01*
X0268373Y0065940D02*
X0267127Y0065940D01*
X0263315Y0062943D02*
X0262453Y0062943D01*
X0262453Y0061445D02*
X0263315Y0061445D01*
X0263315Y0059946D02*
X0262453Y0059946D01*
X0262453Y0058569D02*
X0258772Y0058569D01*
X0258772Y0056407D01*
X0258891Y0055962D01*
X0259121Y0055563D01*
X0259447Y0055237D01*
X0259846Y0055007D01*
X0260291Y0054888D01*
X0262453Y0054888D01*
X0262453Y0058569D01*
X0262453Y0058448D02*
X0263315Y0058448D01*
X0263315Y0056949D02*
X0262453Y0056949D01*
X0262453Y0055451D02*
X0263315Y0055451D01*
X0259234Y0055451D02*
X0257701Y0055451D01*
X0258328Y0056949D02*
X0258772Y0056949D01*
X0258772Y0058448D02*
X0258328Y0058448D01*
X0258328Y0059946D02*
X0258772Y0059946D01*
X0258772Y0061445D02*
X0258328Y0061445D01*
X0259760Y0062943D02*
X0250673Y0062943D01*
X0251067Y0055451D02*
X0251532Y0055451D01*
X0282923Y0073433D02*
X0283951Y0073433D01*
X0283400Y0074932D02*
X0281425Y0074932D01*
X0279547Y0076430D02*
X0283400Y0076430D01*
X0246585Y0074932D02*
X0246585Y0074932D01*
X0196213Y0094412D02*
X0187378Y0094412D01*
X0185880Y0095911D02*
X0196213Y0095911D01*
X0186300Y0097409D02*
X0184381Y0097409D01*
X0184802Y0098908D02*
X0173995Y0098908D01*
X0175023Y0100406D02*
X0183303Y0100406D01*
X0165875Y0094412D02*
X0165625Y0094412D01*
X0165625Y0092914D02*
X0165875Y0092914D01*
X0164375Y0091415D02*
X0184294Y0091415D01*
X0182796Y0092914D02*
X0173817Y0092914D01*
X0169683Y0092914D02*
X0168365Y0092914D01*
X0163135Y0092914D02*
X0162877Y0092914D01*
X0162250Y0094412D02*
X0161378Y0094412D01*
X0156796Y0092914D02*
X0154877Y0092914D01*
X0155297Y0094412D02*
X0153378Y0094412D01*
X0153799Y0095911D02*
X0151880Y0095911D01*
X0152300Y0097409D02*
X0150381Y0097409D01*
X0150802Y0098908D02*
X0148883Y0098908D01*
X0149303Y0100406D02*
X0147384Y0100406D01*
X0147805Y0101905D02*
X0145886Y0101905D01*
X0146306Y0103403D02*
X0144387Y0103403D01*
X0144808Y0104902D02*
X0142889Y0104902D01*
X0144477Y0091415D02*
X0150294Y0091415D01*
X0151793Y0089917D02*
X0145975Y0089917D01*
X0146800Y0088418D02*
X0153291Y0088418D01*
X0154790Y0086920D02*
X0146800Y0086920D01*
X0146800Y0085421D02*
X0156288Y0085421D01*
X0157787Y0083923D02*
X0145814Y0083923D01*
X0144316Y0082424D02*
X0191134Y0082424D01*
X0189635Y0080926D02*
X0144966Y0080926D01*
X0146465Y0079427D02*
X0188137Y0079427D01*
X0161291Y0088418D02*
X0159372Y0088418D01*
X0159793Y0089917D02*
X0157874Y0089917D01*
X0158294Y0091415D02*
X0156375Y0091415D01*
X0071134Y0124382D02*
X0070577Y0124382D01*
X0057834Y0131875D02*
X0054916Y0131875D01*
X0040850Y0127379D02*
X0004250Y0127379D01*
X0004250Y0125881D02*
X0040850Y0125881D01*
X0039092Y0124382D02*
X0004250Y0124382D01*
X0004250Y0122884D02*
X0037593Y0122884D01*
X0036600Y0121385D02*
X0004250Y0121385D01*
X0004250Y0119887D02*
X0036600Y0119887D01*
X0036600Y0118388D02*
X0004250Y0118388D01*
X0004250Y0116890D02*
X0036600Y0116890D01*
X0037318Y0115391D02*
X0004250Y0115391D01*
X0004250Y0113893D02*
X0038817Y0113893D01*
X0049315Y0112394D02*
X0004250Y0112394D01*
X0004250Y0110896D02*
X0049600Y0110896D01*
X0030832Y0128878D02*
X0004250Y0128878D01*
X0004250Y0130376D02*
X0029333Y0130376D01*
X0027834Y0131875D02*
X0004250Y0131875D01*
X0004250Y0133373D02*
X0026336Y0133373D01*
X0024837Y0134872D02*
X0004250Y0134872D01*
X0004250Y0136370D02*
X0024155Y0136370D01*
X0024155Y0137869D02*
X0004250Y0137869D01*
X0004250Y0139368D02*
X0024155Y0139368D01*
X0022945Y0140866D02*
X0004250Y0140866D01*
X0004250Y0142365D02*
X0021785Y0142365D01*
X0021255Y0143863D02*
X0004250Y0143863D01*
X0004250Y0145362D02*
X0021255Y0145362D01*
X0021755Y0146860D02*
X0004250Y0146860D01*
X0004250Y0148359D02*
X0022873Y0148359D01*
X0024040Y0151356D02*
X0004250Y0151356D01*
X0004250Y0152854D02*
X0023255Y0152854D01*
X0022991Y0154353D02*
X0004250Y0154353D01*
X0004250Y0155851D02*
X0023136Y0155851D01*
X0023757Y0157350D02*
X0004250Y0157350D01*
X0004250Y0158848D02*
X0025350Y0158848D01*
X0026046Y0149857D02*
X0004250Y0149857D01*
X0061115Y0149857D02*
X0071099Y0149857D01*
X0070479Y0151356D02*
X0063257Y0151356D01*
X0063984Y0152854D02*
X0070020Y0152854D01*
X0069708Y0154353D02*
X0064100Y0154353D01*
X0064100Y0155851D02*
X0069537Y0155851D01*
X0169712Y0169338D02*
X0184400Y0169338D01*
X0184400Y0170836D02*
X0171099Y0170836D01*
X0171492Y0172335D02*
X0184677Y0172335D01*
X0185846Y0173833D02*
X0171492Y0173833D01*
X0171492Y0175332D02*
X0187344Y0175332D01*
X0188843Y0176830D02*
X0171492Y0176830D01*
X0210625Y0142365D02*
X0210875Y0142365D01*
X0210875Y0140866D02*
X0210625Y0140866D01*
X0345100Y0133373D02*
X0374318Y0133373D01*
X0380954Y0133373D02*
X0435841Y0133373D01*
X0437340Y0131875D02*
X0345100Y0131875D01*
X0345100Y0130376D02*
X0438838Y0130376D01*
X0440337Y0128878D02*
X0345100Y0128878D01*
X0345100Y0127379D02*
X0441835Y0127379D01*
X0443334Y0125881D02*
X0345100Y0125881D01*
X0345100Y0124382D02*
X0444832Y0124382D01*
X0446331Y0122884D02*
X0345100Y0122884D01*
X0345100Y0121385D02*
X0447829Y0121385D01*
X0449328Y0119887D02*
X0344915Y0119887D01*
X0382354Y0134872D02*
X0434342Y0134872D01*
X0432844Y0136370D02*
X0382975Y0136370D01*
X0383120Y0137869D02*
X0431345Y0137869D01*
X0429847Y0139368D02*
X0382927Y0139368D01*
X0382306Y0140866D02*
X0428348Y0140866D01*
X0426850Y0142365D02*
X0380838Y0142365D01*
X0456574Y0092914D02*
X0542821Y0092914D01*
X0542821Y0091415D02*
X0458072Y0091415D01*
X0456590Y0092898D02*
X0456590Y0092898D01*
X0459571Y0089917D02*
X0542821Y0089917D01*
X0454591Y0085421D02*
X0379543Y0085421D01*
X0381744Y0086920D02*
X0453093Y0086920D01*
X0479405Y0040466D02*
X0484441Y0040466D01*
X0483300Y0038967D02*
X0480546Y0038967D01*
X0480927Y0037469D02*
X0482920Y0037469D01*
X0483095Y0035970D02*
X0480752Y0035970D01*
X0479902Y0034472D02*
X0483731Y0034472D01*
X0490431Y0034472D02*
X0542821Y0034472D01*
X0542821Y0035970D02*
X0491067Y0035970D01*
X0491242Y0037469D02*
X0542821Y0037469D01*
X0542821Y0038967D02*
X0490861Y0038967D01*
X0489720Y0040466D02*
X0542821Y0040466D01*
X0542821Y0032973D02*
X0499409Y0032973D01*
X0496091Y0032973D02*
X0490431Y0032973D01*
X0490431Y0031475D02*
X0492950Y0031475D01*
X0491452Y0029976D02*
X0490431Y0029976D01*
X0490431Y0028478D02*
X0490608Y0028478D01*
X0502550Y0031475D02*
X0542821Y0031475D01*
X0542821Y0029976D02*
X0504048Y0029976D01*
X0504892Y0028478D02*
X0542821Y0028478D01*
X0542821Y0026979D02*
X0505512Y0026979D01*
X0505628Y0025481D02*
X0542821Y0025481D01*
X0542821Y0023982D02*
X0505628Y0023982D01*
X0505179Y0022484D02*
X0542821Y0022484D01*
X0542821Y0020985D02*
X0504558Y0020985D01*
X0503243Y0019487D02*
X0542821Y0019487D01*
X0542821Y0017988D02*
X0501084Y0017988D01*
X0494416Y0017988D02*
X0490431Y0017988D01*
X0490431Y0019487D02*
X0492257Y0019487D01*
X0490942Y0020985D02*
X0490431Y0020985D01*
X0490358Y0016490D02*
X0542821Y0016490D01*
X0542821Y0014991D02*
X0489479Y0014991D01*
X0487980Y0013493D02*
X0542821Y0013493D01*
X0542821Y0011994D02*
X0486482Y0011994D01*
X0320025Y0046460D02*
X0315987Y0046460D01*
X0317485Y0047958D02*
X0317706Y0047958D01*
D11*
X0301238Y0141000D02*
X0301240Y0141148D01*
X0301246Y0141296D01*
X0301256Y0141444D01*
X0301270Y0141591D01*
X0301288Y0141738D01*
X0301309Y0141884D01*
X0301335Y0142030D01*
X0301365Y0142175D01*
X0301398Y0142319D01*
X0301436Y0142462D01*
X0301477Y0142604D01*
X0301522Y0142745D01*
X0301570Y0142885D01*
X0301623Y0143024D01*
X0301679Y0143161D01*
X0301739Y0143296D01*
X0301802Y0143430D01*
X0301869Y0143562D01*
X0301940Y0143692D01*
X0302014Y0143820D01*
X0302091Y0143946D01*
X0302172Y0144070D01*
X0302256Y0144192D01*
X0302343Y0144311D01*
X0302434Y0144428D01*
X0302528Y0144543D01*
X0302624Y0144655D01*
X0302724Y0144765D01*
X0302826Y0144871D01*
X0302932Y0144975D01*
X0303040Y0145076D01*
X0303151Y0145174D01*
X0303264Y0145270D01*
X0303380Y0145362D01*
X0303498Y0145451D01*
X0303619Y0145536D01*
X0303742Y0145619D01*
X0303867Y0145698D01*
X0303994Y0145774D01*
X0304123Y0145846D01*
X0304254Y0145915D01*
X0304387Y0145980D01*
X0304522Y0146041D01*
X0304658Y0146099D01*
X0304795Y0146154D01*
X0304934Y0146204D01*
X0305075Y0146251D01*
X0305216Y0146294D01*
X0305359Y0146334D01*
X0305503Y0146369D01*
X0305647Y0146401D01*
X0305793Y0146428D01*
X0305939Y0146452D01*
X0306086Y0146472D01*
X0306233Y0146488D01*
X0306380Y0146500D01*
X0306528Y0146508D01*
X0306676Y0146512D01*
X0306824Y0146512D01*
X0306972Y0146508D01*
X0307120Y0146500D01*
X0307267Y0146488D01*
X0307414Y0146472D01*
X0307561Y0146452D01*
X0307707Y0146428D01*
X0307853Y0146401D01*
X0307997Y0146369D01*
X0308141Y0146334D01*
X0308284Y0146294D01*
X0308425Y0146251D01*
X0308566Y0146204D01*
X0308705Y0146154D01*
X0308842Y0146099D01*
X0308978Y0146041D01*
X0309113Y0145980D01*
X0309246Y0145915D01*
X0309377Y0145846D01*
X0309506Y0145774D01*
X0309633Y0145698D01*
X0309758Y0145619D01*
X0309881Y0145536D01*
X0310002Y0145451D01*
X0310120Y0145362D01*
X0310236Y0145270D01*
X0310349Y0145174D01*
X0310460Y0145076D01*
X0310568Y0144975D01*
X0310674Y0144871D01*
X0310776Y0144765D01*
X0310876Y0144655D01*
X0310972Y0144543D01*
X0311066Y0144428D01*
X0311157Y0144311D01*
X0311244Y0144192D01*
X0311328Y0144070D01*
X0311409Y0143946D01*
X0311486Y0143820D01*
X0311560Y0143692D01*
X0311631Y0143562D01*
X0311698Y0143430D01*
X0311761Y0143296D01*
X0311821Y0143161D01*
X0311877Y0143024D01*
X0311930Y0142885D01*
X0311978Y0142745D01*
X0312023Y0142604D01*
X0312064Y0142462D01*
X0312102Y0142319D01*
X0312135Y0142175D01*
X0312165Y0142030D01*
X0312191Y0141884D01*
X0312212Y0141738D01*
X0312230Y0141591D01*
X0312244Y0141444D01*
X0312254Y0141296D01*
X0312260Y0141148D01*
X0312262Y0141000D01*
X0312260Y0140852D01*
X0312254Y0140704D01*
X0312244Y0140556D01*
X0312230Y0140409D01*
X0312212Y0140262D01*
X0312191Y0140116D01*
X0312165Y0139970D01*
X0312135Y0139825D01*
X0312102Y0139681D01*
X0312064Y0139538D01*
X0312023Y0139396D01*
X0311978Y0139255D01*
X0311930Y0139115D01*
X0311877Y0138976D01*
X0311821Y0138839D01*
X0311761Y0138704D01*
X0311698Y0138570D01*
X0311631Y0138438D01*
X0311560Y0138308D01*
X0311486Y0138180D01*
X0311409Y0138054D01*
X0311328Y0137930D01*
X0311244Y0137808D01*
X0311157Y0137689D01*
X0311066Y0137572D01*
X0310972Y0137457D01*
X0310876Y0137345D01*
X0310776Y0137235D01*
X0310674Y0137129D01*
X0310568Y0137025D01*
X0310460Y0136924D01*
X0310349Y0136826D01*
X0310236Y0136730D01*
X0310120Y0136638D01*
X0310002Y0136549D01*
X0309881Y0136464D01*
X0309758Y0136381D01*
X0309633Y0136302D01*
X0309506Y0136226D01*
X0309377Y0136154D01*
X0309246Y0136085D01*
X0309113Y0136020D01*
X0308978Y0135959D01*
X0308842Y0135901D01*
X0308705Y0135846D01*
X0308566Y0135796D01*
X0308425Y0135749D01*
X0308284Y0135706D01*
X0308141Y0135666D01*
X0307997Y0135631D01*
X0307853Y0135599D01*
X0307707Y0135572D01*
X0307561Y0135548D01*
X0307414Y0135528D01*
X0307267Y0135512D01*
X0307120Y0135500D01*
X0306972Y0135492D01*
X0306824Y0135488D01*
X0306676Y0135488D01*
X0306528Y0135492D01*
X0306380Y0135500D01*
X0306233Y0135512D01*
X0306086Y0135528D01*
X0305939Y0135548D01*
X0305793Y0135572D01*
X0305647Y0135599D01*
X0305503Y0135631D01*
X0305359Y0135666D01*
X0305216Y0135706D01*
X0305075Y0135749D01*
X0304934Y0135796D01*
X0304795Y0135846D01*
X0304658Y0135901D01*
X0304522Y0135959D01*
X0304387Y0136020D01*
X0304254Y0136085D01*
X0304123Y0136154D01*
X0303994Y0136226D01*
X0303867Y0136302D01*
X0303742Y0136381D01*
X0303619Y0136464D01*
X0303498Y0136549D01*
X0303380Y0136638D01*
X0303264Y0136730D01*
X0303151Y0136826D01*
X0303040Y0136924D01*
X0302932Y0137025D01*
X0302826Y0137129D01*
X0302724Y0137235D01*
X0302624Y0137345D01*
X0302528Y0137457D01*
X0302434Y0137572D01*
X0302343Y0137689D01*
X0302256Y0137808D01*
X0302172Y0137930D01*
X0302091Y0138054D01*
X0302014Y0138180D01*
X0301940Y0138308D01*
X0301869Y0138438D01*
X0301802Y0138570D01*
X0301739Y0138704D01*
X0301679Y0138839D01*
X0301623Y0138976D01*
X0301570Y0139115D01*
X0301522Y0139255D01*
X0301477Y0139396D01*
X0301436Y0139538D01*
X0301398Y0139681D01*
X0301365Y0139825D01*
X0301335Y0139970D01*
X0301309Y0140116D01*
X0301288Y0140262D01*
X0301270Y0140409D01*
X0301256Y0140556D01*
X0301246Y0140704D01*
X0301240Y0140852D01*
X0301238Y0141000D01*
D12*
X0309250Y0060539D03*
X0309250Y0044461D03*
D13*
X0295250Y0064750D02*
X0292250Y0064750D01*
X0292250Y0069250D01*
X0295250Y0069250D01*
X0295250Y0064750D01*
X0295250Y0065749D02*
X0292250Y0065749D01*
X0292250Y0066748D02*
X0295250Y0066748D01*
X0295250Y0067747D02*
X0292250Y0067747D01*
X0292250Y0068746D02*
X0295250Y0068746D01*
X0288250Y0064750D02*
X0285250Y0064750D01*
X0285250Y0069250D01*
X0288250Y0069250D01*
X0288250Y0064750D01*
X0288250Y0065749D02*
X0285250Y0065749D01*
X0285250Y0066748D02*
X0288250Y0066748D01*
X0288250Y0067747D02*
X0285250Y0067747D01*
X0285250Y0068746D02*
X0288250Y0068746D01*
X0288250Y0074750D02*
X0285250Y0074750D01*
X0285250Y0079250D01*
X0288250Y0079250D01*
X0288250Y0074750D01*
X0288250Y0075749D02*
X0285250Y0075749D01*
X0285250Y0076748D02*
X0288250Y0076748D01*
X0288250Y0077747D02*
X0285250Y0077747D01*
X0285250Y0078746D02*
X0288250Y0078746D01*
X0292250Y0074750D02*
X0295250Y0074750D01*
X0292250Y0074750D02*
X0292250Y0079250D01*
X0295250Y0079250D01*
X0295250Y0074750D01*
X0295250Y0075749D02*
X0292250Y0075749D01*
X0292250Y0076748D02*
X0295250Y0076748D01*
X0295250Y0077747D02*
X0292250Y0077747D01*
X0292250Y0078746D02*
X0295250Y0078746D01*
X0282250Y0098750D02*
X0279250Y0098750D01*
X0279250Y0103250D01*
X0282250Y0103250D01*
X0282250Y0098750D01*
X0282250Y0099749D02*
X0279250Y0099749D01*
X0279250Y0100748D02*
X0282250Y0100748D01*
X0282250Y0101747D02*
X0279250Y0101747D01*
X0279250Y0102746D02*
X0282250Y0102746D01*
X0275250Y0098750D02*
X0272250Y0098750D01*
X0272250Y0103250D01*
X0275250Y0103250D01*
X0275250Y0098750D01*
X0275250Y0099749D02*
X0272250Y0099749D01*
X0272250Y0100748D02*
X0275250Y0100748D01*
X0275250Y0101747D02*
X0272250Y0101747D01*
X0272250Y0102746D02*
X0275250Y0102746D01*
X0275250Y0108750D02*
X0272250Y0108750D01*
X0272250Y0113250D01*
X0275250Y0113250D01*
X0275250Y0108750D01*
X0275250Y0109749D02*
X0272250Y0109749D01*
X0272250Y0110748D02*
X0275250Y0110748D01*
X0275250Y0111747D02*
X0272250Y0111747D01*
X0272250Y0112746D02*
X0275250Y0112746D01*
X0279250Y0108750D02*
X0282250Y0108750D01*
X0279250Y0108750D02*
X0279250Y0113250D01*
X0282250Y0113250D01*
X0282250Y0108750D01*
X0282250Y0109749D02*
X0279250Y0109749D01*
X0279250Y0110748D02*
X0282250Y0110748D01*
X0282250Y0111747D02*
X0279250Y0111747D01*
X0279250Y0112746D02*
X0282250Y0112746D01*
X0173750Y0101750D02*
X0170750Y0101750D01*
X0170750Y0106250D01*
X0173750Y0106250D01*
X0173750Y0101750D01*
X0173750Y0102749D02*
X0170750Y0102749D01*
X0170750Y0103748D02*
X0173750Y0103748D01*
X0173750Y0104747D02*
X0170750Y0104747D01*
X0170750Y0105746D02*
X0173750Y0105746D01*
X0166750Y0101750D02*
X0163750Y0101750D01*
X0163750Y0106250D01*
X0166750Y0106250D01*
X0166750Y0101750D01*
X0166750Y0102749D02*
X0163750Y0102749D01*
X0163750Y0103748D02*
X0166750Y0103748D01*
X0166750Y0104747D02*
X0163750Y0104747D01*
X0163750Y0105746D02*
X0166750Y0105746D01*
X0166750Y0116250D02*
X0169750Y0116250D01*
X0169750Y0111750D01*
X0166750Y0111750D01*
X0166750Y0116250D01*
X0166750Y0112749D02*
X0169750Y0112749D01*
X0169750Y0113748D02*
X0166750Y0113748D01*
X0166750Y0114747D02*
X0169750Y0114747D01*
X0169750Y0115746D02*
X0166750Y0115746D01*
X0162750Y0116250D02*
X0159750Y0116250D01*
X0162750Y0116250D02*
X0162750Y0111750D01*
X0159750Y0111750D01*
X0159750Y0116250D01*
X0159750Y0112749D02*
X0162750Y0112749D01*
X0162750Y0113748D02*
X0159750Y0113748D01*
X0159750Y0114747D02*
X0162750Y0114747D01*
X0162750Y0115746D02*
X0159750Y0115746D01*
X0140750Y0108750D02*
X0137750Y0108750D01*
X0137750Y0113250D01*
X0140750Y0113250D01*
X0140750Y0108750D01*
X0140750Y0109749D02*
X0137750Y0109749D01*
X0137750Y0110748D02*
X0140750Y0110748D01*
X0140750Y0111747D02*
X0137750Y0111747D01*
X0137750Y0112746D02*
X0140750Y0112746D01*
X0133750Y0108750D02*
X0130750Y0108750D01*
X0130750Y0113250D01*
X0133750Y0113250D01*
X0133750Y0108750D01*
X0133750Y0109749D02*
X0130750Y0109749D01*
X0130750Y0110748D02*
X0133750Y0110748D01*
X0133750Y0111747D02*
X0130750Y0111747D01*
X0130750Y0112746D02*
X0133750Y0112746D01*
X0041000Y0079000D02*
X0041000Y0076000D01*
X0036500Y0076000D01*
X0036500Y0079000D01*
X0041000Y0079000D01*
X0041000Y0076999D02*
X0036500Y0076999D01*
X0036500Y0077998D02*
X0041000Y0077998D01*
X0041000Y0078997D02*
X0036500Y0078997D01*
X0054000Y0076000D02*
X0054000Y0073000D01*
X0049500Y0073000D01*
X0049500Y0076000D01*
X0054000Y0076000D01*
X0054000Y0073999D02*
X0049500Y0073999D01*
X0049500Y0074998D02*
X0054000Y0074998D01*
X0054000Y0075997D02*
X0049500Y0075997D01*
X0064000Y0076000D02*
X0064000Y0073000D01*
X0059500Y0073000D01*
X0059500Y0076000D01*
X0064000Y0076000D01*
X0064000Y0073999D02*
X0059500Y0073999D01*
X0059500Y0074998D02*
X0064000Y0074998D01*
X0064000Y0075997D02*
X0059500Y0075997D01*
X0041000Y0072000D02*
X0041000Y0069000D01*
X0036500Y0069000D01*
X0036500Y0072000D01*
X0041000Y0072000D01*
X0041000Y0069999D02*
X0036500Y0069999D01*
X0036500Y0070998D02*
X0041000Y0070998D01*
X0041000Y0071997D02*
X0036500Y0071997D01*
X0054000Y0069000D02*
X0054000Y0066000D01*
X0049500Y0066000D01*
X0049500Y0069000D01*
X0054000Y0069000D01*
X0054000Y0066999D02*
X0049500Y0066999D01*
X0049500Y0067998D02*
X0054000Y0067998D01*
X0054000Y0068997D02*
X0049500Y0068997D01*
X0064000Y0069000D02*
X0064000Y0066000D01*
X0059500Y0066000D01*
X0059500Y0069000D01*
X0064000Y0069000D01*
X0064000Y0066999D02*
X0059500Y0066999D01*
X0059500Y0067998D02*
X0064000Y0067998D01*
X0064000Y0068997D02*
X0059500Y0068997D01*
X0013000Y0070000D02*
X0013000Y0067000D01*
X0008500Y0067000D01*
X0008500Y0070000D01*
X0013000Y0070000D01*
X0013000Y0067999D02*
X0008500Y0067999D01*
X0008500Y0068998D02*
X0013000Y0068998D01*
X0013000Y0069997D02*
X0008500Y0069997D01*
X0013000Y0074000D02*
X0013000Y0077000D01*
X0013000Y0074000D02*
X0008500Y0074000D01*
X0008500Y0077000D01*
X0013000Y0077000D01*
X0013000Y0074999D02*
X0008500Y0074999D01*
X0008500Y0075998D02*
X0013000Y0075998D01*
X0013000Y0076997D02*
X0008500Y0076997D01*
X0122778Y0034844D02*
X0125778Y0034844D01*
X0122778Y0034844D02*
X0122778Y0039344D01*
X0125778Y0039344D01*
X0125778Y0034844D01*
X0125778Y0035843D02*
X0122778Y0035843D01*
X0122778Y0036842D02*
X0125778Y0036842D01*
X0125778Y0037841D02*
X0122778Y0037841D01*
X0122778Y0038840D02*
X0125778Y0038840D01*
X0129778Y0034844D02*
X0132778Y0034844D01*
X0129778Y0034844D02*
X0129778Y0039344D01*
X0132778Y0039344D01*
X0132778Y0034844D01*
X0132778Y0035843D02*
X0129778Y0035843D01*
X0129778Y0036842D02*
X0132778Y0036842D01*
X0132778Y0037841D02*
X0129778Y0037841D01*
X0129778Y0038840D02*
X0132778Y0038840D01*
X0239750Y0061250D02*
X0242750Y0061250D01*
X0242750Y0056750D01*
X0239750Y0056750D01*
X0239750Y0061250D01*
X0239750Y0057749D02*
X0242750Y0057749D01*
X0242750Y0058748D02*
X0239750Y0058748D01*
X0239750Y0059747D02*
X0242750Y0059747D01*
X0242750Y0060746D02*
X0239750Y0060746D01*
X0246750Y0061250D02*
X0249750Y0061250D01*
X0249750Y0056750D01*
X0246750Y0056750D01*
X0246750Y0061250D01*
X0246750Y0057749D02*
X0249750Y0057749D01*
X0249750Y0058748D02*
X0246750Y0058748D01*
X0246750Y0059747D02*
X0249750Y0059747D01*
X0249750Y0060746D02*
X0246750Y0060746D01*
X0214000Y0166000D02*
X0214000Y0169000D01*
X0214000Y0166000D02*
X0209500Y0166000D01*
X0209500Y0169000D01*
X0214000Y0169000D01*
X0214000Y0166999D02*
X0209500Y0166999D01*
X0209500Y0167998D02*
X0214000Y0167998D01*
X0214000Y0168997D02*
X0209500Y0168997D01*
X0214000Y0173000D02*
X0214000Y0176000D01*
X0214000Y0173000D02*
X0209500Y0173000D01*
X0209500Y0176000D01*
X0214000Y0176000D01*
X0214000Y0173999D02*
X0209500Y0173999D01*
X0209500Y0174998D02*
X0214000Y0174998D01*
X0214000Y0175997D02*
X0209500Y0175997D01*
D14*
X0288250Y0112000D03*
X0296250Y0108500D03*
X0288250Y0105000D03*
X0301250Y0075500D03*
X0309250Y0072000D03*
X0301250Y0068500D03*
D15*
X0329604Y0075311D03*
X0329604Y0090567D03*
X0377636Y0090567D03*
X0377636Y0075311D03*
X0321730Y0051689D03*
X0329604Y0028067D03*
X0377636Y0028067D03*
X0321730Y0114189D03*
X0329604Y0137811D03*
X0377636Y0137811D03*
D16*
X0310978Y0095437D03*
X0294900Y0095437D03*
D17*
X0141750Y0067000D03*
X0240250Y0032937D03*
X0126376Y0019228D03*
X0229156Y0164937D03*
D18*
X0239156Y0164937D03*
X0039550Y0103900D03*
X0013950Y0103900D03*
X0013950Y0086100D03*
X0039550Y0086100D03*
X0026305Y0144649D03*
X0028041Y0154497D03*
X0029778Y0164345D03*
X0250250Y0032937D03*
X0260250Y0032937D03*
X0270250Y0032937D03*
X0280250Y0032937D03*
X0290250Y0032937D03*
X0116376Y0019228D03*
X0106376Y0019228D03*
X0096376Y0019228D03*
D19*
G36*
X0027228Y0171192D02*
X0028513Y0178479D01*
X0035800Y0177194D01*
X0034515Y0169907D01*
X0027228Y0171192D01*
G37*
D20*
X0045450Y0137500D03*
X0045450Y0132500D03*
X0045450Y0127500D03*
X0045450Y0122500D03*
X0066050Y0122500D03*
X0066050Y0127500D03*
X0066050Y0132500D03*
X0066050Y0137500D03*
D21*
X0072050Y0125800D02*
X0077450Y0125800D01*
X0072050Y0125800D02*
X0072050Y0128200D01*
X0077450Y0128200D01*
X0077450Y0125800D01*
X0077450Y0126399D02*
X0072050Y0126399D01*
X0072050Y0126998D02*
X0077450Y0126998D01*
X0077450Y0127597D02*
X0072050Y0127597D01*
X0072050Y0128196D02*
X0077450Y0128196D01*
X0077450Y0113800D02*
X0072050Y0113800D01*
X0072050Y0116200D01*
X0077450Y0116200D01*
X0077450Y0113800D01*
X0077450Y0114399D02*
X0072050Y0114399D01*
X0072050Y0114998D02*
X0077450Y0114998D01*
X0077450Y0115597D02*
X0072050Y0115597D01*
X0072050Y0116196D02*
X0077450Y0116196D01*
D22*
X0059750Y0154000D02*
X0059750Y0160000D01*
X0112750Y0160000D02*
X0112750Y0154000D01*
D23*
X0086250Y0157000D03*
D24*
X0200915Y0107748D03*
X0200915Y0104598D03*
X0200915Y0101449D03*
X0200915Y0098299D03*
X0200915Y0095150D03*
X0200915Y0092000D03*
X0200915Y0088850D03*
X0200915Y0085701D03*
X0200915Y0082551D03*
X0200915Y0079402D03*
X0200915Y0076252D03*
X0246585Y0076252D03*
X0246585Y0079402D03*
X0246585Y0082551D03*
X0246585Y0085701D03*
X0246585Y0088850D03*
X0246585Y0092000D03*
X0246585Y0095150D03*
X0246585Y0098299D03*
X0246585Y0101449D03*
X0246585Y0104598D03*
X0246585Y0107748D03*
D25*
X0239498Y0114835D03*
X0236348Y0114835D03*
X0233199Y0114835D03*
X0230049Y0114835D03*
X0226900Y0114835D03*
X0223750Y0114835D03*
X0220600Y0114835D03*
X0217451Y0114835D03*
X0214301Y0114835D03*
X0211152Y0114835D03*
X0208002Y0114835D03*
X0208002Y0069165D03*
X0211152Y0069165D03*
X0214301Y0069165D03*
X0217451Y0069165D03*
X0220600Y0069165D03*
X0223750Y0069165D03*
X0226900Y0069165D03*
X0230049Y0069165D03*
X0233199Y0069165D03*
X0236348Y0069165D03*
X0239498Y0069165D03*
D26*
X0262437Y0069313D02*
X0262437Y0066687D01*
X0262437Y0069313D02*
X0265063Y0069313D01*
X0265063Y0066687D01*
X0262437Y0066687D01*
X0262437Y0067561D02*
X0265063Y0067561D01*
X0265063Y0068435D02*
X0262437Y0068435D01*
X0262437Y0069309D02*
X0265063Y0069309D01*
X0270437Y0069313D02*
X0270437Y0066687D01*
X0270437Y0069313D02*
X0273063Y0069313D01*
X0273063Y0066687D01*
X0270437Y0066687D01*
X0270437Y0067561D02*
X0273063Y0067561D01*
X0273063Y0068435D02*
X0270437Y0068435D01*
X0270437Y0069309D02*
X0273063Y0069309D01*
X0270437Y0072687D02*
X0270437Y0075313D01*
X0273063Y0075313D01*
X0273063Y0072687D01*
X0270437Y0072687D01*
X0270437Y0073561D02*
X0273063Y0073561D01*
X0273063Y0074435D02*
X0270437Y0074435D01*
X0270437Y0075309D02*
X0273063Y0075309D01*
X0262437Y0075313D02*
X0262437Y0072687D01*
X0262437Y0075313D02*
X0265063Y0075313D01*
X0265063Y0072687D01*
X0262437Y0072687D01*
X0262437Y0073561D02*
X0265063Y0073561D01*
X0265063Y0074435D02*
X0262437Y0074435D01*
X0262437Y0075309D02*
X0265063Y0075309D01*
X0213063Y0047687D02*
X0210437Y0047687D01*
X0210437Y0050313D01*
X0213063Y0050313D01*
X0213063Y0047687D01*
X0213063Y0048561D02*
X0210437Y0048561D01*
X0210437Y0049435D02*
X0213063Y0049435D01*
X0213063Y0050309D02*
X0210437Y0050309D01*
X0207063Y0047687D02*
X0204437Y0047687D01*
X0204437Y0050313D01*
X0207063Y0050313D01*
X0207063Y0047687D01*
X0207063Y0048561D02*
X0204437Y0048561D01*
X0204437Y0049435D02*
X0207063Y0049435D01*
X0207063Y0050309D02*
X0204437Y0050309D01*
X0219437Y0047313D02*
X0222063Y0047313D01*
X0222063Y0044687D01*
X0219437Y0044687D01*
X0219437Y0047313D01*
X0219437Y0045561D02*
X0222063Y0045561D01*
X0222063Y0046435D02*
X0219437Y0046435D01*
X0219437Y0047309D02*
X0222063Y0047309D01*
X0225437Y0047313D02*
X0228063Y0047313D01*
X0228063Y0044687D01*
X0225437Y0044687D01*
X0225437Y0047313D01*
X0225437Y0045561D02*
X0228063Y0045561D01*
X0228063Y0046435D02*
X0225437Y0046435D01*
X0225437Y0047309D02*
X0228063Y0047309D01*
X0173063Y0097313D02*
X0170437Y0097313D01*
X0173063Y0097313D02*
X0173063Y0094687D01*
X0170437Y0094687D01*
X0170437Y0097313D01*
X0170437Y0095561D02*
X0173063Y0095561D01*
X0173063Y0096435D02*
X0170437Y0096435D01*
X0170437Y0097309D02*
X0173063Y0097309D01*
X0167063Y0097313D02*
X0164437Y0097313D01*
X0167063Y0097313D02*
X0167063Y0094687D01*
X0164437Y0094687D01*
X0164437Y0097313D01*
X0164437Y0095561D02*
X0167063Y0095561D01*
X0167063Y0096435D02*
X0164437Y0096435D01*
X0164437Y0097309D02*
X0167063Y0097309D01*
X0212063Y0132687D02*
X0212063Y0135313D01*
X0212063Y0132687D02*
X0209437Y0132687D01*
X0209437Y0135313D01*
X0212063Y0135313D01*
X0212063Y0133561D02*
X0209437Y0133561D01*
X0209437Y0134435D02*
X0212063Y0134435D01*
X0212063Y0135309D02*
X0209437Y0135309D01*
X0212063Y0138687D02*
X0212063Y0141313D01*
X0212063Y0138687D02*
X0209437Y0138687D01*
X0209437Y0141313D01*
X0212063Y0141313D01*
X0212063Y0139561D02*
X0209437Y0139561D01*
X0209437Y0140435D02*
X0212063Y0140435D01*
X0212063Y0141309D02*
X0209437Y0141309D01*
X0201063Y0154313D02*
X0198437Y0154313D01*
X0201063Y0154313D02*
X0201063Y0151687D01*
X0198437Y0151687D01*
X0198437Y0154313D01*
X0198437Y0152561D02*
X0201063Y0152561D01*
X0201063Y0153435D02*
X0198437Y0153435D01*
X0198437Y0154309D02*
X0201063Y0154309D01*
X0195063Y0154313D02*
X0192437Y0154313D01*
X0195063Y0154313D02*
X0195063Y0151687D01*
X0192437Y0151687D01*
X0192437Y0154313D01*
X0192437Y0152561D02*
X0195063Y0152561D01*
X0195063Y0153435D02*
X0192437Y0153435D01*
X0192437Y0154309D02*
X0195063Y0154309D01*
D27*
X0208254Y0153000D03*
X0221246Y0153000D03*
D28*
X0220250Y0032000D03*
X0210644Y0032000D03*
X0201250Y0032000D03*
D29*
X0309250Y0028000D02*
X0309250Y0044461D01*
X0316478Y0051689D01*
X0321730Y0051689D01*
X0340750Y0031000D02*
X0337750Y0028000D01*
X0337750Y0028067D01*
X0329604Y0028067D01*
X0329537Y0028000D02*
X0309250Y0028000D01*
X0340750Y0031000D02*
X0340750Y0087000D01*
X0337183Y0090567D01*
X0329604Y0090567D01*
X0315848Y0090567D01*
X0310978Y0095437D01*
X0310978Y0099228D01*
X0321730Y0109980D01*
X0321730Y0114189D01*
X0323541Y0116000D01*
X0336750Y0116000D01*
X0341750Y0121000D01*
X0341750Y0151000D01*
X0339750Y0153000D01*
X0251750Y0153000D01*
X0251750Y0171000D01*
X0248250Y0174500D01*
X0211750Y0174500D01*
X0191250Y0174500D01*
X0187750Y0171000D01*
X0187750Y0137000D01*
X0186750Y0136000D01*
X0180750Y0136000D01*
X0146750Y0136000D01*
X0142750Y0136000D01*
X0141750Y0137000D01*
X0141750Y0156000D01*
X0141758Y0172531D02*
X0141758Y0176531D01*
X0167742Y0176531D02*
X0167742Y0172531D01*
X0241750Y0153000D02*
X0251750Y0153000D01*
X0377636Y0090567D02*
X0378069Y0091000D01*
X0453750Y0091000D01*
X0458750Y0086000D01*
X0458750Y0042000D01*
X0463530Y0037220D01*
X0476766Y0037220D01*
X0487081Y0037220D02*
X0487081Y0017331D01*
X0483750Y0014000D01*
X0412750Y0014000D01*
X0398750Y0028000D01*
X0377703Y0028000D01*
X0377636Y0028067D01*
D30*
X0262884Y0059000D03*
X0254616Y0059000D03*
X0139884Y0121000D03*
X0131616Y0121000D03*
X0072750Y0031134D03*
X0072750Y0022866D03*
D31*
X0022750Y0065000D03*
X0022750Y0077000D03*
D32*
X0131750Y0077000D03*
X0141750Y0077000D03*
X0141750Y0087000D03*
X0131750Y0087000D03*
X0131750Y0067000D03*
D33*
X0039550Y0037900D03*
X0029750Y0037900D03*
X0029750Y0025300D03*
X0039550Y0025300D03*
D34*
X0058150Y0027300D03*
X0010750Y0027300D03*
D35*
X0475388Y0025134D03*
X0497750Y0025134D03*
X0497750Y0076866D03*
X0475388Y0076866D03*
D36*
X0476766Y0064780D03*
X0487081Y0064780D03*
X0487081Y0054937D03*
X0476766Y0054937D03*
X0476766Y0047063D03*
X0487081Y0047063D03*
X0487081Y0037220D03*
X0476766Y0037220D03*
D37*
X0329604Y0028067D02*
X0329537Y0028000D01*
X0309250Y0021500D02*
X0309250Y0044461D01*
X0308711Y0045000D01*
X0280250Y0032937D02*
X0278813Y0032937D01*
X0273750Y0038000D01*
X0273750Y0047000D01*
X0268750Y0052000D01*
X0237750Y0052000D01*
X0236348Y0053402D01*
X0236348Y0069165D01*
X0233199Y0069165D02*
X0233199Y0050551D01*
X0234750Y0049000D01*
X0267750Y0049000D01*
X0270750Y0046000D01*
X0270750Y0033437D01*
X0270250Y0032937D01*
X0250250Y0032937D02*
X0250250Y0020728D01*
X0248750Y0019228D01*
X0306978Y0019228D01*
X0309250Y0021500D01*
X0248750Y0019228D02*
X0131750Y0019228D01*
X0131278Y0019701D01*
X0131278Y0037094D01*
X0124278Y0037094D02*
X0117844Y0037094D01*
X0116750Y0036000D01*
X0116750Y0019602D01*
X0116376Y0019228D01*
X0126376Y0019228D02*
X0131750Y0019228D01*
X0156750Y0051000D02*
X0171750Y0036000D01*
X0188750Y0036000D01*
X0199750Y0025000D01*
X0227750Y0025000D01*
X0230750Y0028000D01*
X0230750Y0060000D01*
X0230049Y0060701D01*
X0230049Y0069165D01*
X0226900Y0069165D02*
X0226900Y0056150D01*
X0226750Y0056000D01*
X0222750Y0059000D02*
X0222750Y0046000D01*
X0220750Y0046000D01*
X0222750Y0046000D02*
X0222750Y0034500D01*
X0220250Y0032000D01*
X0211750Y0047000D02*
X0201250Y0036500D01*
X0201250Y0032000D01*
X0211750Y0047000D02*
X0211750Y0049000D01*
X0211750Y0051000D01*
X0220600Y0059850D01*
X0220600Y0069165D01*
X0223750Y0069165D02*
X0223750Y0060000D01*
X0222750Y0059000D01*
X0214301Y0064551D02*
X0214301Y0069165D01*
X0211152Y0069165D02*
X0211152Y0065402D01*
X0205750Y0060000D01*
X0126750Y0060000D01*
X0123750Y0063000D01*
X0123750Y0081000D01*
X0124750Y0082000D01*
X0131750Y0077000D02*
X0136750Y0072000D01*
X0141750Y0077000D02*
X0142750Y0076000D01*
X0187750Y0076000D01*
X0194301Y0082551D01*
X0200915Y0082551D01*
X0200915Y0079402D02*
X0195152Y0079402D01*
X0187750Y0072000D01*
X0188750Y0067000D02*
X0198002Y0076252D01*
X0200915Y0076252D01*
X0200915Y0085701D02*
X0159049Y0085701D01*
X0139250Y0105500D01*
X0139250Y0111000D01*
X0132250Y0111000D02*
X0132250Y0120366D01*
X0131616Y0121000D01*
X0153750Y0114000D02*
X0161250Y0114000D01*
X0168250Y0114000D02*
X0176750Y0114000D01*
X0189301Y0101449D01*
X0200915Y0101449D01*
X0200915Y0098299D02*
X0188451Y0098299D01*
X0182750Y0104000D01*
X0172250Y0104000D01*
X0165250Y0104000D02*
X0164750Y0104500D01*
X0164750Y0123000D01*
X0181750Y0114000D02*
X0181750Y0135000D01*
X0210750Y0134000D02*
X0210750Y0123000D01*
X0214301Y0119449D01*
X0214301Y0114835D01*
X0217451Y0114835D02*
X0217451Y0167201D01*
X0217750Y0167500D01*
X0226593Y0167500D01*
X0229156Y0164937D01*
X0217750Y0167500D02*
X0211750Y0167500D01*
X0208254Y0153000D02*
X0203750Y0153000D01*
X0203750Y0121000D01*
X0204250Y0120500D01*
X0208002Y0116748D01*
X0208002Y0114835D01*
X0191152Y0104598D02*
X0181750Y0114000D01*
X0191152Y0104598D02*
X0200915Y0104598D01*
X0186750Y0092000D02*
X0182750Y0096000D01*
X0171750Y0096000D01*
X0186750Y0092000D02*
X0200915Y0092000D01*
X0200766Y0089000D02*
X0200915Y0088850D01*
X0200766Y0089000D02*
X0163750Y0089000D01*
X0146750Y0106000D01*
X0146750Y0136000D01*
X0142750Y0136000D02*
X0123750Y0136000D01*
X0118750Y0131000D01*
X0118750Y0055000D01*
X0204750Y0055000D01*
X0214301Y0064551D01*
X0239498Y0060752D02*
X0241250Y0059000D01*
X0239498Y0060752D02*
X0239498Y0069165D01*
X0246585Y0079402D02*
X0258348Y0079402D01*
X0263750Y0074000D01*
X0246585Y0082551D02*
X0281199Y0082551D01*
X0286750Y0077000D01*
X0293750Y0077000D02*
X0295250Y0075500D01*
X0301250Y0075500D01*
X0293750Y0077000D02*
X0293750Y0067000D01*
X0308789Y0071539D02*
X0308789Y0061000D01*
X0309250Y0060539D01*
X0308789Y0071539D02*
X0309250Y0072000D01*
X0326293Y0072000D01*
X0329604Y0075311D01*
X0294900Y0095437D02*
X0294900Y0107150D01*
X0296250Y0108500D01*
X0298750Y0111000D01*
X0306750Y0111000D01*
X0329604Y0133854D01*
X0329604Y0137811D01*
X0288250Y0112000D02*
X0287250Y0111000D01*
X0280750Y0111000D01*
X0280750Y0101000D01*
X0273750Y0101000D02*
X0267900Y0095150D01*
X0246585Y0095150D01*
X0246585Y0104598D02*
X0255348Y0104598D01*
X0256750Y0106000D01*
X0256750Y0118000D01*
X0255750Y0119000D01*
X0239498Y0114835D02*
X0239498Y0150748D01*
X0203750Y0153000D02*
X0199750Y0153000D01*
X0112750Y0157000D02*
X0111750Y0156000D01*
X0111750Y0141000D01*
X0103250Y0132500D01*
X0066050Y0132500D01*
X0060250Y0132500D01*
X0056750Y0136000D01*
X0056750Y0154000D01*
X0059750Y0157000D01*
X0032750Y0149788D02*
X0032750Y0139000D01*
X0034250Y0137500D01*
X0045450Y0137500D01*
X0045450Y0132500D02*
X0043950Y0131000D01*
X0052750Y0131000D01*
X0058750Y0125000D01*
X0058750Y0092000D01*
X0069750Y0081000D01*
X0069750Y0064000D01*
X0065250Y0064000D01*
X0061750Y0067500D01*
X0069750Y0064000D02*
X0081750Y0064000D01*
X0061750Y0074500D02*
X0051750Y0074500D01*
X0051750Y0077000D01*
X0051250Y0077500D01*
X0038750Y0077500D01*
X0033250Y0077500D01*
X0030750Y0075000D01*
X0030750Y0067000D01*
X0028750Y0065000D01*
X0022750Y0065000D01*
X0038750Y0070500D02*
X0038750Y0052000D01*
X0046750Y0044000D01*
X0066750Y0044000D01*
X0072750Y0038000D01*
X0072750Y0031134D01*
X0056750Y0051000D02*
X0051750Y0056000D01*
X0051750Y0060000D01*
X0051750Y0067500D01*
X0051750Y0077000D02*
X0051750Y0113000D01*
X0048750Y0116000D01*
X0039750Y0116000D01*
X0038750Y0117000D01*
X0038750Y0121000D01*
X0040250Y0122500D01*
X0045450Y0122500D01*
X0066050Y0122500D02*
X0067250Y0122500D01*
X0074750Y0115000D01*
X0074750Y0127000D02*
X0074250Y0127500D01*
X0066050Y0127500D01*
X0043950Y0131000D02*
X0031750Y0131000D01*
X0026305Y0136445D01*
X0026305Y0144649D01*
X0032750Y0149788D02*
X0028041Y0154497D01*
X0141750Y0087000D02*
X0141750Y0083000D01*
X0141750Y0067000D02*
X0188750Y0067000D01*
X0156750Y0051000D02*
X0056750Y0051000D01*
X0022750Y0077000D02*
X0022750Y0086100D01*
X0039550Y0086100D01*
X0022750Y0086100D02*
X0013950Y0086100D01*
X0248250Y0059000D02*
X0254616Y0059000D01*
X0253616Y0058000D01*
D38*
X0226750Y0056000D03*
X0118750Y0055000D03*
X0081750Y0064000D03*
X0051750Y0060000D03*
X0153750Y0114000D03*
X0164750Y0123000D03*
X0255750Y0119000D03*
D39*
X0181750Y0135000D02*
X0180750Y0136000D01*
X0221246Y0153000D02*
X0237246Y0153000D01*
X0239498Y0150748D01*
X0241750Y0153000D01*
X0022750Y0077000D02*
X0021250Y0075500D01*
X0010750Y0075500D01*
X0010750Y0068500D02*
X0014250Y0065000D01*
X0022750Y0065000D01*
X0022750Y0050000D01*
X0024750Y0048000D01*
X0034750Y0048000D01*
X0039550Y0043200D01*
X0039550Y0037900D01*
X0263750Y0074000D02*
X0271750Y0074000D01*
X0278750Y0074000D01*
X0281750Y0071000D01*
X0281750Y0056000D01*
X0292750Y0045000D01*
X0308711Y0045000D01*
D40*
X0187750Y0072000D02*
X0136750Y0072000D01*
X0140750Y0082000D02*
X0124750Y0082000D01*
X0140750Y0082000D02*
X0141750Y0083000D01*
D41*
X0141750Y0156000D03*
M02*
